<svg width="198" height="58" viewBox="0 0 198 58" fill="none" xmlns="http://www.w3.org/2000/svg">
<path d="M7.29711 55.85C7.06538 55.8851 6.70093 55.9048 6.20376 55.909C5.77329 55.5713 5.35651 55.0892 4.9534 54.4629C4.56996 53.8099 4.23919 53.1133 3.96108 52.3732C3.70262 51.6064 3.51545 50.8406 3.39955 50.0759C3.3033 49.2845 3.33698 48.5682 3.50056 47.9271C3.49705 47.9039 3.55918 47.6101 3.68695 47.0455C3.8379 46.4774 4.02571 45.7615 4.25038 44.8977C4.47153 44.0108 4.72674 43.0358 5.016 41.9726C5.30174 40.8863 5.591 39.8231 5.88378 38.7831C6.17655 37.7431 6.4602 36.7994 6.73472 35.9518C7.02891 35.0775 7.29326 34.3974 7.52777 33.9115C7.68716 33.5554 7.82512 33.2145 7.94168 32.8887C8.0814 32.5593 8.21305 32.2549 8.33663 31.9754C8.52831 31.5197 8.70209 31.1022 8.85796 30.723C9.03349 30.3171 9.22764 29.9558 9.44039 29.6391C9.67281 29.2957 9.93542 28.9952 10.2282 28.7374C10.5175 28.4565 10.8816 28.1998 11.3205 27.9674C11.6161 28.0411 11.8788 28.1317 12.1084 28.2391C12.3345 28.3234 12.5427 28.4459 12.733 28.6067L12.911 29.0775C12.982 29.2327 13.0691 29.338 13.1723 29.3935C13.2952 29.4223 13.3914 29.4314 13.4609 29.4209C13.7727 29.4447 14.0399 29.4872 14.2625 29.5483C14.5047 29.5827 14.7551 29.5921 15.0135 29.5767C15.1273 29.7017 15.2294 29.8284 15.32 29.9569C15.4338 30.0819 15.5458 30.1953 15.6561 30.2971C16.2214 30.8989 16.7021 31.4898 17.0981 32.0698C17.4942 32.6498 17.5978 33.3334 17.409 34.1206L17.5017 34.4977C17.6421 34.6423 17.7229 34.7842 17.744 34.9232C17.765 35.0622 17.7717 35.2627 17.764 35.5246C17.7689 35.7135 17.7774 35.9256 17.7893 36.1608C17.8209 36.3694 17.8908 36.5959 17.999 36.8402L18.2844 37.0814C18.6833 37.2106 19.0565 37.2489 19.4041 37.1962C19.8676 37.1259 20.2689 36.9584 20.608 36.6937C20.9472 36.4289 21.2632 36.1677 21.556 35.91C21.7828 35.686 21.9917 35.5002 22.1827 35.3527C22.3968 35.2018 22.6047 35.0873 22.8062 35.0093C23.2226 34.4721 23.6014 33.9999 23.9427 33.5926C24.3036 33.1586 24.6761 32.7228 25.0602 32.2853C25.7926 31.4869 26.4947 30.6456 27.1667 29.7615C27.8352 28.8542 28.3133 27.7861 28.6012 26.5572C28.8315 26.3564 29.1089 26.2314 29.4333 26.1822C29.7577 26.133 30.0926 26.1534 30.4381 26.2432C30.7801 26.3099 31.1256 26.3998 31.4746 26.5128C31.5512 26.5486 31.6144 26.5746 31.6642 26.5908C31.7373 26.6034 31.812 26.6276 31.8886 26.6634C31.9272 26.9183 32.0666 27.1343 32.3068 27.3112C32.4367 27.3863 32.5266 27.432 32.5764 27.4481C32.6263 27.4643 32.6762 27.4804 32.726 27.4966C32.929 27.5843 33.0954 27.6658 33.2253 27.7409C33.3784 27.8125 33.502 27.9242 33.5961 28.0759C33.8995 28.6699 34.3208 29.1039 34.8601 29.3777C34.8524 29.6396 34.9026 29.8928 35.0108 30.1371C35.1154 30.3583 35.2317 30.5778 35.3595 30.7954C35.4199 30.8811 35.4687 30.9685 35.5059 31.0577C35.5396 31.1237 35.5884 31.2111 35.6523 31.32L34.8771 31.3664L35.0973 32.1153C35.2265 32.4987 35.2585 32.9442 35.1932 33.4519C35.1511 33.9561 35.07 34.3595 34.9499 34.6622C35.1016 35.3504 35.2091 35.903 35.2723 36.3201C35.332 36.714 35.365 37.0883 35.3714 37.4429C35.3777 37.7976 35.3475 38.1459 35.2808 38.4878C35.2338 38.8031 35.1555 39.1469 35.046 39.519C35.4056 41.2661 35.4412 42.9083 35.1526 44.4454C34.8873 45.9791 34.5615 47.427 34.1754 48.7893C34.1304 48.9621 34.0837 49.1233 34.0353 49.2728C33.9868 49.4224 33.95 49.5702 33.9247 49.7163C33.6803 49.8244 33.4609 49.9407 33.2664 50.065C33.0719 50.1893 32.8907 50.3234 32.7229 50.4674C32.4926 50.6682 32.2588 50.8459 32.0214 51.0004C31.7806 51.1317 31.5211 51.2184 31.243 51.2606C30.0078 50.6181 29.216 49.304 28.8676 47.3181C28.5424 45.3288 28.5865 42.7264 29 39.5109C29.1446 39.3705 29.1878 39.1861 29.1295 38.9579L29.0715 38.5756L28.7187 38.5935C28.6028 38.611 28.5003 38.6384 28.4111 38.6757C28.3219 38.7129 28.2682 38.8277 28.25 39.0201C27.5892 39.6655 26.8625 40.3445 26.0697 41.0573C25.2966 41.7434 24.4835 42.4 23.6303 43.0272C22.7736 43.6311 21.8833 44.169 20.9592 44.641C20.0547 45.0862 19.1507 45.3773 18.2469 45.5143C15.9296 45.8655 14.001 44.9489 12.4609 42.7644L12.0532 42.1861L11.7899 42.7949C11.738 42.9213 11.6456 43.1724 11.5129 43.5481C11.3999 43.8971 11.2841 44.3058 11.1654 44.7742C11.0699 45.239 10.9878 45.7137 10.919 46.1983C10.8734 46.6793 10.9001 47.0901 10.9991 47.4306C10.7597 47.7277 10.5255 48.0595 10.2966 48.4261C10.0909 48.7891 9.96168 49.188 9.90904 49.6226C9.88025 49.7455 9.88623 49.8632 9.92696 49.9755C9.96418 50.0647 10.0147 50.1637 10.0787 50.2725C10.0801 50.4383 10.0513 50.5611 9.9923 50.6412C9.93332 50.7213 9.86275 50.8031 9.78059 50.8866C9.68229 51.0201 9.58574 51.1651 9.49095 51.3217C9.39265 51.4551 9.30944 51.6099 9.24134 51.7862C9.21606 51.9323 9.20413 52.0882 9.20555 52.2539C9.20345 52.3964 9.19959 52.5274 9.19398 52.6468C9.23261 52.9017 9.2242 53.0807 9.16873 53.184C9.01075 53.7057 8.86366 54.1428 8.72745 54.4954C8.6109 54.8212 8.48381 55.0775 8.34618 55.2643C8.20856 55.4511 8.05057 55.5817 7.87221 55.6562C7.72054 55.7503 7.52884 55.8149 7.29711 55.85ZM56.7223 37.1937C56.7413 37.4753 56.8048 37.7383 56.913 37.9827C57.0212 38.227 57.1409 38.4696 57.2722 38.7105C57.4232 38.9247 57.5644 39.1522 57.6957 39.393C57.827 39.6339 57.9352 39.8782 58.0201 40.1261C58.1157 40.4435 58.1701 40.8027 58.1835 41.2037C58.1933 41.5814 58.1684 41.9645 58.1087 42.3528C58.0455 42.718 57.9441 43.0652 57.8044 43.3946C57.6611 43.7007 57.4726 43.9427 57.2388 44.1203C56.9776 44.5866 56.6328 44.9707 56.2045 45.2727C55.7761 45.5747 55.3896 45.9177 55.0448 46.3019C54.8145 46.5027 54.5424 46.6625 54.2285 46.7812C53.9378 46.8963 53.6355 47.0133 53.3216 47.132C53.0878 47.3096 52.8094 47.5059 52.4864 47.7208C52.1599 47.9125 51.8217 48.106 51.4721 48.3012C51.1189 48.4733 50.7621 48.6222 50.4019 48.7479C50.0382 48.8504 49.7155 48.9112 49.4339 48.9302C48.7774 49.2904 48.1183 49.5563 47.4569 49.7276C46.8221 49.9187 46.0504 49.9882 45.1417 49.9363C44.325 50.1786 43.5435 50.2615 42.797 50.185C42.0737 50.105 41.4042 49.9101 40.7883 49.6005C40.1921 49.2642 39.6433 48.8495 39.1419 48.3566C38.6602 47.837 38.2444 47.2837 37.8947 46.6966C37.5091 45.4039 37.3746 44.2035 37.4911 43.0954C37.6041 41.9641 37.847 40.908 38.2198 39.9269C38.6123 38.9193 39.0866 37.9821 39.6427 37.1156C40.1953 36.2258 40.7283 35.3628 41.2416 34.5264C41.3876 34.5517 41.4919 34.5359 41.5544 34.479C41.6365 34.3955 41.7054 34.3021 41.7608 34.1988C41.8128 34.0724 41.8665 33.9576 41.922 33.8544C42.0006 33.7476 42.0961 33.6739 42.2085 33.6332C42.318 33.261 42.5111 32.971 42.7877 32.7631C43.0841 32.5285 43.3003 32.235 43.4365 31.8825C43.6381 31.8045 43.8013 31.7087 43.9263 31.5949C44.0513 31.4812 44.163 31.3576 44.2613 31.2241C44.3827 31.0872 44.506 30.9618 44.631 30.8481C44.7524 30.7111 44.9023 30.6055 45.0807 30.531L45.0228 30.1487C45.4118 29.9001 45.6814 29.6458 45.8317 29.386C46.0016 29.0995 46.1992 28.7614 46.4246 28.3716C46.6297 28.3169 46.7901 28.2807 46.906 28.2631C47.045 28.242 47.2385 28.189 47.4864 28.104C47.6226 27.7515 47.7479 27.4836 47.8624 27.3003C48 27.1135 48.2054 26.9046 48.4785 26.6736C48.7777 26.7705 49.093 26.8175 49.4244 26.8147C49.779 26.8083 50.1031 26.9133 50.3966 27.1296C50.4549 27.3578 50.5526 27.5326 50.6895 27.6541C50.8229 27.7524 50.9679 27.849 51.1245 27.9438C51.2776 28.0154 51.4209 28.1003 51.5543 28.1986C51.7109 28.2934 51.8282 28.4416 51.9061 28.6431C52.0023 28.6523 52.0585 28.6319 52.0746 28.582C52.114 28.5287 52.1817 28.5065 52.2779 28.5157C52.3966 28.8295 52.5111 29.0374 52.6213 29.1392C52.7281 29.2178 52.8506 29.4008 52.989 29.688C52.9082 29.9373 52.8524 30.1946 52.8215 30.4601C52.8103 30.6988 52.6976 30.8937 52.4835 31.0447C52.4849 31.2104 52.5453 31.2961 52.6646 31.3017C52.7805 31.2841 52.8588 31.3315 52.8995 31.4439C52.9543 31.6489 52.9424 31.8048 52.8637 31.9115C53.5569 32.731 54.2008 33.6171 54.7957 34.57C55.387 35.4997 56.0292 36.3743 56.7223 37.1937ZM52.8779 41.1544C52.9319 40.8855 53.0162 40.6593 53.1307 40.4761C53.2683 40.2893 53.3241 40.0319 53.2981 39.704C53.1541 39.5361 53.0635 39.4076 53.0263 39.3185C52.9856 39.2061 52.9477 39.0341 52.9125 38.8023C52.2939 38.1613 51.7377 37.4633 51.244 36.7084C50.7468 35.9304 50.212 35.2173 49.6397 34.5692C49.6074 34.6689 49.5403 34.7739 49.4385 34.8842C49.3367 34.9944 49.2057 34.9906 49.0456 34.8726C49.0274 35.065 48.9673 35.2163 48.8655 35.3266C48.7602 35.4137 48.638 35.4677 48.499 35.4888C48.3564 35.4867 48.2005 35.4748 48.0313 35.453C47.8817 35.4046 47.742 35.3428 47.6121 35.2677C47.0208 35.9025 46.4278 36.5257 45.8331 37.1374C45.2384 37.749 44.7254 38.4313 44.2943 39.1841C44.2086 39.2445 44.1542 39.2764 44.131 39.2799C44.1044 39.2603 44.0366 39.2824 43.9277 39.3463C43.8091 39.8147 43.6388 40.2553 43.417 40.6682C43.2147 41.0545 43.0143 41.4523 42.8156 41.8617C42.6169 42.2711 42.4564 42.6984 42.3343 43.1436C42.2121 43.5888 42.1816 44.0912 42.2427 44.6509C42.6858 44.9156 43.1791 45.0423 43.7226 45.0311C44.2661 45.0198 44.8125 44.9489 45.3616 44.8182C45.9339 44.6841 46.4795 44.5303 46.9984 44.3568C47.537 44.1566 48.038 44.0214 48.5015 43.9512C49.4396 43.5719 50.2282 43.1443 50.8672 42.6681C51.5027 42.1688 52.1729 41.6642 52.8779 41.1544ZM64.7596 42.9449C64.6452 43.9104 64.5206 44.6523 64.3858 45.1706C64.2706 45.6621 64.0547 46.1927 63.7381 46.7622C63.4298 46.7615 63.2265 46.8278 63.1282 46.9613C63.0299 47.0947 62.9182 47.2183 62.7933 47.3321C62.5917 47.41 62.4411 47.4328 62.3414 47.4005C62.2417 47.3683 62.1518 47.3226 62.0717 47.2636C61.9952 47.2278 61.8937 47.1839 61.7673 47.132C61.6676 47.0997 61.5135 47.0993 61.3049 47.1309C61.2305 46.9526 61.1462 46.7876 61.0521 46.6359C60.9812 46.4807 60.8217 46.4456 60.5739 46.5306C60.5921 46.3382 60.5809 46.1858 60.5401 46.0735C60.4959 45.9379 60.4436 45.8273 60.3832 45.7417C60.3424 45.6293 60.3035 45.5285 60.2662 45.4394C60.2255 45.327 60.216 45.1862 60.2378 45.017C60.1219 45.0345 60.0169 44.9675 59.9228 44.8158C59.8287 44.6641 59.723 44.5142 59.6058 44.3661C59.6121 43.9384 59.6219 43.5339 59.6352 43.1526C59.6485 42.7713 59.6769 42.4115 59.7205 42.073C59.7872 41.731 59.8307 41.3925 59.851 41.0576C59.8714 40.7226 59.7857 40.3919 59.594 40.0654C59.6972 40.1208 59.765 40.0987 59.7973 39.999C59.826 39.8761 59.8397 39.7318 59.8383 39.5661C59.8334 39.3772 59.8186 39.2016 59.794 39.0394C59.766 38.854 59.7315 38.7052 59.6908 38.5928C59.8312 37.9552 59.9235 37.313 59.9677 36.6663C60.0316 35.9929 60.0741 35.3345 60.0951 34.6913C60.1393 34.0446 60.1853 33.4094 60.233 32.7858C60.2807 32.1623 60.3818 31.578 60.5363 31.0331C60.7841 30.9481 61.0675 30.9407 61.3863 31.0109C61.7247 31.0545 61.941 31.1521 62.0351 31.3037C62.5674 30.749 63.0161 30.112 63.3812 29.393C63.7428 28.6507 64.1195 27.9299 64.5113 27.2304C64.9031 26.531 65.3518 25.8941 65.8573 25.3196C66.3861 24.7417 67.0953 24.3379 67.985 24.1082C68.5011 24.3856 69.0654 24.6675 69.6777 24.954C70.3097 25.2137 70.855 25.6052 71.3136 26.1283C71.513 26.1929 71.6794 26.2744 71.8129 26.3727C71.9659 26.4443 72.144 26.524 72.3469 26.6118L72.4101 27.0289C72.7268 27.2416 72.9926 27.5095 73.2075 27.8325C73.4421 28.1288 73.6587 28.4634 73.8575 28.8363C74.0527 29.186 74.2497 29.5473 74.4484 29.9201C74.6437 30.2698 74.8603 30.6044 75.0984 30.9239C75.0696 31.0468 75.0622 31.1546 75.0763 31.2473C75.0868 31.3168 75.1107 31.3961 75.1479 31.4853C75.2083 31.571 75.2571 31.6584 75.2943 31.7476C75.3316 31.8368 75.3509 31.9642 75.3523 32.1299C75.4373 33.1601 75.226 34.0337 74.7183 34.7506C74.2338 35.4641 73.6061 36.0926 72.8351 36.6362C72.0606 37.1565 71.2193 37.6278 70.3114 38.0498C69.4035 38.4719 68.5917 38.9031 67.8762 39.3434C67.8902 39.4361 67.932 39.4772 68.0015 39.4667C68.0942 39.4526 68.1378 39.5053 68.1322 39.6247C68.741 39.888 69.2234 40.0993 69.5794 40.2587C69.9355 40.4181 70.2631 40.5462 70.5622 40.6431C70.8845 40.7365 71.2167 40.8165 71.5587 40.8832C71.9203 40.9232 72.4129 40.9671 73.0365 41.0148C73.66 41.0625 74.1411 41.1081 74.4795 41.1517C74.8377 41.1685 75.161 41.1906 75.4496 41.218C75.7347 41.2222 76.0198 41.2264 76.3049 41.2306C76.6097 41.2081 77.0321 41.1796 77.5721 41.1452C77.8122 41.3221 78.0247 41.5507 78.2094 41.8309C78.4137 42.0844 78.5619 42.3582 78.6539 42.6524C78.7424 42.9235 78.7961 43.1998 78.8151 43.4814C78.8306 43.7398 78.7811 43.9607 78.6666 44.1439C78.7003 44.21 78.7519 44.2377 78.8215 44.2271C78.9106 44.1899 79.0033 44.1759 79.0995 44.185C78.9745 44.2988 78.8762 44.4322 78.8046 44.5853C78.733 44.7384 78.6614 44.8915 78.5898 45.0445C78.5181 45.1976 78.4314 45.3293 78.3296 45.4395C78.2313 45.573 78.0796 45.6671 77.8746 45.7219C77.1984 46.1088 76.2964 46.2574 75.1686 46.1675C74.0444 46.1009 72.5989 45.8696 70.8321 45.4736C69.9487 45.2756 69.223 45.1012 68.6549 44.9502C68.1064 44.7726 67.6177 44.5978 67.1886 44.4257C66.7792 44.227 66.3912 44.0132 66.0247 43.7843C65.6813 43.5519 65.2596 43.2721 64.7596 42.9449ZM67.9231 30.2691C67.7244 30.6785 67.4857 31.0584 67.2069 31.4088C66.9513 31.7557 66.6975 32.1142 66.4454 32.4843C66.213 32.8277 66.0108 33.2139 65.8388 33.643C65.6633 34.0489 65.5678 34.5137 65.5524 35.0376C66.3494 34.822 67.1618 34.4736 67.9897 33.9926C68.8141 33.4883 69.5956 33.0143 70.3343 32.5705C70.1327 31.8662 69.79 31.3255 69.3062 30.9484C68.8455 30.5678 68.3845 30.3414 67.9231 30.2691ZM94.6856 22.0881C94.7334 22.2468 94.7527 22.3743 94.7436 22.4705C94.7541 22.54 94.7531 22.6113 94.7404 22.6843C94.751 22.7538 94.7633 22.8349 94.7773 22.9276C94.7879 22.9972 94.8286 23.1095 94.8995 23.2647C94.5323 24.1263 94.0471 24.7569 93.4439 25.1565C92.8604 25.5294 92.2084 25.8416 91.488 26.093C90.764 26.3213 90.0186 26.5646 89.2518 26.8231C88.5082 27.078 87.7891 27.4952 87.0947 28.0745C86.7758 28.0043 86.4978 28.0465 86.2604 28.201C86.0463 28.3519 85.7039 28.4394 85.2335 28.4633C85.1155 28.6234 84.9575 28.754 84.7595 28.8551C84.558 28.9331 84.3582 29.0226 84.1602 29.1238C84.2845 29.3183 84.3526 29.5332 84.3645 29.7684C84.3961 29.9769 84.4572 30.1455 84.5478 30.274C85.3694 30.2206 86.2598 30.0738 87.219 29.8336C88.2014 29.5898 89.1659 29.3844 90.1125 29.2172C90.1532 29.3296 90.1539 29.4124 90.1146 29.4658C90.0718 29.496 90.069 29.5557 90.1062 29.6449C90.2859 29.7362 90.471 29.8622 90.6613 30.023C90.8481 30.1606 91.0349 30.2982 91.2217 30.4359C91.4085 30.5735 91.5918 30.6879 91.7715 30.7792C91.971 30.8438 92.1848 30.847 92.413 30.7887C92.5338 30.96 92.6233 31.1598 92.6816 31.388C92.7596 31.5895 92.7698 31.8132 92.7122 32.059C92.3801 32.3701 92.0497 32.6927 91.7211 33.027C91.3889 33.3381 91.0301 33.6295 90.6446 33.9013C90.2823 34.1696 89.8799 34.4083 89.4376 34.6176C89.0148 34.8002 88.5236 34.9221 87.964 34.9832C87.8481 35.0008 87.7554 35.0148 87.6859 35.0253C87.6396 35.0324 87.5648 35.0081 87.4615 34.9527C87.2937 35.0966 87.0325 35.1718 86.6779 35.1781C86.3464 35.181 86.0968 35.2543 85.929 35.3983C85.6565 35.3211 85.3367 35.3221 84.9694 35.4015C84.6218 35.4542 84.302 35.4553 84.0098 35.4047C83.7128 35.9475 83.4559 36.5199 83.2389 37.1217C83.0219 37.7235 82.845 38.3548 82.7081 39.0156C83.5136 39.012 84.1694 38.96 84.6757 38.8596C85.2052 38.7556 85.6981 38.6453 86.1546 38.5288C86.6075 38.389 87.0737 38.2591 87.5533 38.139C88.0294 37.9957 88.64 37.8794 89.385 37.7902C89.8099 37.4651 90.3298 37.2203 90.945 37.056C91.5798 36.865 92.1496 36.6364 92.6545 36.3702C92.8504 36.4116 93.0319 36.5145 93.1991 36.6788C93.3627 36.8199 93.5147 36.9628 93.6552 37.1075C93.8153 37.2254 93.9736 37.3318 94.1302 37.4266C94.2868 37.5214 94.4676 37.5414 94.6727 37.4866C94.7794 37.5653 94.8549 37.6723 94.8992 37.8079C94.9631 37.9167 95.0154 38.0273 95.0561 38.1397C95.0969 38.252 95.1474 38.351 95.2078 38.4367C95.2879 38.4957 95.3957 38.503 95.5312 38.4588C95.2995 39.2762 94.9835 39.9285 94.5833 40.4159C94.2027 40.8766 93.7386 41.2551 93.1909 41.5514C92.6432 41.8478 92.0189 42.1084 91.3181 42.3331C90.6405 42.5543 89.8853 42.811 89.0525 43.1032C88.8509 43.1811 88.6754 43.1959 88.5258 43.1474C88.3797 43.1222 88.214 43.1236 88.0286 43.1517C87.5132 43.3483 86.8918 43.5492 86.1643 43.7543C85.4368 43.9594 84.689 44.1083 83.9207 44.201C83.1525 44.2937 82.4068 44.3001 81.6835 44.2201C80.9637 44.1632 80.3503 43.948 79.8433 43.5745C79.6333 43.4404 79.4778 43.2743 79.3767 43.0763C79.2952 42.8516 79.1182 42.7006 78.8458 42.6234C78.7769 42.3256 78.6797 41.9966 78.554 41.6364C78.4282 41.2762 78.3008 40.9044 78.1715 40.521C78.0388 40.1144 77.9194 39.7177 77.8134 39.3307C77.7305 38.9403 77.6992 38.5776 77.7196 38.2427C77.7364 37.8845 77.828 37.5506 77.9944 37.2409C78.184 36.9278 78.2195 36.6142 78.1008 36.3003C78.2131 36.2596 78.2739 36.1911 78.283 36.0949C78.2886 35.9755 78.3743 35.9152 78.54 35.9137C78.6158 35.4756 78.7067 35.0588 78.8127 34.6634C78.9187 34.2681 79.0265 33.8843 79.136 33.5121C79.2687 33.1365 79.3899 32.7625 79.4994 32.3903C79.6286 31.9915 79.7409 31.5596 79.8364 31.0947C79.4663 30.8427 79.1738 30.5551 78.9589 30.2321C78.7637 29.8824 78.605 29.539 78.4828 29.202C78.3571 28.8418 78.2429 28.4798 78.1404 28.116C78.0343 27.7291 77.8935 27.3475 77.718 26.9711C77.897 26.5884 78.1329 26.2682 78.4257 26.0104C78.7382 25.726 79.0809 25.4844 79.4537 25.2857C79.8266 25.087 80.2377 24.9061 80.6872 24.7432C81.1366 24.5802 81.6074 24.4022 82.0996 24.2091C82.9809 23.7673 83.7684 23.4109 84.4622 23.1399C85.1791 22.8652 85.8782 22.6289 86.5593 22.4309C87.2601 22.2061 87.9858 21.9895 88.7365 21.7809C89.4871 21.5723 90.335 21.3015 91.2802 20.9686C91.5204 21.1456 91.7331 21.22 91.9185 21.1919C91.9796 20.9693 92.0751 20.8956 92.205 20.9707C92.3546 21.0191 92.402 20.9408 92.3472 20.7358C92.6386 21.0946 92.9792 21.3867 93.369 21.6121C93.7784 21.8108 94.2173 21.9695 94.6856 22.0881ZM128.205 37.489C127.338 37.2411 126.607 36.7949 126.011 36.1503C125.439 35.5022 124.854 34.773 124.257 33.9627C124.167 33.8342 124.076 33.7057 123.986 33.5772C123.895 33.4487 123.806 33.3317 123.719 33.2264L123.096 32.3964L122.733 31.8824L122.374 32.328L121.833 32.979L121.538 33.3793C121.02 34.0267 120.49 34.6759 119.948 35.3269C119.427 35.9512 118.852 36.5362 118.223 37.0818C117.614 37.6008 116.949 38.0573 116.226 38.4512C115.523 38.8185 114.733 39.0805 113.856 39.2371L113.034 38.9707C112.558 38.8057 112.156 38.6533 111.826 38.5136C111.497 38.3739 111.106 38.1369 110.652 37.8027C110.504 37.6117 110.37 37.4305 110.25 37.2592C110.152 37.0843 110.043 36.9112 109.922 36.7399C109.597 36.3151 109.325 35.9296 109.107 35.5834C108.888 35.2372 108.663 34.8447 108.43 34.4058C108.451 34.0709 108.472 33.5105 108.496 32.7247C108.515 31.9158 108.547 31.0338 108.592 30.0788C108.66 29.1203 108.728 28.1617 108.796 27.2032C108.884 26.218 108.991 25.3602 109.118 24.6299C109.235 23.9958 109.37 23.3235 109.523 22.6128C109.699 21.8987 109.896 21.2407 110.113 20.6389C110.349 20.0104 110.623 19.4711 110.934 19.0209C111.242 18.5476 111.599 18.2446 112.006 18.1119C112.146 18.2565 112.291 18.3531 112.441 18.4015C112.59 18.4499 112.726 18.4886 112.849 18.5173C113.244 18.9316 113.616 19.2782 113.967 19.5569C114.34 19.8322 114.76 20.1004 115.227 20.3616C115.199 20.9585 115.123 21.6337 115 22.3871C114.897 23.1139 114.773 23.8558 114.626 24.6128C114.5 25.3431 114.372 26.0618 114.242 26.769C114.112 27.4761 114.015 28.0835 113.949 28.5912C113.87 29.0062 113.821 29.4641 113.802 29.9648C113.723 30.8538 113.704 32.0539 113.743 33.565C114.011 33.4534 114.289 33.2571 114.578 32.9762C114.868 32.6953 115.144 32.4045 115.406 32.104C115.712 31.7732 116.012 31.4077 116.307 31.0074C116.68 30.5004 116.99 30.0387 117.235 29.6223C117.48 29.2059 117.7 28.7814 117.895 28.3488C118.113 27.9127 118.327 27.4419 118.534 26.9363C118.739 26.4075 118.989 25.7888 119.284 25.0803C119.548 24.4714 119.817 23.8261 120.093 23.1442C120.389 22.4357 120.678 21.7636 120.961 21.1281C121.264 20.4659 121.563 19.8634 121.86 19.3206C122.157 18.7778 122.435 18.3445 122.695 18.0208C122.915 18.2244 123.18 18.4094 123.49 18.5758C123.823 18.7387 124.16 18.8535 124.502 18.9202C124.673 19.1077 124.83 19.2853 124.974 19.4532C125.138 19.5943 125.288 19.7256 125.425 19.8471C125.596 20.0346 125.753 20.2122 125.897 20.38C126.064 20.5443 126.219 20.7104 126.363 20.8782C126.365 21.044 126.362 21.2578 126.354 21.5197C126.346 21.7816 126.33 22.0685 126.307 22.3803C126.306 22.6885 126.295 23.0102 126.275 23.3451C126.251 23.6569 126.226 23.9571 126.198 24.2457C126.146 25.1544 126.107 25.8359 126.081 26.2902C126.055 26.7445 126.039 27.1027 126.031 27.3646C126.046 27.623 126.057 27.8467 126.061 28.0356C126.086 28.1978 126.121 28.4295 126.167 28.7307C126.179 28.966 126.226 29.1959 126.307 29.4207C126.362 29.6257 126.441 29.8388 126.546 30.06C126.651 30.2812 126.775 30.4757 126.919 30.6435L128.146 29.3553C128.494 28.9943 128.804 28.5326 129.074 27.9701C129.364 27.3809 129.62 26.7258 129.843 26.0046C130.085 25.2567 130.307 24.4527 130.508 23.5924C130.71 22.7322 130.91 21.8604 131.108 20.977C131.408 19.6751 131.714 18.4079 132.025 17.1755C132.359 15.9396 132.71 14.9737 133.079 14.2778C133.638 14.525 134.129 14.7942 134.553 15.0856C134.996 15.3503 135.386 15.6586 135.724 16.0104C136.062 16.3622 136.35 16.7807 136.59 17.2659C136.853 17.7476 137.071 18.3308 137.246 19.0154C136.952 19.8897 136.673 20.7854 136.409 21.7025C136.168 22.6161 135.939 23.5279 135.721 24.438C135.426 25.6205 135.108 26.8066 134.767 27.9962C134.449 29.1822 134.066 30.3307 133.618 31.4416C133.167 32.5294 132.635 33.5581 132.024 34.5279C131.408 35.4745 130.658 36.3113 129.773 37.0381C129.507 37.0072 129.282 37.0058 129.097 37.0339C128.726 37.0901 128.429 37.2418 128.205 37.489ZM155.911 22.1602C155.93 22.4417 155.994 22.7047 156.102 22.9491C156.21 23.1935 156.33 23.4361 156.461 23.6769C156.612 23.8911 156.753 24.1186 156.885 24.3594C157.016 24.6003 157.124 24.8447 157.209 25.0925C157.305 25.4099 157.359 25.7691 157.373 26.1701C157.382 26.5479 157.357 26.9309 157.298 27.3193C157.235 27.6844 157.133 28.0317 156.993 28.361C156.85 28.6672 156.662 28.9091 156.428 29.0868C156.167 29.553 155.822 29.9372 155.394 30.2391C154.965 30.5411 154.579 30.8842 154.234 31.2683C154.004 31.4691 153.731 31.6289 153.418 31.7476C153.127 31.8628 152.825 31.9797 152.511 32.0984C152.277 32.2761 151.998 32.4723 151.675 32.6872C151.349 32.879 151.011 33.0724 150.661 33.2677C150.308 33.4397 149.951 33.5886 149.591 33.7143C149.227 33.8169 148.905 33.8776 148.623 33.8966C147.966 34.2569 147.307 34.5227 146.646 34.6941C146.011 34.8851 145.239 34.9546 144.331 34.9027C143.514 35.145 142.733 35.2279 141.986 35.1514C141.263 35.0714 140.593 34.8766 139.977 34.5669C139.381 34.2306 138.832 33.816 138.331 33.323C137.849 32.8034 137.433 32.2501 137.084 31.6631C136.698 30.3703 136.564 29.1699 136.68 28.0618C136.793 26.9305 137.036 25.8744 137.409 24.8934C137.801 23.8857 138.276 22.9486 138.832 22.082C139.384 21.1923 139.917 20.3292 140.431 19.4929C140.577 19.5181 140.681 19.5023 140.743 19.4454C140.826 19.3619 140.894 19.2685 140.95 19.1653C141.002 19.0388 141.056 18.924 141.111 18.8208C141.19 18.7141 141.285 18.6403 141.398 18.5996C141.507 18.2274 141.7 17.9374 141.977 17.7295C142.273 17.495 142.489 17.2014 142.626 16.8489C142.827 16.771 142.99 16.6751 143.115 16.5613C143.24 16.4476 143.352 16.324 143.45 16.1906C143.572 16.0536 143.695 15.9283 143.82 15.8145C143.941 15.6776 144.091 15.5719 144.27 15.4974L144.212 15.1151C144.601 14.8665 144.87 14.6123 145.021 14.3524C145.191 14.0659 145.388 13.7278 145.614 13.3381C145.819 13.2833 145.979 13.2471 146.095 13.2295C146.234 13.2085 146.428 13.1554 146.675 13.0705C146.812 12.718 146.937 12.4501 147.051 12.2668C147.189 12.08 147.394 11.8711 147.668 11.64C147.967 11.7369 148.282 11.7839 148.613 11.7811C148.968 11.7748 149.292 11.8797 149.586 12.096C149.644 12.3242 149.742 12.4991 149.879 12.6205C150.012 12.7188 150.157 12.8154 150.314 12.9102C150.467 12.9818 150.61 13.0668 150.743 13.1651C150.9 13.2599 151.017 13.408 151.095 13.6096C151.191 13.6187 151.248 13.5983 151.264 13.5485C151.303 13.4951 151.371 13.473 151.467 13.4821C151.586 13.796 151.7 14.0038 151.81 14.1056C151.917 14.1843 152.04 14.3672 152.178 14.6544C152.097 14.9037 152.041 15.161 152.011 15.4265C151.999 15.6652 151.887 15.8601 151.673 16.0111C151.674 16.1768 151.734 16.2625 151.854 16.2681C151.97 16.2505 152.048 16.2979 152.089 16.4103C152.143 16.6153 152.131 16.7712 152.053 16.878C152.746 17.6974 153.39 18.5836 153.985 19.5364C154.576 20.4661 155.218 21.3407 155.911 22.1602ZM152.067 26.1208C152.121 25.8519 152.205 25.6258 152.32 25.4425C152.457 25.2557 152.513 24.9983 152.487 24.6704C152.343 24.5026 152.253 24.3741 152.215 24.2849C152.175 24.1725 152.137 24.0005 152.102 23.7688C151.483 23.1277 150.927 22.4297 150.433 21.6748C149.936 20.8968 149.401 20.1837 148.829 19.5356C148.796 19.6354 148.729 19.7403 148.628 19.8506C148.526 19.9608 148.395 19.957 148.235 19.839C148.216 20.0314 148.156 20.1828 148.055 20.293C147.949 20.3801 147.827 20.4342 147.688 20.4552C147.545 20.4531 147.39 20.4412 147.22 20.4194C147.071 20.371 146.931 20.3092 146.801 20.2341C146.21 20.8689 145.617 21.4922 145.022 22.1038C144.427 22.7155 143.914 23.3977 143.483 24.1505C143.398 24.2109 143.343 24.2428 143.32 24.2463C143.293 24.2267 143.226 24.2488 143.117 24.3127C142.998 24.7811 142.828 25.2217 142.606 25.6347C142.404 26.0209 142.203 26.4187 142.005 26.8281C141.806 27.2375 141.645 27.6648 141.523 28.11C141.401 28.5552 141.371 29.0577 141.432 29.6173C141.875 29.882 142.368 30.0087 142.912 29.9975C143.455 29.9862 144.002 29.9153 144.551 29.7846C145.123 29.6505 145.669 29.4967 146.187 29.3232C146.726 29.123 147.227 28.9878 147.691 28.9176C148.629 28.5384 149.417 28.1107 150.056 27.6345C150.692 27.1352 151.362 26.6307 152.067 26.1208ZM178.538 29.8603C177.671 29.6125 176.94 29.1662 176.344 28.5216C175.772 27.8735 175.187 27.1443 174.59 26.334C174.5 26.2055 174.409 26.077 174.318 25.9485C174.228 25.82 174.139 25.7031 174.052 25.5977L173.428 24.7677L173.066 24.2537L172.707 24.6993L172.165 25.3503L171.871 25.7506C171.352 26.398 170.823 27.0473 170.281 27.6982C169.759 28.3225 169.184 28.9075 168.556 29.4531C167.947 29.9721 167.281 30.4286 166.559 30.8226C165.856 31.1899 165.066 31.4518 164.189 31.6085L163.366 31.342C162.891 31.177 162.489 31.0246 162.159 30.8849C161.83 30.7452 161.438 30.5082 160.985 30.174C160.837 29.983 160.703 29.8018 160.582 29.6305C160.485 29.4556 160.376 29.2826 160.255 29.1112C159.93 28.6864 159.658 28.3009 159.439 27.9547C159.221 27.6085 158.996 27.216 158.763 26.7771C158.783 26.4422 158.805 25.8818 158.828 25.096C158.848 24.2871 158.88 23.4051 158.925 22.4501C158.993 21.4916 159.061 20.5331 159.129 19.5745C159.217 18.5893 159.324 17.7316 159.45 17.0013C159.568 16.3671 159.703 15.6948 159.856 14.9841C160.032 14.27 160.229 13.612 160.446 13.0102C160.682 12.3817 160.956 11.8424 161.267 11.3922C161.575 10.9189 161.932 10.6159 162.338 10.4832C162.479 10.6278 162.624 10.7244 162.773 10.7728C162.923 10.8213 163.059 10.8599 163.182 10.8887C163.577 11.3029 163.949 11.6495 164.3 11.9282C164.673 12.2035 165.093 12.4717 165.559 12.7329C165.531 13.3298 165.456 14.005 165.333 14.7585C165.23 15.4852 165.105 16.2271 164.959 16.9841C164.833 17.7144 164.705 18.4332 164.575 19.1403C164.445 19.8474 164.347 20.4548 164.282 20.9626C164.203 21.3776 164.154 21.8354 164.135 22.3361C164.056 23.2251 164.037 24.4252 164.076 25.9363C164.344 25.8247 164.622 25.6284 164.911 25.3475C165.201 25.0666 165.477 24.7759 165.739 24.4753C166.045 24.1445 166.345 23.779 166.64 23.3788C167.013 22.8717 167.323 22.41 167.568 21.9936C167.813 21.5772 168.033 21.1527 168.228 20.7201C168.446 20.284 168.659 19.8132 168.867 19.3076C169.072 18.7788 169.322 18.1601 169.617 17.4516C169.88 16.8427 170.15 16.1974 170.426 15.5155C170.722 14.807 171.011 14.135 171.294 13.4994C171.596 12.8372 171.896 12.2347 172.193 11.6919C172.49 11.1491 172.768 10.7158 173.027 10.3921C173.248 10.5957 173.513 10.7807 173.823 10.9471C174.156 11.11 174.493 11.2248 174.835 11.2915C175.006 11.479 175.163 11.6567 175.307 11.8245C175.47 11.9656 175.621 12.0969 175.758 12.2184C175.928 12.4059 176.086 12.5835 176.23 12.7513C176.397 12.9157 176.552 13.0817 176.696 13.2495C176.698 13.4153 176.695 13.6291 176.687 13.891C176.679 14.1529 176.663 14.4398 176.639 14.7516C176.639 15.0599 176.628 15.3815 176.608 15.7164C176.584 16.0282 176.558 16.3284 176.531 16.617C176.479 17.5257 176.44 18.2072 176.414 18.6615C176.388 19.1158 176.371 19.474 176.364 19.7359C176.379 19.9943 176.389 20.218 176.394 20.4069C176.419 20.5691 176.454 20.8008 176.5 21.102C176.512 21.3373 176.558 21.5673 176.64 21.792C176.695 21.997 176.774 22.2101 176.879 22.4313C176.984 22.6525 177.108 22.847 177.252 23.0148L178.479 21.7266C178.827 21.3656 179.136 20.9039 179.407 20.3414C179.697 19.7522 179.953 19.0971 180.176 18.3759C180.418 17.628 180.64 16.824 180.841 15.9637C181.043 15.1035 181.242 14.2317 181.44 13.3483C181.741 12.0464 182.047 10.7793 182.358 9.54685C182.692 8.31094 183.043 7.34503 183.412 6.64912C183.971 6.89627 184.462 7.16555 184.886 7.45695C185.329 7.72166 185.719 8.02991 186.057 8.3817C186.395 8.7335 186.683 9.152 186.923 9.63722C187.185 10.1189 187.404 10.7021 187.579 11.3867C187.285 12.261 187.006 13.1567 186.742 14.0738C186.501 14.9874 186.272 15.8992 186.054 16.8093C185.759 17.9918 185.441 19.1779 185.1 20.3675C184.782 21.5535 184.399 22.702 183.951 23.8129C183.5 24.9007 182.968 25.9294 182.356 26.8992C181.741 27.8458 180.991 28.6826 180.106 29.4094C179.84 29.3785 179.615 29.3771 179.429 29.4052C179.059 29.4614 178.762 29.6131 178.538 29.8603ZM193.529 2.66224C193.561 2.8708 193.564 3.13096 193.541 3.44275C193.54 3.75102 193.539 4.05929 193.539 4.36756C193.538 4.67583 193.568 4.95566 193.63 5.20705C193.689 5.43527 193.816 5.57009 194.012 5.61151C193.781 6.90289 193.647 7.97798 193.611 8.83679C193.599 9.69209 193.593 10.5109 193.593 11.2931C193.612 12.0487 193.604 12.8559 193.569 13.7147C193.533 14.5735 193.398 15.637 193.163 16.9052C193.021 17.6854 192.787 18.2542 192.462 18.6116C192.133 18.9459 191.76 19.1447 191.343 19.2079C190.926 19.2711 190.48 19.2202 190.004 19.0552C189.529 18.8902 189.085 18.6968 188.672 18.4749C188.536 18.0452 188.443 17.5139 188.395 16.8812C188.366 16.2219 188.345 15.5376 188.333 14.8283C188.32 14.1191 188.312 13.4446 188.31 12.8049C188.305 12.142 188.292 11.5869 188.271 11.1396C188.464 10.8496 188.595 10.6164 188.663 10.4402C188.731 10.2639 188.763 10.0813 188.758 9.89245C188.776 9.70005 188.776 9.46305 188.757 9.18146C188.738 8.89988 188.736 8.49716 188.751 7.97331C188.759 7.71138 188.703 7.49475 188.582 7.32342C188.481 7.1254 188.439 6.93018 188.457 6.73778C188.49 6.63806 188.549 6.55801 188.634 6.49761C188.743 6.43371 188.8 6.34206 188.806 6.22269C188.853 5.90739 188.841 5.67215 188.77 5.51697C188.696 5.33861 188.697 5.1132 188.774 4.84073C188.862 4.63779 188.957 4.32706 189.06 3.90853C189.182 3.46332 189.187 3.02409 189.073 2.59083C189.257 2.39701 189.426 2.18177 189.58 1.94512C189.734 1.70847 189.891 1.49499 190.052 1.30468C190.232 1.08769 190.43 0.903698 190.644 0.752712C190.881 0.598214 191.174 0.494623 191.521 0.44194C191.745 0.668744 191.921 0.890986 192.049 1.10867C192.177 1.32635 192.291 1.53419 192.392 1.73221C192.517 1.92672 192.662 2.10613 192.83 2.27044C192.997 2.43475 193.23 2.56535 193.529 2.66224ZM193.085 22.9618C193.16 23.1402 193.221 23.3087 193.269 23.4674C193.317 23.6261 193.366 23.7964 193.417 23.9783C193.352 24.486 193.268 24.9491 193.166 25.3676C193.121 25.5403 193.09 25.6517 193.074 25.7015C193.058 25.7514 193.052 25.7879 193.055 25.8111C193.059 25.8342 193.075 25.8672 193.106 25.9101C193.132 25.9297 193.158 26.0207 193.183 26.1829L193.072 26.6263C192.981 26.8061 192.861 26.9546 192.713 27.0719C192.588 27.1857 192.449 27.2896 192.298 27.3837C192.235 27.4406 192.159 27.4876 192.07 27.5249C192.008 27.5817 191.957 27.6369 191.918 27.6902L191.877 28.1231L191.4 28.2664C191.044 28.4153 190.715 28.5126 190.413 28.5582L190.031 28.6162C189.714 28.4034 189.464 28.2398 189.281 28.1254C189.098 28.0109 188.893 27.9116 188.667 27.8273C188.345 27.4257 188.137 27.0661 188.041 26.7488C187.949 26.4545 187.862 26.2663 187.778 26.1842L187.218 25.7713L187.587 25.3953L187.07 24.7981C187.317 24.5474 187.502 24.3651 187.627 24.2514C187.752 24.1376 187.854 24.0273 187.933 23.9206C188.031 23.7872 188.126 23.6306 188.217 23.4508C188.308 23.271 188.453 22.9764 188.652 22.567L188.896 22.0678L189.35 22.2479C189.477 22.2998 189.696 22.3377 190.008 22.3616C190.339 22.3588 190.624 22.363 190.863 22.3742C191.251 22.4339 191.625 22.4721 191.983 22.4889C192.36 22.4791 192.668 22.5511 192.904 22.7048L193.085 22.9618Z" fill="white"/>
</svg>
