<svg width="233" height="28" viewBox="0 0 233 28" fill="none" xmlns="http://www.w3.org/2000/svg">
<g id="Underline">
<path id="Vector" fill-rule="evenodd" clip-rule="evenodd" d="M1.5762 12.8345C1.67631 12.8679 1.93329 12.7346 1.92513 12.8958C2.00567 13.128 1.42258 13.1248 1.5762 12.8345Z" fill="black"/>
<path id="Vector_2" fill-rule="evenodd" clip-rule="evenodd" d="M230.571 7.74313C230.692 7.62726 231.274 7.60571 231.4 7.7124C231.298 8.06273 230.745 7.7738 230.571 7.74313Z" fill="black"/>
<path id="Vector_3" fill-rule="evenodd" clip-rule="evenodd" d="M119.202 11.8684C119.559 11.7562 119.505 12.0676 119.824 11.9815C119.62 12.2242 119.747 12.3309 119.841 12.5997L119.42 12.6153C119.388 12.3442 119.406 12.0712 119.19 11.8565L119.202 11.8684Z" fill="black"/>
<path id="Vector_4" fill-rule="evenodd" clip-rule="evenodd" d="M144.853 11.3392C144.372 11.9511 142.417 11.1695 142.229 12.0552C142.326 12.4353 143.074 12.0982 143.339 12.2864C143.252 12.7352 142.326 12.4229 141.895 12.5503C142.023 13.1891 143.262 12.6605 143.777 12.9014C143.612 13.2293 142.966 13.179 142.471 13.222C142.025 13.2633 141.564 13.169 141.297 13.4017C141.302 13.5995 141.536 13.5289 141.445 13.817C141.051 13.9306 141.199 13.4548 140.95 13.4145C140.832 13.1714 141.185 13.3687 141.155 13.1965C141.038 12.9657 140.86 12.8114 140.525 12.7991C140.656 12.5962 141.282 12.8329 141.426 12.6296C141.475 12.1574 140.607 12.6351 140.452 12.3933C140.38 12.0247 141.301 12.1267 141.355 12.2856C141.466 12.2568 141.411 12.0608 141.624 12.1395C141.507 11.9335 141.365 11.7531 141.128 11.6752C142.238 10.4955 143.562 11.7955 144.865 11.3264L144.853 11.3392Z" fill="black"/>
<path id="Vector_5" fill-rule="evenodd" clip-rule="evenodd" d="M165.294 10.4334L165.499 10.4258L165.506 10.6978C165.28 10.7805 165.287 10.6069 165.294 10.4334Z" fill="black"/>
<path id="Vector_6" fill-rule="evenodd" clip-rule="evenodd" d="M166.491 11.0203L166.144 11.0332C166.021 10.6169 166.615 10.5578 166.491 11.0203Z" fill="black"/>
<path id="Vector_7" fill-rule="evenodd" clip-rule="evenodd" d="M67.7932 14.3916L68.0654 14.3815C68.0445 14.5308 67.9482 14.6334 67.8004 14.6636L67.7932 14.3916Z" fill="black"/>
<path id="Vector_8" fill-rule="evenodd" clip-rule="evenodd" d="M106.256 12.9668L106.263 13.2389L105.645 13.2618C105.726 13.036 106.086 13.0845 106.256 12.9668Z" fill="black"/>
<path id="Vector_9" fill-rule="evenodd" clip-rule="evenodd" d="M170.854 10.9947C170.935 10.7689 170.63 10.9535 170.711 10.7277C171.01 10.8033 171.005 10.6054 171.19 10.5738C171.109 10.7996 171.414 10.615 171.333 10.8408C171.148 10.8724 171.141 11.0707 170.854 10.9947Z" fill="black"/>
<path id="Vector_10" fill-rule="evenodd" clip-rule="evenodd" d="M128.795 12.5526C128.707 12.9767 128.314 12.6447 128.029 12.6552C128.064 12.5549 128.542 12.3516 128.795 12.5526Z" fill="black"/>
<path id="Vector_11" fill-rule="evenodd" clip-rule="evenodd" d="M129.554 12.5245L129.901 12.5117C129.956 12.7077 129.477 12.8863 129.554 12.5245Z" fill="black"/>
<path id="Vector_12" fill-rule="evenodd" clip-rule="evenodd" d="M147.57 11.8574C147.639 12.1271 147.339 12.0392 147.447 12.3446C146.891 12.4395 147.096 11.7264 147.57 11.8574Z" fill="black"/>
<path id="Vector_13" fill-rule="evenodd" clip-rule="evenodd" d="M159.839 11.4029C159.976 11.4226 160.137 11.4166 160.117 11.603C159.932 11.6346 159.771 11.6406 159.839 11.4029Z" fill="black"/>
<path id="Vector_14" fill-rule="evenodd" clip-rule="evenodd" d="M145.986 11.9903C146.358 11.9765 146.789 11.8863 146.823 12.2316C146.489 12.2563 146.32 12.4358 146.063 12.532C146.153 12.6524 146.459 12.5297 146.344 12.8681L145.725 12.8911C145.817 12.6277 146.137 12.5293 145.845 12.2678C146.057 12.3342 145.965 12.1148 145.974 11.9907L145.986 11.9903Z" fill="black"/>
<path id="Vector_15" fill-rule="evenodd" clip-rule="evenodd" d="M156.933 11.857C156.932 12.2655 156.052 12.2733 156.162 11.7494C156.47 11.6761 156.823 11.4279 156.933 11.857Z" fill="black"/>
<path id="Vector_16" fill-rule="evenodd" clip-rule="evenodd" d="M157.14 11.5771C157.34 11.6192 157.345 11.8046 157.487 11.5642C157.651 11.6695 157.863 11.7236 158.184 11.6745C158.187 11.7982 158.274 11.8197 158.265 11.9438C157.771 12.0116 157.627 11.7199 157.086 11.8514C157.082 11.7277 157.168 11.6998 157.153 11.5766L157.14 11.5771Z" fill="black"/>
<path id="Vector_17" fill-rule="evenodd" clip-rule="evenodd" d="M159.283 11.4977L159.63 11.4849C159.695 12.0518 160.596 11.907 160.811 11.5773C160.96 11.5965 161.062 11.6918 161.091 11.8392L160.608 11.8571C160.554 12.1685 160.898 12.0691 160.893 12.3292C160.111 12.3087 159.341 12.263 159.271 11.4858L159.283 11.4977Z" fill="black"/>
<path id="Vector_18" fill-rule="evenodd" clip-rule="evenodd" d="M76.4704 14.7014C76.6828 14.7678 76.8949 14.8218 77.095 14.8887C77.1797 15.2816 76.5785 15.0439 76.3329 15.1273C76.2263 14.8466 76.4756 14.8992 76.458 14.7019L76.4704 14.7014Z" fill="black"/>
<path id="Vector_19" fill-rule="evenodd" clip-rule="evenodd" d="M116.88 13.2043C117.08 13.2588 117.195 13.3907 117.238 13.6119C116.967 13.6838 117.059 13.3834 116.751 13.4938C116.659 13.2744 116.973 13.436 116.881 13.2167L116.88 13.2043Z" fill="black"/>
<path id="Vector_20" fill-rule="evenodd" clip-rule="evenodd" d="M144.256 12.1904C144.687 12.0631 144.707 12.3717 145.089 12.2957C145.046 12.5325 144.849 12.6016 144.615 12.6598C144.548 12.4519 144.179 12.5522 144.256 12.1904Z" fill="black"/>
<path id="Vector_21" fill-rule="evenodd" clip-rule="evenodd" d="M71.9024 15.0067C72.1855 14.9343 72.2644 15.1047 72.2582 15.34C72.0229 15.3488 71.8603 15.2929 71.9024 15.0067Z" fill="black"/>
<path id="Vector_22" fill-rule="evenodd" clip-rule="evenodd" d="M127.977 12.9296C128.177 12.8107 128.192 13.3795 127.986 13.2757L127.977 12.9296Z" fill="black"/>
<path id="Vector_23" fill-rule="evenodd" clip-rule="evenodd" d="M128.32 12.9168C128.558 12.8337 128.511 13.3305 128.255 13.1915C128.252 13.0679 128.335 13.04 128.32 12.9168Z" fill="black"/>
<path id="Vector_24" fill-rule="evenodd" clip-rule="evenodd" d="M184.172 10.8479C184.175 10.9715 184.263 10.9931 184.254 11.1172L183.697 11.1378C183.665 10.8667 183.887 10.8213 184.172 10.8479Z" fill="black"/>
<path id="Vector_25" fill-rule="evenodd" clip-rule="evenodd" d="M145.366 12.4215C145.432 12.5799 145.631 12.6221 145.589 12.8959C145.332 13.0045 145.448 12.7155 145.239 12.7727C145.184 12.5644 145.472 12.6775 145.366 12.4215Z" fill="black"/>
<path id="Vector_26" fill-rule="evenodd" clip-rule="evenodd" d="M115.022 13.756C115.532 13.8114 116.332 13.559 116.624 13.8328C116.926 13.5246 117.453 13.7279 117.536 14.0713C117.144 14.2467 116.644 14.1044 116.287 14.1919C116.292 14.3897 116.526 14.3192 116.434 14.6072C116.225 14.6645 116.341 14.3755 116.083 14.4841C116.08 14.3604 116.166 14.3325 116.151 14.2093C115.932 13.8956 115.182 14.1585 115.035 13.7679L115.022 13.756Z" fill="black"/>
<path id="Vector_27" fill-rule="evenodd" clip-rule="evenodd" d="M154.453 12.2954L154.725 12.2853C154.704 12.4346 154.608 12.5372 154.46 12.5674L154.453 12.2954Z" fill="black"/>
<path id="Vector_28" fill-rule="evenodd" clip-rule="evenodd" d="M97.0684 14.5571L97.279 14.5493C97.188 14.862 97.4828 14.7521 97.428 15.0264L97.7007 15.0163C97.7183 14.7434 98.0793 14.7919 98.3891 14.7804C98.3343 15.0547 98.6291 14.9448 98.5381 15.2576L97.2245 15.3062C97.3054 15.0805 97.0002 15.2651 97.0811 15.0393C96.9728 15.1671 96.6988 15.1277 96.6669 15.3269C96.4562 15.3347 96.7527 14.8163 96.4451 14.9143C96.6503 14.6963 97.1697 15.1103 97.0556 14.5452L97.0684 14.5571Z" fill="black"/>
<path id="Vector_29" fill-rule="evenodd" clip-rule="evenodd" d="M128.125 13.4068C128.361 13.4352 128.307 13.7466 128.274 13.884L127.717 13.9046C127.737 13.743 127.589 13.7608 127.634 13.5612C127.752 13.8167 128.119 13.6546 128.113 13.4073L128.125 13.4068Z" fill="black"/>
<path id="Vector_30" fill-rule="evenodd" clip-rule="evenodd" d="M182.179 11.4046L182.452 11.3945L182.459 11.6665C182.225 11.7247 182.124 11.6418 182.179 11.4046Z" fill="black"/>
<path id="Vector_31" fill-rule="evenodd" clip-rule="evenodd" d="M183.713 11.6943C183.742 11.8541 183.831 11.9498 183.8 12.1738C183.939 12.28 184.224 12.2447 184.291 12.4279C184.462 12.3596 184.545 12.2081 184.845 12.2712C184.55 11.9232 183.821 12.0245 183.72 11.4837C184.251 11.3897 184.553 11.5518 184.77 11.7913C184.929 11.6988 185.075 11.582 185.386 11.6323C185.417 11.8664 185.371 12.0166 185.326 12.1915C185.128 12.1865 184.98 12.2167 184.909 12.3431C185.185 12.4814 185.654 12.4021 185.822 12.6558C184.795 12.7557 183.889 12.7274 183.32 12.3277C183.26 11.9339 183.506 11.8258 183.725 11.6939L183.713 11.6943Z" fill="black"/>
<path id="Vector_32" fill-rule="evenodd" clip-rule="evenodd" d="M75.5286 15.7016C75.6336 15.9205 75.1243 15.8898 75.1093 15.7914C75.0043 15.5725 75.5136 15.6031 75.5286 15.7016Z" fill="black"/>
<path id="Vector_33" fill-rule="evenodd" clip-rule="evenodd" d="M98.5417 14.8491C98.675 14.7328 99.2941 14.7098 99.4456 14.8156C99.3791 15.1151 98.6564 14.9686 98.5417 14.8491Z" fill="black"/>
<path id="Vector_34" fill-rule="evenodd" clip-rule="evenodd" d="M103.193 14.813C103.429 14.3834 104.218 14.6512 103.898 15.2077C103.695 15.0296 103.228 14.7498 103.129 15.2361C102.536 15.2953 102.28 15.0077 102.012 14.7206C102.356 14.5965 103.013 14.5721 103.193 14.813Z" fill="black"/>
<path id="Vector_35" fill-rule="evenodd" clip-rule="evenodd" d="M153.558 12.737C153.558 12.737 152.789 13.1987 152.656 12.8447C152.838 12.7018 153.262 12.7852 153.558 12.737Z" fill="black"/>
<path id="Vector_36" fill-rule="evenodd" clip-rule="evenodd" d="M131.455 13.6301C131.363 13.9182 131.609 13.8472 131.602 14.0455L131.045 14.0661C131.013 13.7702 131.145 13.6292 131.455 13.6301Z" fill="black"/>
<path id="Vector_37" fill-rule="evenodd" clip-rule="evenodd" d="M115.448 14.3591L115.653 14.3516L115.66 14.6236C115.48 14.655 115.488 14.4814 115.448 14.3591Z" fill="black"/>
<path id="Vector_38" fill-rule="evenodd" clip-rule="evenodd" d="M134.025 13.807C134.358 13.7575 134.619 13.785 134.651 14.0561C134.419 14.1885 134.341 14.0305 134.032 14.079L134.025 13.807Z" fill="black"/>
<path id="Vector_39" fill-rule="evenodd" clip-rule="evenodd" d="M96.1996 15.3566C96.4382 15.4839 96.7609 15.5091 96.8309 15.8159C96.5307 16.1736 95.9632 15.7862 96.1996 15.3566Z" fill="black"/>
<path id="Vector_40" fill-rule="evenodd" clip-rule="evenodd" d="M101.874 15.1465L102.147 15.1364C102.126 15.298 102.274 15.2802 102.23 15.4798C101.995 15.4886 101.88 15.3814 101.874 15.1465Z" fill="black"/>
<path id="Vector_41" fill-rule="evenodd" clip-rule="evenodd" d="M123.92 14.3299C124.07 14.3615 124.401 14.2008 124.345 14.4503C124.195 14.4188 123.865 14.5795 123.92 14.3299Z" fill="black"/>
<path id="Vector_42" fill-rule="evenodd" clip-rule="evenodd" d="M219.203 10.8004C219.53 10.9739 220.242 10.7371 220.388 11.103L219.286 11.1439C219.307 10.9822 219.158 11.0001 219.203 10.8004Z" fill="black"/>
<path id="Vector_43" fill-rule="evenodd" clip-rule="evenodd" d="M115.67 14.7717C116.221 14.9617 117.125 14.4455 117.207 15.1974C116.651 15.2675 116.432 14.9786 115.816 15.1128C115.86 14.9008 115.578 15.035 115.67 14.7717Z" fill="black"/>
<path id="Vector_44" fill-rule="evenodd" clip-rule="evenodd" d="M197.594 11.737C197.829 11.7036 197.978 11.7476 198.153 11.7906L198.164 12.211C197.845 12.3095 197.923 11.9848 197.604 12.0956L197.594 11.7494L197.594 11.737Z" fill="black"/>
<path id="Vector_45" fill-rule="evenodd" clip-rule="evenodd" d="M125.458 14.8918C124.811 15.2994 123.192 15.0624 122.613 14.7249C123.29 14.5513 124.443 14.9789 125.458 14.8918Z" fill="black"/>
<path id="Vector_46" fill-rule="evenodd" clip-rule="evenodd" d="M168.073 13.239C168.081 13.5357 167.542 13.3329 167.309 13.4034C167.32 12.8708 167.761 13.1639 168.073 13.239Z" fill="black"/>
<path id="Vector_47" fill-rule="evenodd" clip-rule="evenodd" d="M153.05 14.0802C153.094 13.8682 152.813 14.0024 152.905 13.7391C153.2 13.6415 153.217 13.8389 153.391 13.8572L153.407 14.4754C152.965 14.6156 153.065 14.1787 152.707 14.2291C152.704 14.1054 152.79 14.0775 152.774 13.9543C152.995 13.8595 152.83 14.175 153.05 14.0802Z" fill="black"/>
<path id="Vector_48" fill-rule="evenodd" clip-rule="evenodd" d="M186.51 12.4941C186.945 12.5274 187.573 12.368 187.899 12.5168C187.995 12.8598 187.328 12.4761 187.423 12.8067C187.432 13.1282 188.104 12.7444 188.124 13.0531C188.431 12.9056 189.298 12.4031 189.305 13.1455C188.486 13.1263 187.871 13.3224 187.161 13.2249C186.993 12.9341 186.739 12.7331 186.522 12.4812L186.51 12.4941Z" fill="black"/>
<path id="Vector_49" fill-rule="evenodd" clip-rule="evenodd" d="M188.52 12.4198C188.619 12.4161 188.718 12.4124 188.733 12.4861L188.736 12.6222L188.39 12.635C188.437 12.559 188.549 12.5549 188.52 12.4198Z" fill="black"/>
<path id="Vector_50" fill-rule="evenodd" clip-rule="evenodd" d="M182.641 12.9838C182.963 12.8728 182.817 13.2619 182.858 13.4584C182.595 13.5177 182.659 13.2059 182.641 12.9838Z" fill="black"/>
<path id="Vector_51" fill-rule="evenodd" clip-rule="evenodd" d="M192.827 12.6064L193.099 12.5964C193.143 12.8546 193.01 12.971 192.838 13.0268L192.827 12.6064Z" fill="black"/>
<path id="Vector_52" fill-rule="evenodd" clip-rule="evenodd" d="M163.383 14.1058L162.553 14.1366C162.567 13.7276 163.324 13.7738 163.383 14.1058Z" fill="black"/>
<path id="Vector_53" fill-rule="evenodd" clip-rule="evenodd" d="M179.039 13.2536C179.247 13.1716 179.167 13.3974 179.182 13.5205L178.91 13.5306C178.818 13.3113 179.131 13.4729 179.039 13.2536Z" fill="black"/>
<path id="Vector_54" fill-rule="evenodd" clip-rule="evenodd" d="M218.469 11.793L219.782 11.7444C219.775 11.9674 219.667 12.0828 219.444 12.1034C219.45 12.3384 219.734 12.266 219.728 12.5137C219.294 12.5298 219.197 12.6076 218.824 12.5472C218.923 12.0609 218.527 12.1003 218.457 11.7935L218.469 11.793Z" fill="black"/>
<path id="Vector_55" fill-rule="evenodd" clip-rule="evenodd" d="M210.371 12.2291C210.47 12.2254 210.569 12.2217 210.584 12.2955L210.587 12.4315L210.24 12.4443C210.288 12.3683 210.399 12.3642 210.371 12.2291Z" fill="black"/>
<path id="Vector_56" fill-rule="evenodd" clip-rule="evenodd" d="M201.501 12.768C201.505 12.9287 201.63 12.9612 201.587 13.1856C201.227 13.1989 200.798 13.3881 200.616 13.0854C200.252 13.3959 199.648 13.0594 199.165 13.065C199.593 12.3807 201.086 13.0185 201.514 12.7675L201.501 12.768Z" fill="black"/>
<path id="Vector_57" fill-rule="evenodd" clip-rule="evenodd" d="M179.188 13.7308L179.392 13.7232L179.399 13.9952C179.173 14.0778 179.181 13.9043 179.188 13.7308Z" fill="black"/>
<path id="Vector_58" fill-rule="evenodd" clip-rule="evenodd" d="M182.857 13.5948C183.355 13.6506 183.732 13.847 184.313 13.8131C184.356 14.0343 184.196 14.065 184.252 14.2981L183.831 14.3137C183.758 13.8956 183.347 13.8242 182.852 13.8672L182.845 13.5952L182.857 13.5948Z" fill="black"/>
<path id="Vector_59" fill-rule="evenodd" clip-rule="evenodd" d="M192.498 13.2378C192.707 13.1806 192.59 13.4695 192.848 13.361L192.857 13.7072C192.586 13.7791 192.677 13.4787 192.371 13.589C192.265 13.3331 192.553 13.4462 192.498 13.2378Z" fill="black"/>
<path id="Vector_60" fill-rule="evenodd" clip-rule="evenodd" d="M196.034 13.2428C196.597 13.9027 197.6 12.9002 197.785 13.7968C196.982 13.9379 196.59 13.643 195.836 13.7329C195.715 13.3908 196.065 13.5016 196.034 13.2428Z" fill="black"/>
<path id="Vector_61" fill-rule="evenodd" clip-rule="evenodd" d="M138.656 15.8507C138.965 15.8021 139.142 15.907 139.149 16.179C138.912 16.1382 138.7 16.0842 138.656 15.8507Z" fill="black"/>
<path id="Vector_62" fill-rule="evenodd" clip-rule="evenodd" d="M103.32 17.3083C103.547 17.4484 103.035 17.8016 102.906 17.596C102.837 17.351 103.176 17.4869 103.323 17.4443L103.32 17.3083Z" fill="black"/>
<path id="Vector_63" fill-rule="evenodd" clip-rule="evenodd" d="M141.65 16.0245C141.408 16.2562 141.001 16.3085 140.686 16.1345C140.794 16.0067 141.31 15.839 141.65 16.0245Z" fill="black"/>
<path id="Vector_64" fill-rule="evenodd" clip-rule="evenodd" d="M121.141 17.1309C120.424 17.2194 119.286 17.8061 119.052 16.936C119.538 17.017 120.891 16.5832 121.141 17.1309Z" fill="black"/>
<path id="Vector_65" fill-rule="evenodd" clip-rule="evenodd" d="M121.554 16.8309C121.777 16.8103 121.854 16.9312 121.908 17.0901L121.561 17.1029L121.554 16.8309Z" fill="black"/>
<path id="Vector_66" fill-rule="evenodd" clip-rule="evenodd" d="M177.825 14.7465C178.314 14.9635 179.154 14.8087 179.703 14.9492C179.758 15.1576 179.47 15.0445 179.576 15.3005L177.705 15.3698C177.676 15.2099 177.586 15.1142 177.618 14.8903C177.755 14.91 177.84 14.8697 177.825 14.7465Z" fill="black"/>
<path id="Vector_67" fill-rule="evenodd" clip-rule="evenodd" d="M43.8028 20.1317C43.7314 20.2457 43.4822 20.1931 43.4616 20.3547C43.3326 20.1615 42.8781 20.3144 42.6885 20.1729C42.8048 19.884 43.6379 19.9893 43.7904 20.1321L43.8028 20.1317Z" fill="black"/>
<path id="Vector_68" fill-rule="evenodd" clip-rule="evenodd" d="M124.746 16.9973L125.092 16.9844C125.21 17.1905 124.64 17.2116 124.746 16.9973Z" fill="black"/>
<path id="Vector_69" fill-rule="evenodd" clip-rule="evenodd" d="M151.715 16.1963C151.872 16.0296 152.333 16.1486 152.617 16.0886C152.46 16.2553 151.999 16.1363 151.715 16.1963Z" fill="black"/>
<path id="Vector_70" fill-rule="evenodd" clip-rule="evenodd" d="M139.448 16.6507C139.514 16.8215 139.774 16.7872 140.009 16.7661C140.064 16.9744 139.941 17.0161 139.945 17.1892C139.539 17.2662 139.578 16.8687 139.171 16.9456C139.051 16.653 139.555 16.9438 139.436 16.6635L139.448 16.6507Z" fill="black"/>
<path id="Vector_71" fill-rule="evenodd" clip-rule="evenodd" d="M147.281 16.3606L147.764 16.3427L147.767 16.4787L147.284 16.4966L147.281 16.3606Z" fill="black"/>
<path id="Vector_72" fill-rule="evenodd" clip-rule="evenodd" d="M134.879 16.9685L136.825 16.8964C136.422 17.1218 135.204 17.5011 134.879 16.9685Z" fill="black"/>
<path id="Vector_73" fill-rule="evenodd" clip-rule="evenodd" d="M170.704 15.6415C171.351 15.7289 172.494 15.3029 172.719 15.8391C171.774 15.7627 171.186 16.0444 170.704 15.6415Z" fill="black"/>
<path id="Vector_74" fill-rule="evenodd" clip-rule="evenodd" d="M161.698 16.1113C161.97 16.0764 162.109 16.195 162.128 16.4419C162.247 16.2394 162.34 16.0009 162.739 16.0727L162.748 16.4189C163.21 16.08 164.882 15.9562 165.18 16.465C164.964 16.7452 164.397 16.8529 164.01 16.7806C163.752 16.8768 164.018 17.065 163.887 17.2678L162.784 17.3087C162.788 16.9991 162.394 17.1004 162.217 16.9831C162.569 16.6978 163.243 16.8585 163.669 17.0036C163.957 16.6464 163.397 16.5805 163.306 16.3983C163.079 16.7408 162.102 16.3933 161.863 16.724C161.771 16.517 161.544 16.4016 161.71 16.1108L161.698 16.1113ZM164.069 16.6423L164.416 16.6294L164.408 16.3574L164.062 16.3703L164.069 16.6423Z" fill="black"/>
<path id="Vector_75" fill-rule="evenodd" clip-rule="evenodd" d="M62.8103 20.2568C61.7524 20.593 60.1437 20.269 58.7154 20.1981C59.8486 19.8962 61.6888 20.0632 62.8103 20.2568Z" fill="black"/>
<path id="Vector_76" fill-rule="evenodd" clip-rule="evenodd" d="M186.724 15.3205C187.302 15.6085 187.978 15.3607 188.737 15.4564C188.257 16.0682 187.03 15.631 186.25 15.6846C186.166 15.3412 186.896 15.7473 186.724 15.3205Z" fill="black"/>
<path id="Vector_77" fill-rule="evenodd" clip-rule="evenodd" d="M172.458 16.3314C172.316 16.5594 172.317 16.6089 172.471 16.8136C172.323 16.8438 172.227 16.9464 172.206 17.0957C172.13 17.049 172.127 16.9377 171.992 16.9675C171.951 16.8205 172.125 16.8635 172.123 16.7522C172.071 16.6799 171.96 16.684 171.981 16.5471C171.788 16.7522 171.239 16.6117 171.071 16.3704C171.536 16.118 171.792 16.4303 172.458 16.319L172.458 16.3314Z" fill="black"/>
<path id="Vector_78" fill-rule="evenodd" clip-rule="evenodd" d="M196.845 15.292L197.463 15.2691C197.468 15.4422 197.307 15.4482 197.26 15.5489C197.145 15.4294 196.875 15.4889 196.832 15.2925L196.845 15.292Z" fill="black"/>
<path id="Vector_79" fill-rule="evenodd" clip-rule="evenodd" d="M67.1218 20.5798C66.6037 20.6733 66.3391 20.5098 65.9419 20.4874C66.0156 20.4599 67.0393 20.2735 67.1218 20.5798Z" fill="black"/>
<path id="Vector_80" fill-rule="evenodd" clip-rule="evenodd" d="M115.291 18.7955C115.154 18.7758 114.872 18.91 114.94 18.6723C115.1 18.6293 115.259 18.5491 115.291 18.7955Z" fill="black"/>
<path id="Vector_81" fill-rule="evenodd" clip-rule="evenodd" d="M61.4422 20.654C62.3631 20.7684 62.9368 20.413 63.4569 20.8516C63.1458 20.8136 62.9997 20.9181 62.8409 21.0106C62.5839 20.6736 61.5664 21.132 61.4419 20.6416L61.4422 20.654Z" fill="black"/>
<path id="Vector_82" fill-rule="evenodd" clip-rule="evenodd" d="M119.586 18.5003C120.021 18.5337 120.649 18.3743 120.975 18.5231C120.862 18.9481 119.681 18.8062 119.586 18.5003Z" fill="black"/>
<path id="Vector_83" fill-rule="evenodd" clip-rule="evenodd" d="M214.603 15.2529C214.245 15.3033 213.61 15.661 213.497 15.1577C213.855 15.1073 214.491 14.7496 214.603 15.2529Z" fill="black"/>
<path id="Vector_84" fill-rule="evenodd" clip-rule="evenodd" d="M187.647 16.1152L188.131 16.0973L188.134 16.2333L187.651 16.2512L187.647 16.1152Z" fill="black"/>
<path id="Vector_85" fill-rule="evenodd" clip-rule="evenodd" d="M190.214 16.0203C190.4 16.0506 190.756 15.9136 190.834 16.0716L190.84 16.2818C190.53 16.2933 190.33 16.2141 190.214 16.0327L190.214 16.0203Z" fill="black"/>
<path id="Vector_86" fill-rule="evenodd" clip-rule="evenodd" d="M190.971 15.9922L191.454 15.9743L191.458 16.1103L190.975 16.1282L190.971 15.9922Z" fill="black"/>
<path id="Vector_87" fill-rule="evenodd" clip-rule="evenodd" d="M207.598 15.3763C207.651 15.4858 207.824 15.467 207.816 15.6406L207.197 15.6635C207.089 15.3333 207.718 15.6937 207.611 15.3759L207.598 15.3763Z" fill="black"/>
<path id="Vector_88" fill-rule="evenodd" clip-rule="evenodd" d="M65.2542 20.785C65.1509 21.0983 64.4882 20.8753 64.1558 20.9619C64.2591 20.6486 64.9219 20.8716 65.2542 20.785Z" fill="black"/>
<path id="Vector_89" fill-rule="evenodd" clip-rule="evenodd" d="M194.158 16.0104L194.505 15.9976C194.622 16.2037 194.052 16.2248 194.158 16.0104Z" fill="black"/>
<path id="Vector_90" fill-rule="evenodd" clip-rule="evenodd" d="M126.179 18.677L126.663 18.6591L126.666 18.7951L126.183 18.813L126.179 18.677Z" fill="black"/>
<path id="Vector_91" fill-rule="evenodd" clip-rule="evenodd" d="M222.037 15.3242C222.132 15.1598 222.519 15.2816 222.728 15.2244C222.608 15.3773 222.181 15.6036 222.037 15.3242Z" fill="black"/>
<path id="Vector_92" fill-rule="evenodd" clip-rule="evenodd" d="M206.029 16.0532L206.995 16.0174L207.002 16.2895C206.493 16.2835 206.527 16.1338 206.098 16.3229C206.095 16.1993 206.007 16.1778 206.016 16.0537L206.029 16.0532Z" fill="black"/>
<path id="Vector_93" fill-rule="evenodd" clip-rule="evenodd" d="M76.7841 20.9894C77.3273 20.9074 77.6896 21.0178 78.1002 21.0768C77.8294 21.1487 76.8561 21.3704 76.7841 20.9894Z" fill="black"/>
<path id="Vector_94" fill-rule="evenodd" clip-rule="evenodd" d="M209.566 16.0708L210.049 16.0529C210.069 16.3245 209.609 16.292 209.566 16.0708Z" fill="black"/>
<path id="Vector_95" fill-rule="evenodd" clip-rule="evenodd" d="M210.185 16.0479L210.668 16.0299L210.671 16.166L210.188 16.1839L210.185 16.0479Z" fill="black"/>
<path id="Vector_96" fill-rule="evenodd" clip-rule="evenodd" d="M218.792 15.9272C218.729 16.3503 219.196 16.2093 219.084 16.6713C218.004 16.6124 217.447 16.6577 216.519 16.7664C216.608 16.3547 216.274 16.4165 216.23 16.1582C217.11 16.1009 218.116 16.175 218.792 15.9272Z" fill="black"/>
<path id="Vector_97" fill-rule="evenodd" clip-rule="evenodd" d="M203.3 17.8872C203.56 17.9023 203.76 17.9692 203.864 18.1386L203.307 18.1592L203.3 17.8872Z" fill="black"/>
<path id="Vector_98" fill-rule="evenodd" clip-rule="evenodd" d="M227.653 18.7344C226.902 18.4536 225.478 19.0525 224.808 18.5706C225.807 18.3345 227.288 18.5502 227.982 18.0287C227.284 17.8944 226.296 18.0683 225.49 18.0496C225.815 17.6782 226.522 17.6636 226.86 17.3042L226.854 17.094C225.72 16.8774 224.296 16.9812 222.896 17.0347C223.75 16.4699 224.631 16.9684 225.941 16.7823C226.125 16.6887 226.069 16.468 226.003 16.2972C224.399 16.6307 223.525 16.3918 222.05 16.4481C221.926 15.9454 220.98 16.3033 220.445 16.2371L220.436 15.8909C220.261 15.8357 219.845 16.0496 219.875 15.7762C220.643 15.7468 221.008 15.968 221.532 15.5768L221.539 15.8488L222.307 15.8195C222.515 15.7125 222.444 15.3563 222.856 15.452C222.974 15.7197 222.674 15.6074 222.652 15.732C222.899 16.1929 223.541 15.562 224.178 15.7481C224.359 15.5308 224.463 15.2545 224.86 15.2394C224.844 15.1162 224.925 14.8903 224.716 14.9725C225.06 14.8233 225.708 14.9471 225.531 14.3226C226 14.2428 226.381 14.0922 226.482 13.6675C226.404 13.5343 226.085 13.6703 226.055 13.4734C225.491 13.7177 224.573 13.728 223.977 13.6888C223.79 13.6836 223.645 13.8376 223.559 13.8409C220.658 13.9021 217.089 14.026 213.787 14.4243C212.277 14.0487 210.151 14.8477 208.794 14.6149C208.595 14.6224 208.601 14.8326 208.454 14.9001C208.034 14.5201 207.408 15.2247 207 14.8194C206.278 15.1935 204.743 14.8313 204.097 15.2768C203.911 15.2591 203.893 15.0741 203.816 14.941C203.444 14.9552 203.021 14.9218 202.853 15.1139C202.929 15.1976 203.054 15.23 202.998 15.4549C201.349 15.0227 199.156 15.6015 197.641 15.0405C198.733 15.0607 199.227 14.9799 200.213 15.2146C200.445 15.0696 200.12 14.9459 200.128 14.797C198.848 14.685 197.566 15.0062 196.455 14.7268C195.709 15.1266 194.94 14.1906 194.159 14.6783C193.5 14.6045 192.499 14.2714 191.863 14.6298C192.002 15.2186 193.264 14.6011 193.609 14.984C193.877 14.8252 194.274 14.7977 194.708 14.8059C194.855 15.2087 194.455 15.1126 194.373 15.3013C192.878 15.0366 191.516 15.6208 190.006 15.2576C189.914 15.0384 190.228 15.1996 190.136 14.9804C190.298 15.0237 190.554 15.3357 190.759 15.0927C190.543 14.9153 190.068 14.7602 189.851 14.9913C189.881 14.7426 189.635 14.8015 189.629 14.5789C188.611 15.0386 187.219 14.4357 186.312 14.8417C185.647 14.5576 184.884 14.7971 184.016 14.7931C183.82 14.8749 183.852 15.1707 183.605 15.2296C183.599 14.9947 183.316 15.0674 183.322 14.8196C182.304 14.7718 181.516 14.9999 180.615 14.7125C180.706 14.3996 181.657 14.2148 181.718 14.6704C182.574 14.1798 184.09 14.7779 184.837 14.4152C185.612 14.6579 186.442 14.6015 187.266 14.3226C188.028 14.5534 189.214 14.3349 190.181 14.3474C190.24 14.2214 190.439 14.2262 190.383 13.9932C190.832 14.0998 190.85 13.8021 191.07 13.6947C191.152 13.9762 191.005 14.0437 190.87 14.1231C191.011 14.2786 191.296 14.2801 191.437 14.448C191.571 14.3686 191.718 14.3011 191.853 14.2218C191.967 13.8461 191.405 14.177 191.495 13.8146C191.557 13.8122 191.542 13.7262 191.566 13.6758C192.116 13.828 192.846 13.7754 193.444 13.8764C193.505 14.3443 194.533 14.2556 194.837 14.0336C194.84 14.1572 194.928 14.1787 194.918 14.3028C195.303 14.2881 195.763 14.3324 195.956 14.127C195.927 13.9796 195.826 13.8845 195.676 13.8654C197.306 13.5681 198.669 14.5062 200.396 14.1061C200.488 13.8179 200.241 13.8892 200.249 13.6909C200.658 13.205 201.117 13.6949 201.699 13.6356C201.755 13.9181 201.672 14.0698 201.5 14.1258C201.478 14.2381 201.565 14.2471 201.58 14.3332C201.746 14.5249 202.088 14.3138 202.198 14.2354C202.942 14.7392 203.546 14.1096 204.348 14.4256C204.497 14.4199 204.365 14.1279 204.412 14.0023C204.793 14.3467 205.083 14.0386 205.46 14.2346C205.644 14.1781 205.587 13.8956 205.798 13.8752C206.045 13.841 205.894 14.2428 206.021 14.3494L206.442 14.3333C206.591 14.3276 206.459 14.0356 206.506 13.9101C207.245 13.7333 207.237 14.3649 207.771 14.4187C208.956 14.1755 210.89 14.1388 211.928 13.9878C212.092 14.0929 212.304 14.1467 212.625 14.0973C212.721 13.9451 212.93 13.8877 212.962 13.6637L213.792 13.632C214.119 14.3002 214.896 13.627 215.316 13.5738C215.514 13.5539 215.791 13.7042 216.013 13.6833C216.36 13.6577 216.662 13.3492 216.918 13.6488C217.143 13.7021 217.011 13.4225 217.185 13.4282C218.113 13.3433 219.037 13.0729 219.681 13.5434C220.955 13.3834 222.394 13.3903 223.489 13.0515C224.164 13.2485 224.802 13.0014 225.488 12.6287C225.527 12.7262 225.41 12.9906 225.571 12.972C225.951 12.809 226.293 12.6103 226.597 12.3759C226.69 12.1125 226.408 12.247 226.452 12.0349C226.075 12.3216 225.905 11.9692 225.349 12.077C225.167 12.2077 225.111 12.445 224.877 12.5158C224.437 12.2975 224.13 11.9379 223.751 11.6553C224.599 11.363 225.789 12.2954 226.39 11.5546C226.19 11.4879 225.966 11.4346 225.765 11.368C225.758 11.0836 226.082 11.1332 226.24 11.0034C225.6 10.706 224.344 11.0757 223.873 10.611C223.888 10.2144 224.437 10.3296 224.833 10.3021C224.853 10.1404 224.705 10.1584 224.75 9.95872C224.485 9.78318 223.666 9.76493 223.5 10.0807C223.297 9.90277 222.961 9.85371 222.528 9.90736C222.557 9.0894 223.572 9.52095 224.045 9.57717C224.18 9.51014 224.187 9.31183 224.169 9.08974L224.727 9.06846L224.72 8.79644C223.327 8.66394 221.658 8.86379 220.424 9.09655C220.275 9.10223 220.406 9.39425 220.36 9.51979C221.033 9.64263 221.407 9.73972 221.886 9.53581C221.793 9.79925 222.196 9.53635 222.104 9.79979C221.219 10.1182 219.825 9.96099 218.788 10.1367C218.648 9.99356 218.508 9.86275 218.429 9.66775C218.884 9.51424 219.723 9.82877 220.022 9.39655C219.342 9.00169 217.776 9.34613 216.552 9.52897C216.497 9.80335 216.792 9.69308 216.701 10.006C216.409 10.2152 215.734 10.0429 215.747 10.5251C215.594 10.3948 215.298 10.4308 215.182 10.2744C214.457 10.5372 213.595 10.3102 212.691 10.3694C212.072 10.4178 211.775 10.9242 211.045 10.9892C211.004 10.8422 211.179 10.8851 211.176 10.7738C210.874 10.5873 210.574 10.9824 210.353 11.0775C210.356 11.2011 210.443 11.2226 210.434 11.3467C211.388 10.8276 213.464 11.4909 214.033 10.937C214.514 11.3271 215.547 10.4956 215.911 11.1376C214.712 11.2824 213.636 11.3978 212.1 11.4935C212.079 11.6552 211.804 11.5667 211.834 11.7759C210.335 11.8455 208.909 11.8504 207.664 11.6628C207.505 11.7679 207.296 11.813 207.188 11.9533C206.497 11.6207 205.202 11.93 204.536 11.5718C204.604 11.334 205.004 11.4302 204.869 11.0021C204.642 10.887 204.332 10.8617 204.166 10.6824C204.522 10.5574 205.032 10.5875 205.058 10.1657C205.407 10.2266 205.635 10.4036 205.899 10.5544C206.087 10.1511 206.379 10.4123 206.586 10.2559C206.766 10.5089 207.667 10.8211 207.903 10.3418C208.482 10.6662 209.204 9.79704 209.91 10.2651C210.133 10.2566 210.127 10.0217 210.248 9.90569C210.799 10.0951 210.871 9.98096 211.302 10.3482C211.525 10.352 211.596 10.2256 211.642 10.0629C212.337 10.0859 212.644 9.97516 212.959 10.1488C213.079 10.0081 213.136 9.82023 213.219 9.65618C213.834 10.4372 214.921 9.77686 215.66 10.0457C215.766 9.84362 216.153 9.91551 216.209 9.67822C216.29 9.45234 215.984 9.63727 216.066 9.4114C215.754 9.37376 215.608 9.47835 215.449 9.57105C214.913 9.46774 213.816 9.23734 213.364 9.51449C211.815 9.57361 209.13 9.31719 207.128 9.61636C206.938 9.45035 206.615 9.46265 206.434 9.64285C205.208 9.25643 203.053 9.84614 201.989 9.46594C201.894 9.63046 201.608 9.60425 201.576 9.82823C200.864 9.60789 200.067 9.48979 199.077 9.57708C199.046 9.83815 199.294 9.81633 199.433 9.91005C199.426 10.1454 199.077 10.0721 199.097 10.3437C199.263 10.5354 199.925 10.2254 200.006 10.5194C200.088 10.3182 200.475 10.4148 200.481 10.1547C200.908 10.3859 201.146 9.95606 201.451 10.2538C201.697 10.1949 201.524 9.7312 201.923 9.81499C202.03 10.0956 201.78 10.0432 201.798 10.2406C201.826 10.388 202.145 10.2521 202.283 10.2963C202.376 10.0329 202.094 10.1674 202.138 9.95532C202.262 9.97532 202.273 9.90066 202.271 9.81411C202.624 10.0482 202.99 10.2817 203.669 10.1815C203.81 10.3494 203.614 10.4559 203.756 10.6609C203.981 10.739 203.8 10.4365 204.025 10.5145C203.983 11.2835 202.339 10.5541 202.17 11.2042C201.926 10.8917 201.692 11.4328 201.472 11.0946C201.513 11.2416 201.339 11.1987 201.341 11.31C201.903 11.4495 202.598 11.4477 203.087 11.6642C202.986 12.0889 202.506 11.7359 202.124 11.8371C201.975 11.8428 202.093 12.0858 202.058 12.1862C201.849 12.256 201.348 12.0647 201.368 12.3487C201.178 12.1826 200.93 12.1921 200.748 12.3723C200.54 12.4545 200.621 12.2287 200.605 12.1055C200.169 12.0107 200.164 12.3203 199.778 12.2732L199.77 11.927L200.389 11.9033C200.296 11.647 200.057 11.5447 199.819 11.4424C199.995 11.0396 200.416 11.4939 200.724 11.4079C200.68 11.1496 200.358 11.1743 200.363 10.8647C198.971 11.2396 197.602 10.5987 196.272 10.9466C196.182 11.3089 196.49 11.2353 196.424 11.5596C196.139 11.5705 196.023 11.4264 195.799 11.373C195.793 11.1381 195.901 11.0226 196.137 11.0136C195.481 10.5931 194.901 10.6895 194.264 11.0108C194.195 10.7535 193.716 10.9327 193.695 10.6117C192.713 10.9834 191.412 10.5751 190.576 10.8669C190.305 10.9391 190.397 10.6386 190.09 10.7493C189.939 11.1511 190.403 10.8859 190.373 11.1593C190.136 11.1188 190.039 11.2092 190.107 11.4417C190.568 11.4984 191.07 11.2441 191.423 11.4658C191.658 11.4568 191.589 11.1748 191.837 11.1777C192.063 11.2681 192.095 11.5639 192.538 11.4232C192.66 11.332 192.667 11.146 192.802 11.0666C192.988 11.0843 193.005 11.2693 193.083 11.4024C193.347 11.0582 193.806 11.5234 194.057 11.6376C193.799 11.7588 193.957 12.124 194.205 12.1146C193.814 12.3275 193.201 12.1529 192.755 12.1699C192.519 12.1542 192.69 12.519 192.339 12.3962C192.361 12.2716 192.286 12.2621 192.2 12.2654C192.257 12.1023 192.48 12.0814 192.614 11.9773C192.537 11.8688 192.291 11.9401 192.262 11.7803C192.037 11.7146 192.091 11.8982 191.993 11.9267C191.287 11.4957 189.949 12.0295 188.866 11.9099C188.621 12.0306 188.823 11.6764 188.65 11.7077C188.363 11.6197 188.431 11.8646 188.233 11.8598C188.285 11.4742 187.721 11.7432 187.87 11.2548C188.264 11.1408 188.151 11.5783 188.569 11.4386C188.73 11.4077 188.585 11.0914 188.631 10.9535C187.113 10.7515 186.289 11.0429 184.884 10.8861L184.873 10.4657C185.441 10.3574 185.731 10.5444 186.19 10.5516C186.377 10.594 186.132 10.232 186.319 10.2744C186.772 10.5417 187.879 10.1406 188.127 10.6262C188.248 10.5102 188.394 10.418 188.325 10.1359C188.737 10.244 188.67 10.0485 189.015 9.97345C189.217 10.0772 189.894 10.3978 189.918 9.86474C188.773 9.71042 186.935 9.6073 185.753 9.94945C184.657 9.78087 183.192 9.71303 181.931 9.88491C181.753 9.71843 181.07 9.70735 180.814 9.85329C181.021 10.2043 181.965 9.77221 182.269 10.0082C182.353 10.3763 181.482 10.2734 181.44 10.114C181.292 10.1444 181.196 10.2471 181.175 10.3965C181.749 10.5231 182.262 10.7139 182.787 10.8919C182.574 11.2837 181.867 10.8032 181.539 11.0756C181.608 11.3329 181.439 11.525 181.554 11.632C182.168 11.9056 182.956 11.1577 183.161 11.9172C182.524 11.7435 181.758 12.3668 181.633 11.8394C181.396 11.7742 181.527 12.0539 181.506 12.1908C180.678 12.2967 179.411 11.7633 179.514 12.8857C179.327 12.8557 178.971 12.993 178.893 12.8351C178.962 12.6468 179.172 12.6017 179.369 12.5447C179.336 12.2241 179.11 12.109 178.932 11.9425C178.645 11.8545 178.713 12.0994 178.514 12.0946C178.312 11.9291 177.964 11.9176 178.015 11.4948C178.347 11.3831 178.305 11.657 178.576 11.6095C178.832 11.4265 178.421 11.3556 178.49 11.1301C178.306 11.2114 177.96 11.2865 177.868 11.0796C177.761 10.7619 178.187 10.9313 178.206 10.7202C178.219 10.237 177.941 10.0496 178.107 9.75855C177.733 9.68619 177.829 10.0291 177.557 10.0519C177.439 9.82118 177.213 9.70605 177.059 9.51389C177.637 9.30619 178.723 9.58653 179.06 9.16526C178.185 8.92634 177.458 8.63229 176.562 8.98829C176.372 8.83464 175.465 8.75789 175.31 9.03606C175.197 8.96612 175.132 8.84484 175.031 8.77444C174.472 9.25368 173.524 8.55964 173.027 8.98706C173.06 9.3076 173.443 9.25584 173.597 9.448C174.123 9.16801 175.795 9.56213 176.571 9.3345C176.639 9.59179 177.131 9.41214 177.066 9.79828C176.454 10.0939 175.346 9.95057 174.505 10.0322C174.461 10.2443 174.742 10.1097 174.65 10.3732C175.009 10.3595 175.392 10.2954 175.486 10.5517C175.591 10.8076 175.176 10.5759 175.282 10.8318C175.3 11.0415 175.583 10.9812 175.638 11.1647C175.412 11.557 175.355 11.2869 174.809 11.2706C174.35 11.251 173.845 11.394 173.558 11.3184C173.383 11.2755 173.18 11.11 172.786 11.2117C172.732 11.5232 173.077 11.4234 173.071 11.6835C173.545 11.3065 174.1 12.1393 174.809 11.7533C174.925 11.9345 175.102 12.0639 175.038 12.4377C174.876 12.4191 174.775 12.3363 174.552 12.3819C174.547 12.1841 174.313 12.2549 174.405 11.9667C174.169 11.951 174.301 12.2677 174.205 12.3952C174.041 12.2653 173.768 12.251 173.434 12.2885C173.344 12.6508 173.652 12.5772 173.586 12.9015C173.305 13.0608 173.076 12.8591 172.681 12.936C172.733 13.0083 172.844 13.0041 172.823 13.141L172.476 13.1543C172.681 12.936 172.416 12.7358 172.117 12.6853C171.968 12.691 172.099 12.983 172.053 13.1085C172.352 13.1466 172.554 13.2874 172.623 13.5695C172.897 13.6209 172.79 13.3279 173.103 13.415C173.182 13.61 173.184 13.6966 173.115 13.8972C172.72 13.9618 172.275 13.558 172.012 13.9393C171.315 13.8422 171.198 13.1412 170.936 12.5942C171.111 12.6494 171.202 12.7945 171.497 12.7089C171.504 12.4859 171.378 12.4164 171.216 12.3731C171.492 12.0408 171.079 11.8956 171.331 11.5395C170.578 11.1846 169.793 11.0536 168.833 11.3625C169.026 11.6275 169.436 11.6737 169.617 11.9515C169.369 11.9362 169.171 11.9685 169 12.0493C168.921 12.3741 169.241 12.2752 169.15 12.6005C168.739 12.5172 168.581 12.1643 168.362 11.8632C168.054 11.9245 167.902 11.8312 167.739 11.7508C167.344 11.8031 167.788 12.2193 167.405 12.2463C167.152 11.6 168.1 11.3286 168.297 11.7296C168.52 11.7334 168.591 11.6069 168.637 11.4443C168.633 11.2959 168.339 11.4309 168.214 11.3862C167.986 10.7389 167.503 11.2277 167.024 10.9489L167.013 10.5285C167.285 10.4934 167.281 10.7906 167.435 10.5124C167.67 10.5034 167.615 10.7902 167.863 10.7684C168.071 10.649 168.202 10.4584 168.474 10.3985C167.626 9.7625 165.837 10.1155 164.579 9.9283C164.472 10.0809 164.567 10.4115 164.167 10.2906C164.256 10.8813 165.179 10.5861 165.498 10.9329C165.604 11.1887 165.189 10.9571 165.294 11.2129C165.005 11.0383 164.62 11.0406 164.25 11.1167C164.252 11.2032 164.241 11.2408 164.179 11.2555C164.332 11.918 165.404 11.6048 166.137 11.6635C166.244 11.9688 165.944 11.8812 166.013 12.1509C165.641 12.1527 165.341 12.0652 164.908 12.1188C164.76 12.1492 164.892 12.466 164.846 12.6039C164.671 12.5487 164.255 12.7626 164.285 12.4891C164.127 12.6189 164.096 12.8553 163.734 12.7824C163.701 12.9446 163.834 13.2861 163.674 13.3417C163.005 12.8845 163.19 11.8749 162.58 11.3041C162.802 11.2585 162.928 11.3156 163.005 11.4241C163.466 10.5277 161.29 11.2791 160.846 10.8877C160.52 11.2343 160.212 10.85 159.743 10.9297C159.673 10.6354 159.934 10.6502 159.941 10.4395C159.936 10.2417 159.726 10.2868 159.722 10.1013C159.131 10.2971 157.646 9.92064 157.378 10.6116C157.917 10.8262 159.095 10.348 159.26 10.9606C159.136 10.9777 158.911 10.8996 158.991 11.107C158.489 10.8786 157.225 10.9392 156.912 11.3224C156.675 11.2696 156.595 11.0375 156.418 10.9205C155.742 11.1567 155.424 10.847 154.278 11.1383C154.271 11.8317 155.532 11.1771 155.682 11.7036C155.306 12.0644 154.865 11.7966 154.586 12.0177C154.335 11.9035 154.217 11.6481 153.749 11.7773C153.646 12.1154 153.954 12.0294 153.972 12.2515C153.612 12.2652 153.349 12.1639 153.34 11.793C153.03 11.8048 152.834 11.8989 152.727 12.0886C152.493 11.652 151.606 11.9086 151.263 11.5875C151.509 11.5039 152.098 11.7413 152.026 11.348C152.145 11.6282 152.837 11.5522 152.993 11.3111C153.234 11.5371 153.813 11.3912 154.248 11.3994C154.339 11.1112 154.093 11.1825 154.101 10.9842C152.889 11.1294 151.541 10.822 150.783 11.2469C150.717 11.5589 151.29 11.1905 151.139 11.5799C150.293 11.9835 149.659 10.9309 148.487 11.1984C148.321 11.5018 148.46 12.0782 148.59 12.296C148.216 12.2237 147.685 12.3182 147.806 11.7071L148.289 11.6887L148.282 11.4167C148.23 11.332 147.596 11.2696 147.664 11.5145C147.475 11.3979 147.419 11.1525 147.231 11.0483C147.123 11.1886 146.773 11.1153 146.818 11.4106C146.196 11.323 145.993 11.6278 145.434 11.5996L145.427 11.3276C145.164 11.2386 145.295 11.5183 145.083 11.4768C145.176 11.2134 144.894 11.3479 144.938 11.1358C144.959 10.9865 145.056 10.8838 145.204 10.8534C145.415 10.8454 145.42 11.0556 145.425 11.2658L146.045 11.2421C146.173 10.9031 145.805 11.0656 145.823 10.8298C146.094 10.7328 145.965 11.0471 146.248 10.9497C146.347 10.9212 146.306 10.7742 146.316 10.6748C145.866 10.5435 145.44 10.3741 144.99 10.2427C144.714 10.1419 144.973 10.5404 144.786 10.5228C144.563 10.5437 144.486 10.4229 144.432 10.264L143.528 10.2986C143.086 10.9961 142.084 10.6135 141.446 10.378C141.183 10.289 141.314 10.5687 141.102 10.5273C140.412 10.2194 139.004 10.9291 138.187 10.5024C138.052 10.5818 137.905 10.6493 137.771 10.7287C137.783 11.2109 138.396 10.9276 138.541 10.7735C138.499 11.0474 138.951 10.8074 138.897 11.1065C139.016 11.4114 138.437 11.0869 138.557 11.3918C138.989 11.8084 140.015 11.1876 140.168 11.813C139.508 11.7144 139.109 12.1133 138.718 11.8683C138.546 11.9367 138.45 12.0642 138.304 12.1564C138.355 12.2287 138.467 12.2244 138.445 12.3614C138.814 12.2483 139.32 12.1424 139.697 12.3136C138.763 12.6711 137.903 12.9762 136.732 12.7733C136.677 13.0477 136.851 13.0658 136.953 13.1857C137.33 12.899 137.464 13.29 137.996 13.2202C138.078 13.5141 137.931 13.6063 137.874 13.7818C137.263 13.6689 136.93 13.2608 136.066 13.43L136.052 12.8735C135.225 12.5585 134.095 12.9977 133.137 12.8487C133.168 13.1197 132.73 12.9632 132.724 13.211C132.121 12.8874 131.743 13.1494 131.057 13.0023L131.048 12.6561C130.753 12.754 130.735 12.5566 130.561 12.5385C130.443 12.2708 130.858 12.5025 130.828 12.3179C130.223 11.945 128.489 12.0112 127.835 12.1599C126.153 11.8651 124.621 12.0969 123.39 11.983C123.304 12.4937 123.713 12.4905 124.171 12.4359C124.274 12.5928 124.329 12.7888 124.456 12.9077C124.821 12.6338 124.915 12.9397 125.422 12.8708C125.515 13.0901 125.2 12.9288 125.293 13.148C124.719 13.0338 124.397 13.0584 124.041 13.1958C123.828 13.1173 123.845 12.7949 123.68 12.6526C123.455 12.5746 123.636 12.8771 123.411 12.799C123.165 12.4 123.16 11.7318 122.287 12.0127L122.292 12.2229C122.371 12.4055 122.583 12.4346 122.783 12.4765C122.78 12.8479 122.499 12.5368 122.305 12.7051C122.311 12.94 122.594 12.8673 122.588 13.1151C122.163 12.9705 122.127 13.0461 121.823 13.2804C121.808 13.1573 121.889 12.9314 121.68 13.0136C121.317 12.879 121.627 13.3622 121.34 13.2989C121.133 12.9479 120.684 12.8536 120.223 12.7846C120.613 12.5221 119.896 12.6238 119.938 12.3128C120.098 12.2695 120.258 12.2015 120.494 12.2173C120.545 11.7822 120.064 11.9119 120.2 11.3993C119.575 11.2251 118.521 11.2158 117.769 11.4178C116.638 11.3001 115.28 11.0672 114.372 11.4732C114.787 11.6925 115.396 11.7188 115.979 11.7584C116.128 11.728 116.035 11.4963 116.183 11.4783C117.262 11.4495 117.965 11.8063 119.104 11.7134C118.834 12.3177 117.706 11.8534 117.233 11.7848C117.149 11.8994 116.964 11.9436 117.033 12.2132L116.55 12.2317C116.724 12.7572 117.425 12.0373 117.525 12.541C117.495 12.8021 116.994 12.6355 116.912 12.8367C116.495 12.5184 115.667 12.649 115.105 12.4848C114.75 12.6593 115.267 12.9861 115.121 13.1031C115.04 13.3413 114.808 12.9912 114.427 13.1295C114.556 12.3696 113.78 12.5849 113.306 12.4792C113.239 12.259 113.362 12.2172 113.434 12.1278C113.303 11.8729 112.919 11.8752 112.933 11.4538C112.014 11.4146 111.485 11.5957 110.58 11.6179C110.659 12.2708 111.933 11.6405 112.193 12.1133C112.46 11.8803 112.905 11.8262 113.1 12.1529C113.205 12.4088 112.917 12.296 112.972 12.5043C113.177 12.7564 113.466 12.9187 113.889 12.952C113.846 13.2012 113.178 13.301 113.061 13.0579C112.951 13.1364 112.892 13.2624 112.795 13.3403C112.475 13.4392 112.554 13.1144 112.234 13.2256L112.218 12.6074L112.838 12.5837C112.58 12.2099 111.731 12.4898 111.305 12.2957C111.118 12.2781 111.376 12.6766 111.101 12.5758C111.368 12.8502 111.606 12.9401 112.011 12.7514C112.183 13.1657 111.63 12.8897 111.751 13.2441C111.595 12.9653 111.004 13.1364 110.986 13.4094C110.539 13.414 110.286 13.2009 109.876 13.1795C109.817 13.3055 109.619 13.3007 109.674 13.5337C110.099 13.666 110.499 13.7869 110.928 13.5601C110.961 13.8807 110.422 13.6784 110.379 13.9276C109.569 13.7729 108.821 14.1109 107.734 13.8182L107.723 13.3978C107.488 13.4067 107.557 13.6888 107.309 13.6859C107.305 13.5251 107.18 13.4928 107.224 13.2683C107.308 13.1661 107.519 13.1828 107.705 13.1757C107.585 12.8337 107.187 12.787 107.066 12.4327C106.672 13.0418 105.787 12.3701 105.202 12.7761C105.279 12.8599 105.403 12.8922 105.347 13.1171C105.015 13.2288 105.058 12.9549 104.786 13.0024C104.713 13.0671 104.653 13.1436 104.581 13.2207C104.822 13.4466 105.655 13.0311 105.691 13.4506C104.995 13.4029 104.467 13.621 104.092 13.5116C104.021 14.1084 104.903 13.6911 105.012 14.0953C103.946 14.0865 103.513 14.1525 102.516 13.9802C102.608 13.692 102.362 13.7633 102.369 13.565C102.575 13.3591 102.729 13.0933 103.265 13.1842C102.685 12.8103 101.574 13.0013 100.619 13.0129C100.471 13.0433 100.603 13.3601 100.557 13.498C101.119 13.6498 102.009 13.0589 102.013 13.7147C101.379 13.6275 100.649 13.7049 99.8698 13.7965C99.7032 14.5578 98.1352 14.3578 97.4499 14.2354C97.4255 13.766 96.8936 13.8235 96.8092 13.4306L96.1896 13.4543C96.1864 13.3306 96.0991 13.3092 96.1083 13.1851C95.883 13.107 96.0644 13.4095 95.8392 13.3315C95.1717 12.9362 94.3058 13.5138 93.7643 13.683C93.4819 13.7928 93.5375 13.5431 93.3396 13.563C93.2665 13.6153 93.2693 13.7266 93.1324 13.7071C93.1876 13.9278 93.723 14.0063 93.8282 13.7548C93.9429 13.8742 94.2142 13.8143 94.2565 14.0107C93.6295 14.2327 92.7866 14.2525 92.0453 14.3674C92.2722 14.5073 92.5635 14.7437 92.2737 15.0518C91.6837 14.7773 90.6955 14.9387 89.8396 14.9343C89.845 14.6618 89.5006 14.7739 89.4819 14.5271C89.1416 14.8 88.7374 15.0011 88.1048 15.0005L88.094 14.5801L88.9243 14.5484C88.9685 14.3363 88.7953 14.3553 88.8392 14.1308C88.6139 14.0528 88.498 13.884 88.1399 13.9471C88.0318 14.0874 88.0512 14.359 87.8037 14.3808C88.1264 14.8759 87.1907 15.1468 86.5079 15.1233C86.552 15.3939 86.8132 15.4211 87.1344 15.3717C87.2268 15.5909 86.9126 15.4297 87.005 15.6489C86.5164 15.4572 85.6417 15.6886 85.2614 15.3689C85.1906 15.0251 85.4632 15.0147 85.596 14.8735C85.5274 14.6162 85.2656 14.5643 85.3658 14.1149C85.1968 13.8119 84.325 13.6719 84.4666 14.3596C84.3532 14.2897 84.2881 14.1684 84.187 14.098C83.976 14.5764 83.0152 14.3531 82.3972 14.4386L82.4042 14.7106C82.4826 14.8685 82.8385 14.7188 83.0256 14.7612C83.0701 15.0441 82.4922 14.7568 82.6894 15.1948C82.4292 15.2047 82.5074 14.8676 82.1992 14.9412L82.1869 14.459C81.7436 14.5873 81.173 14.5843 80.806 14.784C80.3615 14.3801 79.1201 14.8236 78.7844 14.3042C78.3716 14.6541 78.6905 15.0009 78.4639 15.3561C78.0624 15.1734 78.3617 14.7535 78.3649 14.3945C77.5567 14.3139 76.3054 14.374 75.5874 14.4262C75.5705 14.7363 75.9756 14.5723 76.0194 14.8305C75.8698 14.7991 75.539 14.9602 75.5946 14.7106C75.5997 14.9084 75.2115 14.7623 75.2546 14.9959C75.0643 14.8298 74.8165 14.8393 74.6351 15.0195C74.8123 15.1613 74.8209 15.4951 74.9254 15.7015C74.5508 15.6044 74.1276 15.5463 73.8013 15.3979C74.2341 14.8615 73.4128 14.7567 73.3519 14.3135C73.5269 14.3687 73.6175 14.5138 73.9129 14.4282C73.8228 13.8128 73.4308 13.5184 72.7127 13.5705C72.6072 13.8097 72.5017 14.0489 72.3072 14.2048C71.4907 13.8028 70.6632 14.4285 69.9598 14.5667C70.0243 14.6633 70.1974 14.6443 70.2377 14.7665C70.5005 14.8555 70.3693 14.5758 70.5812 14.6173C70.5853 14.778 70.7102 14.8104 70.6663 15.0348C71.5086 14.9903 71.6747 15.6647 72.3479 15.7999C73.3771 15.7854 74.2498 15.9625 75.2669 15.9608C75.9655 16.1198 76.9577 16.6017 77.6282 16.1429C77.7321 15.8419 77.2444 16.17 77.3486 15.8813L77.4849 15.8761L77.4815 15.7401C77.6902 15.6579 77.6092 15.8837 77.6247 16.0069C78.1944 15.9728 78.6192 16.0927 79.2251 16.0201C78.909 15.7846 78.8468 15.2919 78.7118 14.8639L79.9634 14.8161L79.9757 15.2984C80.3258 15.4088 80.52 15.2405 80.9422 15.2615C80.9959 15.4203 80.8322 15.8102 81.0908 15.7385C81.135 16.0091 80.7089 15.8397 80.829 16.1693C82.6393 16.6324 85.2032 16.0024 86.8778 16.4954C87.39 16.154 88.2774 16.4172 88.7524 16.56C89.5741 16.1945 90.3162 16.5993 91.1776 16.3313C91.2416 15.9204 90.6903 16.189 90.6821 15.8675L91.1034 15.8514C91.0186 15.4462 90.5115 15.5027 90.1934 15.6758C90.0428 16.0899 90.6894 15.6692 90.6236 16.0059C90.1959 16.2574 90.0603 15.8046 89.5792 15.9096C89.5192 15.5035 89.8179 15.5416 89.5634 15.2914C89.7115 15.261 89.8081 15.1583 89.8291 15.0089C90.4884 15.0828 90.8581 15.4771 91.7109 15.3579C91.7814 15.6894 91.3821 15.5933 91.4525 15.9247C91.4379 16.3214 92.039 16.0633 92.1572 16.3187C92.6183 15.9174 93.5768 16.5368 94.2974 16.1008C94.5798 16.4737 95.2805 15.7415 95.6144 16.1867C96.6083 15.7651 97.8153 16.3998 99.0062 15.9211C99.5355 16.2475 100.666 15.8207 101.017 15.9805C101.165 15.9501 101.262 15.8474 101.283 15.6981C102.514 15.812 103.832 15.4523 105.032 15.8273C105.061 15.492 105.839 15.8707 105.855 15.5236C106.248 15.8675 106.646 15.4191 107.169 15.4735C107.342 15.4792 106.877 15.237 107.16 15.1272C107.393 15.0441 107.277 15.3332 107.305 15.4683C107.958 15.2948 108.477 15.7082 108.829 15.4101C109.062 15.7972 110.201 15.2339 110.435 15.6211C110.613 15.3173 111.439 15.6199 111.605 15.3042C112.112 15.718 112.694 15.2254 113.21 15.5152C113.257 15.3896 113.418 15.3958 113.477 15.2946C113.156 14.8613 112.074 15.2244 111.728 14.8044C112.382 14.6557 113.817 14.5142 113.962 15.3379C115.575 15.3383 116.083 15.3189 117.361 15.3444C117.467 15.1052 117.75 15.0325 117.906 14.8409C118.324 15.1591 119.273 14.9125 119.786 15.1157C119.827 14.7676 119.409 14.9073 119.498 14.5078C119.992 14.4271 120.112 14.7567 120.546 14.7401C120.626 14.9599 120.439 14.9175 120.416 15.0174C120.621 15.2571 121.367 15.3276 121.525 15.1855C122.321 15.3036 123.31 15.1421 124.304 15.2156C124.763 15.2475 125.178 15.4668 125.626 15.5116C126.596 15.5984 127.676 15.6314 128.25 15.2754C128.76 15.3302 129.559 15.0769 129.852 15.3504C130.077 15.4284 129.895 15.1259 130.121 15.2039C130.784 15.4509 131.907 15.1977 132.486 15.5345C132.689 15.2173 133.602 15.5414 133.792 15.2123C133.956 15.3051 134.168 15.3342 134.283 15.4659C134.431 15.4355 134.527 15.3328 134.548 15.1835C134.943 15.1189 135.517 15.2332 135.798 15.0615C135.443 14.7533 134.918 14.6248 134.938 13.9186C135.024 13.9153 135.003 14.0399 135.017 14.1259C135.257 14.2777 135.774 14.1218 136.122 14.158C136.094 14.0353 136.168 14.0201 136.255 14.0168C136.137 13.7614 136.141 13.9345 136.246 13.6706C136.612 13.9042 137.112 13.5881 137.163 14.1183C136.974 13.9894 136.651 14.0017 136.462 13.8728C136.339 14.4097 137.215 14.2277 137.646 14.0999C137.803 14.4033 137.614 14.7695 137.744 14.9997C137.935 15.2028 138.621 14.8672 138.716 15.173C140.142 14.6853 141.589 15.0262 142.723 14.7477C142.981 14.6389 142.864 14.928 143.074 14.8705C143.803 14.2981 145.707 15.0299 146.246 14.2667C146.583 14.8108 147.439 14.3697 147.993 14.6827C148.203 14.6376 148.272 14.4369 148.406 14.3205C150.118 14.8492 152.435 14.2409 154.511 14.434C155.418 14.486 156.828 14.3455 157.913 14.5764C158.11 14.4947 158.077 14.1865 158.248 14.081C158.485 14.1338 158.577 14.3531 158.682 14.5471L158.892 14.5391C159.041 14.5334 158.923 14.2904 158.958 14.19C158.939 13.9556 158.437 14.2099 158.468 13.9364C159.041 14.0383 159.211 13.8957 159.574 14.0304C159.352 14.0883 159.333 14.3118 159.45 14.5178C159.454 14.6662 159.748 14.5312 159.873 14.5759L159.884 14.9963L160.231 14.983C160.225 14.7481 159.941 14.8208 159.947 14.5731C160.376 14.3463 161.439 14.7141 161.537 14.1658C161.683 14.5192 162.43 14.6392 162.504 14.129C163.375 14.269 164.162 14.4865 165.01 14.6521C165.169 14.5594 165.315 14.4425 165.626 14.4925C165.721 14.823 165.398 14.7735 165.43 15.0569C165.555 15.114 165.62 15.2229 165.782 15.2539C166.092 15.2421 166.02 14.8487 166.393 14.884L166.382 14.4636C166.95 14.3553 167.192 14.5936 167.434 14.8443C167.541 14.6917 167.268 14.6526 167.497 14.4211C168.738 14.9306 170.361 14.3736 171.94 14.5238C172.091 14.122 171.627 14.3872 171.657 14.1138C172.807 13.9585 173.296 15.1404 174.369 14.4311C174.823 14.7355 175.869 14.3986 176.323 14.703C176.482 14.6103 176.526 14.3983 176.736 14.3408C176.943 14.667 177.415 14.7109 177.525 15.1399C177.326 15.1103 176.946 15.2857 177.037 14.9481C176.238 15.2509 175.356 14.7028 174.682 15.038C173.254 14.4613 171.572 15.627 170.308 14.7222C169.567 14.8495 168.969 14.7486 168.166 14.8782C168.15 15.2006 168.326 15.3177 168.66 15.2802C168.312 15.7266 167.061 15.3164 166.448 15.575C164.969 14.9755 163.232 15.9453 161.997 15.1879C161.939 14.8436 162.397 15.3088 162.477 15.0335C162.159 14.7238 161.371 14.9395 161.017 14.6684C161.019 14.7549 161.007 14.7925 160.946 14.8072C160.701 14.928 161.109 14.9 161.027 15.0764C160.183 15.0591 159.281 15.1802 158.533 15.0355C158.445 15.0141 158.403 14.7929 158.315 14.7715C157.965 14.6611 157.51 14.827 157.212 14.8136C156.566 14.7764 156.147 14.8543 155.552 14.877C155.255 14.8883 154.885 14.5187 154.647 14.9115C153.92 15.0754 153.409 14.5008 152.987 14.9748C152.992 15.1727 153.226 15.1019 153.134 15.39C152.748 15.3429 152.531 15.574 152.229 15.4246C152.247 15.1516 152.519 15.1041 152.842 15.1289C152.884 14.8426 152.613 14.9025 152.486 14.7959C150.778 14.923 148.469 14.8502 146.664 15.0924C146.772 15.4348 147.247 15.0949 147.432 15.0631L147.443 15.4835L148.273 15.4518C148.394 15.3234 148.451 15.1232 148.61 15.0181C149.718 15.211 151.093 15.1338 152.153 15.3656C150.077 15.6552 147.459 15.619 145.229 15.7041C145.32 15.416 145.074 15.4872 145.082 15.2889C143.178 15.0769 140.63 15.3598 138.077 15.4201C137.996 15.646 138.301 15.4611 138.22 15.6869C138.035 15.7311 137.673 15.6212 137.602 15.7848C137.511 16.0977 137.83 15.9617 138.029 15.9789C138.181 16.1092 137.522 16.0477 137.337 16.0796C137.57 15.9593 137.393 15.8423 137.254 15.7362C137.08 15.7428 137.085 15.9036 136.987 15.9568C137.014 16.0548 137.162 16.012 137.261 16.0206C137.036 16.45 136.49 15.951 135.875 16.1477C135.897 16.0355 136.097 16.0774 136.005 15.8705C135.953 15.7982 135.842 15.8025 135.863 15.6655C135.213 15.9626 134.682 15.5497 134.132 15.8677C133.613 15.4915 132.498 16.0043 132.121 15.8083C132.048 15.8606 132.05 15.9719 131.914 15.9524C131.832 16.1783 132.138 15.9933 132.057 16.2192C131.77 16.1435 131.41 16.1449 131.22 15.9789C130.42 16.2445 129.292 16.2752 128.862 15.9327C128.113 16.2336 127.035 15.7797 126.021 15.905C126.026 16.1028 126.26 16.032 126.168 16.3202C124.275 16.0459 121.889 16.3473 119.986 16.1353C119.801 16.1671 119.793 16.3654 119.506 16.2898C117.511 15.8709 114.679 16.6844 112.976 16.0563L112.071 16.0908C111.38 15.7459 109.502 16.028 108.595 15.9512C108.914 16.298 110.006 15.8231 110.059 16.4523C109.535 16.3362 107.673 16.7538 106.933 16.4355C106.796 16.4159 106.722 16.4559 106.726 16.5795C106.564 16.5733 106.681 16.2718 106.717 16.2333C106.699 16.0236 106.367 16.1353 106.156 16.1186C106.199 16.3521 106.472 16.354 106.515 16.5876C106.352 16.5071 106.2 16.4015 105.892 16.4752C105.851 16.3282 106.026 16.3711 106.023 16.2598C105.463 15.7118 104.194 16.5153 103.376 16.0885C102.925 16.378 101.927 16.1686 101.438 16.4348C101.399 16.8447 102.112 16.5823 102.208 16.4796C102.808 16.6671 104.184 16.6394 104.773 16.3817C104.669 16.6827 105.157 16.3547 105.053 16.6434C103.718 16.8304 102.31 16.5748 101.18 17.0016C98.6384 17.0614 93.5818 17.2173 90.6503 17.5396C90.6668 18.1825 91.24 17.8017 91.5619 17.7771C92.9116 17.6884 94.8491 17.7878 96.0743 17.6791L96.085 18.0995L97.1878 18.0574C97.2158 17.6974 96.9779 17.6075 96.6195 17.6583C96.5645 17.45 97.0408 17.6422 97.3877 17.629C97.7347 17.6157 98.6485 17.4571 97.9454 17.6077C97.7735 17.6761 97.6905 17.8278 97.3912 17.765L97.3982 18.037C98.6491 17.9645 100.6 18.5832 101.756 17.7345L101.765 18.0808C102.065 18.156 102.072 17.9576 102.245 17.9263C102.248 18.0499 102.301 18.1593 102.388 18.1931C102.461 18.1408 102.459 18.0295 102.596 18.0491C102.699 17.7481 102.236 18.0628 102.243 17.8521C102.704 17.4385 103.434 18.3265 103.904 17.7887C104.161 17.6799 103.924 18.0974 104.182 17.9885C104.419 18.0537 104.288 17.7741 104.309 17.6371L105.276 17.6002C105.317 17.7472 105.18 17.74 105.068 17.7443C105.408 17.917 105.512 17.6407 105.895 17.5766C105.988 17.7958 105.673 17.6346 105.766 17.8538C105.844 18.0117 106.2 17.862 106.387 17.9044C106.082 17.619 106.373 17.3356 106.502 17.0707C106.753 17.1602 106.87 17.3908 107.072 17.5317C108.187 17.452 109.053 17.3942 110.328 17.2713C110.332 17.4444 110.493 17.4382 110.545 17.5353C110.979 17.5187 111.082 17.1806 111.579 17.2235C111.816 17.2763 111.788 17.624 112.206 17.4719C112.187 17.7201 111.75 17.5883 111.732 17.8365C111.441 17.6496 110.412 17.6394 110.133 17.8975C109.934 17.8927 108.617 17.7698 108.48 18.2329C108.289 18.0669 108.223 17.8838 107.993 18.1154C108.072 17.8277 107.873 17.8105 107.639 17.8566C107.633 18.1291 107.978 18.0169 107.997 18.2637C107.416 18.3602 106.387 18.3747 105.849 18.2095C105.601 18.1943 105.582 18.4178 105.371 18.4382C102.832 18.5475 99.7772 18.4289 97.0603 18.8915C96.9091 18.7983 96.6079 18.6613 96.5027 18.9128C96.2815 18.9955 96.3264 18.8081 96.2266 18.7872C96.0934 18.9161 95.6505 19.0567 95.5327 18.8137C94.0815 19.3023 91.2261 19.2008 89.6537 19.3103C89.3811 19.3207 89.092 19.1709 88.82 19.206C88.0165 19.3109 87.1652 19.492 86.2584 19.4399C84.3578 19.3268 82.3799 19.5879 80.5673 19.521C80.3427 19.4677 80.3087 19.5927 80.2238 19.6702C78.7299 19.455 76.4207 19.3698 75.023 19.5222C74.5852 19.378 73.6034 19.3041 73.2901 19.6626C72.247 19.1331 71.0805 20.0811 70.0966 19.4379C69.3 19.8149 67.612 19.2852 66.912 19.5594C66.3881 19.4433 65.3743 19.0859 65.0409 19.6309C64.3096 19.1637 62.9468 19.7108 61.9803 19.265C61.782 19.2725 61.8246 19.4813 61.6387 19.4884C60.9604 19.1554 59.875 19.3948 59.0718 19.5121C59.1643 19.2487 58.7617 19.5116 58.8542 19.2481C57.2007 19.1008 55.2445 19.2374 53.7931 19.2309C53.2961 19.683 51.8972 19.3033 51.3113 19.6722C50.4229 19.3719 48.668 20.1072 47.6399 19.6761C46.9762 19.9119 46.0382 20.0962 45.2925 20.038L45.2856 19.766C44.1827 19.8081 43.2969 19.6067 42.0975 19.7515C42.0164 19.9774 42.3218 19.7925 42.2407 20.0183C41.9443 20.0668 41.7931 19.9735 41.7505 19.7648C41.2028 19.6867 40.4256 19.8525 40.0104 19.6208C38.815 19.9263 37.4879 19.9274 36.1407 20.115C35.4363 20.2161 34.5813 20.2488 33.8483 20.2025C30.7552 20.0235 27.4683 20.0252 24.3406 19.9465C24.0658 19.8704 24.21 20.1743 23.9228 20.0986C23.6337 19.9487 22.8759 19.9034 22.6093 20.1487C20.0704 19.8125 17.1425 20.2707 14.493 19.9758C13.7714 19.892 12.9288 19.9241 12.4043 19.7832C11.7171 19.5867 10.8312 19.868 10.1843 19.7937C9.83609 19.7575 9.60673 19.5187 9.269 19.4078C8.8188 19.2641 8.11438 19.3653 7.93971 18.8397C7.64358 18.9005 7.46789 18.8206 7.37673 18.6508L6.5465 18.6825C5.82282 18.0294 5.75121 16.6831 4.07356 17.0441C4.07925 17.2667 4.19393 17.3861 4.1637 17.6595C3.83868 17.5605 3.57372 17.385 3.52644 16.9908C3.24562 16.6797 2.61618 16.8027 2.26954 16.8283C2.04902 16.9358 2.07025 17.2815 1.93837 17.4598C1.48414 16.6726 0.787764 16.1175 0.152399 15.5229C0.183328 14.7915 0.569746 14.3807 0.664212 13.7088C1.48647 13.8507 1.45702 13.1835 2.25386 13.3016C2.36349 13.2231 2.42229 13.0971 2.51953 13.0191C3.49174 13.2048 4.65914 12.7766 5.78195 13.0308C5.81224 12.2746 4.95976 12.4062 4.45614 12.5987C4.345 12.1326 4.76757 12.166 4.64373 11.688C5.72786 11.3991 5.7954 10.1589 7.0317 10.0003C7.17914 9.94517 7.30084 9.85388 7.29547 9.64369C7.87976 9.69565 8.05742 9.36707 8.67984 9.45471C9.55015 9.05019 11.0886 9.06574 11.7351 9.61039C14.8519 10.234 18.7063 10.1117 22.2216 10.3117C22.5209 10.3745 22.6038 10.2229 22.7757 10.1544C22.9961 10.5297 24.0743 10.0058 24.3068 10.3683C26.1595 10.0624 29.196 10.454 31.2301 9.96789C31.5713 10.2148 32.7593 10.1076 33.1012 9.89648C33.3919 10.1082 33.7704 9.87094 33.9315 9.86479C38.4461 9.85339 44.7797 9.67355 49.5287 9.61607C50.0835 9.4835 51.4545 9.25791 52.3044 9.51013C53.3488 9.12373 54.6842 9.44406 55.489 9.38859C55.8316 9.20225 57.1193 9.11597 57.8399 9.16273C60.7592 9.33598 64.204 9.20451 66.8643 9.43715C67.7368 9.11918 69.5732 9.6308 70.3374 9.44074C71.5361 9.75391 73.3265 9.43805 74.5132 9.76406C75.0769 9.49501 75.7498 9.61785 76.3843 9.69265C78.9343 9.979 81.9782 9.68956 84.575 9.86274C84.8377 9.95173 84.7065 9.67207 84.9185 9.71349C86.0241 9.78268 87.6429 10.0303 88.6641 9.70668C91.3334 9.80283 94.4986 9.40975 97.1895 9.38131C97.3505 9.37516 97.2857 9.26625 97.3966 9.23726C98.9605 8.7939 102.212 9.35052 103.975 8.91195C104.16 8.86776 104.475 8.59581 104.743 8.88263C108.558 8.69988 114.135 8.0291 117.704 8.38796C117.891 8.40559 118.224 8.331 118.531 8.22026C120.038 8.45979 121.968 8.26237 123.728 8.23231C123.636 8.49575 124.039 8.23285 123.946 8.49629C124.767 8.10603 125.66 8.59177 126.297 8.27042C133.649 8.62105 141.167 7.70292 149.023 7.40309C153.335 7.23851 156.842 7.10468 160.533 7.38462C160.707 7.40273 160.785 7.06557 160.954 7.36854C161.179 7.43421 161.125 7.25064 161.223 7.22212C161.575 7.40672 161.546 7.22219 161.992 7.1928C162.385 7.54908 163.676 7.09139 164.486 7.23376C164.61 7.25376 164.726 7.41024 164.838 7.43071C165.97 7.54842 167.156 7.36701 168.311 7.43431C171.951 7.64195 175.751 7.33602 179.339 7.4961C179.602 7.58509 179.471 7.30543 179.683 7.34685C180.618 7.53394 183.177 7.18876 184.82 7.42308C185.218 6.97471 186.005 7.69963 186.415 7.22606C186.578 7.30647 186.793 7.45917 186.898 7.20762C192.125 7.40419 198.016 6.89469 202.989 7.36085C203.264 7.437 203.12 7.13308 203.407 7.20876C209.197 7.58188 215.371 6.50463 221.771 6.50789C224.984 6.02636 228.795 6.14083 231.077 7.11812C230.471 7.19075 230.29 6.90062 229.826 7.16588C229.841 7.28906 229.76 7.51493 229.969 7.4327C229.687 7.55486 229.177 7.51243 228.657 7.55702C228.583 7.57222 228.611 7.69492 228.524 7.69823C228.504 7.85992 228.531 7.95789 228.608 8.04161C228.763 8.28322 229.292 8.11451 229.652 8.13789C229.405 8.66714 228.396 8.49524 227.933 8.82233L227.942 9.16854C228.084 9.3859 228.524 9.12158 228.777 9.34705C228.827 9.81549 228.228 9.68982 227.82 9.73015C227.831 10.1505 228.034 10.3532 228.455 10.3247C228.274 10.5173 228.258 10.8645 227.848 10.8306C227.914 10.9766 228.124 10.9686 228.129 11.1664C228.491 11.2392 228.573 11.0381 228.82 11.0039C228.639 11.1965 228.595 11.9036 228.979 11.9013C228.77 11.9712 228.866 12.3388 228.861 12.5989L229.827 12.5621C229.695 13.2231 230.191 13.2165 230.747 13.1458C230.753 13.3436 230.542 13.3516 230.484 13.5024C230.71 13.6299 230.877 13.8339 231.116 13.961C230.936 14.2153 230.953 14.8707 231.009 15.1408C231.358 15.2141 231.428 15.0382 231.486 14.8503C231.815 15.1101 231.36 15.7586 230.951 15.7742L230.958 16.0463C231.199 16.2475 231.59 16.0098 231.786 15.9404C231.765 16.065 231.839 16.0745 231.926 16.0712C231.922 16.3808 231.701 16.4882 231.595 16.7027C231.47 16.6579 231.179 16.4339 231.035 16.6498C230.971 17.0235 231.498 16.7806 231.602 16.9747C230.967 17.8405 230.154 18.5523 229.302 19.2036C229.182 18.8617 228.832 18.7513 228.518 18.6147C228.25 18.8106 227.69 18.7453 227.562 19.072C227.507 18.8637 227.796 18.9765 227.69 18.7206L227.653 18.7344ZM90.5476 14.4865C90.2448 14.2876 89.7247 14.3198 89.2891 14.2622C89.3058 14.9175 90.0865 14.405 90.5476 14.4865ZM152.769 8.85672C152.667 8.74922 152.097 8.77098 152 8.88604C152.102 8.98118 152.715 9.1682 152.769 8.85672ZM158.182 9.07093C158.394 9.11235 158.263 8.83269 158.525 8.92167C160.133 9.23161 162.159 8.90675 164.28 8.91244C164.286 9.11027 164.666 8.93487 164.634 9.17122C165.793 8.86711 167.239 9.17082 168.38 9.16441C168.628 9.15495 168.885 9.00901 169.145 8.99908C169.504 8.98536 169.895 9.21799 170.255 9.22901C171.099 9.27104 171.929 9.22699 172.742 8.99794C171.877 8.6349 170.36 8.96509 169.41 8.70428C167.716 8.89272 164.911 8.3438 162.89 8.87885C162.747 8.59967 162.109 8.85919 161.917 8.64372C160.802 8.68628 158.981 8.78053 158.097 8.65337C156.466 8.41857 154.668 8.90801 152.905 8.85152C154.39 9.21564 156.588 8.80998 158.182 9.07093ZM103.111 12.002C103.176 12.1109 103.301 12.168 103.536 12.1219L103.527 11.7757C102.757 11.7555 102.191 11.9133 101.447 11.9293C101.351 12.0567 101.332 12.2803 101.249 12.4196C101.099 12.3882 100.986 12.3182 101.029 12.0814L100.546 12.0998C100.525 12.2368 100.529 12.3975 100.342 12.3799C100.178 12.25 99.9043 12.2357 99.5704 12.2732L99.5792 12.6194C100.517 12.4227 101.458 12.8324 102.07 12.5244C102.2 12.7669 102.499 12.8298 102.775 12.9183C102.785 12.3486 102.251 12.3442 101.929 12.3317C101.998 12.1311 102.296 12.1321 102.479 12.0384C102.886 12.4066 102.936 12.4294 103.099 12.0148L103.111 12.002ZM106.377 12.1496C106.568 12.3527 106.884 12.0931 107.145 12.1203C107.09 11.912 107.213 11.8701 107.209 11.697C106.793 11.4654 106.672 12.0393 106.389 12.1491L106.377 12.1496ZM109.414 11.6129C109.348 11.9372 110.343 12.0477 110.321 11.6525C110.02 11.5279 109.748 11.563 109.414 11.6129ZM113.238 11.7392C113.533 11.6537 113.624 11.7988 113.799 11.854C113.905 11.6519 114.279 11.7119 114.271 11.4151C113.996 11.3142 113.539 11.3936 113.167 11.383C113.11 11.5832 113.27 11.5523 113.25 11.7264L113.238 11.7392ZM205.687 8.55746C204.303 8.30084 202.156 8.71697 200.759 8.399C200.316 8.5644 199.562 8.65507 198.887 8.47041C198.107 8.99526 196.404 8.35479 195.57 8.73316C193.831 8.65099 191.93 8.48842 190.3 8.79814C189.657 8.37713 188.791 8.96712 188.001 8.61361C186.944 9.00049 184.758 8.39083 183.779 8.91089C183.711 8.70305 183.079 8.72717 183.011 8.94021C183.187 9.0325 183.17 9.34256 183.37 9.40919C183.935 9.20196 185.408 9.55419 186.142 9.16724C186.773 9.60109 187.861 8.97786 188.714 9.34137C190.003 8.83422 192.367 9.10294 193.98 9.14038C194.945 9.0293 196.916 8.96647 198.073 9.12033C198.784 8.80851 199.601 9.19817 200.151 8.90486C200.181 9.08939 200.367 9.09466 200.505 9.16364C201.24 8.80142 202.035 9.3404 202.72 8.94298C203.597 9.29318 204.775 8.80265 205.566 9.18089C205.622 8.91887 206.02 8.97792 206.329 8.94137C206.248 8.69692 205.923 8.59793 205.699 8.54462L205.687 8.55746ZM123.008 11.5768C123.406 11.6482 124.143 11.3602 124.325 11.6626C124.457 11.5214 124.755 11.5224 124.939 11.4288C124.97 11.1801 124.723 11.239 124.717 11.0164C124.512 11.2223 123.818 11.2488 123.615 11.0585C123.547 11.3458 122.883 11.0864 123.007 11.5644L123.008 11.5768ZM133.321 10.8366C133.256 11.2104 133.578 11.1857 133.477 11.598C133.73 11.3284 133.91 11.5444 134.245 11.5687C134.29 11.4061 134.107 11.0294 134.369 11.0813C134.532 11.1493 134.405 11.5131 134.459 11.6967C135.285 11.9746 135.894 11.5305 136.104 11.0151C136.194 11.1601 136.212 11.3699 136.327 11.4892C136.587 11.4793 136.593 11.2439 136.943 11.3296C136.938 11.1318 136.727 11.1398 136.661 10.9938C136.809 10.9634 136.906 10.8607 136.927 10.7114C136.631 10.7598 136.181 10.6408 136.1 10.8791C135.163 10.6178 134.361 10.7598 133.321 10.849L133.321 10.8366ZM148.16 10.5426C148.26 10.5759 148.517 10.4423 148.509 10.6035C148.284 10.5255 148.465 10.828 148.24 10.7499C148.128 10.7294 148.172 10.5297 147.964 10.6243C147.917 10.7375 147.743 10.7317 147.76 10.9044C147.976 11.0942 148.67 11.0677 148.863 10.8623C148.858 10.6644 148.648 10.7096 148.644 10.5241L148.991 10.5109C148.898 10.7743 149.18 10.6398 149.136 10.8519C149.418 10.7421 149.594 10.327 149.327 10.0772C148.835 10.2445 148.843 10.0709 148.224 10.1193C148.228 10.2801 148.105 10.3219 148.16 10.5426ZM154.547 10.5092C154.746 10.5016 154.678 10.2691 154.965 10.3571C155.451 10.9203 156.565 10.3332 157.116 10.5473C157.06 9.80685 155.941 10.1837 155.232 10.1365C154.552 10.6947 153.745 9.71056 153.089 10.2183C151.872 9.68305 150.873 10.3772 149.612 10.0787C149.895 10.9467 151.232 10.3882 152.06 10.7526C152.424 10.4046 153.196 11.0187 153.365 10.3563C153.888 10.423 154.256 10.2728 154.548 10.5216L154.547 10.5092ZM95.1498 12.5657C95.301 12.6589 95.356 12.8672 95.58 12.8958C95.6848 12.6319 96.2218 12.7723 96.543 12.7229C96.5637 12.5612 96.6479 12.459 96.605 12.2379C96.0385 12.3956 95.5721 12.104 95.1622 12.5652L95.1498 12.5657ZM121.556 11.5579C121.925 11.4324 122.802 11.7826 122.726 11.241C122.235 11.4206 122.192 11.2242 121.549 11.2859L121.556 11.5579ZM125.088 11.4231C125.508 11.3947 126.066 11.8561 126.188 11.3068C126.076 11.2616 126.084 11.0881 125.91 11.1071C125.685 11.5241 125.147 10.8392 125.087 11.4108L125.088 11.4231ZM127.587 11.6743C127.948 11.7348 127.979 11.4984 128.138 11.381C128.503 12.0849 129.955 11.621 130.924 11.6954C130.921 11.5718 130.968 11.4586 131.053 11.4182C131.158 11.637 131.613 11.4835 131.754 11.6638C131.752 11.5772 131.775 11.5021 131.887 11.5225C131.968 11.2967 131.663 11.4816 131.744 11.2557C130.967 11.4215 130.853 10.8689 130.137 10.9705C129.992 11.6196 129.344 11.0255 128.885 11.0183C128.55 11.0187 128.531 11.2422 128.267 11.1161C128.266 11.079 128.265 11.0296 128.191 11.0448C128.24 11.4885 127.424 11.1359 127.587 11.6866L127.587 11.6743ZM132.237 11.6329C132.508 11.5484 133.096 11.7611 133.138 11.4624C132.872 11.2127 132.459 11.0923 132.023 11.0223C131.958 11.3837 132.182 11.4246 132.25 11.6325L132.237 11.6329ZM163.779 10.6396C163.81 10.4156 163.721 10.32 163.692 10.1602C162.956 9.97789 162.229 10.1913 161.681 10.1008C161.765 10.9392 163.007 10.5329 163.779 10.6396ZM221.638 8.08482C221.21 7.85361 220.382 7.95948 220.117 8.279C219.191 7.94306 217.715 8.42021 216.929 8.26453C215.057 8.78154 212.387 8.1656 211.254 8.96382C211.444 9.12983 211.692 9.12037 211.873 8.94018C212.028 9.15706 212.92 9.12301 213.051 8.89525C213.927 9.22072 215.256 8.81107 216.096 8.6429C218.912 8.65919 222.389 8.36556 225.177 8.22206C224.269 7.67497 222.757 7.69558 221.638 8.08482ZM113.811 12.3362L113.804 12.0642L113.532 12.0746C113.56 12.222 113.662 12.3171 113.811 12.3362ZM120.533 12.2901L120.954 12.274L120.942 11.7918C120.607 11.7798 120.499 11.9572 120.533 12.2901ZM137.925 11.4159L137.918 11.1439L137.645 11.1543C137.602 11.3911 137.691 11.4867 137.925 11.4159ZM121.301 12.2607C121.684 12.1842 121.704 12.4929 122.135 12.3651C122.233 11.8291 121.274 11.6924 121.301 12.2607ZM172.646 10.0908C171.644 10.2033 170.426 9.63089 170.369 10.7965C170.886 10.6406 170.921 11.023 171.208 11.111C171.521 11.1981 171.414 10.9051 171.688 10.9565C171.721 10.8068 171.59 10.5024 171.75 10.4715C172.082 10.3598 171.907 10.7873 172.178 10.7274C172.745 10.582 173.376 10.4961 173.688 10.1129C173.473 9.92306 172.899 9.82117 172.645 10.0784L172.646 10.0908ZM207.437 9.10948C208.689 9.06172 209.957 9.16185 210.836 9.11591C210.834 9.02936 210.857 8.95423 210.969 8.9747C210.219 8.24836 208.52 8.74638 207.425 8.62726L207.437 9.10948ZM62.2558 14.5142C62.5497 14.8495 63.1206 14.8649 63.3783 15.2387C63.1809 15.2834 62.7927 15.1373 62.9004 15.4674C63.7124 15.6963 65.2054 15.8744 66.03 15.6202C65.9722 15.3006 65.3955 15.5454 65.5309 15.0204C65.6666 14.9905 65.9547 15.1032 65.8744 14.8712C65.7944 14.1687 64.96 14.5224 64.6052 14.2265C64.0205 14.6449 63.182 14.3551 62.2562 14.5266L62.2558 14.5142ZM67.0424 14.4677C66.7737 14.1437 66.3539 14.7043 65.9981 14.3714L66.0104 14.8536C66.16 14.885 66.4666 14.7495 66.4955 14.9093C66.4993 15.0577 66.2487 14.9559 66.1505 14.9968C66.1962 15.3292 66.1933 15.7006 66.517 15.7501C66.7102 15.5447 66.9981 15.6451 67.1401 15.8625C67.3653 15.9405 67.1839 15.638 67.4092 15.7161C68.0652 16.149 69.3626 15.4683 69.9865 16.1004C70.0981 16.0961 70.0317 15.9254 70.1937 15.9564C70.1093 15.5635 69.5666 15.6832 69.3493 15.4316C69.4913 15.1663 69.7328 15.3922 70.0413 15.331C70.028 14.8116 69.1658 14.5599 69.4537 14.1776C68.9831 14.2079 68.3556 14.4052 68.0624 14.0946C67.8329 14.3385 67.5883 13.9889 67.0958 14.1314C67.0612 14.2318 67.1917 14.4867 67.0303 14.4805L67.0424 14.4677ZM54.2916 14.9543C54.4892 15.4047 53.9627 15.1896 53.957 15.4498C54.2731 15.6852 54.946 15.8081 55.3483 15.5328C57.2499 15.683 59.6367 15.4063 61.4484 15.4361C61.5294 15.2103 61.224 15.3952 61.3051 15.1693C60.3398 15.2557 59.7365 14.9445 58.8675 14.9158L58.8587 14.5696C58.3596 14.4525 58.3058 14.7763 57.9595 14.8143C57.9261 14.9641 58.0579 15.2685 57.8975 15.2994C57.7189 15.1082 57.2506 15.225 56.9875 15.1237L56.9806 14.8517C56.2177 14.6085 55.2286 14.7329 54.2792 14.9548L54.2916 14.9543ZM59.4802 14.6201C59.8201 14.8176 61.2355 15.3576 61.2769 14.5516C60.9659 14.5139 60.8197 14.6185 60.6608 14.7112C60.4813 14.4829 59.7019 14.5622 59.4802 14.6201ZM77.423 13.9353C77.5157 14.167 77.7171 14.283 77.9913 14.3345C78.0752 14.2199 78.2601 14.1757 78.1912 13.906C77.8455 13.9687 77.6797 13.7894 77.423 13.9353ZM190.176 9.76826C190.16 10.1154 190.325 10.27 190.539 10.3732C191.238 10.0619 192.534 10.7922 193.023 10.0062C193.538 10.2835 194.622 9.96989 194.908 10.4912C195.095 10.5335 194.85 10.1716 195.037 10.2139C195.224 10.2563 195.182 10.5426 195.393 10.5469C195.616 10.5508 195.548 10.2935 195.657 10.1903C196.256 10.3407 196.547 10.5648 197.324 10.3989C197.267 10.0917 197.362 9.93956 197.521 9.8345C197.452 10.0475 197.673 9.95247 197.797 9.96011C197.232 9.68464 196.715 9.35782 195.835 9.41612C195.838 9.51504 195.867 9.67483 195.768 9.69098C194.597 9.48814 193.269 9.94725 191.948 9.70063C191.954 9.94792 192.239 9.91232 192.378 10.0308L191.759 10.0544L191.75 9.7082C191.068 9.73421 190.783 9.74508 190.495 9.61995C190.575 9.85204 190.287 9.73927 190.151 9.7692L190.176 9.76826ZM91.0093 13.6272C90.7326 13.4769 90.1537 13.6351 89.7559 13.6008C89.8626 13.8938 90.9727 14.1361 91.0093 13.6272ZM103.691 13.3536C103.925 13.2704 104.476 13.4969 104.38 13.1169C104.276 12.96 103.896 13.1107 103.684 13.0692L103.691 13.3413L103.691 13.3536ZM131.756 12.2083C131.677 12.0504 131.322 12.2001 131.134 12.1577C131.166 12.4288 131.735 12.37 131.756 12.2083ZM132.729 12.4434C134.069 12.4418 134.675 12.3939 135.859 12.5963C135.93 12.4574 135.988 12.3067 136.059 12.1678C136.425 12.4261 137.226 12.2099 137.797 12.2376C137.547 11.6531 136.54 12.0628 136.057 12.0936C135.737 11.7221 135.318 12.2827 135.013 11.9973C134.415 12.3915 133.608 11.8653 132.72 12.0848C132.676 12.2969 132.674 12.2227 132.729 12.431L132.729 12.4434ZM226.016 9.01928C225.92 8.68874 225.463 8.7557 225.042 8.78415C225.077 9.17887 225.619 9.02205 226.016 9.01928ZM226.362 9.00604C226.672 8.99421 227.033 9.04232 226.975 8.71037L226.356 8.73402L226.362 9.00604ZM132.393 12.8647L132.876 12.8462C132.821 12.6379 132.682 12.5318 132.386 12.5927L132.393 12.8647ZM136.066 12.9349C136.264 12.9273 136.208 13.1646 136.491 13.0548C136.56 12.8665 136.636 12.4304 136.339 12.4418C136.307 12.6658 136.11 12.7228 136.078 12.9344L136.066 12.9349ZM172.373 11.5492C172.432 11.4232 172.63 11.428 172.575 11.195L171.955 11.2186C171.962 11.4783 172.173 11.5073 172.385 11.5488L172.373 11.5492ZM171.546 11.7169C171.744 11.7094 171.688 11.9467 171.971 11.8369C172.002 11.5758 171.862 11.4697 171.688 11.4269C171.78 11.6461 171.466 11.4848 171.558 11.7041L171.546 11.7169ZM225.677 9.86142C225.71 10.1572 226.261 9.90102 226.511 9.96575C226.454 9.67089 225.898 9.76636 225.677 9.86142ZM205.106 11.0673C205.518 11.6457 206.859 11.2356 207.476 11.5957C208.087 11.2382 208.649 11.3653 209.687 11.239C209.705 10.4834 208.648 10.8703 208.014 10.8202C207.873 11.0979 207.273 10.9351 206.915 10.9983C206.857 11.149 206.659 11.169 206.435 11.1527C206.43 10.9426 206.425 10.7324 206.214 10.7404C205.921 10.9125 205.487 10.9538 205.118 11.0545L205.106 11.0673ZM172.957 12.5666C173.074 12.7725 173.227 12.4696 173.301 12.4173L172.954 12.4306L172.957 12.5666ZM135.478 14.6901C135.823 14.5779 135.854 14.8119 136.101 14.8024C136.117 14.4305 135.83 14.3796 135.471 14.4057L135.478 14.6777L135.478 14.6901ZM100.637 16.6386L101.257 16.615C101.247 16.2564 100.64 16.2796 100.637 16.6386ZM117.75 15.9855C117.742 15.7011 117.264 15.9298 117.052 15.876C117.059 16.1604 117.537 15.9317 117.75 15.9855ZM87.8207 17.4743C87.7638 17.6745 87.7641 17.6869 87.8314 17.8947C88.0132 17.7269 88.9149 17.5811 89.083 17.8469C89.2644 17.6667 89.5122 17.6573 89.7025 17.8233C89.8878 17.7915 89.8951 17.5932 90.1823 17.6688C90.1493 17.3483 89.7299 17.4386 89.552 17.2721C89.0856 17.4632 88.6369 17.3813 87.8207 17.4743ZM86.6504 17.7912L87.3444 17.7648C87.4334 17.3653 86.5412 17.3994 86.6504 17.7912ZM145.761 15.6714C146.148 15.7804 146.197 15.2464 145.887 15.2458C145.892 15.4437 145.655 15.3908 145.761 15.6714ZM164.614 15.1623L165.233 15.1387C165.116 14.9327 164.951 14.7781 164.605 14.8161L164.614 15.1623ZM200.866 14.051C200.929 14.1105 201.316 14.1824 201.349 14.0326C201.16 13.9284 200.911 13.8884 200.722 13.7842C200.641 14.0101 200.947 13.8252 200.866 14.051ZM225.326 15.5433C225.372 15.8758 225.889 15.7075 226.031 15.9373C226.073 15.6386 226.42 15.6254 226.5 15.3624C226.037 15.1944 225.785 15.5135 225.326 15.5433ZM226.978 17.5596C227.199 17.4645 227.033 17.7803 227.254 17.6852C227.535 17.5136 228.546 17.2646 227.79 16.8355C227.46 17.0214 227.041 17.124 226.978 17.5596Z" fill="black"/>
<path id="Vector_99" fill-rule="evenodd" clip-rule="evenodd" d="M107.888 14.1563C108.033 14.4851 107.657 14.3505 107.688 14.5845C108.292 14.4384 109.127 14.5807 109.645 14.9329C109.175 15.4577 108.274 14.6866 107.912 15.0713C107.868 14.813 107.39 15.0164 107.418 14.6688C107.587 14.514 107.617 14.2283 107.888 14.1687L107.888 14.1563Z" fill="black"/>
<path id="Vector_100" fill-rule="evenodd" clip-rule="evenodd" d="M169.422 16.9266C168.675 16.8057 167.34 17.4369 166.578 16.7597C166.163 17.0226 165.755 16.6292 165.324 16.7318C165.168 16.4777 165.674 16.3476 165.313 16.3115C165.471 16.1942 165.82 16.2432 165.927 16.0783C165.905 16.2029 165.98 16.2125 166.067 16.2093C166.056 16.2839 165.932 16.2638 165.934 16.3503C166.1 16.5422 166.762 16.233 166.844 16.527C166.903 16.4011 167.102 16.4061 167.046 16.173C167.567 16.1785 167.716 16.1853 168.151 16.2063C167.861 16.5017 168.188 16.7 168.307 16.9679C168.38 16.9157 168.377 16.8044 168.514 16.8241C168.347 16.5951 168.285 16.585 168.362 16.2109C168.658 16.1751 168.798 16.3061 168.794 16.6157C169.505 16.3047 170.024 16.6939 170.736 16.4076C170.9 16.5129 170.835 16.8619 170.963 17.018C171.239 17.1192 170.98 16.7204 171.166 16.7382C171.414 16.729 171.542 16.8604 171.525 17.1457C171.809 17.0981 172.045 17.1265 172.088 17.3353C172.341 17.066 172.58 17.2056 172.987 17.0916C172.992 16.8191 172.648 16.9309 172.629 16.684C173.18 16.874 173.491 16.4541 173.946 16.7714C174.556 16.4022 175.389 16.9407 176.086 16.556C176.089 16.6796 176.177 16.7011 176.168 16.8252C176.757 16.593 177.706 16.8425 178.308 16.6098C178.797 16.8021 179.454 16.8149 180.112 16.8153C180.052 16.8918 179.979 16.9563 179.907 17.0333C179.419 16.8781 177.878 16.7619 177.618 17.2542C177.395 17.2748 177.317 17.1539 177.264 16.995C177.054 17.0523 177.33 17.1411 177.271 17.267C176.913 17.3545 176.87 17.121 176.706 17.0157C176.549 17.1577 176.277 17.1925 175.941 17.1802C175.913 17.0574 175.987 17.0423 176.074 17.0391C175.675 16.9425 175.201 17.3437 174.553 17.2316L174.544 16.8854C174.081 17.1748 173.108 16.9881 172.962 17.5628C172.814 17.6054 172.859 17.4305 172.748 17.4346C171.318 18.2425 170.731 16.2345 169.41 16.9394L169.422 16.9266Z" fill="black"/>
<path id="Vector_101" fill-rule="evenodd" clip-rule="evenodd" d="M216.339 15.1888C217.655 14.2861 219.96 14.7081 221.807 14.6397C222.067 14.6301 222.36 14.4583 222.634 14.4729C223.143 14.4912 223.707 14.7302 223.94 14.1523C224.17 14.4284 224.642 14.448 225.199 14.3779C225.106 14.6413 225.388 14.507 225.344 14.7191C225.078 14.5062 224.359 14.5204 224.031 14.7677C222.65 14.6332 221.413 15.236 220.288 14.9064C219.218 15.2307 217.638 15.0788 216.339 15.1888Z" fill="black"/>
<path id="Vector_102" fill-rule="evenodd" clip-rule="evenodd" d="M184.815 16.8392C183.374 17.202 182.06 17.263 180.25 17.2806C180.143 16.9751 180.443 17.063 180.373 16.7933C181.85 16.8252 183.714 16.4592 184.89 16.8364C185.591 16.6124 187.113 16.4818 187.666 16.7336C187.934 16.5751 188.798 16.4193 189.053 16.6822C189.515 16.2938 190.241 16.5763 190.995 16.4741C190.998 16.5854 190.965 16.7351 191.077 16.7434C191.275 16.2534 192.639 16.24 193.155 16.5302C194.373 16.151 195.768 16.3716 197.241 16.2428C197.356 16.3623 197.627 16.3027 197.67 16.4992C197.923 16.2175 198.723 16.4602 198.76 15.9761C198.901 16.1565 199.127 16.2472 199.123 16.5815C198.896 16.4414 198.846 16.4432 198.64 16.5994C199.353 16.8329 200.38 16.7453 201.347 16.7095C201.401 16.3981 201.056 16.4975 201.061 16.2374C200.874 16.1948 201.119 16.557 200.932 16.5145C200.529 16.2819 199.643 16.5622 199.397 16.1505C199.517 15.9852 200.007 15.769 200.163 16.0479C201.9 16.0578 203.555 15.7861 204.956 16.2169C204.672 16.2769 204.222 16.1574 204.053 16.3246C204.28 16.4647 204.772 16.3227 204.89 16.5659C205.049 16.4733 205.195 16.3566 205.507 16.4069C205.502 16.2214 205.28 16.2668 205.287 16.0685L205.906 16.0455C205.827 16.3455 206.026 16.3505 206.055 16.5227C207.131 16.3715 207.505 16.4566 208.277 16.5766C208.436 16.0261 207.69 16.4374 207.645 16.1173L208.475 16.0865C208.555 16.3063 208.368 16.2638 208.346 16.3636C208.862 16.6539 209.848 16.4193 210.304 16.7737C210.351 16.6606 210.525 16.6666 210.508 16.4939C212.129 16.3472 212.627 16.4402 213.825 16.2349C213.828 16.3585 213.916 16.3801 213.907 16.5042C213.79 16.7808 213.177 16.5807 213.225 17.0121C210.666 17.3173 207.924 17.3075 205.67 17.4281C205.131 17.2253 204.962 17.4048 204.216 17.3458C204.312 17.2061 204.293 16.9716 204.554 16.9867C204.403 16.423 203.133 16.2473 202.952 16.9099C202.884 16.6897 203.007 16.648 203.079 16.5587C202.774 16.2853 201.999 16.5244 201.477 16.4819C201.604 16.5886 201.731 16.6829 201.701 16.9563C201.911 16.4535 202.232 16.8871 202.8 16.7794C202.84 16.877 202.723 17.1412 202.883 17.1229C203.202 16.9873 203.432 16.7808 203.701 16.6099C203.806 16.8288 203.899 17.0605 204.064 17.2153C202.434 17.4984 200.266 17.1332 198.516 17.0743C198.449 16.9035 198.323 16.8091 198.232 16.664C197.898 16.7135 197.768 16.9534 197.409 16.9668C197.14 16.6549 196.436 16.2973 195.95 16.6743C195.259 16.3286 194.357 16.9313 193.881 17.2336C193.717 17.153 193.566 17.0472 193.258 17.1205L193.25 16.8485C192.673 17.0432 191.708 16.6705 191.114 17.1999C190.125 16.8776 188.747 16.8297 187.933 17.4539C187.866 17.2831 187.74 17.1888 187.649 17.0436C187.404 17.1765 187.045 17.1898 186.826 17.3464C186.29 16.7845 185.232 17.6034 184.864 16.8002L184.815 16.8392ZM205.422 16.9793C205.822 16.6303 206.073 17.1904 206.525 16.9385C206.44 16.5332 205.788 16.7306 205.473 16.5566C205.477 16.7174 205.355 16.7591 205.41 16.9798L205.422 16.9793ZM208.126 16.9535L208.473 16.9406L208.469 16.8046C208.467 16.718 208.356 16.7345 208.257 16.7382C208.285 16.8733 208.161 16.8779 208.126 16.9535Z" fill="black"/>
<path id="Vector_103" fill-rule="evenodd" clip-rule="evenodd" d="M221.752 15.3348C221.532 15.4667 221.076 15.5579 220.786 15.3706C221.16 15.4434 221.486 15.1343 221.752 15.3348Z" fill="black"/>
<path id="Vector_104" fill-rule="evenodd" clip-rule="evenodd" d="M148.896 11.8081L149.318 11.7925C149.387 12.0622 149.087 11.9743 149.194 12.2798C149.417 12.2839 149.488 12.1575 149.534 11.9949C149.812 12.1826 150.151 12.3681 150.504 12.0951L150.513 12.4413C150.834 12.3923 151.055 12.2975 151.211 12.5516C151.391 12.3222 151.59 12.3766 151.901 12.3899L151.912 12.8103C151.558 13.0214 151.376 12.694 151.004 12.7078C150.883 12.8237 150.889 13.0462 150.666 13.0668C150.621 12.7591 150.394 12.6437 150.228 12.4642C149.953 12.3878 150.098 12.6918 149.811 12.6158C149.84 12.7757 149.929 12.8714 149.898 13.0953C149.377 13.1146 148.845 13.1714 148.711 12.7927L149.058 12.7799C148.883 12.2665 149.043 12.2111 148.897 11.8205L148.896 11.8081Z" fill="black"/>
<path id="Vector_105" fill-rule="evenodd" clip-rule="evenodd" d="M126.155 17.7744C126.065 17.654 125.758 17.7767 125.874 17.4383C126.235 17.4868 126.559 17.5614 126.655 17.8921C126.816 17.9108 126.609 17.5843 126.86 17.6741C126.95 17.3242 126.701 17.3086 126.707 17.0609C127.064 16.9734 127.108 17.2069 127.199 17.3892C127.536 17.4386 127.165 17.0068 127.327 17.0379C127.677 17.1611 127.932 17.3992 128.306 17.4843C128.527 17.4143 128.291 16.9279 128.716 17.0483C128.823 17.3538 128.523 17.2659 128.593 17.5356C128.607 17.6093 128.73 17.58 128.732 17.6666C128.995 17.7311 128.837 17.4028 129.074 17.4435L129.083 17.7897C129.553 17.7352 130.183 18.1203 130.533 17.736C130.731 17.7287 130.737 17.9389 130.887 17.9952C131.152 17.7007 130.594 17.6966 130.66 17.3848C130.085 17.666 129.779 17.3679 129.062 17.444C129.056 17.2338 128.809 17.2924 128.84 17.0314C129.84 16.8706 131.221 17.0174 131.888 16.9185C131.819 17.1314 132.04 17.0366 132.164 17.0444C132.169 17.2298 132.15 17.441 132.252 17.5238C132.773 17.554 133.237 17.2646 133.507 17.6135C133.637 17.3735 134.059 17.4074 134.266 17.2388C134.21 17.4884 134.601 17.2635 134.486 17.5772C134.644 17.4847 134.79 17.3679 135.102 17.4183L135.109 17.6903C135.799 17.5038 137.361 17.0128 137.947 17.5852C138.273 17.2513 139.368 17.8543 139.814 17.3798C140.082 17.667 140.293 17.1888 140.586 17.4874C140.673 17.4842 140.645 17.3615 140.655 17.2744C140.626 17.1146 140.307 17.2626 140.17 17.2182C140.217 17.1421 140.329 17.138 140.3 17.0029C140.557 16.8449 140.644 17.312 140.647 16.9901C140.751 17.1595 141.181 16.9827 141.14 17.3184C141.382 17.1114 141.986 16.9529 142.181 17.2798C142.377 17.2106 142.089 17.1099 142.172 16.9336C142.641 16.8667 142.845 17.0696 143.085 17.2463C143.307 16.7183 144.444 17.0351 144.87 16.6975C145.311 16.9906 146.123 16.7253 146.604 16.6333C146.609 16.8064 146.734 16.8389 146.614 16.9795C146.776 17.023 147.156 16.8356 147.1 17.0976C147.192 16.8219 147.793 17.0348 147.707 16.5924C148.451 17.0352 149.679 16.0986 150.013 16.9897C150.362 17.0758 150.381 16.8399 150.629 16.8307C150.611 16.621 150.061 16.9631 150.14 16.6384C150.536 16.6114 151.046 16.6791 151.239 16.4616C151.473 16.3787 151.356 16.6676 151.385 16.8027C151.582 16.7707 151.98 16.3228 152.151 16.7001C152.256 16.4363 152.844 16.6249 152.974 16.3973C153.198 16.4262 153.253 16.6221 153.464 16.6514C153.74 16.7526 153.481 16.3538 153.668 16.3716C153.901 16.2887 153.894 16.4623 153.886 16.6358C154.384 16.2337 155.094 16.8386 155.477 16.3046C156.113 16.4419 156.761 16.5541 157.566 16.4995L157.575 16.8457L157.848 16.8356C157.93 16.6469 157.961 16.4106 158.322 16.4715C158.501 16.6876 158.337 17.0279 158.344 17.2999C157.304 17.3632 156.686 16.9777 156.031 16.6182C155.883 16.6237 156.014 16.9159 155.968 17.0414C155.487 17.1335 154.708 17.2242 154.233 17.1056C154.253 16.9316 154.62 16.72 154.295 16.6207C154.212 16.7723 154.205 16.9829 154.097 17.1107C153.909 17.0558 153.456 17.2706 153.474 16.9976C153.162 17.4176 152.399 17.1859 152.156 16.9103C151.896 16.9199 151.992 17.2506 151.68 17.2002C151.472 17.2822 151.552 17.0564 151.537 16.9332C151.077 16.9008 150.847 17.1073 150.641 17.313C149.742 17.074 149.082 17.445 148.281 17.19C147.247 17.4882 145.762 17.1595 144.668 17.0515C144.621 17.1646 144.448 17.1587 144.465 17.3314C142.691 17.8302 140.104 17.5671 138.446 18.1731C138.393 18.0637 138.22 18.0825 138.228 17.9089C136.888 17.8967 136.043 18.2993 134.833 18.0347C134.234 18.3663 132.601 18.0802 131.862 18.2809C131.572 18.0936 130.542 18.0822 130.264 18.3401C129.201 18.5156 128.839 17.9596 127.958 17.9428L127.951 17.6708C127.553 17.636 127.461 17.8869 127.343 18.1141C126.549 18.1311 125.454 18.4687 125.043 17.927C124.911 18.0928 124.525 18.0328 124.43 18.222C124.281 18.2027 124.179 18.1075 124.151 17.9601C123.349 18.1259 121.949 17.7446 121.593 18.3271C121.452 18.1838 120.867 18.1064 120.762 18.3578C119.161 17.8478 116.736 18.0614 115.563 18.2782C115.309 18.04 115.065 18.2223 114.86 17.9577C114.761 17.9737 114.841 18.1688 114.729 18.1729C114.457 18.1954 114.245 18.1661 114.299 17.8423C113.832 18.0081 113.273 17.9793 112.905 17.6835C112.813 17.4642 113.127 17.6258 113.034 17.4065C113.255 17.3116 113.09 17.6272 113.311 17.5324C113.231 17.3373 113.079 17.2068 112.878 17.1276C113.573 16.6563 114.391 17.121 115.367 16.9611C115.182 17.0051 115.111 17.6142 115.516 17.4383C115.444 17.5276 115.321 17.5693 115.389 17.7895C115.644 17.5821 116.255 17.708 116.485 17.4767C116.592 17.7698 117.344 17.5934 117.387 17.369C118.218 17.3382 119.088 17.8877 119.822 17.4892C120.056 17.431 119.94 17.7447 120.101 17.7511C120.372 17.6545 120.48 17.5267 120.721 17.7282C120.842 17.6123 120.988 17.5202 120.919 17.2382C121.278 17.2248 121.024 17.457 121.068 17.7153C121.65 17.669 122.388 17.4313 123.014 17.6433C123.194 17.4262 123.756 17.5786 123.771 17.1944C123.211 17.1409 122.797 16.9706 122.172 17.2536C122.265 16.9903 121.983 17.1245 122.027 16.9125C122.991 16.7901 123.709 16.7264 124.596 16.9535C124.688 17.1728 124.374 17.0112 124.466 17.2305C124.545 17.3885 124.901 17.2392 125.088 17.2818C125.246 17.6348 125.682 17.6929 126.142 17.7254L126.155 17.7744ZM114.218 17.5978C114.618 17.7067 114.655 17.7054 115.048 17.567C115.055 17.344 114.929 17.2744 114.766 17.2309C114.747 17.4544 114.115 17.4654 114.218 17.5978ZM124.42 17.8387C124.604 17.7452 124.411 17.4801 124.408 17.3565L124.135 17.3666C124.142 17.6262 124.245 17.7709 124.42 17.8387ZM131.144 17.8619L131.417 17.8518C131.446 17.5537 131.343 17.409 131.131 17.3797L131.144 17.8619ZM152.827 16.9226C153.058 16.7779 152.996 16.7802 153.248 16.907L153.242 16.6968L152.821 16.7124L152.827 16.9226ZM155.314 16.6943C155.342 16.8418 155.444 16.937 155.594 16.9562C155.652 16.8303 155.851 16.8353 155.795 16.6022C155.558 16.5615 155.525 16.7112 155.314 16.6943ZM131.905 18.0441L132.178 18.034L132.169 17.6878L131.896 17.6979L131.905 18.0441ZM157.196 17.033C157.18 16.8975 157.266 16.8819 157.263 16.7583L156.916 16.7711C156.945 16.9186 157.046 17.0138 157.196 17.033Z" fill="black"/>
</g>
</svg>
