<svg width="76" height="65" viewBox="0 0 76 65" fill="none" xmlns="http://www.w3.org/2000/svg">
<g clip-path="url(#clip0_483_6482)">
<path d="M34.5373 35.0646C34.3125 33.8098 35.4651 31.2675 33.921 30.789C29.6995 30.5778 25.4799 30.3271 21.2482 30.2115C21.1955 30.1806 20.6757 30.2677 20.6406 30.2094C20.676 29.2842 21.0581 28.3707 21.4038 27.5345C23.3763 22.9193 28.0491 20.8357 32.2842 18.7132C33.6771 17.9859 36.5328 17.6257 34.9141 15.493C34.9677 15.6144 35.0213 15.7358 35.0555 15.8109C33.8794 13.5082 33.1572 11.1321 31.8814 8.86956C31.8415 8.79974 31.8067 8.73582 31.7779 8.6609C31.347 7.62196 30.4428 5.73977 29.6174 4.12718C29.0591 3.03099 27.7796 2.57698 26.6855 3.08182C19.2815 6.50969 10.8564 9.63215 6.8418 17.107C6.578 17.6081 3.61479 22.2868 4.82181 20.8268C2.73373 26.2332 1.50568 31.8013 1.69314 37.5985L1.6856 37.3155C0.889731 43.0296 0.689491 48.7679 0.426614 54.5651C0.420127 54.6948 0.430159 54.8197 0.440191 54.9445C0.589997 56.6138 -0.664088 59.6654 0.948174 60.2999C0.478668 60.1408 0.0123322 59.4844 0.375812 58.943C0.301392 61.0815 3.94035 60.0313 5.51519 60.438C5.64367 60.4726 5.77244 60.5017 5.90774 60.5085C8.00171 60.6245 10.3297 61.0518 12.3139 61.0833L12.3981 61.2457C13.395 61.1656 13.8344 61.4928 14.7684 61.4774C14.8202 61.4178 15.1617 61.4236 15.4916 61.4457C15.4994 61.6157 16.5096 61.4853 16.4533 61.6351L16.4647 61.6244C17.425 61.7346 20.6567 61.3424 21.3913 61.3C21.7009 61.4002 22.5104 61.2712 22.0256 61.2017L22.6799 61.2457L22.6035 61.2532C22.6514 61.2726 23.1567 61.2583 23.3379 61.3239C23.5191 61.3895 23.6903 61.4376 23.8749 61.4355C24.0757 61.4343 24.2814 61.4445 24.4702 61.4653C23.4524 61.3126 22.1825 61.1022 21.1193 60.8794C23.0791 60.9661 25.0667 61.3651 27.162 61.453C26.7257 61.499 26.2995 61.4494 25.8614 61.4219C26.4728 61.6729 27.5384 61.6301 28.4485 61.6587C28.5946 61.666 28.7271 61.7291 28.8602 61.781C29.0519 61.8528 29.6919 61.7491 29.8614 61.7237C29.5608 61.6578 28.9387 61.621 28.9965 61.5504C28.9581 61.5598 28.9253 61.5638 28.898 61.5681L28.9521 61.5708C28.8373 61.5877 28.8322 61.5818 28.898 61.5681L28.6777 61.5232C29.1774 61.5143 30.0902 61.379 30.5197 61.2536C30.4784 61.2119 30.4858 61.1727 30.5519 61.1534C30.7575 61.1637 30.7011 61.2061 30.5197 61.2536C30.5801 61.347 31.073 61.4734 31.2954 61.3659C29.7224 61.2476 32.7192 60.561 30.8922 60.4244C31.6195 60.636 30.7527 60.6096 29.9614 60.5926C29.7118 60.5914 28.6018 60.112 28.3365 60.4265C28.1647 60.3897 27.8953 60.3536 27.7292 60.3114C27.5044 60.2493 27.2734 60.2038 27.0401 60.2034C25.8147 60.1873 23.0453 60.1223 23.7911 59.6396C24.3859 59.6806 24.1111 59.7517 24.0376 59.8102L24.3515 59.8259C24.2392 59.6846 25.3377 59.8526 25.5128 59.7144C25.1982 59.6026 24.5434 59.5698 23.9956 59.565L24.1024 59.5986C23.6193 59.6027 22.6591 59.5999 22.1398 59.4609C22.2679 59.3938 22.0434 59.3261 22.3964 59.3211L21.7369 59.2712C21.6492 59.2894 21.5666 59.3135 21.7552 59.3399C21.4384 59.3806 21.1314 59.337 20.8901 59.2797C20.8339 59.2091 18.4985 59.3635 17.7158 59.3922C17.5962 59.3975 17.4825 59.3918 17.364 59.3746C17.0404 59.3358 16.4721 59.3074 16.4129 59.2988C17.4258 59.3325 20.8311 59.2654 20.3545 59.2472C19.5026 59.2498 14.4981 59.1804 13.9398 59.2768C13.3464 59.2075 14.126 59.1335 13.7078 59.0334C12.659 58.9584 11.1085 58.8243 9.93781 58.907C10.1944 58.8746 10.7304 58.5736 11.2884 58.6976C11.3762 58.6794 11.8917 58.6769 11.8851 58.5918C11.2091 58.4393 10.5105 58.6305 9.81909 58.4602C9.81853 58.4715 9.82907 58.4777 9.82822 58.4946C9.58749 58.426 9.66896 58.4244 9.76863 58.3842C9.3444 58.1878 7.06568 58.2942 6.00748 58.2978C5.57997 58.3838 2.7163 57.6019 3.20197 58.197L2.57585 58.1318C2.91705 58.0358 2.79054 57.9617 2.64695 57.9036C2.74161 57.5297 2.8192 57.1718 2.95687 57.3482C3.02543 57.1708 3.04838 56.9289 3.01721 56.6843C2.61818 56.2009 3.09567 55.2243 3.08514 54.6755C3.18048 54.5051 3.19942 54.7773 3.27119 54.7527C3.31874 53.585 3.81904 51.5018 3.46056 50.6417C3.51138 49.7343 3.61962 49.7397 3.73959 49.8361L3.79277 49.0983C3.68401 51.4894 3.50438 53.9956 3.32103 56.4678C4.22023 51.1828 4.556 45.3382 4.18121 40.8995C4.15799 40.6044 4.17779 40.3172 4.27307 40.0393C4.74606 38.6104 5.09458 34.8974 4.99372 34.8528C3.78651 20.4811 14.5081 10.6061 26.8387 6.526C26.9376 6.50268 26.9909 6.52231 26.9801 6.62916C27.3728 7.67185 27.8399 8.63913 28.2606 9.66625C27.9866 8.9969 27.7144 8.32763 27.444 7.65845C28.7296 10.0515 29.902 12.2127 30.9954 14.3248C30.8915 13.907 30.9348 13.8018 30.619 12.8477C30.9619 13.9105 31.681 14.8282 32.213 15.7988C32.0122 15.9074 31.8172 16.0107 31.6768 16.1054C31.4534 15.9077 30.9286 16.311 30.6375 16.3812L30.9713 16.3245C26.9659 18.1928 22.7111 20.4895 20.2881 24.24C20.1258 24.2319 18.8128 26.3988 19.4044 25.2019C18.6825 26.7258 18.1043 28.4151 17.7864 30.1062C17.5193 31.5398 18.5036 32.906 19.9065 32.9535C19.9119 32.9538 19.9227 32.9544 19.9281 32.9546C23.6802 33.1141 27.4816 33.2647 31.2541 33.3403C32.9184 33.6949 31.6798 37.629 31.9913 39.1029L32.0596 38.9311C31.9819 44.8224 32.2604 51.5115 32.3683 57.5987C32.3677 57.6099 32.3671 57.6212 32.3663 57.6381L32.5024 59.2558C32.5477 59.8685 32.5321 61.049 32.6658 60.2192C32.9917 58.5851 32.7906 58.4846 33.0551 57.1017L32.9936 57.1382C33.6032 49.8322 34.2809 42.4674 34.5318 35.0643L34.5373 35.0646Z" fill="white"/>
</g>
<path d="M58.8534 28.3369L59.02 27.9717C59.1666 27.6506 59.3364 27.3421 59.5236 27.0401C59.8983 26.4305 60.3486 25.853 60.8693 25.2903C61.1326 25.0091 61.396 24.7279 61.6827 24.4535L62.1129 24.0391L62.5293 23.6637C63.0996 23.1771 63.7154 22.7323 64.3472 22.3224C65.6226 21.5031 66.9507 20.8166 68.1784 20.2383C69.418 19.6606 70.533 19.2013 71.5022 18.8082C72.238 18.4544 72.9789 18.2367 73.4161 17.8C73.8757 17.3928 74.1182 16.935 74.2541 16.5909C74.6026 15.6742 74.4736 14.6941 73.982 13.843L73.6224 13.2023L73.3868 12.8112L72.9149 12.0404C72.5965 11.5263 72.2782 11.0065 71.9541 10.4865C71.3064 9.43508 70.655 8.33822 70.0093 7.12843C69.7438 6.62264 69.5245 6.14181 69.3154 5.69545C69.1367 5.35251 68.8075 4.57747 68.42 4.13917C68.3098 4.08837 67.8813 3.6367 67.2924 3.42609C66.9096 3.24843 66.4927 3.15964 66.0715 3.15556C65.6504 3.15147 65.2475 3.25586 64.843 3.39413C64.3778 3.55768 63.9248 3.71617 63.4777 3.87495C63.0844 4.02511 62.703 4.17586 62.3278 4.32126C61.5886 4.62394 60.9131 4.95812 60.3371 5.31991C60.0617 5.48729 59.6143 5.65172 59.1074 5.81884C58.6056 6.00319 58.0274 6.1724 57.4836 6.36598C56.3968 6.73619 55.4454 7.13015 55.3842 7.2856C55.1829 7.86993 55.1668 7.95404 54.8682 8.10894C54.5756 8.26413 53.9892 8.47822 52.7831 9.45385C52.4809 9.68216 51.7893 10.6948 51.2424 11.1883C50.2765 11.9891 49.7541 12.5857 49.2172 13.2325C48.7035 13.8918 48.158 14.5948 47.3017 15.6955C46.0581 17.4221 45.3631 18.5026 44.7346 19.5581C44.1236 20.6201 43.5899 21.6803 43.1843 23.4998C43.1259 23.7177 42.701 25.2136 42.4324 26.6663C42.1462 28.1182 42.0045 29.5264 42.0045 29.5264C41.611 31.6975 41.557 33.4894 41.4804 35.1385C41.4163 36.777 41.3048 38.2943 40.9539 39.9693C41.2202 43.9001 40.4162 49.0567 40.2895 53.2508C40.2601 53.957 40.222 54.6004 40.4616 55.1502C40.6952 55.6997 41.1129 56.1282 41.5862 56.3953C42.0711 56.6686 42.5833 56.7508 43.1149 56.8001C43.7058 56.8523 44.0181 56.8962 44.3897 56.9431C45.857 57.1524 47.2713 57.3533 49.1628 57.6234C50.2495 57.7287 51.0682 57.7357 51.7027 57.8637C52.3373 57.9917 53.8903 57.792 54.9829 57.8976L54.7007 58.0816C55.0669 58.1169 55.7874 58.1869 56.1539 58.2166C56.5201 58.2519 56.422 58.3149 56.3301 58.3726C56.1401 58.4933 55.956 58.6143 56.5843 58.7476C58.1001 58.9366 59.6469 59.0989 61.2362 59.2407C62.8157 59.2235 64.3724 59.1881 65.906 59.1403C65.9993 59.0544 66.1044 58.9691 66.3272 58.9066C66.7855 58.8786 67.2436 58.8562 67.6961 58.8279C67.9783 58.6439 67.894 58.4302 68.0843 58.3039C68.112 57.7505 70.0453 57.3038 69.6149 56.7727C69.4387 56.6167 66.8069 56.4341 65.6359 56.1151C65.3676 56.0225 66.01 55.8735 66.2922 55.6894C64.7471 55.6121 64.6691 55.3931 65.3113 55.2498C64.951 55.2147 64.5848 55.1794 64.5848 55.1794C64.677 55.1161 64.9589 54.9378 64.9589 54.9378C61.0639 54.4995 56.7187 53.8066 52.8942 53.8587C52.0755 53.8517 50.7066 53.9304 49.7901 53.9808C49.3317 54.0088 48.3431 53.8405 47.9769 53.8052C47.3285 53.9539 47.4125 54.1732 47.1306 54.3516C46.4287 54.2655 45.5198 54.1635 44.5574 54.0644C44.3153 54.0409 44.0731 54.0175 43.8251 53.9938C43.7309 53.9777 43.696 53.9647 43.6311 53.9558C43.5192 53.9388 43.4149 53.8883 43.3475 53.8114C43.195 53.6566 43.234 53.4717 43.1694 53.3383C43.1311 52.7986 43.0303 52.4425 42.8442 52.4842C42.9882 50.3175 42.6663 49.8712 42.7438 47.6107C42.834 44.6205 42.9821 40.8294 43.1392 37.0953C43.1888 35.0372 43.2964 33.1235 43.5531 31.1946C43.6307 30.4739 43.7602 29.784 43.8702 29.1272C44.4194 26.0977 45.353 23.3309 46.6861 20.8841C47.3526 19.6607 48.11 18.5211 48.9639 17.4656C49.8109 16.4324 50.7774 15.3825 51.7165 14.4048C53.6133 12.4334 55.6409 10.695 57.9341 9.22468C59.0807 8.48949 60.2833 7.81939 61.5435 7.18612C62.1815 6.8897 62.8149 6.56474 63.4814 6.29239C63.8149 6.15056 64.1371 5.99685 64.4763 5.86097C64.7548 5.75036 65.0336 5.6341 65.3121 5.5235C65.5616 5.40011 65.8627 5.31328 66.1553 5.39585C66.4485 5.46712 66.687 5.68285 66.8104 5.94377C67.2786 6.78803 67.758 7.64418 68.2481 8.52352C69.342 10.503 70.4409 12.4997 71.5458 14.4967C71.6932 14.7531 71.8634 15.0277 71.8423 15.3324C71.8391 15.6322 71.7055 15.9312 71.4813 16.1408C71.2569 16.356 70.9322 16.4417 70.6401 16.5856L69.4809 17.0993C67.8534 17.8388 66.2588 18.6308 64.7294 19.545C63.2059 20.4594 61.7301 21.4895 60.4912 22.7635C59.2787 23.9879 58.1238 25.3624 57.4029 26.9623C57.3098 27.1615 57.2351 27.3502 57.1468 27.5723C57.0636 27.8115 56.9689 28.0445 56.8973 28.29C56.8138 28.5349 56.7602 28.7757 56.7125 29.0167C56.653 29.2572 56.6409 29.5 56.6761 29.7452C56.7693 30.7292 57.6409 31.5767 58.6425 31.723C59.1307 31.8097 59.7061 31.8158 60.1791 31.8508C60.5935 31.8715 61.0014 31.9033 61.4155 31.9296C62.2319 31.9818 63.0483 32.034 63.8525 32.0912C65.4613 32.2 67.0403 32.3129 68.584 32.4185C68.9685 32.4433 69.3527 32.4739 69.7313 32.4985C70.0031 32.5234 70.2692 32.5424 70.535 32.567C70.6712 32.5738 70.8053 32.6201 70.9209 32.6825C70.1553 43.3605 69.1921 53.4795 69.1237 55.7971C69.0949 55.7787 69.1524 55.8155 69.1558 55.8666C69.1648 55.9237 69.1504 55.9739 69.1002 56.028C69.1606 56.1273 69.3968 56.1504 69.5273 55.9135C69.5406 55.8859 69.5541 55.8526 69.5679 55.8137C69.5806 55.6784 69.599 55.5492 69.612 55.4083C69.6376 55.1322 69.6695 54.8507 69.6961 54.5577C69.7491 53.9716 69.8098 53.3519 69.8716 52.7096C69.8747 52.6475 69.8781 52.5798 69.8871 52.5179C69.7782 53.8655 69.7045 54.8638 69.6898 55.3952C69.661 55.3768 69.7188 55.408 69.7222 55.4591C69.7318 55.5048 69.7174 55.5551 69.6678 55.5979C69.7289 55.6802 69.9649 55.709 70.094 55.5003C70.1073 55.4727 70.1205 55.445 70.1338 55.4174C70.1352 55.3892 70.1366 55.3609 70.138 55.3327C70.1493 55.3446 70.1603 55.3621 70.1653 55.3794C70.1749 55.4251 70.1605 55.4754 70.1109 55.5182C70.1664 55.5945 70.3731 55.6162 70.5059 55.453C70.4985 55.4809 70.4796 55.5026 70.4546 55.5297C70.5152 55.6233 70.7514 55.6464 70.8814 55.4208C70.8946 55.3932 70.9079 55.3656 70.9217 55.3266C70.9338 55.2027 70.9522 55.0734 70.9646 54.9438C70.9894 54.6846 71.0207 54.4145 71.0467 54.1327C71.0983 53.5749 71.1573 52.9891 71.2177 52.3751C71.4415 49.9181 71.6687 47.0366 71.8819 44.0809C72.0891 41.1249 72.3062 38.0902 72.5038 35.3262C72.5642 34.4744 72.6229 33.6565 72.6859 32.8727C72.5424 32.8939 72.3933 32.909 72.2498 32.9302C72.2472 32.981 72.2444 33.0375 72.2419 33.0883C72.1478 32.359 71.4817 31.7935 70.784 31.7416C70.053 31.6428 69.3692 31.552 68.7442 31.4698C66.898 31.3604 65.0284 31.2442 63.129 31.1322C62.0877 31.0688 61.0522 31.0057 60.0168 30.9426L59.3123 30.9074C59.0758 30.8899 58.8393 30.8724 58.6239 30.788C58.187 30.6246 57.8369 30.2674 57.698 29.8416C57.6256 29.6285 57.6132 29.4014 57.642 29.1821C57.6826 28.9634 57.7525 28.7517 57.8165 28.5398C57.944 28.1273 58.1137 27.6999 58.3199 27.2573C58.7256 26.3832 59.2762 25.5785 59.9069 24.8345C62.3818 21.7485 66.0205 19.836 69.7547 18.2679C70.0637 18.1418 70.4153 17.9952 70.797 17.8388C71.0152 17.7479 71.2393 17.6572 71.4696 17.5611C71.7124 17.4544 71.9776 17.3714 72.2218 17.2365C72.7101 16.9665 73.0966 16.4764 73.232 15.9057C73.2997 15.6204 73.309 15.3151 73.2464 15.0233C73.1839 14.7315 73.0494 14.453 72.9094 14.1686C72.3434 13.0251 71.7668 11.8584 71.2502 10.7966C70.7499 9.76388 70.3037 8.8358 69.9886 8.13506L73.0176 14.1401C73.1788 14.4765 73.3406 14.8016 73.382 15.1603C73.4355 15.514 73.3876 15.8795 73.2638 16.2186C73.1344 16.5518 72.9173 16.858 72.6382 17.0988C72.3647 17.3455 72.0134 17.4864 71.6681 17.6277L69.8734 18.387C69.3155 18.6252 68.7689 18.8752 68.2217 19.1366C66.0512 20.1715 63.9388 21.3509 62.1711 22.8759C61.3143 23.6312 60.4806 24.5179 59.7769 25.4168C59.4279 25.8692 59.1073 26.3456 58.8392 26.8417C58.708 27.0899 58.5826 27.344 58.463 27.5985L58.3015 27.981L58.1777 28.3201C58.0429 28.7606 57.8297 29.2255 57.9785 29.6914C58.1101 30.1453 58.5185 30.5223 59.0003 30.62C59.2413 30.666 59.4908 30.6615 59.7392 30.6796L60.562 30.7208L62.4141 30.8304C62.0835 30.7969 61.7584 30.7693 61.4337 30.7361L64.2907 30.9243C64.5693 30.9326 64.8658 30.9361 65.1739 30.9458C65.1621 30.9452 65.1446 30.9387 65.1387 30.9384C64.8461 30.8558 64.2161 30.7564 63.3255 30.6439C62.877 30.5932 62.3699 30.5282 61.8095 30.4605C61.2665 30.3994 60.6762 30.3359 60.0448 30.2647C59.6448 30.1937 59.1805 30.2214 58.8766 29.8892C58.73 29.7347 58.6334 29.5317 58.6083 29.321C58.5776 29.1044 58.6594 28.8933 58.7406 28.6936L58.8624 28.394L58.8534 28.3369Z" fill="white"/>
<defs>
<clipPath id="clip0_483_6482">
<rect width="33.278" height="59.2511" fill="white" transform="translate(2.96033 1.63498) rotate(2.8638)"/>
</clipPath>
</defs>
</svg>
