<svg width="381" height="30" viewBox="0 0 381 30" fill="none" preserveAspectRatio="none" xmlns="http://www.w3.org/2000/svg">
<g clip-path="url(#clip0_477_716)">
<path fill-rule="evenodd" clip-rule="evenodd" d="M139.893 10.6138L140.654 10.5929L140.658 10.7444L139.897 10.7653L139.893 10.6138Z" fill="white"/>
<path fill-rule="evenodd" clip-rule="evenodd" d="M155.173 10.4274L156.37 10.3946C156.473 10.6849 156.202 10.7227 156.056 10.848C155.633 10.799 155.129 10.8128 155.173 10.4274Z" fill="white"/>
<path fill-rule="evenodd" clip-rule="evenodd" d="M193.081 9.90396C193.629 10.0507 193.436 9.94478 194.06 9.87711L194.068 10.1802C193.645 10.1513 193.5 10.2969 193.424 10.5012C193.176 10.3967 193.008 10.2396 193.081 9.91406L193.081 9.90396Z" fill="white"/>
<path fill-rule="evenodd" clip-rule="evenodd" d="M262.957 8.22099C262.81 8.83162 261.498 8.14975 261.331 8.48799C260.818 8.14819 259.184 8.62771 258.697 8.25687C260.455 8.3199 261.751 7.92041 262.957 8.21089L262.957 8.22099Z" fill="white"/>
<path fill-rule="evenodd" clip-rule="evenodd" d="M263.603 7.97074C263.933 8.06281 264.355 8.08156 264.698 8.16317C264.778 8.60582 263.722 8.32134 263.289 8.4242C263.186 8.13383 263.457 8.09607 263.603 7.97074Z" fill="white"/>
<path fill-rule="evenodd" clip-rule="evenodd" d="M274.973 8.11416C273.669 8.72618 270.36 8.15973 269.196 8.42416C268.592 8.2183 266.714 8.22934 266.136 8.50804C265.981 8.31009 265.306 8.50048 265.257 8.22883C265.926 7.79598 266.881 8.36631 266.994 8.02957C269.135 8.18319 272.434 7.86023 274.973 8.11416Z" fill="white"/>
<path fill-rule="evenodd" clip-rule="evenodd" d="M253.909 8.8432C253.954 9.00372 252.658 8.91791 252.17 8.96164C252.464 8.78169 253.197 8.72115 253.909 8.8432Z" fill="white"/>
<path fill-rule="evenodd" clip-rule="evenodd" d="M263.948 8.63868L263.957 8.94176L263.195 8.96264C263.146 8.66068 263.499 8.62068 263.948 8.63868Z" fill="white"/>
<path fill-rule="evenodd" clip-rule="evenodd" d="M272.036 8.72028C272.1 9.06228 271.857 9.14981 272.054 9.39715C273.318 9.31197 274.478 9.44192 275.01 9.46779C274.935 9.71248 273.932 9.36591 274.037 9.71689C273.123 9.66105 272.275 9.49221 271.303 9.79183C271.214 9.5415 271.708 9.65941 271.73 9.47682C271.537 9.41132 271.546 9.2089 271.18 9.26948C271.252 8.94396 271.603 8.81303 272.036 8.72028Z" fill="white"/>
<path fill-rule="evenodd" clip-rule="evenodd" d="M272.471 8.70851L272.906 8.69658C272.895 8.78788 272.937 8.82717 273.019 8.84514C272.942 9.01912 272.395 8.9027 272.471 8.70851Z" fill="white"/>
<path fill-rule="evenodd" clip-rule="evenodd" d="M276.511 8.59765C277.181 8.73092 277.374 8.81662 278.256 8.70146C278.091 9.13062 276.495 9.0126 276.511 8.59765Z" fill="white"/>
<path fill-rule="evenodd" clip-rule="evenodd" d="M296.926 8.03798C297.277 7.93737 297.014 8.27821 297.366 8.17759C297.37 8.33923 296.904 8.22058 296.715 8.26621C296.78 8.18352 296.957 8.17867 296.926 8.03798Z" fill="white"/>
<path fill-rule="evenodd" clip-rule="evenodd" d="M278.487 8.68509L279.031 8.67018C279.105 8.88047 278.361 9.08282 278.487 8.68509Z" fill="white"/>
<path fill-rule="evenodd" clip-rule="evenodd" d="M300.861 8.07174L300.867 8.294C300.676 8.27901 300.325 8.37963 300.428 8.15439C300.618 8.14917 300.656 8.05713 300.861 8.07174Z" fill="white"/>
<path fill-rule="evenodd" clip-rule="evenodd" d="M302.724 8.0206C303.01 8.01277 303.349 7.97314 303.488 8.07044C303.342 8.19577 303.542 8.54414 303.174 8.5239C302.872 8.46139 302.825 8.22004 302.724 8.0105L302.724 8.0206Z" fill="white"/>
<path fill-rule="evenodd" clip-rule="evenodd" d="M244.091 9.70882L244.103 10.1533C243.75 10.1731 243.624 10.0452 243.551 9.86517C243.893 9.91647 243.68 9.59878 244.091 9.69872L244.091 9.70882Z" fill="white"/>
<path fill-rule="evenodd" clip-rule="evenodd" d="M244.526 9.69688C244.948 9.67521 245.169 9.79048 245.296 9.97907L244.535 9.99995L244.526 9.69688Z" fill="white"/>
<path fill-rule="evenodd" clip-rule="evenodd" d="M248.457 9.58901C248.542 9.708 248.8 9.69082 248.792 9.88314L248.03 9.90402C247.858 9.59531 248.643 9.90744 248.457 9.58901Z" fill="white"/>
<path fill-rule="evenodd" clip-rule="evenodd" d="M284.161 8.61032C284.165 8.78206 284.357 8.82736 284.282 9.05185C283.822 9.15545 283.802 8.94367 283.516 8.92119C283.592 8.727 283.738 8.58147 284.16 8.60022L284.161 8.61032Z" fill="white"/>
<path fill-rule="evenodd" clip-rule="evenodd" d="M324.46 7.95054C327.175 7.67392 328.742 8.25778 330.676 7.78015L330.682 8.00241C330.854 8.31112 330.124 8.0278 330.144 8.23958C330.189 8.9056 331.651 8.09717 331.897 8.63637C331.757 8.98396 330.563 8.6527 330.382 8.98121C329.965 8.66911 329.081 8.70345 328.184 8.73815C328.241 8.35239 329.172 8.53919 329.701 8.47414C329.776 8.23954 329.585 8.20435 329.58 8.03261C328.739 8.14665 327.331 7.90218 326.85 8.25909C325.71 7.88593 325.172 8.6185 324.433 7.95128L324.46 7.95054Z" fill="white"/>
<path fill-rule="evenodd" clip-rule="evenodd" d="M279.049 9.34698C279.302 9.63324 278.392 9.69863 278.507 9.43261C278.766 9.45584 278.735 9.28484 279.049 9.34698Z" fill="white"/>
<path fill-rule="evenodd" clip-rule="evenodd" d="M321.192 8.41421C321.158 8.6578 320.584 8.56233 320.439 8.73817C319.62 8.64941 318.06 8.36863 317.374 8.67052C317.113 8.57658 316.879 8.47179 316.391 8.54583C317.479 8.0105 319.591 8.57944 321.192 8.41421Z" fill="white"/>
<path fill-rule="evenodd" clip-rule="evenodd" d="M330.899 7.99643C331.2 8.03874 331.767 7.88165 331.881 8.0403L331.887 8.26256C331.397 8.27598 331.082 8.19364 330.899 7.98633L330.899 7.99643Z" fill="white"/>
<path fill-rule="evenodd" clip-rule="evenodd" d="M332.436 7.95447C333.384 8.26213 334.429 7.6471 334.852 8.19156C334.932 8.13881 335.184 7.86906 335.179 8.18261C335.366 8.07636 336.094 7.81377 335.944 8.31327C336.271 8.30432 336.264 8.07196 336.48 7.99528C338.447 8.24467 341.068 8.01107 342.835 8.41759C342.655 8.82691 341.835 8.68764 341.426 8.67862C339.901 8.64966 338.371 8.45906 337.048 8.35379C336.789 8.33056 336.739 8.5139 336.726 8.51427C335.923 8.51607 335.131 8.42656 334.205 8.43171C334.132 8.72692 333.878 8.90575 333.901 9.25897C333.486 8.98728 333.22 9.2473 332.704 9.29178C332.875 9.06467 333.129 8.87574 333.673 8.89114C333.627 8.70031 333.314 8.68868 333.441 8.37177C333.237 8.34705 332.791 8.49069 332.893 8.23514C332.537 8.15391 332.818 8.47984 332.462 8.39861C332.361 8.17896 332.361 8.16886 332.45 7.9541L332.436 7.95447Z" fill="white"/>
<path fill-rule="evenodd" clip-rule="evenodd" d="M283.534 9.59828C283.565 9.24357 284.227 9.53886 284.191 9.73193C283.745 9.84526 283.847 9.57961 283.534 9.59828Z" fill="white"/>
<path fill-rule="evenodd" clip-rule="evenodd" d="M326.87 8.48102C326.742 8.76762 325.433 8.68218 325.131 8.59946C325.655 8.34246 326.217 8.49892 326.87 8.48102Z" fill="white"/>
<path fill-rule="evenodd" clip-rule="evenodd" d="M302.975 9.21698C302.938 9.34944 302.266 9.66105 302.215 9.30858C302.473 9.28129 302.62 9.17617 302.975 9.21698Z" fill="white"/>
<path fill-rule="evenodd" clip-rule="evenodd" d="M344.582 8.60222C344.108 8.69609 343.299 8.98112 343.163 8.48945C343.457 8.2792 344.557 8.17828 344.582 8.60222Z" fill="white"/>
<path fill-rule="evenodd" clip-rule="evenodd" d="M347.411 8.52448C347.5 8.7748 347.186 8.77328 347.095 8.90722C346.502 8.64038 345.8 8.84161 345.117 8.73902C345.647 8.20888 346.312 8.6658 347.411 8.52448Z" fill="white"/>
<path fill-rule="evenodd" clip-rule="evenodd" d="M363.565 7.93021C363.904 7.86028 363.708 8.18915 364.113 8.06684C364.133 8.27862 363.847 8.28645 363.576 8.30401C363.574 8.23329 363.438 8.24712 363.356 8.23926C363.213 8.00052 363.708 8.16895 363.565 7.93021Z" fill="white"/>
<path fill-rule="evenodd" clip-rule="evenodd" d="M326.125 9.10804C326.213 9.34826 326.916 9.14703 326.897 9.46095C326.837 9.74569 325.623 9.65764 325.376 9.57343C325.2 9.14349 326.245 9.49905 326.125 9.10804Z" fill="white"/>
<path fill-rule="evenodd" clip-rule="evenodd" d="M336.942 8.95309L337.704 8.93221C337.668 9.12528 337.661 9.34791 337.5 9.46351C337.065 9.47544 336.897 9.28797 336.942 8.95309Z" fill="white"/>
<path fill-rule="evenodd" clip-rule="evenodd" d="M371.546 8.0855C371.664 7.9104 372.225 8.03655 372.523 7.98793C372.448 8.21243 371.717 8.36389 371.546 8.0855Z" fill="white"/>
<path fill-rule="evenodd" clip-rule="evenodd" d="M327.124 9.30321C327.706 9.18615 327.634 9.54198 328.216 9.42492C328.174 9.88103 327.002 9.81207 327.124 9.30321Z" fill="white"/>
<path fill-rule="evenodd" clip-rule="evenodd" d="M370.349 8.11833L370.893 8.10342C371.063 8.33131 370.192 8.35517 370.349 8.11833Z" fill="white"/>
<path fill-rule="evenodd" clip-rule="evenodd" d="M328.651 9.41295C328.964 9.39427 328.969 9.58622 328.988 9.77779C328.677 9.84698 328.7 9.6846 328.442 9.72199C328.3 9.48325 328.794 9.65168 328.651 9.41295Z" fill="white"/>
<path fill-rule="evenodd" clip-rule="evenodd" d="M335.883 10.0335C335.217 10.0821 334.731 9.72138 334.251 10.0783C332.754 10.089 330.884 9.43252 329.767 9.89787C329.827 9.59293 329.126 9.85478 329.213 9.53899C329.37 9.30216 329.689 9.50574 330.084 9.51513C330.288 9.51964 330.651 9.35804 330.623 9.34868C330.923 9.37078 331.188 9.58596 331.502 9.62789C333.059 9.79755 335.195 9.27392 335.883 10.0335Z" fill="white"/>
<path fill-rule="evenodd" clip-rule="evenodd" d="M345.684 9.08767C345.917 9.12174 346.443 8.94556 346.341 9.22131C346.109 9.18724 345.583 9.36342 345.684 9.08767Z" fill="white"/>
<path fill-rule="evenodd" clip-rule="evenodd" d="M336.636 9.70974C336.937 9.75205 337.504 9.59495 337.617 9.75361C337.751 10.1544 336.428 10.0693 336.636 9.70974Z" fill="white"/>
<path fill-rule="evenodd" clip-rule="evenodd" d="M338.377 9.66202C338.867 9.6688 339.264 9.72871 339.473 9.93527L338.494 9.96211C338.504 9.83041 338.354 9.8042 338.377 9.66202Z" fill="white"/>
<path fill-rule="evenodd" clip-rule="evenodd" d="M378.904 9.38003L379.557 9.36214C379.554 9.74641 378.997 9.792 378.592 9.91432C378.516 9.6232 379.008 9.6906 378.904 9.38003Z" fill="white"/>
<path fill-rule="evenodd" clip-rule="evenodd" d="M229.476 14.2951C229.484 14.5881 228.938 14.5323 228.502 14.5442C228.714 14.8013 228.712 14.7305 228.515 14.9887C228.601 15.1582 229.127 15.0022 229.387 15.0356C229.377 15.1673 229.527 15.1935 229.504 15.3357C228.484 15.3636 227.663 15.7096 226.77 15.4106C226.755 14.8651 228.251 15.2891 228.388 14.8405C228.397 14.6583 228.138 14.6654 228.053 14.5464C227.783 14.6347 227.805 14.9172 227.411 14.9381C227.431 14.6848 227.687 14.5767 227.721 14.3331C228.671 14.2363 228.521 14.2404 229.462 14.2854L229.476 14.2951Z" fill="white"/>
<path fill-rule="evenodd" clip-rule="evenodd" d="M265.059 13.4006C265.373 13.4527 265.715 13.4838 265.829 13.6828C265.784 14.0379 265.109 13.7531 264.958 13.7067C264.851 13.7602 264.854 13.8814 264.636 13.8672C264.706 13.9461 264.883 13.9413 264.86 14.0835L262.67 14.1435C262.706 13.9605 262.462 13.9874 262.551 13.7727C263.461 13.6972 264.412 13.6509 265.059 13.4006Z" fill="white"/>
<path fill-rule="evenodd" clip-rule="evenodd" d="M211.247 15.1688L211.899 15.1509C211.864 15.3339 212.108 15.3069 212.018 15.5217C212.617 15.5053 213.353 15.5559 213.646 15.3254C214.08 15.2428 213.926 15.5806 214.412 15.4561C214.398 15.9114 212.682 15.8877 212.335 15.6647C211.81 15.8611 210.168 16.0476 209.924 15.5791L211.121 15.5463C211.352 15.5501 211.168 15.2822 211.219 15.1695L211.247 15.1688Z" fill="white"/>
<path fill-rule="evenodd" clip-rule="evenodd" d="M269.868 13.562L270.847 13.5352C270.759 13.8004 269.957 13.8224 269.868 13.562Z" fill="white"/>
<path fill-rule="evenodd" clip-rule="evenodd" d="M145.638 17.119C145.815 17.1142 146.058 17.0671 146.075 17.1778C146.205 17.4371 145.414 17.3981 145.638 17.119Z" fill="white"/>
<path fill-rule="evenodd" clip-rule="evenodd" d="M271.846 13.73C271.883 13.5572 272.39 13.6848 272.606 13.6384C272.451 13.9258 272.909 13.7717 272.834 14.0063L272.072 14.0271C272.042 13.8966 272.171 13.6504 271.846 13.73Z" fill="white"/>
<path fill-rule="evenodd" clip-rule="evenodd" d="M275.89 13.771C275.019 13.7646 274.702 14.1372 274.053 14.2662C273.701 14.3669 273.964 14.026 273.613 14.1266C273.607 13.8943 274.003 13.934 273.927 13.6732C274.498 13.6373 275.662 13.3729 275.89 13.771Z" fill="white"/>
<path fill-rule="evenodd" clip-rule="evenodd" d="M377.859 10.9759L376.989 10.9998C376.953 10.6974 377.892 10.6717 377.859 10.9759Z" fill="white"/>
<path fill-rule="evenodd" clip-rule="evenodd" d="M379.487 10.7795C379.896 10.7986 379.45 11.4074 379.623 11.7464C379.24 11.6962 379.124 11.4466 378.955 11.2389C379.017 11.0047 379.342 10.9453 379.487 10.7795Z" fill="white"/>
<path fill-rule="evenodd" clip-rule="evenodd" d="M231.455 14.9889L231.89 14.9769L231.898 15.28C231.519 15.3511 231.38 15.2538 231.455 14.9889Z" fill="white"/>
<path fill-rule="evenodd" clip-rule="evenodd" d="M269.334 13.9507L269.878 13.9358C270.021 14.1745 269.526 14.0061 269.669 14.2448C269.584 14.1258 269.326 14.143 269.334 13.9507Z" fill="white"/>
<path fill-rule="evenodd" clip-rule="evenodd" d="M270.654 13.9145C270.886 13.9486 271.372 13.8038 271.417 13.9643C271.59 14.3134 270.96 14.1588 270.662 14.2075L270.653 13.9044L270.654 13.9145Z" fill="white"/>
<path fill-rule="evenodd" clip-rule="evenodd" d="M285.384 13.5107L286.581 13.4779C286.451 13.7241 286.936 13.5289 286.807 13.775C287.214 13.7437 287.802 13.8286 287.891 13.5937C288.165 13.6569 288.291 13.8051 288.765 13.7214L288.776 14.0952C288.298 14.0375 288.166 14.1928 287.909 14.2706C287.919 14.1388 287.769 14.1126 287.792 13.9705C287.555 14.26 286.473 14.0066 286.277 14.3153C285.869 14.3063 285.553 14.234 285.398 14.0361C285.711 14.0174 286.148 14.0762 286.156 13.8637C286.11 13.693 285.611 13.8483 285.392 13.8138L285.384 13.5107Z" fill="white"/>
<path fill-rule="evenodd" clip-rule="evenodd" d="M303.864 13.8332C302.19 14.3644 300.649 14.2651 298.849 14.1223C298.987 13.6939 299.679 13.6244 300.358 13.5552L300.368 13.929C301.117 13.9287 301.35 12.9922 301.992 13.5812C302.78 13.5394 303.542 13.5286 303.85 13.8336L303.864 13.8332Z" fill="white"/>
<path fill-rule="evenodd" clip-rule="evenodd" d="M294.579 13.7845C294.898 13.5128 294.981 14.0464 295.24 14.0696C295.631 13.9376 296.226 13.7697 296.333 14.1914C295.623 14.14 295.058 14.3577 294.592 14.2391C294.434 13.9401 294.817 14.0004 294.797 13.7886L294.579 13.7946L294.579 13.7845Z" fill="white"/>
<path fill-rule="evenodd" clip-rule="evenodd" d="M292.389 13.8445C292.676 13.8872 292.883 13.9927 292.837 14.2771L292.402 14.289L292.389 13.8445Z" fill="white"/>
<path fill-rule="evenodd" clip-rule="evenodd" d="M15.3077 21.5913L16.0694 21.5704L16.0777 21.8735C15.656 21.8851 15.4354 21.7799 15.3077 21.5913Z" fill="white"/>
<path fill-rule="evenodd" clip-rule="evenodd" d="M120.127 19.0113C118.99 19.2245 118.24 19.1641 117.4 19.3085C117.487 19.023 116.867 19.2321 116.954 18.9466C118.184 19.1353 119.55 18.3194 120.127 19.0113Z" fill="white"/>
<path fill-rule="evenodd" clip-rule="evenodd" d="M291.414 14.0227L291.849 14.0108L291.858 14.3139C291.612 14.2903 291.46 14.1933 291.414 14.0227Z" fill="white"/>
<path fill-rule="evenodd" clip-rule="evenodd" d="M314.985 13.3767C315.019 13.6286 315.227 13.7543 315.648 13.7326C315.987 13.6728 315.779 13.5269 315.747 13.3559C316.574 13.2422 316.774 13.5704 317.067 13.8454C315.602 14.0372 314.677 14.0626 313.565 13.719C313.872 13.4982 314.415 13.4328 314.972 13.3771L314.985 13.3767Z" fill="white"/>
<path fill-rule="evenodd" clip-rule="evenodd" d="M318.594 13.4294C318.934 13.4201 318.86 13.6951 319.253 13.6337C319.105 14.2141 318.356 13.6786 318.064 13.9696C317.726 14.0396 317.921 13.7107 317.516 13.833C317.474 13.2781 318.703 13.9319 318.594 13.4294Z" fill="white"/>
<path fill-rule="evenodd" clip-rule="evenodd" d="M152.337 18.2091C152.882 18.2245 152.346 18.5324 152.35 18.6536C152.104 18.63 151.952 18.5331 151.906 18.3625C152.096 18.3371 152.452 18.4183 152.337 18.199L152.337 18.2091Z" fill="white"/>
<path fill-rule="evenodd" clip-rule="evenodd" d="M153.099 18.1882C153.767 18.7058 155.294 18.3101 156.055 18.2589C156.101 18.4497 156.401 18.4617 156.607 18.547C156.382 18.7857 156.384 18.8463 156.622 19.0724C156.265 18.9911 156.547 19.3171 156.19 19.2358C155.836 18.2345 154.154 18.9479 153.112 18.6428L153.099 18.1983L153.099 18.1882Z" fill="white"/>
<path fill-rule="evenodd" clip-rule="evenodd" d="M258.89 15.2884C259.341 15.3468 259.658 15.4998 259.668 15.8635C259.044 15.9413 258.82 15.7149 258.89 15.2884Z" fill="white"/>
<path fill-rule="evenodd" clip-rule="evenodd" d="M148.084 18.4775C148.438 18.4577 148.564 18.5857 148.637 18.7657L147.658 18.7925C147.486 18.4838 148.27 18.7959 148.084 18.4775Z" fill="white"/>
<path fill-rule="evenodd" clip-rule="evenodd" d="M150.369 18.4148L150.914 18.3999L150.922 18.703L150.378 18.7179L150.369 18.4148Z" fill="white"/>
<path fill-rule="evenodd" clip-rule="evenodd" d="M105.503 19.7861L106.917 19.7474C106.517 20.0616 105.905 20.0784 105.503 19.7861Z" fill="white"/>
<path fill-rule="evenodd" clip-rule="evenodd" d="M210.75 16.9011C211.284 17.0179 211.765 17.1867 212.499 17.1564C212.392 17.2403 212.285 17.314 212.178 17.3877C211.332 17.2895 210.706 17.2865 209.989 17.4477C210.157 17.1499 209.512 17.4304 209.547 17.2374C209.495 16.8344 210.788 17.3045 210.736 16.9015L210.75 16.9011Z" fill="white"/>
<path fill-rule="evenodd" clip-rule="evenodd" d="M224.182 16.8363C222.398 17.2795 219.621 16.7794 218.299 17.22C218.055 17.2671 218.146 17.0827 217.968 17.0774C217.729 17.266 216.71 17.3445 216.338 17.1929C217.038 16.3952 221.833 16.557 223.216 16.8527C223.649 16.7498 223.822 16.6036 224.196 16.8258L224.182 16.8363Z" fill="white"/>
<path fill-rule="evenodd" clip-rule="evenodd" d="M215.777 17.0667C215.574 17.1329 215.483 17.2669 215.239 17.3039C214.865 17.0614 213.957 17.2177 213.262 17.2064C213.685 16.7298 214.721 17.2877 215.777 17.0667Z" fill="white"/>
<path fill-rule="evenodd" clip-rule="evenodd" d="M263.486 15.6072C263.718 15.6413 264.244 15.4651 264.143 15.7408C263.911 15.7068 263.385 15.883 263.486 15.6072Z" fill="white"/>
<path fill-rule="evenodd" clip-rule="evenodd" d="M178.343 18.467L174.303 18.5777C174.71 18.0307 177.701 17.8881 178.343 18.467Z" fill="white"/>
<path fill-rule="evenodd" clip-rule="evenodd" d="M186.087 17.9514L186.849 17.9305L186.853 18.0821L186.091 18.103L186.087 17.9514Z" fill="white"/>
<path fill-rule="evenodd" clip-rule="evenodd" d="M187.066 17.9246L187.502 17.9126C187.492 18.0443 187.642 18.0705 187.619 18.2127L187.075 18.2276L187.066 17.9246Z" fill="white"/>
<path fill-rule="evenodd" clip-rule="evenodd" d="M192.865 17.9172C194.075 17.884 195.365 17.7779 196.042 18.1334C195.307 18.1333 193.383 18.4691 192.865 17.9172Z" fill="white"/>
<path fill-rule="evenodd" clip-rule="evenodd" d="M246.467 16.4478L246.903 16.4358C246.893 16.5675 247.043 16.5937 247.02 16.7359C246.666 16.7557 246.54 16.6277 246.467 16.4478Z" fill="white"/>
<path fill-rule="evenodd" clip-rule="evenodd" d="M254.442 16.381C254.261 16.7297 253.332 16.5934 252.707 16.651C252.824 15.94 253.616 16.5351 254.442 16.381Z" fill="white"/>
<path fill-rule="evenodd" clip-rule="evenodd" d="M257.166 16.4577C256.634 16.3915 256.139 16.7184 255.752 16.4965C256.031 16.2664 257.057 15.9552 257.166 16.4577Z" fill="white"/>
<path fill-rule="evenodd" clip-rule="evenodd" d="M196.357 18.1955C196.667 17.6107 197.709 18.3708 198.092 17.9256C198.443 17.8249 198.18 18.1658 198.531 18.0652C198.679 17.9903 199.447 17.6963 199.51 18.0383C199.838 18.0799 200.446 17.9116 200.6 18.0792C199.021 18.0719 197.352 18.2491 196.343 18.1959L196.357 18.1955Z" fill="white"/>
<path fill-rule="evenodd" clip-rule="evenodd" d="M258.699 16.2641L259.461 16.2432C259.424 16.3757 259.546 16.3824 259.683 16.3888C259.577 16.513 259.181 16.4531 259.145 16.626C258.885 16.5825 258.679 16.5073 258.699 16.2641Z" fill="white"/>
<path fill-rule="evenodd" clip-rule="evenodd" d="M216.988 17.5592C218.105 17.5993 218.876 17.4265 219.833 17.552C219.645 18.1435 217.835 17.6775 217.329 18.0655C217.282 17.8443 216.808 17.9382 216.988 17.5491L216.988 17.5592Z" fill="white"/>
<path fill-rule="evenodd" clip-rule="evenodd" d="M261.643 16.4058C262.291 16.2162 263.424 16.3267 264.266 16.2631C263.89 16.4453 262.439 16.6469 261.643 16.4058Z" fill="white"/>
<path fill-rule="evenodd" clip-rule="evenodd" d="M273.117 16.3947C272.445 16.6962 270.31 16.7548 270.158 16.1726C271.272 16.1218 272.572 15.8738 273.117 16.3947Z" fill="white"/>
<path fill-rule="evenodd" clip-rule="evenodd" d="M141.126 19.8611C141.563 19.9199 141.841 20.1044 142.118 20.2788C142.695 19.9798 144.452 20.0227 145.069 20.1978C145.591 19.86 145.994 20.1725 146.701 20.1531C147.177 20.1401 147.699 19.8123 148.107 19.8113C148.284 19.8064 148.386 20.0362 148.66 20.0994C149.782 20.3315 151.353 19.5201 151.94 20.0803C153.85 19.7751 155.483 20.2561 157.176 19.9367C158.441 20.4076 160.626 20.1556 162.207 20.2437C162.534 20.2347 162.527 20.0024 162.743 19.9257C163.534 19.9849 164.005 20.2854 164.943 20.2395C164.288 20.682 163.623 20.2554 162.993 20.5962C161.489 20.3544 159.878 20.6816 158.187 20.5763C153.743 20.3139 148.752 20.9967 144.966 20.413C141.817 20.7217 139.76 20.6871 136.992 20.4799C137.936 19.6958 140.181 20.6452 141.126 19.8409L141.126 19.8611Z" fill="white"/>
<path fill-rule="evenodd" clip-rule="evenodd" d="M379.666 13.3222L379.992 13.3133C379.949 13.729 379.629 13.9602 379.031 14.017C378.915 13.727 379.407 13.8146 379.235 13.4857C379.425 13.4603 379.781 13.5415 379.666 13.3222Z" fill="white"/>
<path fill-rule="evenodd" clip-rule="evenodd" d="M279.891 16.209L281.414 16.1672C281.516 16.4071 281.327 16.4527 281.207 16.547C280.82 16.3251 280.383 16.2966 279.899 16.5121L279.891 16.209Z" fill="white"/>
<path fill-rule="evenodd" clip-rule="evenodd" d="M284.37 16.2378C284.22 16.7272 282.741 16.4139 282.184 16.4494L282.18 16.2978C282.418 16.0486 284.105 16.0024 284.37 16.2378Z" fill="white"/>
<path fill-rule="evenodd" clip-rule="evenodd" d="M326.071 15.0947C327.209 15.3871 328.801 15.3536 329.912 15.6668C327.928 15.7819 325.747 15.6597 323.348 15.5435C323.822 14.9542 325.569 15.6443 326.071 15.0947Z" fill="white"/>
<path fill-rule="evenodd" clip-rule="evenodd" d="M291.909 16.1727C293.787 16.1516 296.07 16.0384 298.126 16.0731C298.173 16.2639 298.486 16.2755 298.358 16.5924C296.42 16.3928 294.967 16.5034 293.12 16.6652C292.814 16.431 291.841 16.6801 291.909 16.1727Z" fill="white"/>
<path fill-rule="evenodd" clip-rule="evenodd" d="M305.664 15.9475C305.551 16.2943 304.967 16.3306 304.368 16.3571L304.356 15.9126C304.707 15.8019 305.294 15.8565 305.664 15.9475Z" fill="white"/>
<path fill-rule="evenodd" clip-rule="evenodd" d="M321.165 15.3708C321.28 15.5901 320.387 15.7763 320.405 15.4624C320.663 15.4351 320.81 15.33 321.165 15.3708Z" fill="white"/>
<path fill-rule="evenodd" clip-rule="evenodd" d="M217.784 18.2856C218.824 18.4897 219.558 17.9741 220.091 18.5257C219.58 18.7621 218.626 18.7074 217.796 18.7403L217.784 18.2957L217.784 18.2856Z" fill="white"/>
<path fill-rule="evenodd" clip-rule="evenodd" d="M264.504 17.0049C264.737 17.039 265.263 16.8628 265.161 17.1385C264.929 17.1045 264.403 17.2807 264.504 17.0049Z" fill="white"/>
<path fill-rule="evenodd" clip-rule="evenodd" d="M271.721 17.1104C271.314 17.1418 270.726 17.0568 270.637 17.2917C270.392 17.2681 270.239 17.1712 270.194 17.0006C270.541 16.7585 271.616 16.7392 271.721 17.1104Z" fill="white"/>
<path fill-rule="evenodd" clip-rule="evenodd" d="M370.078 14.1109L370.513 14.099L370.521 14.4021C370.142 14.4731 370.003 14.3759 370.078 14.1109Z" fill="white"/>
<path fill-rule="evenodd" clip-rule="evenodd" d="M220.508 18.3625L221.052 18.3476C221.195 18.5864 220.7 18.4179 220.843 18.6567C220.758 18.5377 220.5 18.5549 220.508 18.3625Z" fill="white"/>
<path fill-rule="evenodd" clip-rule="evenodd" d="M316.161 16.0337C315.682 16.4512 313.679 16.3545 312.993 16.1913C311.095 16.4354 310.042 16.2722 308.083 16.3259C307.982 16.1163 308.228 16.1298 308.182 15.9491C309.809 15.7124 311.428 16.1938 312.548 15.8294C313.387 16.1603 315.321 15.7029 316.161 16.0337Z" fill="white"/>
<path fill-rule="evenodd" clip-rule="evenodd" d="M93.5544 22.3683C92.9441 22.4456 92.6945 22.2806 92.3514 22.1788C92.4922 21.8514 93.7338 21.9589 93.5544 22.3683Z" fill="white"/>
<path fill-rule="evenodd" clip-rule="evenodd" d="M169.426 19.9145C170.576 20.1762 173.89 19.8932 175.661 19.966C176.111 19.984 176.894 19.7603 177.084 20.2303C174.772 20.7992 172.132 19.81 170.641 20.5586C170.203 20.4695 169.672 20.4537 169.221 20.3751C168.86 20.1423 169.446 20.1465 169.426 19.9246L169.426 19.9145Z" fill="white"/>
<path fill-rule="evenodd" clip-rule="evenodd" d="M341.844 16.452C341.561 17.0562 340.992 16.6674 340.441 16.9353C338.245 16.7629 335.107 16.4951 333.005 16.765C330.813 16.2691 327.141 16.855 325.016 16.3066C324.605 16.2067 324.817 16.5143 324.476 16.4731C323.172 16.0741 320.813 16.432 319.336 16.1691C320.868 15.4397 321.717 16.1342 323.805 15.8242C324.429 16.2621 326.335 15.765 326.879 16.2657C327.149 16.1875 327.268 16.0326 327.746 16.0903C328.518 16.4432 330.491 15.924 331.25 16.2975C331.687 16.3563 331.514 16.0274 332.007 16.1251C332.427 16.0529 332.353 16.3381 332.666 16.3295C335.802 16.0413 339.021 16.2766 341.844 16.452Z" fill="white"/>
<path fill-rule="evenodd" clip-rule="evenodd" d="M352.08 14.9784C352.005 15.2332 351.457 15.0865 350.887 15.1628C350.949 14.9285 351.776 14.8048 352.08 14.9784Z" fill="white"/>
<path fill-rule="evenodd" clip-rule="evenodd" d="M361.789 14.6414C361.674 14.9075 361.49 15.1349 361.596 15.5465L361.052 15.5615C361.125 15.2258 360.971 15.0683 360.816 14.8905C361.431 14.995 361.201 14.5463 361.789 14.6414Z" fill="white"/>
<path fill-rule="evenodd" clip-rule="evenodd" d="M284.503 17.1341C283.441 17.1127 282.099 17.3011 281.223 17.1533C281.829 16.9041 284.031 16.7831 284.503 17.1341Z" fill="white"/>
<path fill-rule="evenodd" clip-rule="evenodd" d="M184.061 20.029C183.768 20.7548 182.151 19.8387 181.445 20.404C181.031 20.1929 180.069 20.381 179.695 20.1487C180.603 19.4868 182.968 19.8668 184.061 20.029Z" fill="white"/>
<path fill-rule="evenodd" clip-rule="evenodd" d="M370.092 14.6363C370.48 14.8785 371.429 14.7615 371.833 14.5886C372.11 14.763 372.574 14.811 372.825 15.0063C371.189 15.4353 369.698 15.1628 367.592 15.3014C367.959 14.7757 369.393 14.9487 370.092 14.6363Z" fill="white"/>
<path fill-rule="evenodd" clip-rule="evenodd" d="M194.661 19.8901C194.36 20.3128 193.469 20.0946 192.707 20.0953C191.522 20.0873 189.992 20.3719 189.424 20.0336C190.25 19.8492 191.696 19.4658 192.589 19.7952C193.005 19.5614 194.513 19.4695 194.661 19.8901Z" fill="white"/>
<path fill-rule="evenodd" clip-rule="evenodd" d="M334.066 15.7753C338.286 15.7911 340.307 15.5234 343.895 15.8092C343.282 16.3012 342.281 16.0354 341.383 16.0297C339 16.0142 336.498 16.1131 334.279 16.0728C334.408 15.8266 333.923 16.0219 334.053 15.7757L334.066 15.7753Z" fill="white"/>
<path fill-rule="evenodd" clip-rule="evenodd" d="M185.933 20.2808L184.627 20.3166C184.709 19.829 185.695 20.0345 185.933 20.2808Z" fill="white"/>
<path fill-rule="evenodd" clip-rule="evenodd" d="M195.092 19.7266C195.744 19.6885 196.41 19.6399 196.515 19.9909C197.049 20.1077 197.212 19.6179 197.601 19.8903C197.201 20.2046 195.687 20.0742 195.087 20.03L195.078 19.727L195.092 19.7266Z" fill="white"/>
<path fill-rule="evenodd" clip-rule="evenodd" d="M351.874 15.4287C353.046 15.9527 355.496 14.9655 356.14 15.6151C354.942 15.6277 353.37 16.3684 352.646 15.7816C352.342 16.1135 350.39 16.3894 350.13 15.8506C350.642 15.6647 351.889 15.954 351.861 15.4291L351.874 15.4287Z" fill="white"/>
<path fill-rule="evenodd" clip-rule="evenodd" d="M212.135 19.7851L209.837 19.8481C210.375 19.621 211.886 19.1247 212.135 19.7851Z" fill="white"/>
<path fill-rule="evenodd" clip-rule="evenodd" d="M224.371 19.7529C221.731 19.7747 219.393 19.8894 217.158 19.799C216.491 19.7769 215.395 20.0394 214.854 19.6397C215.987 19.275 218.048 19.4814 218.776 19.2289C219.231 19.449 220.453 19.8401 220.97 19.3204C221.93 19.5873 223.718 19.2451 224.371 19.7529Z" fill="white"/>
<path fill-rule="evenodd" clip-rule="evenodd" d="M249.787 18.3788C250.154 18.3485 250.453 18.3504 250.553 18.5095C250.421 18.6748 249.712 18.6134 249.787 18.3788Z" fill="white"/>
<path fill-rule="evenodd" clip-rule="evenodd" d="M201.88 20.0662C201.648 20.0321 201.162 20.1769 201.116 20.0163C201.001 19.7667 201.916 19.8832 201.88 20.0662Z" fill="white"/>
<path fill-rule="evenodd" clip-rule="evenodd" d="M315.079 16.8114C315.333 17.1078 315.067 17.3476 314.439 17.2739C314.389 16.9517 314.603 16.7942 315.079 16.8114Z" fill="white"/>
<path fill-rule="evenodd" clip-rule="evenodd" d="M329.842 17.0842C329.397 17.248 327.476 17.1793 326.777 17.0165C326.435 16.945 326.509 17.1452 326.346 17.18C325.577 16.918 323.554 17.1049 322.194 17.1422C321.296 17.1668 320.142 17.2591 319.667 16.8373C319.858 16.8624 319.87 16.7711 319.881 16.6798C323.326 16.737 326.69 16.8268 329.828 17.0845L329.842 17.0842Z" fill="white"/>
<path fill-rule="evenodd" clip-rule="evenodd" d="M362.031 15.5244L362.358 15.5154C362.299 15.8608 362.414 16.0902 362.703 16.1833C363.027 16.0835 363.805 15.678 364.008 16.1476C363.908 16.4738 362.949 16.2474 362.489 16.3409C362.328 16.4059 362.263 16.5391 362.282 16.7206C361.724 16.7359 361.138 16.7115 360.871 16.9109C359.204 16.6634 356.388 16.7305 354.656 17.0813C354.033 16.7243 352.57 16.9666 351.48 16.9459C351.221 16.9227 351.544 17.2879 351.16 17.1771C349.876 16.5248 347.971 17.5173 346.671 16.7745C347.778 15.9656 349.864 16.5555 351.686 16.4853C352.84 16.8884 354.879 15.8013 355.943 16.3686C356.788 16.4264 357.273 16.2513 357.911 16.163C358.091 16.2895 358.525 16.2271 358.572 16.4482C359.303 16.3069 360.833 15.992 361.41 16.2188C361.761 16.0777 362.207 15.9947 362.045 15.524L362.031 15.5244Z" fill="white"/>
<path fill-rule="evenodd" clip-rule="evenodd" d="M371.855 15.4067C372.101 15.4303 372.254 15.5273 372.299 15.6979L371.864 15.7098L371.855 15.4067Z" fill="white"/>
<path fill-rule="evenodd" clip-rule="evenodd" d="M181.36 20.7803C181.793 20.6977 181.639 21.0356 182.126 20.911C181.951 21.0169 181.902 21.2103 181.479 21.1512C181.529 20.988 181.325 21.0138 181.148 21.0086C181.214 20.9259 181.391 20.921 181.36 20.7803Z" fill="white"/>
<path fill-rule="evenodd" clip-rule="evenodd" d="M370.01 15.6092C369.922 15.8947 369.752 16.1319 369.484 16.301C369.158 16.3099 369.152 16.0776 368.932 16.0128C368.54 16.1044 368.231 16.2444 367.63 16.2001C367.61 15.4728 369.503 15.987 370.023 15.6088L370.01 15.6092Z" fill="white"/>
<path fill-rule="evenodd" clip-rule="evenodd" d="M366.303 15.9331C366.272 16.308 365.921 16.4086 366.537 16.5232C366.309 16.6608 365.303 16.7187 365.336 16.4044L365.88 16.3895C366.036 16.1224 365.511 16.3592 365.547 16.1762C365.536 15.762 365.868 15.9551 366.303 15.9331Z" fill="white"/>
<path fill-rule="evenodd" clip-rule="evenodd" d="M298.5 17.7917C298.96 18.1633 300.687 17.6306 301.134 18.0228L298.4 18.0977C298.383 17.9668 298.531 17.9324 298.5 17.7917Z" fill="white"/>
<path fill-rule="evenodd" clip-rule="evenodd" d="M311.737 18.0254C311.388 18.2169 310.444 18.0204 310.22 18.2894C310.213 18.047 309.726 18.1412 309.879 17.773C310.775 17.6777 311.195 17.6055 311.737 18.0254Z" fill="white"/>
<path fill-rule="evenodd" clip-rule="evenodd" d="M317.419 18.2438C316.368 18.1512 314.186 18.484 313.152 17.9867C313.437 17.4834 314.767 17.8211 314.993 17.6329C315.336 17.7448 315.693 17.8361 315.983 17.9798C316.461 18.0577 317.567 17.6938 317.405 18.2441L317.419 18.2438Z" fill="white"/>
<path fill-rule="evenodd" clip-rule="evenodd" d="M333.342 17.1401L333.886 17.1252C334.055 17.353 333.185 17.3769 333.342 17.1401Z" fill="white"/>
<path fill-rule="evenodd" clip-rule="evenodd" d="M334.325 17.2646C335.857 17.0406 337.289 17.6282 338.473 17.1508C339.546 17.5562 341.14 17.1081 342.092 17.5774C339.047 17.7114 337.16 17.4194 334.325 17.2646Z" fill="white"/>
<path fill-rule="evenodd" clip-rule="evenodd" d="M380.076 16.3845L380.085 16.6876L379.541 16.7025C379.604 16.5289 379.722 16.3841 380.076 16.3845Z" fill="white"/>
<path fill-rule="evenodd" clip-rule="evenodd" d="M348.434 17.5452C348.883 17.5329 349.118 17.6579 349.633 17.5831C349.436 17.8514 348.962 17.9352 348.336 17.922C348.29 17.7514 348.342 17.6388 348.434 17.5452Z" fill="white"/>
<path fill-rule="evenodd" clip-rule="evenodd" d="M351.592 17.5396C351.798 17.6148 352.098 17.6268 352.144 17.8277L351.6 17.8426L351.592 17.5396Z" fill="white"/>
<path fill-rule="evenodd" clip-rule="evenodd" d="M380.312 17.0455L380.331 17.7224C379.828 17.7564 379.752 17.4753 379.13 17.6036C379.355 17.3649 379.353 17.3043 379.115 17.0783C379.631 17.0338 379.897 16.7738 380.312 17.0455Z" fill="white"/>
<path fill-rule="evenodd" clip-rule="evenodd" d="M361.107 17.5718L361.869 17.5509L361.873 17.7024L361.111 17.7233L361.107 17.5718Z" fill="white"/>
<path fill-rule="evenodd" clip-rule="evenodd" d="M375.439 18.5237C375.859 18.4515 375.918 18.6318 376.098 18.728C376.148 19.0603 375.491 18.9266 375.457 19.1904C375.14 19.0475 375.485 18.7246 375.439 18.5136L375.439 18.5237Z" fill="white"/>
<path fill-rule="evenodd" clip-rule="evenodd" d="M277.069 9.09795C277.479 9.15748 277.635 9.39584 278.165 9.3712C278.171 9.58335 278.124 9.85761 278.29 9.96427C279.576 9.70659 281.123 10.008 282.328 9.78282C282.557 9.68556 282.384 9.32634 282.64 9.24854C283.361 9.22878 283.468 9.67068 283.749 9.9663C284.367 9.66628 285.953 10.4316 286.918 9.87943C286.993 10.1503 288.256 10.0449 288.332 9.84066C288.881 9.99749 290.599 10.102 290.955 9.69798C290.286 9.59502 289.455 9.57735 288.764 9.68729C288.659 9.35651 289.206 9.43252 289.185 9.15002C289.76 9.2758 290.14 9.24516 291.27 9.24452C291.292 9.55733 291.077 9.66432 291.288 9.92139C292.172 9.87695 294.141 9.72187 295.223 9.96518C295.477 9.80656 295.898 9.76469 296.416 9.78083C296.545 9.53464 296.061 9.72991 296.19 9.48372C295.759 9.63709 294.285 9.51571 293.454 9.48794C294.329 9.12022 296.146 9.36361 297.381 9.22866C297.226 9.5261 296.433 9.39619 296.527 9.84857C298.334 9.74847 299.74 9.90202 301.217 9.64922C302.541 10.2903 304.656 9.46397 306.675 9.65126C306.805 9.40506 306.32 9.60033 306.45 9.35414C305.912 9.62162 305.28 9.38621 304.704 9.25033C304.808 9.04529 305.402 8.87735 305.573 9.15575C307.194 9.1922 308.685 8.95924 310.267 9.09784C310.51 9.03051 310.297 8.67241 310.36 8.4988C310.685 8.43934 311.301 8.564 311.446 8.39826L311.442 8.24672C310.816 8.24367 309.95 8.42917 309.355 8.08151C309.182 8.21769 308.745 8.1791 308.71 8.40248C308.598 8.27413 308.406 8.21873 308.053 8.26884C307.904 8.29314 307.963 8.4634 307.953 8.5749C306.755 8.5774 305.601 8.70001 304.675 8.66475C304.503 8.35604 305.246 8.63899 305.213 8.42758C304.966 8.37367 304.92 8.18285 304.554 8.22322C304.405 8.24753 304.464 8.41778 304.453 8.52928C304.447 8.31713 303.854 8.50527 303.901 8.24112C306.272 7.84248 308.9 7.87155 311.539 7.80932C313.797 7.74743 316.686 7.88055 318.423 7.69139C319.267 8.19398 322.18 7.19411 322.37 8.17969C322.018 8.2298 321.825 8.1744 321.713 8.04605C320.911 8.58365 319.379 7.81683 318.657 8.28148C316.842 8.12901 314.797 8.01319 313.636 8.34833C314.079 8.61928 315.616 8.08175 315.725 8.59437C314.613 8.72597 312.822 8.44142 312.236 8.91244C316.164 9.20917 319.884 8.85445 323.18 9.43137C322.89 9.76285 321.539 9.62802 321.315 9.41173C320.596 9.50221 319.308 9.67906 318.903 9.32618C318.619 9.38452 318.418 9.50124 318.48 9.78263C318.731 9.98807 319.283 9.76063 319.458 9.68506C319.83 9.84674 320.508 10.2629 320.876 9.79783C321.843 10.2971 324.42 9.47826 325.47 10.046C328.186 9.80977 330.763 10.457 332.905 10.1455C334.172 10.687 335.729 9.89619 337.063 10.4056C338.152 9.91065 340.963 10.6323 342.191 10.265C345.421 10.409 349.878 10.1251 353.873 9.87403C353.73 9.62519 353.053 9.75496 352.776 9.60078C350.581 9.94405 347.886 9.96736 345.896 9.86015C346.315 9.27237 348.55 9.85816 349.164 9.3965C349.731 9.7247 351.192 9.39146 352.119 9.46713C353.079 9.22851 354.571 9.53136 355.828 9.21381C356.412 8.14636 358.796 8.24276 360.488 7.89308C361.301 8.24488 362.091 7.77836 363.113 7.82112C363.207 8.2735 362.137 7.9692 362.037 8.29546C361.525 7.97587 360.991 8.36458 360.407 8.41092C360.417 8.79482 360.374 9.20041 360.651 9.3748C360.905 9.19598 361.422 9.18181 361.953 9.18747C362.11 8.95064 362.446 8.82009 362.7 8.64126C363.033 8.86467 363.587 8.72815 363.784 8.45989C363.894 8.50742 363.897 8.62865 364.115 8.60248C364.203 8.83261 363.736 8.70385 363.907 8.98224C363.582 9.0417 362.966 8.90694 362.821 9.08279C363.326 9.62501 364.959 9.12528 364.654 8.43603C365.084 8.71745 365.688 8.4077 365.843 8.10014C365.553 7.95644 364.983 8.0125 364.854 7.75319C365.151 7.67427 365.878 7.87677 365.829 7.57481C366.18 7.47419 365.917 7.81504 366.268 7.71442C367.023 7.45108 367.802 7.57126 368.24 7.66036C370.027 7.27776 374.155 7.44766 376.749 7.20471C377.74 7.11687 378.88 7.00473 379.597 7.34904C378.508 7.82375 376.678 7.59084 375.671 7.60833C375.563 7.66182 375.567 7.78305 375.348 7.76881C375.383 8.02063 376.031 7.83099 375.798 8.28222C375.312 7.91137 374.908 8.56949 375.377 8.81948C375.799 8.82813 375.639 8.44833 376.02 8.42779C376.036 8.51834 376.226 8.48281 376.348 8.48956C376.521 8.81847 376.028 8.73087 376.145 9.02086C377.106 9.31805 378.078 8.01753 378.877 8.8752C378.574 9.23737 377.315 8.9888 376.915 9.30306C377.002 9.49277 377.155 9.63011 377.576 9.58824C377.472 9.76297 377.077 9.75358 377.153 10.0447C377.569 10.3063 377.911 9.90258 378.348 9.94116L378.362 10.4665C377.489 10.3893 377.281 10.7489 376.394 10.6721C376.81 10.9337 376.214 11.0511 375.865 11.2123C375.552 11.2209 375.532 10.9889 375.312 10.9242C374.898 11.1984 374.971 10.883 374.333 10.951C374.309 11.073 374.446 11.0794 374.448 11.1703C374.632 11.4382 374.607 10.9941 374.881 11.0876C374.768 11.4244 375.175 11.3829 375.222 11.604C375.409 11.4574 376.122 11.64 376.087 11.3579C376.173 11.5476 376.634 11.4743 376.641 11.7168C376.999 11.3733 377.55 11.6009 378.158 11.4528C378.294 11.9344 378.028 12.154 377.969 12.5094L376.881 12.5392C376.792 12.754 377.036 12.7271 377 12.9101C377.628 12.9535 378.188 12.554 378.628 12.7138C378.763 13.1448 378.038 13.0232 377.881 13.26C377.754 13.6072 378.615 13.2399 378.649 13.4614C378.726 13.7828 378.179 13.6967 378.006 13.8531C377.292 13.6401 375.55 13.6272 375.278 14.1503C375.326 13.9164 375.081 13.8928 375.155 13.6279C374.637 13.6118 374.203 13.654 373.962 13.8123C373.887 14.0469 374.346 13.8927 374.19 14.1801C373.89 14.1681 373.391 14.3031 373.531 13.9757C373.301 14.0225 373.126 14.098 373.215 14.3585C372.832 14.2982 372.757 14.0273 372.334 14.0085C372.062 13.9958 372.791 14.269 372.345 14.3823C371.79 14.0032 370.243 13.6918 369.274 14.0924C368.906 14.0621 368.63 13.9483 368.395 13.8132C368.165 13.8397 368.377 14.1473 368.188 14.193C367.671 14.2071 367.315 14.1158 367.198 13.846C367.876 13.7466 368.097 13.3462 369.038 13.4215C369.2 13.3564 369.264 13.2232 369.245 13.0418C368.765 12.8831 367.83 13.0502 367.176 13.0277L367.162 12.5024C366.837 12.5618 366.664 12.7182 366.741 13.0396C366.157 13.086 365.639 13.0698 365.642 12.6957C364.84 12.7379 363.748 12.596 363.916 13.2687C363.252 13.3678 363.201 13.0254 362.497 13.156L362.507 13.5298C363.209 13.8037 364.405 13.7305 365.04 14.0568C361.775 14.116 359.635 14.5083 355.879 14.5304C355.593 14.518 355.985 14.942 355.561 14.8424C355.236 14.9221 355.366 14.686 355.335 14.5453C354.227 14.3734 352.806 15.1606 351.837 14.5704C350.984 14.7353 349.798 14.6768 348.779 14.725C348.949 14.4878 349.314 14.3868 349.526 14.1788C349.813 14.2013 349.832 14.413 350.292 14.3094C350.88 13.9294 352.494 14.2086 352.792 13.6444C351.398 13.4299 350.242 13.9772 349.181 13.521C348.801 13.5314 348.904 13.8319 348.537 13.8419C348.252 13.87 348.247 13.6982 348.202 13.5478C346.014 13.6685 344.404 13.5306 342.53 13.7033L342.545 14.2286C342.887 13.8148 343.403 14.2657 344.284 14.1102L344.294 14.484C345.11 14.4717 345.607 14.7007 346.597 14.5725C345.831 14.9372 344.123 14.6909 342.997 14.8228L342.988 14.5198C342.388 14.4553 342.244 14.6817 342.017 14.8497C341.226 14.7905 340.18 14.3541 339.388 14.7701C338.031 14.4332 337.018 14.7238 335.558 14.5718C334.807 14.4913 333.902 14.2633 333.249 14.261C333.099 14.2651 332.995 14.4297 332.818 14.4245C331.986 14.3765 330.939 13.9098 330.08 14.3479C327.836 14.4094 325.189 14.1988 322.961 13.8656C322.62 13.8143 322.832 14.1219 322.422 14.0321C321.857 13.7948 320.963 13.9406 320.687 14.3021C320.28 14.3638 320.221 14.1834 319.814 14.2552C319.939 13.8575 319.384 13.9536 319.363 13.6711C319.624 13.765 319.858 13.8698 320.346 13.7958C320.163 12.5876 317.778 13.4517 316.608 12.9984C316.197 12.8985 316.41 13.2061 316.068 13.1649C314.847 12.8142 313.498 13.2353 312.242 13.1181C311.846 13.0784 311.623 12.8722 311.364 12.8389C310.176 12.7097 308.287 13.3175 306.458 13.125C306.143 13.0528 305.894 12.9282 305.579 12.8458C303.069 13.1572 298.878 13.1913 296.52 13.0941C294.694 13.0228 292.728 13.2992 291.282 13.1669C290.436 13.089 288.184 13.3732 286.374 13.3722C285.775 13.3785 285.222 13.0601 284.631 13.3492C283.115 13.1684 281.586 13.4833 280.154 13.4012C280.421 13.7174 281.609 13.3613 281.69 13.804C282.512 13.5286 282.85 13.9339 283.658 13.5984C283.97 13.5797 283.882 13.845 284.315 13.732C284.143 13.9187 283.791 13.989 283.785 14.2722C282.827 14.0761 281.514 14.3547 280.181 14.371C280.105 14.0799 280.5 14.0893 280.604 13.9146C280.37 13.83 280.043 13.8188 279.836 13.7132L279.822 13.1879C279.051 13.3809 278.593 13.0497 277.867 13.3931C276.905 13.0454 274.729 13.1253 274.15 13.3434C272.043 12.9462 268.85 13.6605 267.253 13.0067C267.092 13.092 266.987 13.2263 266.826 13.3217C265.018 12.9062 261.528 13.7096 260.041 13.0628C259.359 13.5062 258.37 13.1895 257.43 13.6601C257.301 13.4311 257.602 13.4734 257.639 13.3511C257.569 13.2721 257.392 13.277 257.416 13.1348C255.164 13.4088 251.386 13.6337 249.441 13.2017C249.363 13.3252 249.104 13.3222 249.123 13.5138C248.212 13.0737 246.726 13.9536 246.054 13.2946C244.878 14.0952 243.551 13.343 242.357 13.9924C242.365 14.2652 242.906 14.1492 243.021 14.3483C243.414 14.3072 243.531 14.0917 244.105 14.1669C244.501 15.2278 242.464 14.404 241.607 14.9128C241.302 14.7088 240.569 14.7997 239.971 14.806C239.856 14.6069 239.751 14.2357 240.061 14.1261C240.577 14.0817 240.559 14.4259 240.835 14.5498L241.27 14.5378C241.662 14.4462 241.417 13.9474 242.128 14.0695C241.576 13.7813 240.707 13.8658 239.828 14.0618L239.815 13.6172C241.141 13.3281 243.025 13.5293 243.843 13.062C243.773 12.983 243.596 12.9879 243.619 12.8457C243.308 12.9149 242.969 12.9646 242.866 13.1697C242.451 12.9485 241.078 12.9861 240.676 13.2297C240.531 12.9202 240.844 12.8915 240.879 12.6984C242.204 12.8542 242.826 12.7259 243.935 12.463C244.084 12.4387 244.025 12.2684 244.036 12.1569C245.361 12.8283 247.448 12.0027 249.385 12.1619C249.422 11.9992 249.312 11.9617 249.268 11.8618C247.638 11.9773 245.305 11.7683 243.812 11.9406C243.786 11.4965 242.483 11.6232 242.176 11.8338C240.109 11.4153 238.672 12.6073 236.41 12.5176C236.109 12.4753 236.501 12.869 236.2 12.8266C235.767 12.9093 235.921 12.5714 235.434 12.696C235.19 12.733 235.404 13.0608 235.34 13.2243C234.822 13.2082 234.665 13.4248 234.591 13.6897C234.719 13.9086 235.568 13.5921 235.683 13.8114C235.684 14.3472 233.939 13.7581 234.176 14.4492C234.212 14.7617 234.754 14.6962 234.95 14.8729C235.121 15.1513 234.654 15.0225 234.742 15.2526C233.905 15.0127 232.576 15.6659 232 15.0245C232.39 14.8318 233.167 14.8914 232.961 14.3208C233.342 14.3103 233.241 14.6164 233.622 14.6059C233.73 14.5524 233.726 14.4312 233.944 14.4455C233.381 13.7734 231.7 14.5171 230.225 14.325C230.473 13.9239 232.064 14.3858 232.187 13.8971C231.047 13.524 230.147 13.9733 228.476 14.0696C228.693 13.5481 230.143 13.8217 230.194 13.2036C230.729 13.3507 231.384 13.4136 232.052 13.456C232.142 13.2412 232.328 13.0945 232.584 12.9965C232.404 12.8802 232.21 12.754 232.03 12.6377C231.773 12.6953 232.056 13.102 231.827 13.169C230.788 13.0053 230.106 12.9735 229.093 13.2439C229.22 12.927 228.907 12.9154 228.861 12.7245C225.857 13.3831 221.935 13.3087 218.606 13.5314C218.735 13.7402 218.956 13.8857 219.165 14.0418C219.667 14.0078 220.384 13.8163 220.583 14.1545C221.074 13.6659 222.991 14.0885 223.634 13.6969C224.922 14.0356 226.033 13.348 227.568 13.7406C225.083 13.9503 222.39 15.025 219.83 14.4785C219.625 14.9391 218.595 14.6134 217.984 14.6807C217.689 15.3359 219.199 15.2945 219.518 15.0128C221.15 15.4735 222.796 14.4376 223.463 15.4304C222.033 15.9043 219.121 15.418 217.691 15.8919C217.308 15.8215 217.071 15.6258 217.128 15.2299C217.415 15.2726 217.649 15.3572 217.896 15.4313C217.82 15.1301 217.557 14.9654 217.12 14.9269C216.975 14.6174 217.579 14.7828 217.656 14.6089C217.603 14.1857 216.951 14.2036 216.445 14.1163C216.916 13.9315 217.761 13.9893 217.956 13.6301C216.973 13.5155 215.722 13.5902 214.891 13.5624C214.951 13.2575 215.842 13.4959 215.86 13.1618C215.242 12.9664 214.351 13.2032 214.349 13.6481C213.829 13.5309 212.96 13.6356 212.723 13.915C212.856 14.2956 214.004 13.9608 214.15 14.3208C212.081 14.3168 211.425 14.2135 209.893 14.4375C209.686 14.3319 209.345 14.3211 209.125 14.2361C209.292 13.8979 210.334 14.1423 210.862 14.0368C210.658 13.547 209.191 13.6883 208.668 13.9453C208.307 13.7025 207.753 13.8491 207.362 13.9811C207.316 13.7903 207.002 13.7787 207.13 13.4618C206.939 13.4468 206.588 13.5474 206.691 13.3221C206.583 13.3756 206.586 13.4969 206.368 13.4826C206.296 13.8385 206.745 13.8262 206.713 14.1506C207.462 14.1705 208.478 13.991 208.907 14.2421C208.802 14.3663 208.405 14.3064 208.369 14.4792C208.095 14.416 207.969 14.2678 207.495 14.3516C207.146 14.5431 206.922 14.8121 206.753 15.12C207.033 15.3954 207.157 14.9472 207.513 15.0284C207.829 15.131 208.145 15.2335 208.18 15.5359C207.522 15.3517 206.116 15.7138 205.658 15.3826C205.404 15.5412 204.983 15.5831 204.465 15.5669C204.582 15.3514 205.045 15.3489 205.106 15.1045C205.723 15.2797 205.838 14.9935 206.627 14.9921C206.744 14.7765 206.739 14.5947 206.611 14.396C206.298 14.3945 206.4 14.6545 205.962 14.5654C206.197 14.1849 206.037 14.3207 205.944 13.8886L203.863 13.9456C203.79 14.261 203.93 14.4088 204.204 14.462C203.587 14.8226 202.633 15.2532 201.7 14.9755C201.612 15.2711 202.086 15.157 201.932 15.4949C202.3 15.5353 202.101 15.2172 202.359 15.1798C202.909 15.3973 204.099 15.1321 204.009 15.812C203.657 15.8621 203.465 15.8067 203.352 15.6783C203.347 16.002 202.303 16.1519 202.051 15.8657C201.305 15.9771 200.114 16.2221 199.099 15.9466C198.688 15.8466 198.901 16.1542 198.559 16.113C197.02 16.0844 193.519 15.9782 191.675 16.231C191.673 16.1602 191.537 16.1741 191.455 16.1662C191.636 15.7973 191.825 15.7517 191.648 15.2611C188.598 15.2032 185.544 15.0139 182.695 15.3549C183.368 16.0947 185.443 15.2998 186.962 15.612L186.974 16.0565C184.854 16.1551 183.226 16.3514 181.522 16.2767C181.367 16.5944 182.134 16.2398 181.966 16.5679L180.986 16.5947C180.928 16.4346 181.187 16.478 181.198 16.3665C179.691 16.0135 178.065 16.2704 176.729 16.7114C176.558 16.433 177.219 16.6879 177.047 16.3994C176.961 16.2299 176.434 16.3859 176.175 16.3525C175.875 16.3304 176.268 16.7544 175.967 16.7323C175.588 16.8034 175.45 16.7061 175.524 16.4412C174.241 16.3247 173.01 16.6011 172.127 16.1602C172.121 16.4232 171.311 16.1725 171.484 16.5519C170.847 16.1346 169.806 16.881 169.393 16.2351C168.9 16.1071 169.21 16.5131 168.966 16.5501C167.91 16.2455 166.729 16.8743 165.684 16.4885C165.122 16.8476 163.8 16.7625 162.954 16.7149C162.809 16.3752 163.689 16.6948 163.71 16.4718C163.123 16.407 161.417 16.2617 161.309 16.76C161.143 16.6837 161.031 16.5553 160.865 16.4689C158.66 16.954 155.041 16.5376 153.116 16.833C151.712 16.7501 149.555 16.506 148.311 16.813C147.376 16.4545 145.159 17.0208 144.37 16.547C142.748 16.9655 138.904 16.7575 136.835 16.7535C136.549 16.7614 136.268 16.9308 135.969 16.9289C131.354 16.9038 125.874 17.1147 121.555 17.4757C122.439 17.4514 123.411 18.1527 124.295 17.623C124.927 17.8382 126.736 17.7886 127.356 17.5391C127.708 17.4688 127.765 17.5885 127.904 17.6757C127.993 17.461 128.485 17.5183 128.879 17.4973C130.652 18.1362 134.054 17.6082 136.642 17.6586C137.21 18.0171 137.686 17.5289 138.492 17.6079C138.751 17.6311 138.428 17.2659 138.812 17.3767C138.992 17.4931 139.186 17.6192 139.366 17.7356C139.859 17.3177 140.542 17.9359 140.994 17.5393C144.435 17.9303 149.01 17.4915 153.234 17.6487C153.395 17.5634 153.5 17.429 153.661 17.3336C154.862 17.9377 157.704 17.3441 159.238 17.7065C159.649 17.8064 159.437 17.4988 159.778 17.54C162.091 17.4969 165.405 17.7295 167.426 17.482C169.677 17.663 173.377 17.5717 175.614 17.2576C176.019 17.1353 175.824 17.4541 176.163 17.3942C177.482 16.8728 179.158 17.9187 180.637 17.2716C181.035 17.382 181.61 17.4977 181.943 17.2358C181.787 17.5029 182.311 17.2661 182.276 17.4491C184.204 17.285 186.479 17.3642 189.049 17.2634C189.9 17.5131 191.247 17.001 192.118 17.4826C192.194 17.2682 192.796 17.3831 192.871 17.1586C193.65 17.2788 194.466 17.2363 195.283 17.2442C195.514 17.2378 195.605 17.0736 195.823 17.0777C195.945 17.0744 196.235 17.2181 196.371 17.2144C197.323 17.1883 199.386 16.9902 200.959 17.2403C202.818 17.0578 206.087 17.1098 208.173 17.2649C206.849 17.6146 204.328 17.522 203.044 17.3347C198.991 17.456 194.469 17.8529 190.163 17.6878C182.901 17.4117 175.733 18.1036 168.756 17.8298C167.894 18.1567 166.629 17.696 166.027 18.0563C161.746 17.8096 156.137 18.2768 152.048 18.0654C151.802 18.0519 151.889 18.2315 151.725 18.2258C150.498 18.1382 148.346 18.086 147.142 18.3515C144.818 17.9805 141.626 18.2297 138.728 18.2788C138.202 17.9697 137.435 18.3041 136.88 18.4003C136.811 18.847 137.728 18.5388 137.861 18.4441C137.955 18.8662 139.462 18.2486 139.395 18.7762C137.964 18.7143 136.013 19.0508 135.353 18.8162C135.345 18.503 136.195 18.7223 136.546 18.6318C136.472 18.4013 136.144 18.3598 135.99 18.2022C134.278 18.3098 131.527 18.274 129.325 18.3849C129.898 18.9152 130.753 18.3458 131.523 18.628C130.925 19.1499 129.167 18.5611 129.138 19.5123C128.726 19.382 128.741 18.9368 128.143 18.9431C127.861 19.0822 127.786 19.3471 127.615 19.554C127.165 19.5057 127.06 19.6804 126.638 19.6516C126.561 19.3403 126.983 19.3388 127.17 19.1922C127.122 18.9407 126.491 18.7558 127.042 18.5183C125.235 18.123 121.959 18.7991 120.152 18.4039C117.933 18.9095 113.947 18.4829 112.077 18.7769C111.44 18.4101 110.815 18.9328 110.122 18.9821C111.989 19.5476 115.013 18.6256 116.686 19.1055C115.47 19.4421 113.99 19.5635 112.542 19.3707C112.326 19.4474 112.111 19.5241 111.895 19.6109C113.656 19.7749 115.549 19.8241 117.134 19.538C117.212 19.9201 118.465 19.4308 118.557 19.8023C118.767 19.5438 120.02 19.5802 120.404 19.6809C120.547 19.9196 120.052 19.7512 120.195 19.99C118.524 20.1065 116.647 19.6626 115.176 20.1275C114.056 19.9662 112.419 20.3447 111.557 19.701C111.257 19.6789 111.65 20.1029 111.35 20.0808C111.037 20.0893 110.831 20.004 110.905 19.7189C110.389 19.7634 109.966 19.7446 109.917 19.4427C108.31 19.426 106.799 19.3967 105.442 19.5653C105.197 19.572 105.41 19.8796 105.346 20.0128C104.99 19.9619 104.939 20.0846 104.806 20.1793C103.932 20.1021 104.097 20.1481 103.173 20.224C104.829 20.5224 106.573 20.606 108.198 20.3087C108.525 20.2997 108.531 20.5321 108.751 20.5969C109.275 20.3702 109.793 20.3863 110.379 20.4006C113.511 20.4664 117.574 20.2033 120.872 20.3354C121.975 20.3759 123.324 20.4097 124.049 20.5516C124.319 20.4835 124.991 20.6673 124.915 20.3762C125.455 20.695 126.18 20.3415 126.652 20.1769C127.144 20.2544 128.321 20.4648 128.719 20.1203C129.226 20.2176 129.995 20.4796 130.356 20.2271C130.759 20.5496 132.437 20.6755 132.763 20.1611C133.739 20.4983 134.47 20.367 136.158 20.3713C136.247 20.6216 135.712 20.4745 135.842 20.754C134.248 20.7168 132.161 21.0369 130.928 20.7371C130.49 20.648 130.717 20.9855 130.279 20.9065C126.662 20.5406 123.204 21.515 119.144 21.3634C118.852 21.1591 118.009 21.1822 117.729 21.4022C115.688 21.4076 111.748 21.1921 110.19 21.4572C109.849 21.4261 109.748 21.2267 109.527 21.1013C109.45 21.2753 109.068 21.2453 108.88 21.3415C102.185 21.4239 95.8667 21.8094 89.1113 21.6609C87.0089 21.9309 83.7363 21.7173 81.0238 21.5793C77.2385 22.0268 72.9913 21.5164 68.7921 21.763C68.6627 22.0092 69.1474 21.8139 69.018 22.0601C69.6823 21.961 69.3286 21.9707 69.9973 22.0332C69.3089 22.7396 67.4258 22.0734 66.2842 22.135C66.1254 21.8057 66.937 22.1171 66.9309 21.8949C65.1306 21.7622 62.5716 21.7616 60.9347 22.13C59.0627 21.8679 56.5218 22.0285 54.6992 22.0785C53.9467 21.9374 52.4667 22.0689 51.7538 22.3817C50.4934 22.0826 48.5711 21.9735 47.5993 22.2731C47.1186 22.1144 45.6327 22.0338 45.1919 22.3391C42.2756 22.7122 39.9901 21.7639 37.7656 22.5427C35.6143 22.5208 32.87 22.2118 30.331 22.4432C29.1366 22.0715 26.7005 22.5831 25.7329 22.0435C25.3651 22.0333 25.0662 22.0516 24.9754 22.2159C23.4815 21.8423 21.5795 21.9753 19.7203 21.6826C19.4058 21.6305 19.0603 21.4378 18.7327 21.4063C17.4501 21.2898 16.1937 21.6377 15.0135 21.2859C14.6718 21.2346 14.8847 21.5523 14.4736 21.4523C14.3842 21.6671 14.6285 21.6402 14.5926 21.8231C14.3295 21.6585 13.8796 21.6304 13.8166 21.3187C12.9158 21.2321 11.3211 21.6499 11.0744 21.0905C10.967 21.144 10.9703 21.2653 10.7521 21.251C8.73971 20.831 8.00693 20.4164 5.80937 20.1935C5.81937 20.0618 5.66892 20.0356 5.69225 19.8934C4.29633 19.6183 2.23253 19.8063 1.19693 19.2685C1.10757 18.9878 1.71128 19.1634 1.95445 19.0961C2.08187 18.7792 1.76877 18.7776 1.72243 18.5767C1.30798 18.8509 0.614318 18.8699 0.199079 18.6185C-0.0232183 17.9573 0.51668 17.7908 0.488678 17.2659C0.828434 17.2464 0.779876 16.9647 1.24426 17.0227C1.41028 16.6239 1.01584 16.6347 0.901489 16.4356C1.11166 15.6615 2.08404 15.3821 2.37776 14.6764C2.96455 14.7311 2.99733 14.437 3.45977 14.4243C3.61911 14.2784 3.88947 14.2104 3.88283 13.9679C6.01217 13.1917 8.34914 12.5413 10.3813 11.697C10.8679 11.5724 10.7275 11.9099 11.1472 11.8276C11.2962 11.8033 11.2374 11.6432 11.2477 11.5216C13.2984 10.8587 16.6063 10.8692 18.6493 10.4189C21.5533 11.0874 25.1221 11.1817 28.8422 11.3325C31.118 11.4318 33.5096 11.2854 35.7305 11.3661C36.9569 11.4133 38.1951 11.3996 39.2383 11.7148C44.9988 11.3243 52.6263 12.0049 59.0071 11.3953C60.3924 11.7819 63.1927 11.1491 64.5783 11.5459C66.8994 11.3104 68.5987 11.2335 71.1341 11.3662C72.7874 11.0984 74.5558 11.0601 76.2577 11.0741C77.4149 11.0828 78.6118 11.05 79.7574 11.1298C82.0346 11.2797 84.4517 11.0719 86.7545 11.1604C87.6267 11.1972 88.4488 11.397 89.2791 11.3945C89.4559 11.3897 89.5195 11.2262 89.7102 11.231C94.5061 11.4029 99.9427 11.6077 104.904 11.3403C106.743 11.391 110.369 11.6151 112.447 11.4368C114.609 11.8325 117.874 11.2881 121.074 11.352C121.153 11.2285 121.411 11.2315 121.393 11.04L123.242 10.9892C124.882 11.7127 127.488 10.9638 129.368 11.4987C129.779 11.5987 129.566 11.2911 129.908 11.3323C130.133 11.5991 131.71 11.5356 131.645 11.133C132.116 11.4436 132.651 11.1054 132.944 10.875C133.245 10.9375 133.253 11.2102 133.821 11.0734C133.976 10.786 133.518 10.9401 133.593 10.7055C134.216 10.6075 134.466 10.7827 134.689 10.9788C134.838 10.9545 134.78 10.7943 134.79 10.6727C136.596 10.5322 137.976 10.6966 139.595 10.6926C139.71 10.9119 139.354 10.8307 139.164 10.8561C139.67 10.9433 140.056 11.1249 140.802 11.0336C141.071 10.8847 140.658 10.7141 140.897 10.5053C142.535 10.6727 144.378 10.3998 146.144 10.7356C145.074 10.9469 143.844 10.7683 142.104 10.8463C141.963 11.1535 142.342 11.0723 142.334 11.2848C145.012 11.1508 147.906 11.4859 149.98 11.146C150.413 11.0634 150.259 11.4012 150.745 11.2767C151.005 11.2999 150.682 10.9347 151.066 11.0455C151.059 10.7828 150.612 10.8658 150.618 10.6129C151.941 10.6778 153.809 10.3333 154.771 10.6507C154.133 11.2142 152.49 10.3493 152.263 11.0228C151.855 11.034 151.981 10.6665 151.493 10.7406C151.144 10.9018 151.585 11.1222 151.616 11.2629C153.488 11.0195 155.393 11.4829 156.744 11.1224C157.36 11.247 158.697 11.362 159.047 11.2109C161.147 11.3656 165.208 11.042 167.025 11.2955C167.55 11.0688 168.56 11.1624 168.863 10.8003C168.569 10.5151 167.09 10.6669 166.782 10.8573C166.351 10.5254 165.039 10.8444 164.262 10.7748C163.674 11.1852 162.328 10.757 161.199 10.7879C160.465 10.8081 159.723 11.0609 159.356 11.0609C159.247 11.0639 158.108 10.721 157.713 10.7318C157.468 10.7385 156.974 11.0554 156.629 10.9132C156.625 10.7415 156.433 10.6962 156.508 10.4717C161.234 10.5443 167.455 10.5659 171.696 10.3587C172.025 10.4406 172.86 10.6402 173.11 10.3199C177.883 10.6541 185.581 9.91738 190.472 10.0664C190.785 10.078 191.555 9.87494 191.568 10.3397C189.828 10.4379 188.827 10.162 187.533 10.6019C184.324 10.2349 179.243 10.5865 176.167 10.6102C176.06 10.6839 175.954 10.7677 175.847 10.8414C177.247 11.2883 179.387 10.8657 181.198 10.9171C182.778 10.9648 184.9 10.9066 186.114 11.0048C186.471 11.086 186.189 10.7601 186.546 10.8413C186.872 10.8324 186.878 11.0647 187.098 11.1295C188.477 10.8086 189.28 11.3022 190.474 10.6628C190.694 10.7276 190.727 10.9289 190.92 11.0247C191.647 10.7419 192.614 11.2613 193.101 10.6616C193.34 10.9381 194.953 11.177 195.074 10.6075C195.588 10.5125 195.502 10.8586 196.057 10.7322C196.083 10.1755 195.334 10.196 194.519 10.2487C194.708 9.68742 196.197 10.3947 196.81 9.88256C197.933 10.1551 200.89 9.79092 202.054 10.0421C201.232 10.3174 200.213 10.3858 199.325 10.2686C199.218 10.3423 199.111 10.4261 199.004 10.4998C198.875 10.746 199.36 10.5507 199.23 10.7969C199.741 10.5706 200.937 10.5075 201.193 10.8947C201.422 10.8177 201.416 10.5954 201.729 10.5768C202.095 10.5162 201.913 10.8447 202.172 10.8679C203.099 10.3977 204.475 10.4408 205.549 10.4013C204.877 9.74229 203.485 10.5792 202.915 10.1702C203.452 9.87237 205.133 9.63418 205.863 9.93771C207.644 9.37326 210.616 10.0298 212.197 9.61243C213.57 10.0399 215.078 9.44246 216.571 9.79582C217.111 9.62937 218.982 9.34556 219.2 9.87541C216.932 10.0589 214.069 9.89473 211.452 10.2395C213.624 10.5237 215.039 10.5152 217.238 10.3033L217.259 11.0509C217.808 11.2077 218.863 11.4821 219.453 11.1424C219.295 10.8434 218.603 10.9432 218.032 10.9589C217.878 10.7912 217.724 10.6236 217.796 10.288C218.813 10.159 219.177 10.5029 220.208 10.3735L220.199 10.0704C220.299 9.72398 219.49 10.0292 219.536 9.71455C221.178 9.5381 224.046 9.36851 226.31 9.52888C227.198 9.16078 229.005 9.55608 230.232 9.11805C231.448 9.28692 232.003 9.17061 232.966 9.04311C235.203 9.22443 238.808 8.66053 241.482 8.88043C241.574 9.23179 240.875 9.07906 240.731 9.27511C240.162 8.89639 239.226 9.47813 238.877 9.17427C238.701 9.20943 238.788 9.40924 238.446 9.33774C238.516 9.4167 238.693 9.41185 238.67 9.55404C238.168 9.62845 237.671 9.8746 237.255 9.59281C237.139 9.32302 237.688 9.47985 237.904 9.42338C237.174 9.11985 234.857 9.48668 233.102 9.55499C232.858 9.5617 233.07 9.86928 233.006 10.0025L232.027 10.0293C232.097 10.1083 232.274 10.1034 232.25 10.2456C232.737 10.1413 233.901 9.86675 234.318 10.1889C234.74 10.1976 234.58 9.8178 234.96 9.79726C234.766 10.1463 235.398 9.88635 235.297 10.1621C235.853 10.0862 236.048 9.76743 236.479 9.60396C235.853 10.0761 237.249 9.87606 237.369 10.257C237.92 10.0295 239.374 9.92902 239.671 10.3455C238.882 10.3368 238.85 10.186 238.259 10.455C238.985 10.6272 239.864 10.411 240.453 10.5465C240.889 10.5851 240.591 10.1484 240.986 10.1578C241.449 10.135 241.073 10.3273 240.993 10.3801C241.791 10.712 243.587 10.1977 244.061 10.5992C244.304 10.5016 244.639 10.3104 244.823 10.5784C244.971 10.5035 245.738 10.2095 245.802 10.5515C246.48 10.4622 247.737 10.1143 248.427 10.4796C248.896 10.1937 250.028 10.284 250.613 10.268C250.761 10.1932 250.742 10.0117 250.931 9.95597C250.897 9.72436 250.037 10.1018 250.163 9.75459C253.24 9.27596 257.561 9.50126 261.079 9.23295C261.324 9.22624 261.111 8.91865 261.176 8.78546C261.579 8.62273 261.83 8.81807 262.373 8.75265C262.271 9.00819 261.739 8.98232 261.512 9.1503C262.772 9.40898 265.037 9.11435 266.221 9.61773C264.551 9.76461 263.95 9.7002 262.181 9.72846C262.002 10.1176 262.475 10.0237 262.522 10.2448C263.995 9.86072 265.601 10.3424 267.428 9.95871C267.394 10.1922 267.826 10.0792 267.872 10.2499C270.87 9.89469 274.103 10.1397 277.694 10.0514C277.803 9.56311 277.218 9.57914 277.021 9.3217C276.889 9.47696 276.868 9.71007 276.708 9.85598C276.043 9.92476 275.726 9.76159 275.394 9.58869C276.03 9.42973 276.743 9.64271 277.016 9.17016L277.069 9.09795ZM135.628 10.953C135.611 10.8423 135.367 10.8894 135.191 10.8943C134.967 11.1734 135.757 11.2124 135.628 10.953ZM137.939 11.3346C137.97 10.9798 137.694 10.856 137.165 10.9109C137.134 11.2656 137.409 11.3895 137.939 11.3346ZM169.947 11.1345C170.708 11.0833 171.746 11.2166 171.898 10.7778C171.419 10.2045 170.63 10.7215 169.808 10.5317C169.761 10.7858 169.861 10.9448 169.934 11.1248L169.947 11.1345ZM172.464 11.0655C173.146 11.1277 173.231 10.7412 173.661 11.0327C173.518 10.794 174.013 10.9624 173.87 10.7237C173.734 10.7274 173.611 10.7106 173.648 10.5781C173.343 10.8696 172.035 10.3089 172.463 11.0554L172.464 11.0655ZM197.143 10.6115L197.904 10.5906L197.894 10.2168C197.489 10.3391 197.684 10.0203 197.346 10.0802C197.31 10.2732 196.998 10.302 197.143 10.6115ZM138.19 12.0758C138.442 12.807 139.776 11.8402 140.266 12.3222C140.123 12.0835 140.618 12.2519 140.475 12.0132C139.594 12.1283 138.865 11.8753 138.177 12.0762L138.19 12.0758ZM196.82 10.772C196.998 10.7974 196.986 10.363 196.81 10.3982C196.66 10.4023 196.373 10.8247 196.82 10.772ZM206.308 10.2895C206.804 10.5084 207.463 10.2073 207.827 10.0962C207.367 10.1897 206.394 9.96358 206.308 10.2895ZM220.492 9.82988C220.354 10.2381 220.709 10.2789 220.837 10.4978C222.355 10.254 223.9 10.0195 225.293 9.69827C223.565 9.72542 222.246 9.75148 220.492 9.82988ZM226.277 9.82297C227.008 9.69171 227.206 9.95926 227.804 9.93275C227.662 9.69402 228.156 9.86244 228.014 9.62371C227.576 9.55482 226.556 9.56258 226.277 9.82297ZM231.725 9.45121C230.881 9.44401 229.368 9.37427 228.997 9.7484C229.624 9.78177 230.518 9.60562 230.958 9.76543C231.046 10.0158 230.788 10.043 230.531 10.0804C230.462 9.54649 229.395 10.3643 229.001 9.89994C228.791 10.1787 228.054 10.118 227.484 10.164L227.492 10.467C228.224 10.356 228.779 10.2397 229.016 10.4253C229.551 10.0871 231.098 10.3985 231.522 9.98251C231.143 10.0536 231.004 9.95626 231.078 9.69136C231.815 9.75205 232.197 9.30682 232.71 9.64662C232.823 9.27957 232.038 9.45273 231.725 9.45121ZM141.994 12.285C141.822 11.9763 142.606 12.2884 142.421 11.97L141.877 11.9849C141.893 12.0956 141.843 12.2588 141.994 12.285ZM143.404 12.0946L143.408 12.2462C145.569 12.1263 147.636 12.5448 149.964 12.0665C147.97 11.8178 144.949 11.8501 143.404 12.0946ZM153.45 12.1226C154.633 12.0901 155.099 12.1785 156.404 12.1124C156.424 11.8692 156.218 11.794 155.958 11.7505C155.104 12.3906 153.572 11.088 153.45 12.1226ZM151.369 12.1796L153.11 12.1319C152.869 11.7947 152.095 11.8463 151.361 11.8765L151.369 12.1796ZM161.64 11.9688C162.257 12.1137 163.126 12.0696 163.27 11.8534C162.778 11.786 161.887 11.5577 161.64 11.9688ZM163.943 12.0574C164.989 11.9883 165.942 11.9824 166.467 12.2915C166.777 12.1718 167.087 12.0521 167.106 11.7482C165.862 12.0452 164.288 11.229 163.943 12.0574ZM171.365 11.7023C171.357 11.9148 171.736 11.8336 171.595 12.1408C171.989 12.13 172.176 11.9732 172.127 11.6814C171.678 11.7139 171.702 11.5919 171.365 11.7023ZM182.404 11.703C182.61 11.7782 182.91 11.7902 182.956 11.9911C183.261 11.6694 184.577 12.0074 184.576 11.5019C183.759 11.4838 182.907 11.1736 182.391 11.7135L182.404 11.703ZM186.875 11.4288C187.151 12.0885 189.541 11.8713 190.379 11.636C191.772 11.8203 193.803 11.9264 195.071 11.5074C196.831 11.6513 198.965 11.5321 200.644 11.7287C201.072 11.4339 201.774 11.7382 202.28 11.8355C202.51 11.7585 202.504 11.5362 202.816 11.5175C203.727 11.9576 205.361 11.013 206.098 11.5792C206.587 11.5456 206.939 11.445 206.846 11.033C205.593 11.0269 204.06 11.2206 203.128 10.9832C202.967 11.0685 202.862 11.2029 202.701 11.2982C202.489 11.0008 201.409 11.3236 201.17 11.0369C198.429 11.3446 193.874 11.0549 190.143 11.4908C189.13 11.2659 187.838 11.3114 186.861 11.4292L186.875 11.4288ZM219.848 10.6766L220.284 10.6646C220.238 10.5041 220.086 10.4072 219.84 10.3735L219.848 10.6766ZM180.428 11.6055L179.884 11.6204C179.727 11.8572 180.597 11.8334 180.428 11.6055ZM185.128 11.78L185.12 11.4769L184.685 11.4888C184.73 11.6594 184.882 11.7463 185.128 11.78ZM225.535 11.0464C226.443 10.9002 228.182 11.2873 228.258 10.5977C227.586 10.9093 227.153 10.4966 226.63 10.794C226.472 10.495 226.855 10.5553 226.836 10.3435C226.342 10.2155 226.653 10.6215 226.409 10.6585C225.879 10.6932 225.362 10.7074 225.099 10.5428C225.16 10.7736 225.488 10.8253 225.548 11.0562L225.535 11.0464ZM251.507 10.1121C254.174 10.0996 257.203 9.85481 259.701 10.1099C260.236 9.77167 261.381 10.3267 261.994 9.8246C261.383 9.89189 261.226 9.62322 260.788 9.55433C259.459 9.73231 257.866 9.69511 256.313 9.677C256.104 9.98604 255.283 9.81646 255.221 9.55529C254.453 9.8291 252.52 9.84163 251.726 9.6511C251.745 9.86288 251.362 9.80261 251.52 10.1016L251.507 10.1121ZM207.4 11.3919C207.726 11.3829 208.066 11.3736 208.047 11.1517C207.532 11.2467 207.618 10.9006 207.063 11.027C207.055 11.2396 207.394 11.1898 207.4 11.3919ZM220.822 10.9532L220.814 10.6501L220.488 10.659C220.466 10.8517 220.457 11.034 220.822 10.9532ZM312.087 8.45145C312.452 8.37067 313.317 8.60985 313.169 8.19937C313.015 8.03173 312.407 8.18994 312.079 8.15848L312.087 8.46156L312.087 8.45145ZM221.04 10.9472L221.05 11.321C221.721 11.4543 222.144 10.9978 222.356 11.2852C222.21 10.9151 223.269 11.3309 223.109 10.9613C223.145 10.7783 222.607 11.0155 222.777 10.7479C222.305 10.9024 222.073 10.9088 221.04 10.9472ZM310.469 9.02153C310.97 8.90671 312.135 9.2084 312.095 8.75453C311.764 8.59173 310.966 8.75517 310.461 8.72855L310.47 9.03163L310.469 9.02153ZM308.191 9.83213L307.212 9.85897C307.302 10.1699 308.26 9.86057 308.417 10.1292C308.469 10.0166 308.284 9.7487 308.516 9.75246C309.089 9.80752 310.187 9.62578 310.925 9.75719C310.825 9.07245 309.096 9.55458 308.181 9.45833L308.191 9.83213ZM311.36 9.74526C311.741 9.73482 311.998 9.66712 311.894 9.35655L311.35 9.37146L311.36 9.74526ZM316.71 9.75027C317.003 9.52992 317.74 9.5805 318.338 9.55399C318.143 9.38747 317.507 9.54643 317.139 9.51608L317.135 9.36455C316.35 9.53771 315.508 9.60123 314.723 9.279C314.729 9.49115 314.126 9.33581 314.188 9.59699C314.191 9.71822 314.461 9.65015 314.411 9.81328C314.974 9.49455 316.011 9.57734 316.71 9.75027ZM368.576 8.48019C369.976 8.92709 371.583 8.45841 372.739 8.89181C372.968 8.81476 372.962 8.5925 373.274 8.57382C373.427 8.69095 373.7 8.72391 373.613 9.00939C374.294 9.01095 374.711 8.82765 374.795 8.45124C374.427 8.4108 373.778 8.58023 373.597 8.41334L373.591 8.19108L374.787 8.15827C373.339 7.44983 369.708 7.55947 368.576 8.48019ZM358.864 8.7464L359.409 8.73148C359.364 8.59117 359.359 8.40932 359.074 8.43735C359.216 8.67609 358.722 8.50766 358.864 8.7464ZM356.572 9.03166C357.21 8.95352 358.277 9.1467 358.305 8.68086C357.631 8.44657 356.961 8.839 356.572 9.03166ZM365.846 8.70667C366.706 8.79431 367.658 8.76821 368.028 8.34357C367.157 8.36743 366.19 8.33329 365.846 8.70667ZM252.304 11.8898C252.175 12.136 252.66 11.9407 252.53 12.1869C251.875 12.1038 251.995 12.5251 252.005 12.8787C252.538 12.9753 252.462 12.6842 252.871 12.7033C252.738 12.3026 253.241 12.309 253.066 11.879C252.751 11.8068 252.615 11.8105 252.305 11.8999L252.304 11.8898ZM256.562 11.7731C256.293 12.4174 255.433 11.8243 254.593 11.9787C254.587 12.2418 254.276 12.3109 254.173 12.516C253.722 12.4475 253.206 12.502 253.093 12.8489C254.628 12.736 255.921 13.2364 257.132 12.7382C257.233 12.9477 257.721 12.8636 258.116 12.8628C258.291 12.2919 259.334 12.6171 259.532 12.8948C260.006 12.811 259.885 12.3392 260.054 12.0616C259.63 11.9822 259.62 11.6185 258.956 11.7176C258.812 11.9339 259.265 12.0933 258.968 12.1621C258.804 12.1565 258.561 12.2036 258.531 12.1033C258.527 11.9821 258.801 12.0353 258.742 11.8751C258.175 11.557 257.46 11.7788 256.548 11.7836L256.562 11.7731ZM127.081 15.474C127.569 15.3798 128.582 15.6149 128.709 15.2778L127.077 15.3225L127.081 15.474ZM143.562 14.8706C143.139 15.3473 141.644 14.4379 141.724 15.3658C143.857 15.2063 145.875 15.8385 147.505 15.2074C146.595 14.8077 144.645 15.1442 143.562 14.8706ZM205.139 13.3343L205.147 13.6374C205.607 13.5338 205.627 13.7456 205.913 13.7681C205.986 13.4325 205.818 13.2753 205.57 13.181C205.685 13.4002 205.329 13.319 205.139 13.3444L205.139 13.3343ZM210.384 13.4939L210.376 13.1908L210.049 13.1997C210.027 13.3924 210.019 13.5747 210.384 13.4939ZM267.162 12.1599C266.462 11.9365 264.297 11.925 264.223 12.6853C266.912 12.4903 269.632 12.901 271.971 12.3213C272.101 12.0751 271.616 12.2704 271.745 12.0242C271.124 12.203 270.851 12.1902 270.329 11.9922C270.112 12.0285 270.338 12.3357 269.9 12.2264C269.683 11.7673 268.704 12.2895 268.259 11.9681C268.379 11.8738 268.568 11.8282 268.467 11.5883C267.579 11.4812 267.758 12.0627 267.175 12.1494L267.162 12.1599ZM149.028 15.1757C149.952 15.5953 152.461 15.2737 153.725 15.1986C152.12 14.727 151.166 15.198 149.028 15.1757ZM189.102 14.2289C189.591 14.1953 189.984 14.1137 190.182 13.896C189.692 13.9195 189.009 13.827 189.102 14.2289ZM262.365 12.4431C262.132 12.409 261.646 12.5538 261.601 12.3932C261.639 12.2709 261.94 12.3233 261.811 12.0842L260.505 12.12C260.43 12.3748 260.956 12.1986 260.841 12.4848L260.297 12.4997C260.808 13.2642 262.036 12.3611 262.713 12.7368C262.657 12.1924 263.793 12.414 263.779 11.8887L262.582 11.9215C262.449 12.0566 262.58 12.3563 262.379 12.4528L262.365 12.4431ZM356.14 9.65012C356.668 9.54466 357.722 9.78872 357.877 9.45086C357.568 9.13578 356.476 9.50947 356.14 9.65012ZM148.92 15.1787L147.723 15.2115C147.732 15.5651 148.803 15.4043 148.92 15.1787ZM157.223 15.1735C158.305 15.427 159.27 15.3904 160.505 15.2352C159.748 14.9325 158.042 14.777 157.223 15.1735ZM247.72 12.4704C246.719 12.7001 245.245 12.5585 244.017 12.946C243.863 13.294 244.723 12.8862 244.569 13.2342C245.813 12.9271 247.681 13.0377 249.036 12.8085C248.917 12.4679 248.052 12.6636 247.72 12.4704ZM250.79 12.7604C251.281 12.7873 251.55 12.6688 251.542 12.3657L250.78 12.3866L250.79 12.7604ZM354.605 9.76297C354.958 9.75328 355.381 9.77203 355.36 9.51984C354.896 9.4719 354.764 9.62716 354.605 9.76297ZM161.153 15.0658C161.13 15.208 161.28 15.2241 161.27 15.3659C161.991 15.3461 162.546 15.2096 162.892 14.9474C162.322 15.0034 161.53 14.9038 161.153 15.0658ZM164.657 15.2731C165.074 15.0999 165.713 15.0722 166.394 15.0738C166.178 14.645 164.921 14.9827 164.198 14.9116C164.177 15.1548 164.384 15.23 164.644 15.2734L164.657 15.2731ZM168.362 14.8682C168.281 14.8906 168.241 14.9322 168.257 15.0227C169.134 15.2413 171.324 15.1813 172.188 14.915C172.795 14.7062 173.381 15.226 173.494 14.8792C171.947 14.5778 170.048 14.7917 168.362 14.8682ZM174.143 14.7097C174.192 15.0319 175.056 14.7555 175.452 14.8255C175.31 14.5969 174.412 14.6114 174.143 14.7097ZM302.646 11.6321C301.47 10.9263 299.582 11.5745 298.159 11.3102C297.316 11.3435 296.34 11.4814 295.425 11.3852C294.718 11.8798 293.766 11.4105 293.026 11.7542C292.98 11.5634 292.68 11.5514 292.474 11.4661C292.192 12.1107 291.374 11.5569 290.842 11.5108C290.428 11.8052 290.067 12.533 289.23 12.3032C289.5 12.2351 289.452 11.9533 289.431 11.7011C288.566 11.9068 288.299 11.6007 287.695 11.9004C287.384 11.4944 286.517 11.6395 286.171 11.9422C285.089 11.6786 283.782 12.1593 282.345 11.8954C282.044 11.8531 282.436 12.2467 282.136 12.2044C281.871 11.969 281.213 11.795 280.826 12.0887C280.244 11.7305 278.462 11.7491 277.653 12.024C277.487 11.9477 277.415 11.7879 277.102 11.8167C276 12.3019 274.83 11.8385 273.282 11.9921C273.24 12.4281 272.213 12.2237 271.991 12.5533C272.172 12.7 272.513 12.7311 272.761 12.8355C273.136 12.6028 273.167 12.7536 273.632 12.8116C275.855 12.4777 277.989 12.3788 280.068 12.2611C280.181 12.4096 280.508 12.4007 280.514 12.623C281.413 12.659 282.673 12.4222 283.252 12.6996C283.468 12.1477 284.22 12.764 284.545 12.2193C284.538 12.4318 284.917 12.3506 284.775 12.6578C286.16 12.5389 287.482 13.0689 288.488 12.556C289.059 13.0257 291.632 12.5204 292.861 12.6586C293.557 12.7406 295.199 12.544 296.132 12.3465C296.287 12.5141 296.481 12.6503 296.795 12.7024C298.095 12.4241 299.369 12.743 301.274 12.7313C301.409 12.1917 302.235 12.5128 302.788 12.3157C302.811 12.1735 302.661 12.1574 302.67 12.0156C302.036 12.2251 301.693 12.1132 301.036 11.9896C301.143 11.9058 301.25 11.8321 301.357 11.7584C301.739 11.8086 302.519 11.9389 302.987 11.643C303.276 11.7463 303.297 12.0288 303.759 11.9959L303.749 11.6221C303.407 11.5809 302.883 11.3223 302.66 11.6519L302.646 11.6321ZM178.625 14.8801C179.206 15.2079 180.256 14.7646 180.588 14.9779C180.582 14.7657 181.186 14.9211 181.124 14.6599C180.19 14.8675 178.946 14.1534 178.612 14.8804L178.625 14.8801ZM185.729 14.837C187.782 14.7302 189.571 14.944 191.619 14.6755C189.521 14.6218 186.955 13.8631 185.729 14.837ZM142.051 15.8826C142.579 15.7771 143.634 16.0212 143.788 15.6833C143.26 15.7888 142.206 15.5447 142.051 15.8826ZM144.789 15.9592C144.717 15.7893 144.59 15.6512 144.237 15.671C144.31 15.8409 144.436 15.979 144.789 15.9592ZM289.548 11.9911L289.983 11.9792C289.938 11.8187 289.786 11.7217 289.54 11.688L289.548 11.9911ZM306.134 11.2332C305.546 11.6436 304.781 11.0377 304.179 11.4384C304.068 11.8459 304.57 11.8119 304.419 12.2508C304.85 12.0671 305.557 12.0578 306.265 12.0485C306.229 12.2214 306.096 12.3362 306.17 12.5768C307.248 12.6585 307.342 12.6054 308.469 12.5138C309.427 11.699 311.17 12.7128 312.613 12.2486C312.698 12.3676 312.956 12.3504 312.948 12.5427L315.247 12.4797C314.94 12.2151 314.924 12.1145 315.007 11.6673C314.444 11.5008 313.374 11.1965 312.704 11.5788C312.574 11.825 313.059 11.6297 312.93 11.8759C312.509 11.9279 312.356 11.7906 312.269 11.5907C311.039 11.4425 310.076 12.0451 309.208 11.6746C309.258 11.9968 308.349 12.0925 308.017 11.9297L308.011 11.7074L308.991 11.6806C308.888 10.915 306.744 11.6411 306.134 11.2332ZM318.696 11.1921C319.182 11.0676 319.64 11.3685 319.893 11.1593C319.602 10.9853 318.965 11.0635 318.688 10.8891L318.696 11.1921ZM194.685 14.8139C194.582 14.5336 195.213 14.7084 195.11 14.4282L194.131 14.455C194.231 14.6343 194.425 14.7503 194.685 14.8139ZM195.882 14.7811C196.057 14.6954 196.609 14.468 196.859 14.6835C197.037 15.1842 195.377 15.2196 195.125 14.9535C194.406 15.044 193.17 15.1688 192.391 15.0285C192.506 15.2477 192.15 15.1665 191.96 15.1919C192.348 15.4644 191.968 15.4849 191.978 15.8688C192.329 15.7581 192.527 15.5403 192.836 15.4004C193.996 15.4799 195.234 15.456 197.642 15.4203L197.652 15.7941C197.967 15.8462 197.935 15.6853 198.194 15.7085C197.824 15.1019 198.839 15.3976 198.94 15.0916C198.365 14.9961 197.644 15.0058 197.19 14.8362C197.294 14.6514 197.634 14.632 197.835 14.5152C196.983 14.2151 196.396 14.6457 195.423 14.4297C195.403 14.6729 195.609 14.7481 195.869 14.7916L195.882 14.7811ZM376.779 9.82239C376.855 9.5878 376.857 9.67872 376.769 9.4486L376.116 9.46649C376.124 9.73926 376.345 9.85453 376.779 9.82239ZM159.195 15.6351C159.179 15.5243 158.935 15.5715 158.758 15.5763C158.534 15.8554 159.325 15.8944 159.195 15.6351ZM374.063 10.0485C374.802 9.68451 375.677 10.3177 376.014 9.69173C375.253 9.76313 374.813 9.59321 374.053 9.67471L374.063 10.0485ZM171.205 15.3059L169.464 15.3536C169.476 15.788 171.217 15.7403 171.205 15.3059ZM171.429 15.5222C171.676 15.5862 173.055 15.7405 172.948 15.3289C172.701 15.2649 171.322 15.1106 171.429 15.5222ZM173.729 15.5299C174.217 15.4558 174.452 15.5606 174.713 15.6546C174.624 15.3739 175.227 15.5495 175.47 15.4822L175.462 15.1791C174.797 15.2378 173.771 15.0637 173.729 15.5299ZM177.007 15.44L177.987 15.4132L177.997 15.787C179.655 15.691 180.506 15.9507 181.928 15.6792C181.824 15.3889 182.303 15.4768 182.131 15.1479C180.601 15.4628 179.054 15.1312 176.999 15.1369L177.007 15.44ZM329.406 11.1109C328.632 11.1826 328.085 11.1066 327.552 11.01C327.516 11.1829 327.078 11.0938 327.125 11.325C326.999 11.6925 327.66 11.4924 327.681 11.7547C326.942 12.1085 325.973 11.5083 325.493 11.8854C324.336 11.3813 323.119 12.1628 321.665 11.7679L321.653 11.3234C320.504 11.1223 319.901 11.4422 318.484 11.4103C318.576 11.7919 318.197 11.863 318.067 12.0991C317.513 12.2255 317.585 11.8899 317.084 11.9744C316.925 12.1203 316.654 12.1884 316.661 12.4308C317.89 12.5791 319.72 12.2964 320.815 12.5394C321.073 12.5121 320.915 12.2131 321.131 12.1566C321.421 12.2801 321.576 12.4983 322.012 12.5065C323.73 12.1258 326.262 13.1281 328.355 12.4843C328.574 12.5491 328.594 12.771 328.907 12.7725C329.332 12.3868 330.976 12.7866 331.415 12.4005C331.562 12.8008 332.754 13.0917 333.275 12.7235C333.32 12.8841 333.473 12.981 333.718 13.0147C334.989 12.6766 337.065 12.9432 338.415 13.0376C338.425 12.8958 338.476 12.7832 338.624 12.7286C339.67 12.6392 340.599 12.27 341.467 12.6506C341.73 12.3098 343.115 12.6863 343.198 12.2291C343.152 12.0383 342.852 12.0263 342.645 11.941C340.655 12.3291 338.525 12.0741 336.412 11.9602C335.485 11.9148 334.169 12.0621 333.35 11.9733C332.489 11.8756 330.922 12.2926 329.961 11.9955L329.951 11.6217C331.696 11.7457 329.7 11.4263 329.392 11.1112L329.406 11.1109ZM315.232 11.9443C315.523 12.1284 315.797 12.1916 315.464 12.4636C315.721 12.4262 315.699 12.5987 316.01 12.5194C316.074 12.366 315.86 12.0281 316.104 11.9911C316.514 12.0405 316.619 11.886 316.973 11.8965C316.961 11.452 315.22 11.4997 315.232 11.9443ZM170.257 15.989C170.142 16.2449 171.052 16.1896 170.8 15.9034C170.485 15.8513 170.517 16.0122 170.257 15.989ZM174.952 15.9311C174.997 16.1017 175.497 15.9465 175.716 15.9809C175.751 15.798 174.89 15.6497 174.952 15.9311ZM375.405 10.8104C375.827 10.8393 375.973 10.6938 376.049 10.4895L375.396 10.5074L375.405 10.8104ZM199.198 15.5698C199.207 15.4078 198.816 15.5499 198.652 15.514C198.415 15.8137 199.327 15.8291 199.198 15.5698ZM201.389 15.5805C201.077 15.5992 201.165 15.3339 200.732 15.4468C200.51 15.7664 201.339 15.7133 201.389 15.5805ZM348.997 11.7567C348.246 12.1615 346.986 11.8826 345.937 11.8406C345.01 11.8054 343.687 11.7001 343.431 12.2834C343.898 12.4526 344.446 12.569 344.966 12.6862C345.141 12.1152 346.388 12.4248 346.707 12.6384C349.609 12.7308 351.152 11.9302 354.123 12.0611C353.952 11.7827 354.613 12.0375 354.441 11.749C353.438 10.897 350.702 12.3672 348.983 11.747L348.997 11.7567ZM364.063 11.1921C363.987 11.4065 363.385 11.2916 363.31 11.5161C363.132 11.4906 363.208 11.2863 362.87 11.3764C362.676 11.7457 363.243 11.5684 363.209 11.812C365.156 11.8395 366.446 11.7233 368.445 11.6685C368.482 11.4956 368.629 11.4006 368.872 11.3535C369.642 11.6357 371.02 11.7293 371.715 11.2755C369.71 10.6228 366.677 11.2114 364.063 11.182L364.063 11.1921ZM355.234 11.879C355.696 12.3314 356.572 12.0041 357.32 11.9735C359.128 11.8936 361.452 12.2646 362.217 11.3943C362.135 11.3764 362.093 11.3371 362.104 11.2458C360.165 11.5012 357.476 11.2412 355.234 11.879ZM107.629 18.8887C108.225 18.7914 108.207 19.1357 108.83 19.0074L108.819 18.6336C108.275 18.6283 107.758 18.6324 107.629 18.8887ZM128.597 18.6172L128.588 18.3141L128.153 18.3261C128.078 18.5809 128.217 18.6782 128.597 18.6172ZM321.073 13.4928C321.916 13.4696 323.141 13.4765 324.244 13.4766C324.195 14.1756 326.668 14.0067 326.762 13.4784C324.841 13.3996 323.093 13.1947 321.074 13.0378C320.985 13.2626 320.985 13.2727 321.086 13.4823L321.073 13.4928ZM374.464 12.2516C374.744 12.0519 375.384 12.0343 375.661 12.2188L375.647 11.6935C374.897 11.6534 374.563 11.8749 374.464 12.2516ZM375.887 12.5159C376.344 12.3012 377.382 12.4547 377.174 11.8033C376.873 11.761 376.306 11.9181 376.193 11.7594C376.191 11.7089 376.177 11.6689 376.082 11.6917C375.869 11.8694 375.836 12.1635 375.887 12.5159ZM102.176 19.574C102.221 19.7345 102.373 19.8314 102.619 19.8651C102.949 19.4719 103.396 19.9045 103.925 19.8293L103.917 19.5263C103.211 19.6164 102.634 19.43 102.176 19.574ZM334.508 13.5087C333.246 13.6646 331.336 13.0092 330.795 13.6105L331.992 13.5776L332 13.8807C333.41 13.6702 333.872 14.1529 334.962 14.1736C334.823 13.591 336.154 13.959 336.694 13.8228C336.671 13.965 336.821 13.9811 336.811 14.1229C337.492 14.1346 338.414 13.9779 338.788 14.2204C339.268 13.8635 339.463 14.0401 340.198 14.0301C340.152 13.8493 340.398 13.8628 340.297 13.6533C338.192 13.8323 336.754 13.528 334.943 13.4967C334.92 13.6288 335.062 13.8676 334.734 13.8058C334.409 13.8855 334.539 13.6494 334.508 13.5087ZM353.523 13.5132C353.428 14.0112 354.134 13.9312 354.412 14.1662C356.506 13.5628 358.901 14.0431 361.176 13.6067C361.171 13.435 361.36 13.3792 361.272 13.1592C360.441 13.1415 359.874 13.2885 359.431 13.513C359.112 13.2892 358.392 13.3595 357.899 13.2517C357.668 13.2782 357.798 13.5375 357.581 13.5637C357.413 13.3863 356.938 13.4297 356.702 13.2845C356.599 13.4895 356.246 13.5295 355.949 13.6084C355.848 13.409 356.161 12.905 355.713 12.9375C355.73 13.574 354.031 13.6711 353.537 13.5229L353.523 13.5132ZM374.912 12.7044L375.456 12.6895L375.448 12.3864L374.904 12.4014L374.912 12.7044ZM369.468 13.2277C369.888 13.1354 370.819 13.3626 370.879 13.0374C370.681 12.7699 369.976 12.8802 369.458 12.8539L369.468 13.2277ZM341.304 14.1514L341.957 14.1335C341.988 13.7788 341.712 13.6549 341.183 13.7099C341.108 13.9445 341.299 13.9797 341.304 14.1514ZM353.423 13.8192L353.414 13.5161L352.979 13.5281C353.024 13.6886 353.177 13.7855 353.423 13.8192Z" fill="white"/>
<path fill-rule="evenodd" clip-rule="evenodd" d="M245.503 9.07355L245.495 8.77047C245.077 8.92347 243.803 9.12015 243.649 8.97272C243.258 9.11486 243.845 9.16955 243.768 9.34353C243.546 9.17775 242.663 9.24239 243.325 9.05238C243.076 8.92776 242.521 9.02387 242.339 8.85697C242.374 8.63359 242.811 8.67218 242.984 8.53599C244.893 8.68585 248.73 8.10552 250.958 8.46905C251.74 8.20497 253.984 8.13335 254.78 8.36429C255.728 8.16644 256.773 8.06702 257.518 8.44089C256.716 8.46288 255.775 8.39768 255.679 8.86539C255.484 8.72917 255.143 8.68798 255.016 8.50949C254.47 8.96929 253.128 8.18714 252.504 8.73C251.774 8.44668 250.298 8.70958 249.221 8.66831C249.241 8.8801 249.367 9.01818 249.774 8.95648C248.031 9.43899 245.678 9.00809 243.997 9.26647C244.097 8.94021 245.056 9.16667 245.517 9.07318L245.503 9.07355ZM245.721 9.06758L246.7 9.04074C246.731 8.68603 245.613 8.60547 245.721 9.06758ZM247.026 9.03179C247.49 9.05952 247.718 8.94206 247.78 8.70783L247.018 8.72871L247.026 9.03179ZM248.223 8.99898L248.767 8.98407L248.759 8.68099C248.405 8.68058 248.286 8.81527 248.223 8.99898Z" fill="white"/>
<path fill-rule="evenodd" clip-rule="evenodd" d="M270.958 9.12391C270.922 9.31698 270.61 9.34576 270.755 9.65521C270.497 9.6926 270.52 9.52012 270.209 9.59941C270.192 9.46845 270.34 9.43404 270.309 9.29335C270.747 9.38244 270.645 9.12239 270.958 9.12391Z" fill="white"/>
<path fill-rule="evenodd" clip-rule="evenodd" d="M343.834 9.13823C343.301 9.53704 342.123 9.25593 341.433 9.42648L341.445 9.87099L340.684 9.89187C340.825 9.58469 340.446 9.66585 340.454 9.45332L341.215 9.43245C341.01 9.37742 340.911 9.2487 340.665 9.2251C340.251 9.49933 339.227 9.37575 338.48 9.43667C338.003 9.41941 338.371 9.95526 337.728 9.83134C337.72 9.51816 338.32 9.58258 338.367 9.28811C338.521 8.97046 337.755 9.32509 337.923 8.99696C339.803 9.05664 341.951 8.93712 344.701 8.96283L344.709 9.26591C344.882 9.12973 345.319 9.16831 345.354 8.94494C345.886 9.50662 344.071 9.34405 343.834 9.13823Z" fill="white"/>
<path fill-rule="evenodd" clip-rule="evenodd" d="M345.691 9.31984C346.306 9.4344 345.221 9.56525 345.489 9.92186C344.685 9.86304 343.293 10.2449 343.396 9.53439C344.121 9.65607 345.004 9.59142 345.691 9.31984Z" fill="white"/>
<path fill-rule="evenodd" clip-rule="evenodd" d="M259.414 14.5258L259.408 14.3035C259.157 14.0981 258.605 14.3255 258.43 14.4011C258.313 14.0808 257.287 14.4223 257.116 14.1338C257.249 14.0189 257.59 14.05 257.432 13.7511C259.005 13.5057 259.773 13.7374 261.907 13.6284C261.753 13.9662 262.24 13.8518 262.139 14.1478L260.058 14.2048C259.82 14.4641 259.513 14.6848 258.874 14.6821C258.758 14.4325 259.21 14.5516 259.413 14.5157L259.414 14.5258Z" fill="white"/>
<path fill-rule="evenodd" clip-rule="evenodd" d="M269.102 13.4312C269.245 13.6699 268.75 13.5015 268.893 13.7402C268.663 13.787 268.17 13.6691 268.133 13.8318C267.979 14.1798 268.839 13.772 268.686 14.12C267.685 14.3496 266.663 13.8216 266.169 14.189C266.019 14.1729 266.069 13.9996 266.052 13.8889L267.14 13.859C266.879 13.7449 266.684 13.5784 266.155 13.6636L266.147 13.3605C267.389 13.4883 268.196 13.6481 269.102 13.4312Z" fill="white"/>
<path fill-rule="evenodd" clip-rule="evenodd" d="M308.562 13.9268C307.997 14.1748 306.871 13.8013 305.826 13.931C305.684 13.6923 306.178 13.8607 306.036 13.622C307.086 13.7044 309.599 13.0289 310.628 13.7994C310.224 13.9824 309.35 13.8648 308.78 13.9208C308.756 14.0428 308.892 14.0492 308.895 14.1401C308.898 14.2715 308.552 14.0484 308.562 13.9268Z" fill="white"/>
<path fill-rule="evenodd" clip-rule="evenodd" d="M183.027 18.0352C182.542 18.2304 181.51 18.3194 180.845 18.3983C180.975 18.1521 180.49 18.3474 180.619 18.1012C181.391 17.9587 182.426 17.9506 183.027 18.0352Z" fill="white"/>
<path fill-rule="evenodd" clip-rule="evenodd" d="M281.617 15.6358C283.357 15.5376 284.023 15.4991 285.649 15.222C286.27 15.5588 288.12 15.0026 288.395 15.5916C288.751 15.6728 288.47 15.3469 288.826 15.4281C290.417 15.8698 293.297 15.1842 294.617 15.6435C294.388 15.7609 293.917 15.9356 293.746 15.6673C292.705 15.9284 291.477 15.8003 290.359 15.7602C287.484 15.6469 284.534 15.7783 281.617 15.6257L281.617 15.6358Z" fill="white"/>
<path fill-rule="evenodd" clip-rule="evenodd" d="M377.734 14.346C377.627 14.4298 377.52 14.5035 377.413 14.5772C376.926 14.6815 377.159 14.2505 376.646 14.3758C376.43 14.4626 376.63 14.8109 376.331 14.8293C376.336 14.9909 376.795 14.8469 376.986 14.8821C377.129 15.1208 376.634 14.9524 376.777 15.1911C376.903 15.3292 377.403 15.1942 377.436 15.3955C377.731 15.2256 377.914 14.9678 378.292 14.8463C378.233 15.1916 378.349 15.421 378.637 15.5142C378.977 15.4948 378.624 15.0293 379.06 15.0578C379.402 15.1394 379.318 15.536 379.514 15.7227C378.454 15.8023 378.392 16.5117 377.346 16.601C377.254 16.2194 377.814 16.2647 377.985 16.0578C377.993 15.8453 377.614 15.9264 377.755 15.6193C376.856 15.5934 377.001 16.4184 377.135 16.8293C376.849 16.8371 376.897 16.6032 376.585 16.6219C376.231 16.6316 376.363 16.9717 375.829 16.8651C376.028 17.1831 376.388 17.3755 377.147 17.2738C377.254 17.6854 376.681 17.6606 376.4 17.82C377.006 18.0865 375.803 18.4025 375.535 18.0661C375.13 18.1682 374.988 18.4451 374.679 18.6153C374.55 18.8615 375.035 18.6662 374.905 18.9124C374.109 19.1769 373.08 19.8521 372.607 18.9754C372.957 18.8546 373.239 18.7053 373.132 18.2836C372.59 18.3693 372.284 18.6203 372.393 19.1228C371.936 19.3477 371.41 19.5137 370.884 19.6899C370.876 19.407 370.349 19.5226 370.434 19.1765C371.14 19.1167 371.736 18.9892 372.165 18.755C372.159 18.5226 371.766 18.584 371.826 18.3194L370.194 18.3642C369.682 19.0253 369.267 18.2986 368.344 18.4149C368.379 18.1915 368.635 18.1036 368.878 18.0262C369.109 17.9895 369.085 18.1317 369.102 18.2425C369.66 17.752 370.141 18.396 370.95 18.121C371.138 18.0451 371.188 17.882 371.155 17.6706C371.657 17.586 371.664 17.8588 371.925 17.9528C372.198 17.9554 372.179 17.7739 372.354 17.7186C372.457 17.4933 372.106 17.5939 371.915 17.579C371.772 17.3402 372.267 17.5087 372.124 17.2699C372.702 17.5068 373.808 17.1126 374.636 17.0494C374.626 16.6756 374.318 16.3605 374.832 16.2251C374.721 16.1473 374.61 16.0796 374.499 16.0118C374.078 16.0335 374.211 16.414 373.637 16.3388C373.63 16.0761 373.702 15.7304 373.294 15.7517C373.439 15.5758 374.055 15.7005 374.38 15.6511C374.542 15.586 374.606 15.4528 374.588 15.2713C374.35 15.0352 374.031 15.3371 373.828 15.3629C373.848 15.0894 373.24 15.278 373.06 15.1616C373.447 14.3927 375.561 15.5277 375.336 14.2802C376.113 14.815 376.831 13.6832 377.748 14.3658L377.734 14.346ZM374.57 18.6183C374.552 18.457 374.107 18.6007 373.916 18.5655C373.813 18.7806 374.633 18.9199 374.57 18.6183Z" fill="white"/>
<path fill-rule="evenodd" clip-rule="evenodd" d="M296.06 8.20332C295.005 8.45465 292.506 8.16929 291.369 8.40266C291.126 8.46999 291.34 8.82809 291.277 9.0017C290.88 8.93169 290.563 8.80893 289.967 8.88595C289.998 8.53124 290.597 8.55525 291.155 8.55006C289.905 8.11927 287.834 8.54001 285.913 8.47135C285 8.43571 284.11 8.24779 283.283 8.39177C283.04 8.42878 283.253 8.76668 283.189 8.92008C282.55 8.93761 281.896 8.9353 281.978 8.42756C279.575 8.18 277.243 8.48659 275.194 8.23943C276.009 7.69136 277.663 8.44472 278.359 8.00102C279.55 8.24136 281.623 7.89134 284.035 7.99709C284.417 8.01696 284.843 8.19735 285.129 8.18952C285.333 8.18393 285.492 8.02792 285.669 8.02307C288.798 7.97773 292.857 8.05857 296.059 8.18311L296.06 8.20332Z" fill="white"/>
<path fill-rule="evenodd" clip-rule="evenodd" d="M353.858 8.34777L353.864 8.57002C353.449 8.80384 352.333 9.32981 351.683 8.93313C350.592 9.35733 349.237 9.09116 348.084 9.25418C348.283 9.05664 348.642 8.7435 348.068 8.65813C348.758 8.00228 350.826 8.45111 351.781 8.55635C352.252 8.34125 353.083 8.36902 353.858 8.34777Z" fill="white"/>
<path fill-rule="evenodd" clip-rule="evenodd" d="M251.634 13.7685C251.525 14.2366 251.986 14.1734 251.653 14.4454C250.763 14.2575 249.379 14.4167 248.689 14.0818C248.569 13.6605 249.501 13.918 249.88 13.8267C249.751 14.0729 250.235 13.8776 250.106 14.1238C250.392 14.1362 250.387 13.9645 250.424 13.8118C250.983 13.8571 251.25 13.6577 251.621 13.779L251.634 13.7685Z" fill="white"/>
</g>
<defs>
<clipPath id="clip0_477_716">
<rect width="380" height="19" fill="white" transform="translate(0 10.8594) rotate(-1.57018)"/>
</clipPath>
</defs>
</svg>
