<svg width="104" height="75" viewBox="0 0 104 75" fill="none" xmlns="http://www.w3.org/2000/svg">
<g clip-path="url(#clip0_477_1810)">
<path d="M10.2366 61.0428C10.0689 61.0896 10.0045 61.0589 9.94106 60.8889C9.83978 60.6055 9.34863 60.3083 9.03633 60.3365C8.89605 60.349 8.79321 60.3214 8.79752 60.2702C8.80183 60.219 8.86412 60.1873 8.93566 60.1952C9.0072 60.2031 9.09273 60.1769 9.12694 60.1311C9.21238 60.0224 9.4399 60.0688 9.66341 60.2375C9.76861 60.3162 9.82507 60.4152 9.7943 60.4553C9.76352 60.4953 9.83214 60.5687 9.95133 60.6131C10.0705 60.6576 10.1426 60.7253 10.1153 60.7596C10.0895 60.7967 10.1517 60.8588 10.2576 60.9034C10.4278 60.9787 10.4276 60.9901 10.2315 61.0457L10.2366 61.0428ZM14.1621 63.8724C14.1963 63.8267 14.1388 63.7845 14.0306 63.7712C13.9241 63.7607 13.7941 63.6737 13.7374 63.586C13.6858 63.4955 13.5332 63.3689 13.4061 63.2989C12.936 63.0384 12.5162 63.1953 12.8587 63.5023C12.9702 63.6037 13.132 63.6876 13.2171 63.6841C13.3038 63.6834 13.3664 63.7226 13.3604 63.771C13.3516 63.8848 14.0801 63.9754 14.1554 63.8725L14.1621 63.8724ZM10.6846 61.4995C10.5342 61.694 10.5451 61.7365 10.7538 61.8087C10.8879 61.8559 10.9733 61.9234 10.9375 61.9664C10.9067 62.0064 10.921 62.0432 10.9725 62.0513C11.0224 62.0566 11.0607 61.8886 11.0563 61.6812C11.0514 61.2379 10.9308 61.1792 10.6796 61.5024L10.6846 61.4995ZM10.4415 61.3083C10.5497 61.3216 10.6151 61.213 10.5841 61.0882C10.5652 61.0316 10.5309 60.9949 10.5056 61.0093C10.4164 61.0527 10.3633 61.3004 10.4415 61.3083ZM12.3629 63.1028C12.3629 63.1028 12.3567 63.1626 12.3828 63.1964C12.4088 63.2303 12.4608 63.2157 12.495 63.1699C12.5292 63.1242 12.52 63.0845 12.4751 63.0763C12.4318 63.071 12.3783 63.0828 12.3629 63.1028ZM11.805 62.1951C11.8282 62.1182 11.7917 62.019 11.7227 61.9684C11.4331 61.7662 11.2009 61.8761 11.4586 62.0928C11.7374 62.3349 11.7539 62.3405 11.805 62.1951ZM12.6126 62.8592C12.6855 62.7989 12.6412 62.7566 12.4699 62.7382C12.3319 62.7194 12.2161 62.6692 12.2237 62.6237C12.2296 62.5753 12.1937 62.5358 12.1504 62.5305C12.1072 62.5251 12.0449 62.5569 12.009 62.5998C11.9783 62.6399 11.8626 62.6721 11.7511 62.6645C11.6411 62.6597 11.7237 62.6988 11.931 62.7568C12.1383 62.8148 12.3504 62.8812 12.3983 62.9064C12.4478 62.9344 12.5416 62.9109 12.6009 62.8621L12.6126 62.8592ZM17.0232 65.2585C16.7542 65.1982 16.5294 65.0977 16.5222 65.0381C16.5085 64.8848 15.6346 64.7271 15.4822 64.8477C15.4128 64.9023 15.3208 64.9173 15.2633 64.8751C15.1678 64.8134 15.1747 64.8019 15.3811 64.7292C15.68 64.6187 15.6727 64.4767 15.3633 64.4395C15.2202 64.4236 15.0637 64.3254 15.0107 64.2207C14.9478 64.1104 14.829 64.0431 14.7088 64.0555C14.5952 64.0678 14.4367 64.0719 14.3569 64.0612C14.2288 64.0481 14.2016 64.071 14.1756 64.2133C14.1548 64.3414 14.196 64.3666 14.3586 64.3227C14.5379 64.2729 14.5591 64.2983 14.4792 64.4638C14.4237 64.5779 14.4323 64.6517 14.4893 64.6342C14.5514 64.6138 14.735 64.689 14.8996 64.8014C15.8099 65.4106 16.6843 65.8041 17.2502 65.8563C17.4266 65.8719 17.451 65.903 17.346 65.9891C17.1766 66.1269 17.3345 66.1569 17.5935 66.0354C18.0107 65.8387 17.7005 65.4121 17.0232 65.2585ZM5.87801 57.6654L5.94687 57.5511C5.96207 57.3663 5.62632 57.4003 5.39986 57.4732C5.28744 57.5111 5.28495 57.5537 5.38832 57.641C5.58537 57.7985 5.85753 57.8645 5.87295 57.6683L5.87801 57.6654ZM8.92421 59.8344C8.99274 59.8253 8.9396 59.8143 8.79609 59.8212C8.61095 59.8256 8.56491 59.7918 8.63152 59.7089C8.68112 59.6431 8.66586 59.5693 8.60142 59.5386C8.40307 59.4493 8.36144 59.4468 8.35325 59.5264C8.34915 59.5663 8.24662 59.6097 8.12129 59.625C7.91915 59.6465 7.92033 59.6721 8.14708 59.8464C8.44104 60.0799 8.59541 60.1156 8.71506 59.9611C8.76122 59.9011 8.86074 59.8406 8.92927 59.8315L8.92421 59.8344ZM6.93149 58.3729C7.19171 58.4532 7.21516 58.4473 7.14902 58.3313C7.10869 58.2606 7.03157 58.1959 6.98004 58.1878C6.92851 58.1797 6.74737 58.0618 6.58324 57.9267C6.20569 57.6172 6.11092 57.6038 5.92972 57.8383C5.78274 58.0271 5.85738 58.1345 6.14514 58.1691C6.2383 58.1797 6.26873 58.2448 6.20719 58.3249C6.12842 58.4335 6.69659 58.713 6.80666 58.624C6.98107 58.4833 6.77067 58.3259 6.93149 58.3729ZM3.86075 56.8777C3.85483 56.9261 3.91399 56.971 3.99725 56.976C4.1187 56.9892 4.13226 56.9778 4.06869 56.9016C3.98093 56.7829 3.86615 56.7696 3.85914 56.8749L3.86075 56.8777ZM7.66685 59.2394C7.66685 59.2394 7.97344 59.2482 7.90172 59.0754C7.82999 58.9027 7.31518 58.6227 7.31518 58.6227L7.03415 58.8467C7.06235 58.7669 7.04665 58.7158 7.00458 58.7361C6.96252 58.7563 6.93959 58.8219 6.95507 58.8843C6.96916 58.9325 7.3055 59.2168 7.49374 59.3118C7.64563 59.3902 7.65081 59.2935 7.66846 59.2422L7.66685 59.2394ZM3.51464 56.494C3.50871 56.5424 3.5513 56.5818 3.6095 56.5899C3.67276 56.595 3.68169 56.5637 3.64437 56.51C3.55822 56.3942 3.52832 56.3888 3.51625 56.4968L3.51464 56.494ZM7.86573 59.3883C7.77257 59.3777 7.68242 59.3842 7.66865 59.407C7.65326 59.427 7.68875 59.4893 7.74769 59.5456C7.82944 59.6302 7.8729 59.6242 7.94133 59.5327C7.99094 59.4669 7.96212 59.4046 7.86229 59.3941L7.86573 59.3883ZM97.1276 21.44C96.671 21.9554 96.2415 22.5302 96.0377 22.9013C95.9239 23.1012 95.837 23.1957 95.7503 23.1964C95.6303 23.1974 95.0983 23.8156 95.1451 23.8977C95.1564 23.9175 95.3364 23.8336 95.5471 23.7096C95.8135 23.554 95.8696 23.4995 95.7422 23.5347C95.6066 23.567 95.5787 23.5417 95.6476 23.4274C95.7112 23.3274 95.8006 23.2727 95.9206 23.2717C96.1607 23.2698 96.706 22.6514 96.5937 22.513C96.5301 22.4368 96.5489 22.4111 96.7202 22.3472C96.868 22.2891 96.953 22.2031 97.0333 22.0149C97.0943 21.8751 97.2729 21.6008 97.4316 21.4091C97.5904 21.2174 97.7141 21.0231 97.7099 20.9805C97.6971 20.8641 97.5262 20.9991 97.1393 21.4371L97.1276 21.44ZM100.193 17.6491C100.142 17.7007 100.145 17.8598 100.206 18.0014C100.33 18.3017 100.205 18.4704 99.5884 18.8222C99.2192 19.0327 99.1783 19.0785 98.9941 19.4722C98.8585 19.7632 98.7352 19.9347 98.6086 20.0182C98.4566 20.1161 98.4429 20.1389 98.5413 20.1353C98.6147 20.1347 98.5434 20.1978 98.3648 20.2959C98.2014 20.3853 98.0167 20.5432 97.9513 20.6517C97.8858 20.7602 97.7942 20.8463 97.7408 20.8467C97.6941 20.8471 97.7335 20.7047 97.8419 20.5304C98.0795 20.1362 97.9034 20.1917 97.5618 20.6151C97.3108 20.927 97.149 21.0193 97.1709 20.8343C97.1802 20.7803 97.078 20.8948 96.9476 21.0891C96.5322 21.7121 96.5015 21.7521 96.2538 21.9759C95.9416 22.2626 95.926 22.294 96.1271 22.2355C96.3115 22.1829 96.2556 22.3197 96.0154 22.4979C95.9072 22.5784 95.8771 22.5843 95.9133 22.5186C96.046 22.293 95.7914 22.4458 95.5828 22.7146C95.1554 23.2695 94.7601 23.7161 94.4327 24.0115C94.2512 24.175 94.0401 24.4041 93.9595 24.5213C93.7742 24.7957 93.4315 25.0173 93.2843 24.9589C93.2065 24.9282 93.1644 24.9485 93.153 25.0225C93.1402 25.0823 93.1844 25.1245 93.2497 25.1098C93.4689 25.071 93.2292 25.3089 93.0016 25.3562C92.8225 25.3946 92.7853 25.4234 92.8476 25.474C92.91 25.5247 92.8928 25.5532 92.8041 25.5738C92.7337 25.5915 92.5807 25.7462 92.4641 25.9177C92.1793 26.335 91.8524 26.6077 91.4307 26.7731C91.0813 26.9124 90.9929 27.0041 90.7232 27.5065C90.5348 27.8576 90.3039 28.0755 90.1254 28.0798C89.9987 28.0809 89.9867 28.0952 90.059 28.1514C90.1822 28.2499 89.7837 28.5971 89.4062 28.7224C89.2536 28.7719 89.1005 28.8442 89.078 28.8871C89.0539 28.9271 89.0971 28.9324 89.1677 28.9034C89.25 28.8714 89.256 28.9055 89.1809 28.9971C89.1127 29.0772 88.9628 29.1552 88.8492 29.1675C88.5167 29.2071 88.3556 29.3477 88.2153 29.7127C88.0855 30.0491 88.0026 30.1152 87.9138 29.9596C87.8783 29.8973 87.8229 29.9177 87.7056 30.0409C87.6171 30.1325 87.5056 30.2073 87.4589 30.2077C87.4123 30.2081 87.3811 30.2709 87.3913 30.3475C87.4075 30.4583 87.3255 30.5612 86.9935 30.8368C86.6309 31.141 86.5787 31.1671 86.608 31.0304C86.6375 30.8824 86.6258 30.8853 86.4489 31.0687C86.3299 31.189 86.29 31.2717 86.3413 31.2912C86.5002 31.3467 86.1879 31.5511 86.0138 31.5042C85.9026 31.4739 85.8741 31.4826 85.9199 31.5277C85.9757 31.5784 84.2442 33.1132 84.0671 33.1317C84.0103 33.1378 83.1413 33.8583 82.721 34.2142C82.0974 34.7423 81.4266 35.0348 81.5522 34.832C81.6004 34.752 81.5737 34.7523 81.4172 34.8303C81.2404 34.9198 81.2301 34.937 81.3118 35.0216C81.3936 35.1062 81.3832 35.1233 81.1948 35.2158C81.0803 35.2736 80.9619 35.3598 80.931 35.4112C80.9 35.4626 80.761 35.5831 80.6173 35.6838C80.4128 35.8304 80.3542 35.8451 80.3341 35.7629C80.3188 35.6891 80.2933 35.7149 80.2642 35.8402C80.2285 35.9655 80.1297 36.0743 79.9307 36.1953C79.7771 36.2904 79.4407 36.5347 79.1884 36.7386C78.9361 36.9425 78.625 37.1724 78.5018 37.2501C78.3786 37.3279 78.1373 37.4805 77.9651 37.5899C77.7626 37.7204 77.7141 37.7255 77.8198 37.6053C78.009 37.3849 77.8368 37.4119 77.5054 37.6534C77.2823 37.8144 77.2821 37.8257 77.5155 37.8238C77.6689 37.8225 77.72 37.8534 77.649 37.9051C77.5881 37.9511 77.4911 37.9689 77.4299 37.9439C77.2743 37.8826 76.9157 38.0646 77.0242 38.149C77.0817 38.1912 76.845 38.3636 76.2258 38.7467C75.5409 39.1673 75.3037 39.2801 75.1507 39.2586C74.9911 39.2372 74.9607 39.2545 74.9974 39.3423C75.029 39.433 74.8633 39.5537 74.1416 39.9803C73.6493 40.2685 73.1869 40.5622 73.1224 40.6253C72.9746 40.7657 72.2417 40.9963 72.111 40.9434C72.0597 40.9239 71.8969 40.9792 71.7468 41.0686C71.5124 41.2098 71.502 41.2269 71.663 41.1801C72.1373 41.0483 71.4582 41.5143 70.7609 41.7957C70.4938 41.9031 70.0437 42.2535 69.6832 42.4441C68.6441 42.9954 67.9765 43.2937 68.1532 43.1217C68.2653 43.0128 68.2574 42.9872 68.1236 43.0111C68.0132 43.029 67.9202 43.1009 67.8681 43.2093C67.8073 43.3377 67.5409 43.4933 66.777 43.8577C65.7323 44.3523 65.5745 44.4048 65.6075 44.251C65.6169 44.197 65.4389 44.2609 65.1677 44.4081C64.8645 44.5698 64.7528 44.6559 64.8462 44.6552C64.9212 44.6574 65.0587 44.6165 65.1548 44.5617C65.2508 44.5069 65.3078 44.4894 65.2906 44.5179C65.2424 44.5979 64.0767 45.139 64.0525 45.0965C64.0412 45.0767 64.1244 44.9993 64.2409 44.9216C64.4216 44.8036 64.4234 44.7951 64.2705 44.856C64.1714 44.8938 64.0032 44.9747 63.8903 45.0354C63.3058 45.3499 62.0493 45.9315 61.9559 45.9323C61.8959 45.9328 61.7596 45.9993 61.6514 46.0798C61.4772 46.2091 61.4786 46.2233 61.6593 46.1877C61.7731 46.164 61.9058 46.1146 61.9515 46.0773C62.0023 46.0371 62.0862 46.008 62.1396 46.0075C62.273 46.0064 61.9523 46.208 61.4999 46.4135C61.3032 46.5032 61.1155 46.5503 61.0778 46.5193C61.0301 46.4828 61.0559 46.4456 61.1752 46.3963C61.2726 46.3557 61.2965 46.3271 61.2365 46.3276C61.0948 46.3259 60.7756 46.5417 60.7872 46.6325C60.7914 46.6751 60.742 46.7295 60.6832 46.7556C60.6227 46.7788 60.5866 46.7507 60.6095 46.6852C60.643 46.5911 60.5374 46.6175 60.1055 46.8001C59.6482 46.9972 59.5807 47.0432 59.6932 47.0877C59.814 47.1351 59.802 47.1494 59.5485 47.2452C59.394 47.3034 59.1967 47.3334 59.1104 47.3114C59.0009 47.2839 58.974 47.2954 59.0281 47.3433C59.0838 47.394 58.8411 47.5324 58.14 47.8423C56.852 48.4156 56.8469 48.4185 56.9243 48.2957C56.9587 48.2385 57.0987 48.155 57.2346 48.1112C57.3704 48.0675 57.5304 47.9837 57.5899 47.9236C57.6529 47.8577 57.5154 47.8986 57.2664 48.0143C57.0292 48.1271 56.5588 48.3129 56.2232 48.4293C55.8825 48.5487 55.6185 48.6617 55.6331 48.6871C55.646 48.7098 55.5709 48.8013 55.4608 48.8903C55.283 49.0367 55.2646 49.0397 55.2603 48.9147C55.2556 48.8124 55.2107 48.8043 55.0744 48.8708C54.9751 48.9199 54.8866 49.0116 54.8805 49.0713C54.8693 49.1339 54.81 49.1827 54.7383 49.1862C54.6716 49.1867 54.3798 49.2744 54.086 49.3819C52.4473 49.9866 51.649 50.2319 51.5838 50.1528C51.5058 50.0512 51.3593 50.1234 51.3365 50.2714C51.3192 50.3937 51.1352 50.4237 51.1158 50.3073C51.1116 50.2647 50.6943 50.379 50.1487 50.5739C49.6199 50.763 48.9957 50.9728 48.7543 51.0429C47.7668 51.3324 47.0079 51.6115 46.9443 51.7115C46.8996 51.7858 46.8108 51.8064 46.6314 51.7738C46.4137 51.7329 46.3818 51.7474 46.3543 51.8755C46.3306 51.9866 46.3119 52.0009 46.2698 51.9387C46.2327 51.8737 46.0285 51.9152 45.5335 52.0812C45.1627 52.2065 44.8189 52.3088 44.7722 52.3092C44.7256 52.3096 44.5304 52.4021 44.3281 52.5174C44.1158 52.6386 43.9194 52.7055 43.8566 52.6776C43.7954 52.6526 43.7234 52.6674 43.6993 52.7074C43.6339 52.8159 43.1514 52.8511 42.8428 52.8622C42.6976 52.8662 42.5769 52.9013 42.583 52.9354C42.589 52.9694 42.4933 53.0015 42.3733 53.0025C42.2532 53.0035 41.866 53.1118 41.5051 53.2427C41.1508 53.3735 40.7335 53.4877 40.5884 53.4918C40.1829 53.5093 39.9551 53.568 39.9602 53.6476C39.9644 53.6902 39.8672 53.7194 39.7404 53.7204C39.6137 53.7215 39.3323 53.792 39.1088 53.882C38.8904 53.969 38.577 54.054 38.4234 54.0666C38.2663 54.085 37.9479 54.1729 37.7143 54.2686C37.4808 54.3643 37.1845 54.3383 37.1312 54.3387C37.0711 54.3392 36.6076 54.4312 36.0918 54.5491C35.5811 54.6641 34.9318 54.7945 34.6542 54.8366C34.3783 54.8815 33.9669 54.9474 33.7427 54.989C32.3894 55.2247 30.5593 55.5524 29.1003 55.6497C28.6813 55.6787 28.3071 55.7159 28.2584 55.7362C28.1761 55.7681 22.3534 55.816 20.8683 55.797C20.4483 55.7891 20.0504 55.7611 19.9926 55.7303C19.9349 55.6995 19.7479 55.7124 19.5853 55.7564C19.1814 55.8706 18.9831 55.8637 19.1088 55.7433C19.1869 55.6687 18.984 55.642 18.2956 55.6334C17.4939 55.6258 16.7182 55.5583 15.8588 55.4261C15.7208 55.4074 15.2028 55.3804 14.7129 55.3673C14.218 55.3572 13.7515 55.3383 13.6768 55.3247C13.5969 55.314 13.5031 55.3375 13.4606 55.3805C13.4181 55.4235 11.3501 55.1108 11.2189 55.4331C11.1735 55.5414 11.5752 55.6347 11.7668 55.8179C12.2611 56.297 12.9884 56.9731 13.1929 57.0027C13.5237 57.0539 13.5449 57.0793 13.4036 57.2311C13.3048 57.3399 13.2886 57.4054 13.3735 57.4133C13.445 57.4212 13.4973 57.4776 13.4877 57.5431C13.4765 57.6057 13.5988 57.7496 13.7516 57.8649C13.9045 57.9801 14.0037 58.1072 13.973 58.1473C13.9422 58.1873 14.0225 58.2577 14.1551 58.3021C14.2876 58.3465 14.492 58.4698 14.6066 58.5769C14.7213 58.6839 14.8612 58.7766 14.9178 58.7818C14.9744 58.787 15.0608 58.8915 15.1186 59.0047C15.1714 59.1207 15.2958 59.2448 15.3933 59.2866C15.7258 59.4231 17.5771 60.6953 17.5701 60.6243C17.5571 60.5193 17.5776 60.4964 17.679 60.5098C17.8021 60.5258 18.3288 60.7915 18.574 60.9628C19.1333 61.3561 19.4854 61.339 20.0365 61.5533C20.3046 61.6591 20.5423 61.7822 20.5649 61.8218C20.5891 61.8642 20.7262 61.9284 20.8739 61.9642C21.0566 62.0024 21.1187 62.0645 21.0606 62.1388C20.9426 62.2961 21.1007 62.3971 21.3621 62.3268C21.6135 62.2622 21.7851 62.3517 21.656 62.4778C21.605 62.5294 21.6753 62.6055 21.8227 62.6526C21.9686 62.6969 22.1138 62.7753 22.153 62.8205C22.1921 62.8656 22.4105 62.9547 22.641 63.0182C23.1918 63.1615 23.2645 63.195 23.7552 63.5149C23.9858 63.6608 24.2433 63.7951 24.3333 63.8001C24.4198 63.8107 24.5086 63.8725 24.5241 63.9349C24.5412 64.0001 24.608 64.082 24.6706 64.1213C24.7447 64.169 24.7351 64.2344 24.6386 64.312C24.5421 64.3895 25.121 64.3705 25.1138 64.9219C25.1096 65.138 24.6711 65.5792 24.1848 65.7253C23.7505 65.8568 23.6193 66.0028 23.9087 66.0402C24.0019 66.0508 24.0307 66.1131 23.9861 66.176C23.9365 66.2418 23.8623 66.2879 23.8124 66.2826C23.7691 66.2773 23.7002 66.3091 23.6694 66.3491C23.6386 66.3892 23.6628 66.4316 23.721 66.4397C23.8857 66.4582 23.0429 67.3774 22.771 67.4763C22.5158 67.5693 22.403 67.7124 22.446 67.9053C22.4717 68.0443 22.4563 68.0644 22.2351 68.123C22.0608 68.1699 21.934 68.2648 21.7886 68.4564C21.527 68.7967 21.1128 68.3994 21.0237 68.2666C20.9264 68.1196 20.9333 68.1082 21.1549 68.0268C21.2825 67.9802 21.3517 67.937 21.3135 67.9288C21.2703 67.9235 19.9737 67.2009 19.5279 66.9715C19.3298 66.8709 19.0932 66.7733 19.0019 66.7542C18.9172 66.735 18.6704 66.6546 18.4534 66.5797C18.2415 66.5018 18.0324 66.4524 17.9954 66.4697C17.8793 66.5247 17.639 66.1856 17.7339 66.1053C17.8203 66.0335 18.1347 66.0679 18.7205 66.2137C18.986 66.2797 19.3603 66.2311 19.2703 66.1438C19.2441 66.1213 19.1039 66.04 18.9569 65.9702C18.8098 65.9003 18.3641 65.6709 17.9696 65.461C17.5752 65.2511 17.1356 65.0444 16.9999 64.9944C16.8641 64.9444 16.7139 64.8689 16.6731 64.8209C16.6289 64.7786 16.202 64.5235 15.7235 64.2603C14.3111 63.4875 13.3495 62.8588 12.4204 62.0991C12.1856 61.9106 11.89 61.6743 11.7668 61.5759C11.6386 61.4803 11.1153 61.0327 10.5987 60.5851C10.0821 60.1375 9.48633 59.645 9.27917 59.4932C9.06533 59.3415 8.66294 59.0237 8.3807 58.7873C8.09684 58.548 7.84547 58.354 7.82223 58.3485C7.79394 58.3459 7.52644 58.1236 7.22484 57.8532C6.91818 57.5858 6.63572 57.3607 6.59753 57.3525C6.42455 57.3312 4.50244 55.6645 4.55893 55.5873C4.5812 55.5559 4.45321 55.449 4.27852 55.3424C4.10383 55.2358 3.91711 55.0612 3.87098 54.945C3.76215 54.7072 3.12616 54.0502 2.98309 54.0343C2.91155 54.0264 2.88928 54.0579 2.90249 54.1515C2.90947 54.2225 2.98821 54.2901 3.07975 54.2979C3.16624 54.3085 3.22336 54.3734 3.19699 54.4447C3.17568 54.5131 3.29387 54.6968 3.46263 54.8518C3.63139 55.0067 3.77788 55.193 3.78809 55.2697C3.79668 55.3435 3.90886 55.4932 4.0318 55.603C4.1598 55.71 4.32834 55.8763 4.40481 55.9751C4.48634 56.0711 4.81741 56.3696 5.14246 56.6341C5.68737 57.0843 5.83417 57.3417 5.48123 57.2281C5.40001 57.2032 5.26963 57.2213 5.18689 57.276C5.07382 57.348 5.02756 57.3257 4.9738 57.1726C4.93918 57.0649 4.80107 56.9637 4.678 56.9477C4.53493 56.9318 4.49233 56.8924 4.56496 56.8435C4.62908 56.8032 4.72267 56.791 4.7671 56.8219C4.81152 56.8528 4.895 56.8464 4.94395 56.8148C4.99958 56.7831 4.9558 56.718 4.85824 56.6762C4.74249 56.626 4.62405 56.6298 4.53626 56.6874C4.43835 56.7507 4.385 56.7512 4.35134 56.6804C4.3223 56.6295 4.20215 56.548 4.08296 56.5036C3.91408 56.4424 3.8986 56.38 3.99942 56.2513C4.10874 56.114 4.09444 56.0772 3.91618 56.0701C3.7929 56.0654 3.59089 55.9932 3.46245 55.909C3.33402 55.8248 3.28519 55.7627 3.26745 55.7315C3.27229 55.74 3.26701 55.7543 3.26679 55.7657C3.26065 55.8254 3.24043 55.8369 3.20612 55.8003C3.17847 55.7635 2.90753 55.5469 2.80171 55.3261C2.71342 55.1478 2.78402 54.9426 2.63267 54.9239C2.49626 54.908 2.38095 54.8351 2.36891 54.767C2.36193 54.696 2.2832 54.6284 2.19671 54.6178C2.11022 54.6071 2.01858 54.5169 1.99202 54.4233C1.96385 54.3269 1.8522 54.2369 1.73742 54.2237C1.59273 54.2049 1.54757 54.1257 1.58945 53.9407C1.61712 53.8012 1.38972 53.6609 1.32585 53.5137C1.22326 53.2985 1.44087 52.7283 1.39077 52.5582C1.33077 52.3825 1.34393 52.2176 1.41838 52.1601C1.48778 52.1055 1.49649 52.0856 1.43926 52.1145C1.29606 52.1924 1.28991 51.6411 1.43764 51.5006C1.51575 51.4261 2.10927 51.3388 1.96142 50.962C1.85969 50.7014 1.87111 50.6274 2.04412 50.4725C2.15601 50.3749 2.28265 50.2915 2.32267 50.2911C2.36268 50.2908 2.44058 50.2276 2.48535 50.1534C2.53011 50.0791 2.72152 49.9212 2.90216 49.8032C3.21104 49.6046 3.26192 49.6468 4.03369 49.5665C4.48305 49.5202 5.08398 49.4812 5.36917 49.476C5.65597 49.4736 6.13911 49.4043 6.44905 49.325C6.75899 49.2457 7.2161 49.1425 7.46375 49.095C7.71301 49.0503 8.16916 48.9101 8.47997 48.7853C9.30482 48.4574 10.4733 48.1209 10.7028 48.1475C10.8392 48.1634 12.6236 47.6144 12.8578 47.4846C12.9337 47.4413 13.0123 47.4265 13.0319 47.4491C13.0515 47.4716 13.1968 47.4562 13.3527 47.4123C13.5672 47.3537 13.618 47.3135 13.5708 47.2542C13.4713 47.1385 14.6383 46.7879 15.0749 46.8013C15.3548 46.8104 15.4235 46.7899 15.4756 46.6815C15.5087 46.6102 15.5985 46.5327 15.6723 46.5094C17.0474 46.0888 17.8144 45.8238 18.1327 45.6535C18.3483 45.5381 18.5736 45.4396 18.6371 45.4334C18.7006 45.4272 18.8852 45.3631 19.0516 45.2907C19.7794 44.9806 20.6208 44.6582 20.9257 44.5818C21.0598 44.5466 21.8986 44.0083 22.1894 43.8837C22.4802 43.7591 23.0206 43.4846 23.4015 43.2712C23.7773 43.0606 24.1324 42.8843 24.1959 42.8781C24.2594 42.8719 24.5699 42.6761 24.8877 42.4461C25.2276 42.1961 25.6169 41.974 25.8434 41.9011C26.0531 41.834 26.2721 41.7129 26.3403 41.6327C26.4871 41.4553 27.2683 40.9686 28.8832 40.0401C29.8794 39.4721 33.1321 37.3734 34.2795 36.5654C35.4405 35.7459 36.0398 35.2691 36.3212 34.94C36.3212 34.94 37.2798 33.8948 37.9388 33.7813C38.5978 33.6679 38.0528 34.5335 38.1296 34.5272C38.2064 34.5209 38.2748 34.6056 38.2777 34.7164C38.2911 35.1511 38.5313 35.2316 38.396 35.4174C38.295 35.5575 38.2062 35.7544 38.2077 35.851C38.2059 36.1181 37.932 36.6717 37.2815 37.2938C36.9436 37.6178 36.6333 37.8022 36.6233 37.8904C36.598 38.081 34.351 40.1571 34.2454 40.1012C34.2058 40.0788 33.9793 40.3279 33.6669 40.5322C33.3581 40.7309 33.0073 40.9384 32.8813 40.9877C32.4731 41.1531 32.0641 41.3526 32.1527 41.3433C32.1977 41.3401 32.1601 41.3916 32.0603 41.4634C31.9657 41.5324 31.7843 41.6021 31.664 41.6145C31.5437 41.6268 31.4012 41.6706 31.352 41.7137C31.3028 41.7567 31.3594 41.7619 31.4751 41.7297C31.7634 41.6478 31.6876 41.7734 31.2928 42.0211C31.1156 42.1334 30.9515 42.257 30.9359 42.2883C30.8994 42.3654 29.9693 42.967 29.8675 42.9764C29.824 42.9824 29.502 43.1698 29.1508 43.4001C28.2545 43.9787 27.5749 44.385 26.8641 44.7603C26.529 44.9365 26.1408 45.1841 26.0034 45.3074C25.8525 45.4422 25.6638 45.5461 25.5486 45.5556C25.44 45.565 25.2147 45.6635 25.0559 45.7728C24.6928 46.0173 22.7767 47.0051 22.3063 47.1908C22.2139 47.2285 21.9514 47.3558 21.7225 47.4713C21.4784 47.5955 21.2468 47.6713 21.1521 47.6579C21.0557 47.6416 20.955 47.6766 20.8886 47.7482C20.7949 47.8541 20.3606 47.9856 19.6763 48.1134C19.5424 48.1372 19.3725 48.2154 19.2979 48.2842C19.2232 48.353 19.0014 48.4458 18.8071 48.4929C18.6112 48.5371 18.4365 48.6068 18.419 48.6467C18.3601 48.7665 18.0902 48.7517 18.0926 48.6266C18.0955 48.4788 17.5749 48.5883 16.9846 48.8574C16.7609 48.9588 16.4891 49.0463 16.3723 49.0529C16.2555 49.0595 15.9575 49.1245 15.7043 49.1977C15.5786 49.2356 15.9605 49.1415 16.1484 49.1656C16.338 49.1924 16.3301 49.3431 16.317 49.3319C16.2988 49.3235 16.0035 49.5107 15.6939 49.5672C15.4212 49.6178 15.1293 49.5406 15.0822 49.5637C14.9357 49.636 14.9355 49.6473 15.0758 49.6348C15.1142 49.6317 15.1746 49.7846 14.5444 49.9603C13.713 50.1945 12.1548 50.4234 12.1979 50.4401C12.2243 50.4512 12.2132 50.5963 12.7087 50.6661C13.5534 50.7842 14.7743 50.8452 14.947 50.8778C15.2178 50.9296 15.643 50.8409 15.674 50.8719C15.7919 50.9846 16.2934 51.0884 16.8862 51.129C17.2208 51.1519 17.6416 51.2081 17.8141 51.2521C18.0182 51.3045 19.9249 51.3342 23.1843 51.3273C25.1333 51.3255 26.4791 51.394 27.9689 51.3391C30.6048 51.2492 32.5066 51.0118 32.59 51.0055C32.7839 50.9811 34.0491 50.8144 35.178 50.6318C36.3921 50.4342 37.6753 50.111 38.2288 50.024C38.5867 49.9699 38.9398 49.896 39.0139 49.8613C39.0879 49.8265 39.3325 49.762 39.5551 49.7175C40.176 49.5959 41.5652 49.2235 41.7134 49.1427C41.7842 49.1024 41.9366 49.0642 42.045 49.0661C42.2517 49.0644 43.065 48.8218 45.3266 48.0757C45.6756 47.9591 45.9974 47.8655 46.0375 47.8652C46.0775 47.8648 46.5187 47.722 47.0139 47.5445C47.5091 47.3671 47.9703 47.224 48.0437 47.2234C48.117 47.2228 48.5364 47.0886 48.9831 46.9201C49.4298 46.7516 50.0337 46.5534 50.3354 46.4713C51.4432 46.1695 53.6067 45.3218 54.6904 44.8837C55.1322 44.7067 55.5518 44.5612 55.6236 44.5577C55.6969 44.5571 55.8751 44.4818 56.0252 44.3924C56.1736 44.3003 57.2768 43.9786 57.4665 43.9116C57.6561 43.8447 61.8741 41.9229 62.015 41.8762C62.156 41.8296 62.5058 41.6676 62.7973 41.5089C63.0837 41.353 63.637 41.1012 64.02 40.9503C64.403 40.7993 64.9343 40.5676 65.1986 40.4319C65.6363 40.2123 67.3175 39.3884 68.732 38.6492C69.7542 38.115 70.415 37.7345 71.4348 37.1491C73.2047 36.1399 75.7178 34.5305 75.9171 34.3981C77.0549 33.6555 77.4789 33.365 77.7788 33.1152C77.9652 32.9602 78.2947 32.7273 78.519 32.5919C78.7433 32.4565 79.2085 32.1087 79.5524 31.8189C79.8964 31.529 80.37 31.1727 80.6028 31.0287C80.8357 30.8846 81.4992 30.2738 82.1518 29.7967C82.8045 29.3195 83.4223 28.746 83.5958 28.6508C83.7677 28.5528 83.9401 28.432 83.9745 28.3749C84.0381 28.2749 85.2162 27.2619 85.4627 27.0951C85.6029 27.0001 86.7093 26.0731 86.9673 25.8322C87.059 25.7462 87.4135 25.4278 87.7494 25.1238C88.9435 24.0567 89.3187 23.7041 89.9649 23.0394C90.5686 22.4177 91.3627 21.695 91.955 21.2297C92.3579 20.9137 93.3042 19.988 93.4212 19.7938C93.4798 19.6966 93.6633 19.5132 93.8359 19.3811C94.0034 19.2518 94.4432 18.8361 94.8105 18.4579C95.2543 18.0024 95.5305 17.7699 95.6172 17.7692C95.6906 17.7686 95.9209 17.6672 96.1266 17.5462C96.6072 17.2609 97.1117 17.1231 97.2595 17.2413C97.3417 17.3031 97.4017 17.3026 97.4947 17.2308C97.5878 17.159 97.7596 17.1547 98.1672 17.1997C98.5631 17.2476 98.7466 17.2404 98.8312 17.1772C98.8971 17.1283 98.9502 17.0568 98.9442 17.0228C98.936 16.9262 99.1396 16.7427 99.4876 16.9416C99.4876 16.9416 99.7423 17.3061 99.8511 17.2853C100.092 17.2379 100.403 17.4655 100.27 17.5973L100.193 17.6491ZM29.1658 43.2266C29.2175 43.2233 29.2801 43.1802 29.2975 43.1402C29.32 43.0974 29.2889 43.0664 29.2388 43.0725C29.187 43.0758 29.1245 43.1189 29.1071 43.1589C29.0846 43.2017 29.1157 43.2327 29.1658 43.2266ZM28.3846 43.7133C28.4928 43.6328 28.5204 43.5871 28.4585 43.5962C28.4017 43.6023 28.3125 43.6457 28.2533 43.6945C28.0871 43.838 28.1918 43.857 28.3846 43.7133ZM25.8607 45.1864C26.0071 45.1141 25.9991 45.1 25.822 45.1185C25.7017 45.1308 25.5925 45.1744 25.57 45.2172C25.5248 45.3142 25.6267 45.3048 25.8556 45.1893L25.8607 45.1864ZM23.7573 46.2922C24.0246 46.1735 24.1161 46.0988 23.9691 46.1114C23.9241 46.1146 23.796 46.1839 23.6928 46.2614C23.5187 46.3908 23.5253 46.3907 23.7607 46.2865L23.7573 46.2922ZM22.9785 46.6538C23.062 46.6475 23.2132 46.5837 23.3063 46.5119C23.5278 46.3481 23.3742 46.3607 23.0641 46.5338C22.8619 46.6491 22.8499 46.6634 22.9785 46.6538ZM21.7669 47.326C21.8676 47.2911 21.9605 47.2306 21.9795 47.1935C22.0298 47.0936 21.9661 47.1112 21.7632 47.2607C21.6161 47.367 21.6159 47.3784 21.7669 47.326ZM21.2285 47.4981C21.2285 47.4981 21.3163 47.4406 21.3776 47.3718C21.4389 47.3031 21.4449 47.2548 21.3931 47.258C21.343 47.2641 21.2752 47.3215 21.244 47.3843C21.2128 47.4471 21.2085 47.4983 21.2269 47.4953L21.2285 47.4981ZM20.5592 47.5349C20.5788 47.5575 20.6623 47.5511 20.7412 47.5249C20.8301 47.4929 20.8138 47.476 20.7036 47.4825C20.6017 47.4919 20.5397 47.5123 20.5592 47.5349ZM19.8103 47.4672C19.8651 47.4809 19.9736 47.4715 20.0508 47.4424C20.1281 47.4134 20.0816 47.4024 19.948 47.4149C19.8144 47.4273 19.7539 47.4506 19.8103 47.4672ZM20.0759 47.8742C20.2539 47.8102 20.2608 47.7988 20.1099 47.7574C19.8793 47.694 19.7156 47.7124 19.6738 47.8036C19.6199 47.9206 19.8493 47.9585 20.0759 47.8742ZM18.2047 47.9067L18.4665 47.9074C18.6148 47.909 18.7774 47.865 18.8417 47.8133C18.8994 47.7617 18.9985 47.7239 19.0617 47.7291C19.125 47.7343 19.2192 47.688 19.2721 47.6279C19.3453 47.5449 19.3189 47.5337 19.1644 47.5918C19.0485 47.6354 18.7834 47.7229 18.5788 47.7871L18.2031 47.9039L18.2047 47.9067ZM16.9527 48.5195C17.1472 48.4611 17.3394 48.4339 17.3857 48.4563C17.5475 48.5402 18.7152 48.4141 18.946 48.2899C19.1414 48.186 19.0498 48.1782 18.2716 48.2472C17.7739 48.2911 17.3618 48.3087 17.3455 48.2917C17.3079 48.2494 17.2677 48.2611 16.8247 48.4126C16.3598 48.5727 16.4714 48.6627 16.9527 48.5195ZM14.8243 49.0997C14.9445 49.0874 15.0553 49.0467 15.0762 49.001C15.1214 48.904 15.0246 48.9105 14.7855 49.0319C14.6391 49.1041 14.6472 49.1183 14.8243 49.0997ZM13.6774 49.4389C13.6549 49.4817 13.7546 49.5036 13.8882 49.4911C14.0268 49.4758 14.1243 49.4352 14.1084 49.3955C14.0975 49.353 14.0046 49.331 13.8977 49.3433C13.7958 49.3526 13.6933 49.3961 13.6724 49.4417L13.6774 49.4389ZM2.64476 53.4176C2.42394 53.1949 2.38575 53.1867 2.31139 53.3265C2.14201 53.6405 2.19211 53.8107 2.43331 53.7518C2.55724 53.7224 2.65847 53.7471 2.66728 53.8096C2.68351 53.9203 2.80604 53.8767 2.86362 53.7426C2.88105 53.7027 2.77877 53.5586 2.64131 53.4233L2.64476 53.4176ZM6.75453 56.4645C6.66643 56.451 6.60618 56.4629 6.61565 56.4912C6.62511 56.5196 6.6932 56.5332 6.77184 56.5184C6.85715 56.5035 6.85092 56.4808 6.75614 56.4673L6.75453 56.4645ZM18.1586 66.2155C18.1087 66.2102 18.0448 66.2391 18.0089 66.2821C17.9731 66.325 17.9674 66.362 17.9874 66.3618C18.009 66.3645 18.0729 66.3355 18.1371 66.2952C18.2012 66.2549 18.2069 66.2179 18.1586 66.2155ZM18.4683 61.2592C18.4778 61.2876 18.5458 61.3012 18.6229 61.2835C18.7082 61.2686 18.702 61.2459 18.6072 61.2325C18.5241 61.2162 18.4588 61.2309 18.4683 61.2592ZM17.7936 60.9692L17.9103 61.0564C17.9727 61.107 18.0852 61.1516 18.1517 61.1624C18.2614 61.1785 18.2699 61.1699 18.2048 61.0909C18.164 61.0429 18.0565 60.9955 17.9634 60.9849L17.7936 60.9692ZM19.2872 66.3966L18.9137 66.4821L19.4202 66.5006C19.8317 66.5172 19.8996 66.5422 19.7946 66.6283C19.6608 66.7346 19.7448 66.7879 19.9198 66.7068C20.0627 66.6403 19.975 66.3455 19.8103 66.3269C19.7305 66.3162 19.4948 66.3494 19.2872 66.3966ZM13.6503 58.7212C13.7234 58.7319 13.7924 58.7001 13.7932 58.6546C13.7992 58.6063 13.7849 58.5694 13.7699 58.5667C13.7499 58.5669 13.686 58.5958 13.6269 58.6333C13.5628 58.6736 13.5771 58.7104 13.6503 58.7212ZM15.4621 54.8127C15.2392 54.7861 14.9516 54.7401 14.8205 54.71C14.4453 54.6278 13.2217 54.6208 13.2802 54.6999C13.3044 54.7423 13.7567 54.8068 14.2793 54.8537C14.8019 54.9005 15.3544 54.9528 15.5057 54.9715C15.6587 54.9929 15.8024 54.9747 15.8249 54.9319C15.849 54.8919 15.6884 54.8335 15.4655 54.807L15.4621 54.8127ZM17.0868 55.0295C17.0214 54.9618 16.7587 54.9242 16.4185 54.927C16.0533 54.9329 15.8944 54.9597 15.9586 55.0018C16.0129 55.0383 16.3138 55.0842 16.6269 55.1043C17.1347 55.1371 17.1833 55.1282 17.0868 55.0295ZM19.7974 55.1294C19.3297 55.0849 18.0855 55.1122 17.9894 55.167C17.863 55.2391 19.8574 55.3051 20.0238 55.2327C20.1314 55.1863 20.052 55.1529 19.7974 55.1294ZM21.6253 55.2678C21.646 55.2336 21.4601 55.1896 21.2036 55.1747C20.9488 55.1626 20.684 55.1448 20.6125 55.1369C20.5426 55.1318 20.4037 55.1585 20.3011 55.202C20.1667 55.2599 20.2246 55.2794 20.5195 55.2911C20.7445 55.2978 21.0727 55.3093 21.2576 55.3163C21.4425 55.3233 21.6046 55.3021 21.6304 55.2649L21.6253 55.2678ZM24.7799 55.2532C24.6294 55.1891 23.2032 55.2264 23.0819 55.2956C23.0414 55.3187 23.438 55.3325 23.9683 55.3224C24.5136 55.3151 24.8643 55.2838 24.7799 55.2532ZM27.0193 55.232C26.8403 55.1766 25.1087 55.2306 24.9858 55.297C24.9554 55.3143 25.4456 55.316 26.0709 55.308C26.7363 55.2996 27.132 55.2651 27.0193 55.232ZM28.3481 55.1414C28.2972 55.0992 28.1942 55.083 28.1137 55.1064C28.0332 55.1298 27.8228 55.1486 27.6494 55.15C27.476 55.1515 27.3353 55.1867 27.3429 55.2236C27.3501 55.2832 27.6601 55.2864 28.2997 55.2328C28.4266 55.2204 28.4351 55.2118 28.3513 55.1471L28.3481 55.1414ZM29.4348 55.0728L29.1181 55.0697C28.943 55.0683 28.7191 55.0986 28.6216 55.1392C28.4703 55.203 28.4701 55.2143 28.6253 55.2045C28.7288 55.198 28.9528 55.1677 29.1218 55.1351L29.4348 55.0728ZM29.7584 55.0645C29.6316 55.0655 29.5696 55.0859 29.6209 55.1054C29.6722 55.1249 29.7738 55.1269 29.8476 55.1035C29.9231 55.083 29.8851 55.0634 29.7584 55.0645ZM30.3768 54.8917C30.3035 54.8923 30.1961 54.9273 30.1352 54.9733C30.0794 55.0164 30.0937 55.0532 30.167 55.0526C30.2404 55.052 30.3478 55.017 30.4087 54.971C30.4645 54.9279 30.4518 54.8939 30.3768 54.8917ZM31.8274 54.8854C31.8246 54.857 31.7016 54.841 31.5546 54.8536C31.406 54.8633 31.1241 54.8742 30.9205 54.8815C30.6954 54.8862 30.5731 54.9185 30.5989 54.9638C30.644 55.043 31.8358 54.9706 31.8274 54.8854ZM33.6851 54.5121C33.4161 54.5455 33.1298 54.6076 33.0555 54.6537C32.9595 54.7084 33.0609 54.7218 33.4001 54.6821C33.6641 54.6515 33.9504 54.5894 34.0297 54.5405C34.1359 54.4799 34.0427 54.4693 33.6851 54.5121ZM38.4269 53.7085C38.2998 53.7323 38.1719 53.7902 38.1513 53.8245C38.0893 53.9273 38.3098 53.9027 38.5891 53.7697C38.8533 53.6453 38.8086 53.6258 38.432 53.7056L38.4269 53.7085ZM39.3335 53.4652C39.1542 53.515 39.0198 53.6553 39.1516 53.6514C39.1916 53.6511 39.336 53.5987 39.4739 53.5351C39.7279 53.4164 39.6503 53.3745 39.3335 53.4652ZM41.0326 53.0135C40.9259 53.0144 40.7588 53.0385 40.6666 53.0648C40.3716 53.1468 40.3894 53.2604 40.6906 53.2011C41.0654 53.1298 41.2845 53.0086 41.0326 53.0135ZM44.5777 52.109C44.2438 52.2169 44.0471 52.3066 44.1471 52.3058C44.3155 52.3072 45.2848 52.0094 45.3277 51.9437C45.369 51.8751 45.1665 51.9194 44.5827 52.1061L44.5777 52.109ZM45.9045 51.686C45.7284 51.7414 45.6222 51.802 45.6719 51.8186C45.7216 51.8353 45.8692 51.7886 45.9956 51.7165C46.213 51.5925 46.2048 51.5897 45.9045 51.686ZM47.6359 51.1147C47.5626 51.1153 47.3848 51.1679 47.2536 51.2315C47.0685 51.3183 47.0396 51.3498 47.1447 51.3461C47.2181 51.3455 47.3958 51.2929 47.527 51.2293C47.7121 51.1425 47.7426 51.1138 47.6359 51.1147ZM51.1016 50.0005C51.0066 49.9984 50.9429 50.016 50.9574 50.0415C50.972 50.0669 51.0469 50.0692 51.1274 50.0458C51.2146 50.0223 51.2033 50.0025 51.1016 50.0005ZM52.2569 49.829C52.2035 49.8294 52.1178 49.8671 52.062 49.9102C52.0061 49.9533 51.9988 49.9874 52.0522 49.987C52.0988 49.9866 52.1913 49.9489 52.2471 49.9058C52.3029 49.8627 52.3103 49.8286 52.2569 49.829ZM54.1768 48.9066C54.0172 48.9676 53.9209 49.0337 53.9621 49.059C53.9983 49.0871 54.1643 49.0374 54.3309 48.9536C54.6844 48.7745 54.5949 48.7468 54.1768 48.9066ZM55.2828 48.5195C55.1789 48.5488 55.098 48.5949 55.1109 48.6175C55.1238 48.6402 55.2109 48.6167 55.307 48.5619C55.4436 48.4841 55.4387 48.4756 55.2828 48.5195ZM58.0977 47.4391C58.1535 47.396 58.1592 47.359 58.1125 47.3594C58.0592 47.3598 57.9718 47.3946 57.916 47.4377C57.8601 47.4808 57.8544 47.5178 57.9062 47.5145C57.9528 47.5142 58.0453 47.4765 58.1011 47.4334L58.0977 47.4391ZM58.2956 47.5511C58.0887 47.6466 58.0733 47.6666 58.195 47.6685C58.2766 47.6707 58.4261 47.6154 58.524 47.5521C58.7586 47.3995 58.6119 47.4007 58.2889 47.5512L58.2956 47.5511ZM67.2541 43.4957C67.2541 43.4957 67.2113 43.4676 67.1363 43.4654C67.0629 43.466 66.9806 43.498 66.9531 43.5437C66.929 43.5836 66.9837 43.5974 67.0709 43.5739C67.1631 43.5476 67.2438 43.5128 67.2541 43.4957ZM72.7896 40.5001C72.6503 40.5496 72.4871 40.6277 72.4262 40.6736C72.1927 40.8518 72.3719 40.8133 72.7008 40.6145C73.0297 40.4157 73.0331 40.41 72.7947 40.4972L72.7896 40.5001ZM76.5862 38.2975C76.5061 38.2982 76.4455 38.3328 76.4497 38.3754C76.4538 38.418 76.4948 38.4546 76.5466 38.4513C76.5933 38.451 76.6539 38.4164 76.6831 38.3735C76.7106 38.3278 76.6662 38.2969 76.5862 38.2975ZM78.594 36.8714C78.3569 37.0666 78.2811 37.1923 78.3996 37.1884C78.4479 37.1909 78.5327 37.1163 78.5843 37.0306C78.636 36.9449 78.7173 36.876 78.769 36.8728C78.8208 36.8695 78.8831 36.8377 78.9056 36.7949C78.9848 36.6635 78.7838 36.7107 78.5924 36.8685L78.594 36.8714ZM80.9978 35.1407C80.9511 35.1411 80.875 35.1957 80.8337 35.2642C80.7924 35.3328 80.8168 35.3639 80.8757 35.3378C80.9412 35.3117 81.0173 35.257 81.0397 35.2142C81.0639 35.1742 81.0445 35.1403 80.9962 35.1379L80.9978 35.1407ZM94.7304 23.4407C94.677 23.4411 94.6097 23.4758 94.5872 23.5186C94.5647 23.5614 94.5574 23.5956 94.579 23.5982C94.599 23.5981 94.6663 23.5634 94.7206 23.5175C94.7764 23.4744 94.7821 23.4374 94.7287 23.4378L94.7304 23.4407ZM97.8297 19.945C97.7642 19.9712 97.6672 20.0714 97.6071 20.1657C97.5245 20.3028 97.5376 20.3141 97.6644 20.2192C97.8724 20.0669 97.9826 19.8841 97.8297 19.945ZM98.2557 19.8108C98.1344 19.88 98.1068 19.9257 98.1455 19.9936C98.2133 20.1124 98.3701 20.023 98.3984 19.8494C98.4137 19.747 98.3805 19.7359 98.2541 19.808L98.2557 19.8108ZM94.0909 24.7987C94.0797 24.8614 94.1151 24.8412 94.1769 24.7497C94.2301 24.6669 94.2377 24.6213 94.1922 24.6473C94.1467 24.6732 94.1037 24.739 94.096 24.7959L94.0909 24.7987ZM94.972 23.9701C94.7977 24.0171 94.4476 24.3667 94.4912 24.443C94.5541 24.5534 94.8625 24.3775 94.9968 24.1547C95.1036 23.9776 95.0978 23.9322 94.9754 23.9644L94.972 23.9701ZM32.2025 41.4424C32.1324 41.531 32.1178 41.5994 32.1679 41.5933C32.213 41.5901 32.2617 41.5698 32.2704 41.5498C32.2723 41.5413 32.7701 41.2274 32.9645 41.0865C33.164 40.9428 33.0683 40.9748 33.0956 40.9405C33.0956 40.9405 32.4709 41.2668 32.4191 41.2701C32.369 41.2762 32.2709 41.3509 32.2008 41.4395L32.2025 41.4424ZM16.6932 49.2748C17.2653 49.1734 17.6726 48.9711 17.6442 48.8861C17.6223 48.8124 17.2337 48.9065 16.7197 49.1097C16.387 49.2432 16.2365 49.3553 16.6932 49.2748ZM24.3707 46.2985C24.3165 46.3444 24.3209 46.3756 24.3777 46.3695C24.4345 46.3633 24.4986 46.323 24.516 46.2831C24.5385 46.2403 24.5341 46.2091 24.509 46.2121C24.484 46.2151 24.4249 46.2526 24.3707 46.2985ZM62.3313 45.9207C62.3021 45.9636 62.3015 45.9977 62.3231 46.0003C62.3431 46.0002 62.4104 45.9655 62.4647 45.9196C62.5205 45.8765 62.5262 45.8395 62.4729 45.8399C62.4195 45.8404 62.3538 45.8779 62.3313 45.9207ZM93.5738 25.1611C93.3772 25.3332 93.37 25.356 93.5055 25.335C93.5924 25.3229 93.7476 25.2307 93.8461 25.1333C94.1094 24.8782 93.8689 24.9029 93.5738 25.1611ZM21.8314 68.4844C21.7853 68.5445 21.7842 68.6013 21.8274 68.6067C21.8707 68.612 21.967 68.5458 22.0354 68.4543C22.1004 68.3685 22.1015 68.3117 22.0343 68.335C21.9672 68.3583 21.8776 68.4244 21.8314 68.4844ZM55.7377 48.7062C55.7086 48.749 55.7279 48.783 55.7813 48.7825C55.828 48.7821 55.9137 48.7445 55.9712 48.7042C56.027 48.6611 56.0127 48.6243 55.9276 48.6279C55.8425 48.6314 55.7618 48.6662 55.7377 48.7062ZM56.5065 48.4327C56.4319 48.5015 56.4296 48.5328 56.4951 48.5067C56.5606 48.4805 56.6367 48.4259 56.6592 48.3831C56.7281 48.2689 56.6492 48.2951 56.5049 48.4299L56.5065 48.4327ZM93.0475 25.6599C92.9974 25.7485 93.0065 25.7995 93.072 25.7734C93.1375 25.7473 93.2223 25.6727 93.2602 25.6099C93.2981 25.547 93.289 25.496 93.2373 25.4992C93.189 25.4968 93.1042 25.5714 93.0475 25.6599ZM90.9887 27.2201C90.8751 27.4086 91.1023 27.384 91.2695 27.1837C91.3327 27.1064 91.317 27.0554 91.2353 27.0532C91.1486 27.054 91.0523 27.1201 90.9938 27.2172L90.9887 27.2201ZM62.7779 45.6698C62.6419 45.8073 62.7941 45.7805 63.1575 45.6069L63.4789 45.4537L63.1726 45.5159C63.0052 45.5514 62.8238 45.6211 62.7728 45.6726L62.7779 45.6698Z" fill="white"/>
</g>
<defs>
<clipPath id="clip0_477_1810">
<rect width="103.853" height="26.823" fill="white" transform="translate(0 51.4473) rotate(-29.695)"/>
</clipPath>
</defs>
</svg>
