<svg width="27" height="107" viewBox="0 0 27 107" fill="none" xmlns="http://www.w3.org/2000/svg">
<path d="M11.8644 100.708C11.8828 100.881 11.9351 100.929 12.1166 100.925C12.4173 100.915 12.875 101.261 12.9642 101.562C13.0044 101.697 13.068 101.782 13.114 101.759C13.16 101.736 13.1665 101.667 13.1327 101.603C13.0989 101.54 13.0917 101.45 13.1216 101.402C13.191 101.282 13.0638 101.088 12.8244 100.943C12.7124 100.874 12.5996 100.858 12.5737 100.901C12.5479 100.945 12.4544 100.908 12.369 100.814C12.2836 100.72 12.1942 100.678 12.1724 100.716C12.1473 100.753 12.0667 100.718 11.9862 100.637C11.8533 100.506 11.8428 100.511 11.8636 100.713L11.8644 100.708ZM7.78453 98.1054C7.8144 98.0567 7.87484 98.0946 7.92716 98.1901C7.97626 98.2852 8.10519 98.3739 8.20757 98.3941C8.31076 98.4087 8.48483 98.5037 8.59682 98.5959C9.01256 98.9366 9.02185 99.3846 8.61003 99.1797C8.47463 99.1136 8.33686 98.9943 8.30871 98.9139C8.27734 98.8331 8.21771 98.7894 8.17496 98.8128C8.07252 98.8631 7.71913 98.2196 7.78694 98.1116L7.78453 98.1054ZM11.2744 100.46C11.1493 100.672 11.1057 100.677 10.9615 100.51C10.8681 100.403 10.7738 100.348 10.7472 100.397C10.7213 100.441 10.6818 100.441 10.6553 100.396C10.6319 100.352 10.7739 100.254 10.9683 100.182C11.382 100.022 11.4811 100.113 11.2736 100.466L11.2744 100.46ZM11.542 100.615C11.4896 100.52 11.5663 100.419 11.6937 100.401C11.7534 100.398 11.8001 100.416 11.7961 100.445C11.7887 100.544 11.5782 100.685 11.542 100.615ZM9.16446 99.4929C9.16446 99.4929 9.11123 99.5206 9.07012 99.509C9.02901 99.4973 9.02341 99.4436 9.05329 99.3949C9.08316 99.3462 9.12348 99.3401 9.14763 99.3788C9.16856 99.417 9.17738 99.4712 9.16446 99.4929ZM10.2141 99.6758C10.277 99.6259 10.3826 99.6231 10.4551 99.6686C10.7501 99.863 10.7337 100.119 10.4371 99.96C10.1091 99.7904 10.0979 99.7771 10.2141 99.6758ZM9.29858 99.1708C9.32768 99.0808 9.38329 99.1063 9.46378 99.2587C9.53221 99.38 9.62163 99.469 9.66116 99.4452C9.70391 99.4218 9.75388 99.4406 9.77481 99.4788C9.79574 99.517 9.78923 99.5867 9.76258 99.6358C9.73675 99.6792 9.74955 99.7986 9.79783 99.8994C9.8429 99.9998 9.77603 99.9375 9.64557 99.7663C9.5151 99.5951 9.37496 99.4226 9.33387 99.3874C9.28955 99.3518 9.27674 99.2559 9.30018 99.1828L9.29858 99.1708ZM5.43935 95.9589C5.59476 96.1865 5.77118 96.3583 5.82925 96.343C5.97683 96.2991 6.44624 97.0529 6.39045 97.239C6.36538 97.3237 6.38546 97.4147 6.44589 97.4526C6.53856 97.5185 6.54663 97.5079 6.53795 97.2892C6.53016 96.9707 6.66484 96.925 6.81376 97.1987C6.88138 97.3258 7.03045 97.4349 7.14734 97.4455C7.2731 97.4632 7.37946 97.5487 7.41241 97.665C7.44296 97.7751 7.49766 97.9239 7.5371 97.9941C7.59667 98.1083 7.58535 98.142 7.46274 98.2188C7.35142 98.2854 7.31274 98.2565 7.29353 98.0892C7.27354 97.9041 7.2421 97.8938 7.11782 98.0292C7.03228 98.1229 6.9605 98.1422 6.95572 98.0828C6.95174 98.0176 6.81399 97.8747 6.64881 97.7633C5.74633 97.1425 5.05755 96.4754 4.79998 95.9689C4.7203 95.8107 4.68241 95.7995 4.64118 95.9289C4.5757 96.1372 4.48954 96.0016 4.50672 95.716C4.53533 95.2556 5.04638 95.3863 5.43935 95.9589ZM16.6133 103.51L16.694 103.403C16.8601 103.321 16.9526 103.646 16.9685 103.883C16.9749 104.001 16.9361 104.02 16.8169 103.956C16.5977 103.831 16.4358 103.602 16.6125 103.515L16.6133 103.51ZM13.4722 101.48C13.4553 101.413 13.4851 101.459 13.5318 101.595C13.5961 101.768 13.6445 101.799 13.697 101.706C13.7398 101.636 13.8139 101.623 13.8663 101.671C14.0226 101.822 14.0403 101.86 13.9693 101.897C13.9338 101.916 13.9313 102.027 13.9635 102.149C14.0181 102.345 13.9939 102.353 13.7481 102.207C13.4226 102.02 13.3324 101.89 13.4317 101.722C13.4704 101.657 13.4899 101.542 13.473 101.475L13.4722 101.48ZM15.5665 102.792C15.3958 102.58 15.3926 102.556 15.5248 102.575C15.6054 102.586 15.6941 102.634 15.7206 102.679C15.7472 102.724 15.9237 102.848 16.1098 102.951C16.5369 103.187 16.5844 103.27 16.4335 103.526C16.3123 103.732 16.185 103.702 16.0465 103.448C16.0022 103.365 15.9305 103.361 15.8788 103.447C15.807 103.561 15.3373 103.136 15.3793 103.001C15.4456 102.787 15.6696 102.924 15.5665 102.792ZM18.0906 105.093C18.0478 105.116 17.9842 105.078 17.9488 105.003C17.8916 104.895 17.8973 104.878 17.9916 104.909C18.1343 104.946 18.189 105.048 18.0938 105.094L18.0906 105.093ZM14.4897 102.429C14.4897 102.429 14.3682 102.147 14.5552 102.15C14.7423 102.153 15.1927 102.528 15.1927 102.528L15.0884 102.872C15.1521 102.816 15.2053 102.812 15.2021 102.858C15.1988 102.905 15.1464 102.951 15.0827 102.959C15.0327 102.964 14.6442 102.756 14.4863 102.617C14.3574 102.504 14.4453 102.464 14.4865 102.429L14.4897 102.429ZM18.575 105.273C18.5322 105.296 18.4799 105.271 18.4509 105.22C18.4227 105.163 18.4485 105.143 18.5122 105.158C18.6517 105.196 18.6678 105.221 18.5718 105.273L18.575 105.273ZM14.2778 102.299C14.322 102.382 14.3494 102.468 14.3332 102.489C14.3203 102.511 14.2494 102.501 14.1752 102.467C14.0664 102.422 14.056 102.38 14.1157 102.282C14.1585 102.212 14.227 102.216 14.2737 102.305L14.2778 102.299ZM16.5582 5.33247C16.248 5.94721 15.8726 6.55863 15.6031 6.88516C15.4594 7.06481 15.4037 7.18042 15.435 7.26125C15.4785 7.37318 15.1005 8.09595 15.007 8.08279C14.9844 8.07961 14.9959 7.88135 15.0332 7.63971C15.0794 7.33465 15.1093 7.26244 15.1237 7.39378C15.1437 7.53181 15.1776 7.54833 15.2583 7.44213C15.3277 7.34608 15.3456 7.24278 15.3021 7.13086C15.2152 6.90701 15.5883 6.1718 15.7584 6.22512C15.8527 6.25603 15.8697 6.22902 15.8658 6.04625C15.8651 5.88744 15.9136 5.77669 16.0588 5.63254C16.1662 5.52419 16.3551 5.25685 16.4746 5.03853C16.5941 4.82022 16.7289 4.63344 16.77 4.62159C16.8829 4.59045 16.8207 4.7992 16.5566 5.32049L16.5582 5.33247ZM18.9483 1.08365C18.9192 1.1501 18.77 1.20552 18.616 1.20148C18.2911 1.19691 18.1805 1.37533 18.0815 2.07857C18.0223 2.49937 17.9949 2.55429 17.6971 2.87096C17.4768 3.10449 17.363 3.28246 17.3322 3.43098C17.2974 3.60831 17.2812 3.62955 17.2482 3.53673C17.2217 3.46833 17.1894 3.55783 17.1642 3.76004C17.1415 3.94495 17.0631 4.17493 16.9864 4.27582C16.9097 4.37672 16.8637 4.49369 16.883 4.54344C16.8999 4.58697 17.0176 4.49772 17.1395 4.33264C17.418 3.96622 17.4315 4.15036 17.1643 4.62417C16.9673 4.97266 16.9413 5.15713 17.105 5.06848C17.1518 5.03979 17.0832 5.17709 16.9508 5.37008C16.5254 5.98623 16.4995 6.02962 16.3832 6.34243C16.2321 6.73854 16.2087 6.76464 16.1887 6.55609C16.1695 6.36528 16.063 6.46786 15.9861 6.75684C15.9514 6.88715 15.957 6.91733 16.0046 6.85937C16.1652 6.65271 16.1174 6.94578 15.9446 7.2389C15.5869 7.84108 15.318 8.37343 15.1644 8.78683C15.0796 9.0159 14.9447 9.29672 14.8656 9.41491C14.6791 9.68846 14.5998 10.0888 14.7085 10.204C14.7657 10.265 14.7624 10.3115 14.6979 10.3495C14.6471 10.3835 14.5915 10.358 14.581 10.2919C14.5361 10.074 14.4036 10.3845 14.4437 10.6135C14.4742 10.7942 14.4613 10.8394 14.3911 10.8001C14.321 10.7609 14.3009 10.7874 14.3145 10.8775C14.3241 10.9494 14.2369 11.1487 14.1206 11.3205C13.8381 11.7392 13.7055 12.1438 13.7075 12.5968C13.7072 12.9729 13.6547 13.089 13.2875 13.5252C13.0308 13.8301 12.9137 14.1251 12.9756 14.2926C13.0215 14.4107 13.0126 14.4271 12.9336 14.3807C12.7966 14.3026 12.6212 14.8011 12.6443 15.1982C12.6546 15.3584 12.644 15.5274 12.6125 15.5641C12.5843 15.6013 12.5633 15.5631 12.5642 15.4868C12.5635 15.3985 12.5296 15.4055 12.4723 15.5091C12.423 15.6021 12.4059 15.7702 12.4365 15.8803C12.5225 16.2039 12.4514 16.4056 12.1641 16.6708C11.8994 16.9157 11.8687 17.0172 12.0461 17.0422C12.117 17.0522 12.1186 17.1112 12.0475 17.2658C11.995 17.3818 11.9667 17.513 11.9836 17.5566C12.0004 17.6001 11.9536 17.6523 11.8786 17.6711C11.7698 17.6969 11.7044 17.8112 11.571 18.2215C11.4223 18.6709 11.4174 18.729 11.5335 18.6513C11.6602 18.5692 11.6618 18.5811 11.5568 18.8133C11.4889 18.9683 11.4268 19.036 11.3897 18.9955C11.2794 18.8683 11.2049 19.234 11.3128 19.3785C11.3821 19.4706 11.3845 19.5003 11.3256 19.4744C11.2579 19.4413 10.4716 21.6174 10.5198 21.7888C10.5351 21.8438 10.1867 22.9176 10.0113 23.4396C9.75101 24.2142 9.72701 24.9456 9.86907 24.754C9.92557 24.6796 9.93522 24.7045 9.92056 24.8788C9.90266 25.0761 9.89055 25.0921 9.78174 25.0474C9.67294 25.0027 9.66083 25.0186 9.64453 25.2279C9.63313 25.3556 9.59673 25.4975 9.56041 25.5453C9.52408 25.5931 9.46347 25.7668 9.42301 25.9374C9.36233 26.1817 9.37034 26.2416 9.4542 26.2299C9.52839 26.2168 9.51385 26.25 9.40817 26.3233C9.3049 26.4028 9.24028 26.5348 9.20139 26.7645C9.16979 26.9423 9.06706 27.3452 8.97085 27.655C8.87464 27.9647 8.77596 28.3388 8.74923 28.482C8.7225 28.6252 8.66986 28.9058 8.63179 29.1062C8.58537 29.3427 8.5985 29.3896 8.67118 29.247C8.80604 28.9897 8.8446 29.1597 8.74267 29.5568C8.67553 29.8237 8.66504 29.8281 8.58057 29.6105C8.52506 29.4674 8.47752 29.4314 8.45568 29.5165C8.43546 29.59 8.45473 29.6868 8.50065 29.7344C8.61503 29.8563 8.57841 30.2568 8.45995 30.1872C8.39951 30.1493 8.3267 30.433 8.19951 31.1499C8.06177 31.9417 8.04462 32.2038 8.1211 32.338C8.19999 32.4785 8.19513 32.513 8.09999 32.5114C8.00404 32.5156 7.95308 32.7141 7.82337 33.5424C7.73743 34.1063 7.63538 34.6446 7.60064 34.7278C7.52469 34.917 7.58129 35.6833 7.67876 35.7852C7.71581 35.8257 7.72453 35.9974 7.69697 36.1699C7.6524 36.4399 7.64029 36.4558 7.62431 36.289C7.57151 35.7995 7.38942 36.6027 7.38556 37.3546C7.3845 37.6425 7.22521 38.1903 7.18132 38.5956C7.05294 39.765 7.02249 40.4955 7.11701 40.2678C7.1768 40.1234 7.20341 40.1212 7.2307 40.2544C7.2548 40.3636 7.22245 40.4766 7.14095 40.5651C7.04411 40.669 6.99789 40.9741 6.94154 41.8185C6.868 42.9721 6.87753 43.138 7.00822 43.0506C7.055 43.0219 7.06129 43.2109 7.02475 43.5173C6.98656 43.8588 6.94775 43.9944 6.91396 43.9073C6.88419 43.8385 6.87141 43.6956 6.88682 43.5861C6.90223 43.4766 6.89745 43.4171 6.87727 43.4437C6.82077 43.518 6.74872 44.8011 6.79709 44.8079C6.81967 44.8111 6.86088 44.7052 6.89002 44.5682C6.93293 44.3568 6.94019 44.3519 6.94005 44.5165C6.94157 44.6225 6.92851 44.8088 6.91389 44.9361C6.83754 45.5955 6.76138 46.9779 6.79517 47.065C6.81689 47.1209 6.80548 47.2722 6.7707 47.4025C6.71489 47.6121 6.70118 47.6161 6.66747 47.435C6.64741 47.3205 6.64431 47.1789 6.66209 47.1227C6.68069 47.0606 6.67673 46.9719 6.65742 46.9221C6.60915 46.7978 6.54031 47.1702 6.5165 47.6665C6.50584 47.8825 6.53147 48.0742 6.57419 48.0979C6.62576 48.1286 6.65079 48.091 6.65251 47.9619C6.65421 47.8564 6.67197 47.8236 6.6937 47.8796C6.7476 48.0106 6.66505 48.3869 6.57634 48.4097C6.53521 48.4216 6.5029 48.4876 6.50043 48.5519C6.50118 48.6167 6.54067 48.6398 6.59311 48.5943C6.66815 48.5285 6.68257 48.6363 6.6725 49.1052C6.65837 49.6028 6.64056 49.6826 6.55759 49.5945C6.46898 49.4998 6.4601 49.5161 6.46471 49.7872C6.46779 49.9522 6.51278 50.1467 6.56512 50.2187C6.63116 50.3103 6.63033 50.3396 6.56586 50.307C6.49816 50.2739 6.45922 50.5506 6.43035 51.3166C6.37352 52.7253 6.37271 52.7311 6.45827 52.6138C6.49863 52.5607 6.52457 52.3998 6.51501 52.2573C6.50546 52.1149 6.52415 51.9353 6.55808 51.8578C6.59605 51.775 6.60883 51.9178 6.59328 52.1919C6.57612 52.454 6.5773 52.9598 6.59312 53.3147C6.60814 53.6754 6.60064 53.9624 6.57162 53.9583C6.54582 53.9547 6.48848 54.0583 6.44644 54.1934C6.37611 54.4128 6.38013 54.431 6.49788 54.3888C6.59466 54.3554 6.61881 54.3941 6.60739 54.5453C6.59843 54.6557 6.54593 54.7718 6.49269 54.7995C6.43864 54.8331 6.4152 54.9062 6.43852 54.9742C6.46266 55.0363 6.48901 55.3398 6.49761 55.6526C6.54127 57.3988 6.60829 58.2312 6.70582 58.2625C6.82915 58.2975 6.81611 58.4603 6.68704 58.5362C6.57976 58.5975 6.61992 58.7795 6.73523 58.7546C6.77636 58.7427 6.82437 59.1727 6.84484 59.7517C6.86452 60.3129 6.90024 60.9704 6.92422 61.2207C7.0201 62.2453 7.04117 63.0536 6.97175 63.1496C6.91929 63.2187 6.93292 63.3088 7.02954 63.4635C7.1479 63.6506 7.14625 63.6856 7.03735 63.7585C6.94296 63.8216 6.93649 63.8442 7.00985 63.8604C7.08402 63.8709 7.12093 64.0759 7.14951 64.5972C7.17014 64.9881 7.20209 65.3453 7.21898 65.3888C7.23587 65.4324 7.22198 65.6479 7.18954 65.8785C7.15547 66.1206 7.16578 66.3278 7.21492 66.3758C7.26083 66.4234 7.27367 66.4958 7.24542 66.533C7.16874 66.6339 7.31428 67.0952 7.41804 67.3861C7.46791 67.5225 7.4799 67.6476 7.44603 67.6546C7.41216 67.6616 7.41772 67.7623 7.46116 67.8742C7.5046 67.9861 7.54699 68.386 7.55876 68.7697C7.56811 69.1472 7.61613 69.5772 7.666 69.7136C7.79951 70.0968 7.82914 70.3303 7.75333 70.3549C7.7122 70.3667 7.72099 70.4679 7.76684 70.586C7.8127 70.7042 7.85115 70.9917 7.85014 71.2326C7.84994 71.4677 7.88675 71.7903 7.93178 71.9378C7.97277 72.0905 8.00877 72.4189 8.00614 72.6713C8.0035 72.9237 8.13712 73.1894 8.15642 73.2391C8.17814 73.2951 8.26402 73.7598 8.345 74.2826C8.4268 74.7997 8.54557 75.4512 8.60903 75.7247C8.66927 75.9977 8.76003 76.4043 8.80418 76.6281C9.08523 77.9726 9.45697 79.7943 9.90568 81.186C10.0335 81.5861 10.1372 81.9475 10.1364 82.0003C10.1371 82.0886 12.2441 87.5169 12.8105 88.8899C12.973 89.2772 13.1461 89.6366 13.196 89.6789C13.246 89.7212 13.3031 89.8997 13.3223 90.067C13.3655 90.4846 13.4451 90.6663 13.5106 90.505C13.551 90.4049 13.6508 90.5835 13.9131 91.22C14.2164 91.9623 14.5657 92.658 15.0061 93.4078C15.0746 93.5291 15.291 94.0005 15.4842 94.4509C15.6765 94.9071 15.8664 95.3335 15.9066 95.398C15.9461 95.4682 15.9589 95.564 15.9347 95.6194C15.9104 95.6748 16.9651 97.4809 16.7141 97.7219C16.6302 97.8041 16.3951 97.4654 16.1541 97.355C15.5263 97.0727 14.6293 96.6467 14.5262 96.4676C14.3563 96.1791 14.3249 96.1688 14.2361 96.3562C14.1715 96.4882 14.1166 96.5275 14.078 96.4515C14.0441 96.388 13.9724 96.3602 13.9151 96.3933C13.8611 96.4269 13.6822 96.3664 13.5186 96.267C13.355 96.1675 13.2002 96.1223 13.1744 96.1656C13.1485 96.209 13.0535 96.1604 12.9632 96.0536C12.873 95.9469 12.6829 95.8026 12.541 95.7356C12.3992 95.6686 12.2614 95.5728 12.2356 95.5221C12.2099 95.4715 12.0809 95.4298 11.9544 95.4179C11.827 95.4117 11.6658 95.342 11.5909 95.2668C11.3411 95.0083 9.47492 93.7581 9.54347 93.7383C9.64588 93.7116 9.65961 93.6841 9.6097 93.5948C9.54932 93.4864 9.10783 93.0951 8.85803 92.9306C8.28591 92.5562 8.1717 92.2226 7.76894 91.7898C7.57159 91.5798 7.36937 91.4043 7.32422 91.398C7.27586 91.3912 7.16549 91.2875 7.07771 91.1634C6.97464 91.0078 6.89405 90.973 6.84641 91.0545C6.74387 91.2223 6.59158 91.1127 6.56037 90.8437C6.52753 90.5863 6.3809 90.4599 6.31142 90.6265C6.28234 90.6929 6.18562 90.6558 6.08736 90.5362C5.99232 90.417 5.86583 90.311 5.80941 90.2913C5.75299 90.2716 5.58946 90.1016 5.44531 89.9109C5.10868 89.452 5.05068 89.3968 4.57205 89.0591C4.35127 88.8987 4.13132 88.709 4.0935 88.6273C4.05164 88.5508 3.96139 88.4911 3.89769 88.4998C3.83076 88.508 3.73001 88.4762 3.67038 88.4325C3.59867 88.3813 3.5414 88.4144 3.50501 88.5327C3.46863 88.651 3.27237 88.1061 2.76264 88.3165C2.56342 88.4002 2.31542 88.9708 2.35933 89.4766C2.39764 89.9287 2.31042 90.1046 2.16873 89.8495C2.12446 89.7669 2.05593 89.7631 2.01395 89.8277C1.97116 89.8981 1.95577 89.9841 1.97911 90.0286C2.00004 90.0668 1.99595 90.1426 1.97011 90.186C1.94427 90.2294 1.8959 90.2226 1.86692 90.1715C1.78884 90.0253 1.24608 91.1481 1.2547 91.4374C1.26253 91.7089 1.17129 91.8665 0.976149 91.8978C0.83745 91.9254 0.824533 91.9471 0.851754 92.1743C0.872564 92.3535 0.831314 92.5065 0.706977 92.7123C0.487361 93.0812 1.00961 93.3193 1.166 93.353C1.3385 93.389 1.34657 93.3784 1.34032 93.1424C1.33641 93.0067 1.35099 92.9264 1.37273 92.9589C1.39366 92.9971 2.5442 93.9349 2.92205 94.2644C3.08882 94.4113 3.26685 94.5951 3.31838 94.6729C3.3675 94.7444 3.53342 94.9441 3.68323 95.1181C3.83386 95.2862 3.95707 95.4623 3.95461 95.5031C3.94644 95.6313 4.35029 95.7292 4.3899 95.6114C4.42466 95.5046 4.27655 95.2251 3.92463 94.7347C3.76518 94.5124 3.67197 94.1465 3.78641 94.1979C3.81704 94.214 3.94434 94.3142 4.06357 94.425C4.1828 94.5359 4.56065 94.8653 4.90145 95.1543C5.24226 95.4433 5.59672 95.7753 5.69338 95.883C5.79004 95.9906 5.91572 96.1024 5.97537 96.1225C6.03098 96.148 6.42579 96.4504 6.84716 96.7978C8.08712 97.8246 9.02664 98.4859 10.0759 99.0686C10.3378 99.2171 10.6666 99.4045 10.8036 99.4825C10.9398 99.5663 11.549 99.8872 12.1559 100.202C12.7627 100.517 13.4405 100.888 13.658 101.025C13.878 101.167 14.322 101.424 14.646 101.599C14.9732 101.774 15.2464 101.936 15.2601 101.955C15.273 101.981 15.5784 102.147 15.941 102.328C16.3029 102.514 16.6164 102.693 16.6381 102.725C16.7218 102.878 18.9808 104.049 19.0316 103.968C19.0526 103.935 19.1993 104.015 19.3629 104.138C19.5264 104.261 19.7577 104.37 19.8827 104.369C20.1439 104.383 20.9894 104.731 21.057 104.858C21.0908 104.922 21.0698 104.954 20.9779 104.976C20.9093 104.996 20.8175 104.948 20.7764 104.866C20.7346 104.789 20.6532 104.76 20.5967 104.811C20.541 104.856 20.3266 104.814 20.1203 104.714C19.9139 104.615 19.6866 104.548 19.6116 104.566C19.5399 104.586 19.3593 104.537 19.2118 104.463C19.0651 104.384 18.8483 104.289 18.7282 104.254C18.609 104.214 18.2092 104.016 17.8434 103.812C17.2236 103.472 16.9302 103.431 17.1662 103.717C17.2193 103.783 17.2507 103.911 17.2304 104.008C17.2053 104.14 17.2432 104.174 17.4053 104.168C17.5181 104.16 17.6632 104.251 17.7236 104.36C17.7912 104.487 17.8436 104.512 17.8622 104.426C17.8759 104.352 17.8526 104.26 17.8075 104.23C17.7624 104.2 17.7375 104.121 17.7488 104.063C17.7577 104 17.8343 104.017 17.9092 104.092C17.9986 104.181 18.0389 104.292 18.0178 104.395C17.9951 104.509 18.0144 104.559 18.0927 104.564C18.1507 104.573 18.2708 104.654 18.3561 104.748C18.4754 104.883 18.5391 104.874 18.6214 104.733C18.7086 104.58 18.7481 104.58 18.8205 104.743C18.8704 104.856 19.0122 105.017 19.1379 105.105C19.2636 105.194 19.3394 105.216 19.3748 105.221C19.3652 105.22 19.3539 105.23 19.3434 105.234C19.2902 105.262 19.2869 105.285 19.3337 105.303C19.378 105.315 19.6794 105.487 19.9237 105.504C20.122 105.52 20.2866 105.379 20.3598 105.512C20.425 105.633 20.5354 105.713 20.6032 105.699C20.6717 105.68 20.7636 105.728 20.8055 105.804C20.8473 105.881 20.965 105.933 21.0617 105.923C21.1617 105.913 21.2866 105.984 21.3414 106.086C21.4122 106.213 21.5025 106.226 21.659 106.118C21.7784 106.041 21.9927 106.201 22.1532 106.206C22.391 106.221 22.8404 105.809 23.017 105.792C23.2025 105.783 23.3509 105.71 23.3768 105.62C23.4018 105.535 23.4172 105.519 23.4115 105.583C23.392 105.745 23.9065 105.547 23.9825 105.358C24.0229 105.258 23.8847 104.674 24.2894 104.672C24.5692 104.67 24.6337 104.632 24.7137 104.414C24.763 104.274 24.7938 104.126 24.7793 104.089C24.7649 104.051 24.7948 103.956 24.8472 103.887C24.8997 103.818 24.9757 103.581 25.0186 103.37C25.089 103.009 25.031 102.978 24.8204 102.231C24.6974 101.796 24.5117 101.223 24.4111 100.957C24.3073 100.689 24.1933 100.215 24.1524 99.8973C24.1116 99.58 24.0386 99.1171 23.9912 98.8694C23.9406 98.6212 23.9023 98.1456 23.9034 97.8107C23.9034 96.923 23.7843 95.7129 23.6748 95.5094C23.6096 95.3886 23.4604 93.5276 23.4945 93.262C23.5067 93.1756 23.4914 93.097 23.4632 93.0871C23.435 93.0773 23.3956 92.9365 23.3788 92.7755C23.354 92.5545 23.3726 92.4924 23.4452 92.5144C23.5894 92.5641 23.484 91.3501 23.3102 90.9494C23.1984 90.6926 23.192 90.6212 23.2735 90.5327C23.3276 90.4757 23.3664 90.3636 23.3608 90.2864C23.2435 88.8532 23.2063 88.0426 23.2469 87.6838C23.2745 87.4408 23.2828 87.1951 23.2651 87.1338C23.2474 87.0726 23.2387 86.8773 23.2445 86.6959C23.2637 85.905 23.2524 85.0041 23.2107 84.6925C23.1939 84.5549 23.3842 83.5765 23.3926 83.2603C23.4009 82.944 23.4562 82.3404 23.5139 81.9076C23.5707 81.4806 23.6032 81.0855 23.5856 81.0242C23.5679 80.9629 23.6351 80.6021 23.7314 80.2218C23.8381 79.8135 23.9006 79.3697 23.8847 79.1323C23.8695 78.9127 23.9012 78.6644 23.9505 78.5714C24.0611 78.3694 24.2247 77.4637 24.4907 75.62C24.6505 74.4845 25.3988 70.6865 25.7256 69.3217C26.0582 67.94 26.2797 67.207 26.4816 66.8239C26.4816 66.8239 27.0987 65.547 26.9606 64.8927C26.8224 64.2383 26.2195 65.0647 26.197 64.9909C26.1744 64.9172 26.0705 64.885 25.9664 64.9232C25.5575 65.0714 25.394 64.8779 25.2713 65.0723C25.1785 65.218 25.0284 65.3732 24.938 65.4075C24.6904 65.5079 24.2772 65.967 23.9395 66.8013C23.7634 67.235 23.7066 67.5915 23.6284 67.6334C23.4606 67.7273 22.3617 70.5824 22.4527 70.6599C22.4882 70.6884 22.3404 70.9909 22.2659 71.3566C22.1954 71.7171 22.1322 72.1197 22.1329 72.255C22.1301 72.6954 22.0958 73.1491 22.0717 73.0634C22.0581 73.0204 22.0242 73.0744 21.9942 73.1936C21.9651 73.3071 21.9674 73.5014 22.0003 73.6177C22.0333 73.7341 22.0452 73.8827 22.0234 73.9443C22.0016 74.0059 21.9758 73.9552 21.963 73.8359C21.9327 73.5377 21.8439 73.6545 21.7596 74.1129C21.7208 74.3191 21.6666 74.5172 21.6432 74.5433C21.5851 74.6056 21.3697 75.6922 21.3986 75.7904C21.4091 75.833 21.3539 76.2014 21.2697 76.6128C21.0632 77.6595 20.9368 78.4412 20.8506 79.2403C20.8108 79.6168 20.7242 80.069 20.6603 80.2422C20.5908 80.4323 20.564 80.6461 20.5978 80.7566C20.6292 80.861 20.6209 81.1067 20.578 81.2946C20.4849 81.7224 20.2751 83.8679 20.2762 84.3736C20.2754 84.4734 20.2541 84.7644 20.2314 85.0198C20.2061 85.2925 20.2212 85.5357 20.2687 85.6188C20.3195 85.7023 20.3242 85.8088 20.2822 85.897C20.2184 86.0232 20.2567 86.4753 20.3908 87.1585C20.4181 87.2916 20.4083 87.4784 20.3719 87.5732C20.3355 87.668 20.3313 87.9084 20.3593 88.1063C20.3906 88.3047 20.3905 88.4928 20.3598 88.5238C20.2702 88.6229 20.3837 88.8681 20.499 88.8197C20.6353 88.7624 20.726 89.2866 20.694 89.9346C20.6825 90.1799 20.7016 90.4647 20.7386 90.5757C20.7756 90.6868 20.8253 90.9877 20.8509 91.2499C20.8621 91.3808 20.8084 90.9912 20.7166 90.8254C20.6216 90.6592 20.4845 90.7222 20.4998 90.7302C20.5143 90.744 20.4495 91.0876 20.5113 91.3961C20.5651 91.6682 20.7447 91.911 20.7406 91.9633C20.7276 92.1261 20.7171 92.1305 20.6769 91.9955C20.6657 91.9587 20.5012 91.959 20.5708 92.6096C20.6603 93.4687 21.0235 95.0011 20.9921 94.9673C20.9719 94.9468 20.8412 95.0108 20.5933 94.5761C20.1714 93.8349 19.6636 92.7229 19.5694 92.5745C19.4213 92.342 19.3467 91.9141 19.3064 91.8967C19.1581 91.8288 18.8762 91.4012 18.6195 90.8654C18.4746 90.5628 18.2669 90.1927 18.1623 90.0486C18.0382 89.8783 17.306 88.1176 16.1081 85.0862C15.3897 83.2745 14.8287 82.0492 14.3293 80.6446C13.4388 78.162 12.9567 76.3071 12.9317 76.2272C12.8827 76.0381 12.5701 74.8008 12.3228 73.6843C12.0577 72.4831 11.8839 71.1713 11.7602 70.6248C11.6783 70.2723 11.6165 69.9168 11.6214 69.8352C11.6263 69.7536 11.5959 69.5024 11.5549 69.2792C11.4386 68.6573 11.2713 67.2288 11.2916 67.0612C11.3029 66.9805 11.2821 66.8247 11.2403 66.7248C11.1654 66.532 11.0904 65.6867 10.9481 63.3095C10.9274 62.9421 10.8955 62.6084 10.881 62.5711C10.8665 62.5338 10.8362 62.071 10.8182 61.5453C10.8001 61.0196 10.7626 60.5381 10.736 60.4697C10.7095 60.4014 10.6792 59.9621 10.6707 59.4848C10.6623 59.0074 10.6233 58.3729 10.5881 58.0623C10.4593 56.9214 10.4475 54.5978 10.4542 53.4289C10.4554 52.9529 10.4356 52.5093 10.4123 52.4413C10.3857 52.3729 10.3899 52.1795 10.4175 52.007C10.4483 51.835 10.3396 50.6911 10.3317 50.4901C10.3238 50.2891 10.5511 45.6595 10.5424 45.5113C10.5336 45.3631 10.5549 44.9782 10.5947 44.6487C10.6337 44.325 10.6632 43.7178 10.6619 43.3061C10.6607 42.8945 10.6797 42.3152 10.7082 42.0194C10.7505 41.5316 10.8948 39.6649 11.059 38.0773C11.1777 36.9301 11.2872 36.1754 11.4543 35.0115C11.7382 32.994 12.3051 30.064 12.3545 29.83C12.6241 28.4982 12.7374 27.9969 12.8586 27.626C12.9338 27.3955 13.0285 27.0032 13.0714 26.7448C13.1144 26.4863 13.2656 25.9256 13.4079 25.4989C13.5502 25.0721 13.7063 24.5004 13.7541 24.2308C13.8019 23.9612 14.1243 23.119 14.3265 22.3362C14.5287 21.5535 14.8334 20.7675 14.8577 20.571C14.8853 20.375 14.9338 20.1703 14.9742 20.1171C15.0436 20.0211 15.5496 18.5522 15.6135 18.2614C15.6499 18.096 16.1026 16.7254 16.2311 16.3966C16.2771 16.2797 16.442 15.8326 16.6004 15.4081C17.1507 13.9043 17.3398 13.4253 17.7187 12.5793C18.0733 11.7886 18.4515 10.7836 18.6649 10.0613C18.8097 9.5702 19.3203 8.3488 19.4575 8.16825C19.5261 8.07796 19.6287 7.83963 19.6877 7.63044C19.7459 7.42701 19.9697 6.86479 20.1854 6.38372C20.4447 5.80298 20.5587 5.46043 20.5273 5.37959C20.5008 5.31119 20.5099 5.0597 20.5463 4.82382C20.6339 4.27182 20.5755 3.75217 20.4111 3.6585C20.3232 3.60499 20.3015 3.54902 20.3339 3.43601C20.3662 3.32299 20.3067 3.16178 20.1143 2.79963C19.9235 2.44947 19.8624 2.27628 19.8899 2.17434C19.9109 2.095 19.9577 2.01929 19.9916 2.0123C20.0844 1.9842 20.1797 1.72721 19.8663 1.47736C19.8663 1.47736 19.4334 1.3753 19.4126 1.26655C19.3676 1.02508 19.0412 0.820444 18.9677 0.992328L18.9483 1.08365ZM21.4254 76.5348C21.4093 76.4855 21.4263 76.4115 21.457 76.3805C21.4884 76.3438 21.5287 76.3612 21.5416 76.4101C21.5577 76.4594 21.5407 76.5334 21.51 76.5644C21.4785 76.6011 21.4382 76.5836 21.4254 76.5348ZM21.2618 77.4406C21.2965 77.3103 21.3288 77.2678 21.3433 77.3286C21.3586 77.3837 21.3512 77.4826 21.3278 77.5557C21.2558 77.7631 21.1995 77.6728 21.2618 77.4406ZM20.8255 80.3301C20.8386 80.1674 20.8547 80.1697 20.9029 80.341C20.9359 80.4574 20.9358 80.5749 20.9043 80.6116C20.8309 80.6895 20.8019 80.5914 20.8247 80.3359L20.8255 80.3301ZM20.5752 82.6933C20.5867 82.401 20.6223 82.2884 20.6649 82.4296C20.6786 82.4727 20.6615 82.6173 20.6276 82.7418C20.5717 82.9515 20.5693 82.9453 20.5792 82.688L20.5752 82.6933ZM20.5269 83.5506C20.502 83.4707 20.5053 83.3066 20.5377 83.1936C20.608 82.9272 20.6531 83.0746 20.6068 83.4267C20.5744 83.6573 20.5655 83.6736 20.5269 83.5506ZM20.35 84.9248C20.3452 84.8183 20.3671 84.7097 20.3945 84.6783C20.4688 84.5947 20.476 84.6604 20.4121 84.9041C20.3676 85.0801 20.3571 85.0845 20.35 84.9248ZM20.389 85.4887C20.389 85.4887 20.41 85.3859 20.4512 85.3035C20.4924 85.2211 20.5352 85.1978 20.5512 85.247C20.5641 85.2959 20.5358 85.3801 20.489 85.4323C20.4422 85.4845 20.3962 85.5074 20.3922 85.4892L20.389 85.4887ZM20.6021 86.1242C20.5739 86.1144 20.549 86.0344 20.5442 85.9515C20.5411 85.857 20.5628 85.8659 20.5974 85.9707C20.6263 86.0688 20.6303 86.1341 20.6021 86.1242ZM20.9418 86.7951C20.9087 86.7493 20.8774 86.645 20.8759 86.5625C20.8743 86.4799 20.9017 86.5191 20.9395 86.6478C20.9773 86.7766 20.978 86.8414 20.9418 86.7951ZM20.4654 86.6987C20.4591 86.5097 20.4671 86.4991 20.5614 86.624C20.7055 86.8148 20.7489 86.9737 20.6795 87.0463C20.5908 87.1396 20.4708 86.9405 20.4654 86.6987ZM21.1266 88.4495L21.0293 88.2065C20.9729 88.0692 20.9537 87.9019 20.978 87.8231C21.0046 87.7504 21.0031 87.6444 20.975 87.5875C20.9468 87.5306 20.9549 87.426 20.9913 87.3547C21.0413 87.2559 21.0615 87.2764 21.0646 87.4414C21.0669 87.5652 21.0836 87.8438 21.0995 88.0577L21.1298 88.4499L21.1266 88.4495ZM21.0198 89.8394C21.0022 89.637 20.9564 89.4483 20.9186 89.4136C20.7808 89.2943 20.4665 88.1626 20.4966 87.9023C20.521 87.6823 20.562 87.7645 20.7855 88.5131C20.9286 88.9918 21.0645 89.3813 21.0863 89.3902C21.1395 89.4094 21.1435 89.4512 21.1665 89.9188C21.1894 90.4099 21.0645 90.3394 21.0198 89.8394ZM21.2671 92.0315C21.2341 91.9152 21.231 91.7972 21.2657 91.7609C21.3391 91.6831 21.3689 91.7755 21.3445 92.0424C21.3314 92.2052 21.3153 92.2029 21.2671 92.0315ZM21.3757 93.2225C21.3442 93.2592 21.2871 93.1748 21.2493 93.046C21.2123 92.9115 21.214 92.8059 21.2567 92.806C21.3003 92.8004 21.355 92.8786 21.3832 92.9825C21.4121 93.0807 21.4096 93.192 21.3749 93.2283L21.3757 93.2225ZM21.7551 104.945C22.0437 105.067 22.0654 105.1 21.9629 105.221C21.7337 105.494 21.5571 105.51 21.5227 105.265C21.5042 105.138 21.4438 105.054 21.3826 105.068C21.2737 105.094 21.269 104.964 21.3722 104.861C21.4029 104.83 21.5746 104.872 21.7511 104.95L21.7551 104.945ZM17.4053 102.251C17.4504 102.328 17.4616 102.389 17.4318 102.39C17.4019 102.392 17.3641 102.334 17.3488 102.255C17.3312 102.17 17.3545 102.168 17.402 102.251L17.4053 102.251ZM4.13059 95.2574C4.15393 95.3019 4.15065 95.372 4.124 95.4211C4.09735 95.4703 4.06508 95.4892 4.05784 95.4706C4.04738 95.4515 4.05066 95.3814 4.06443 95.3069C4.0782 95.2324 4.11047 95.2135 4.13059 95.2574ZM8.62162 93.1383C8.59179 93.14 8.55394 93.0818 8.54192 93.0037C8.52425 92.9189 8.54763 92.9163 8.59513 92.9994C8.64103 93.0705 8.65145 93.1367 8.62162 93.1383ZM9.14041 93.6581L9.01631 93.5818C8.9462 93.5426 8.86323 93.4545 8.82861 93.3967C8.77306 93.3007 8.77791 93.2897 8.87544 93.321C8.93508 93.3412 9.01886 93.4235 9.06314 93.5061L9.14041 93.6581ZM3.54527 94.2757L3.60381 94.6543L3.39942 94.1905C3.23204 93.8142 3.18371 93.7604 3.14248 93.8898C3.09316 94.0533 3.01258 93.995 3.02322 93.8025C3.03223 93.645 3.33863 93.6176 3.41671 93.7638C3.45616 93.834 3.5124 94.0653 3.54527 94.2757ZM12.7603 96.6776C12.7233 96.6136 12.7274 96.5377 12.7693 96.5201C12.8121 96.4968 12.8516 96.4964 12.8597 96.5093C12.8669 96.528 12.8636 96.5981 12.8507 96.6668C12.8369 96.7413 12.7974 96.7416 12.7603 96.6776ZM15.7228 93.5498C15.8298 93.7471 15.9788 93.9973 16.0553 94.108C16.2703 94.4263 16.7289 95.5607 16.6338 95.5356C16.5854 95.5288 16.3584 95.1323 16.1217 94.664C15.8851 94.1957 15.6323 93.7017 15.5591 93.5679C15.4826 93.4337 15.4464 93.2934 15.4779 93.2567C15.5062 93.2195 15.6197 93.3472 15.7268 93.5445L15.7228 93.5498ZM14.921 92.1202C15.008 92.1559 15.14 92.3862 15.2631 92.7033C15.3926 93.0448 15.4264 93.2024 15.3635 93.1583C15.3095 93.1213 15.1558 92.8586 15.0213 92.5752C14.8032 92.1154 14.7936 92.067 14.921 92.1202ZM13.8266 89.6383C14.0407 90.0564 14.4751 91.2227 14.4596 91.3322C14.4394 91.4763 13.6411 89.6475 13.6469 89.4661C13.6502 89.349 13.7107 89.4104 13.8266 89.6383ZM13.0225 87.9909C13.0467 87.9591 13.1562 88.1155 13.2649 88.3483C13.3703 88.5807 13.4846 88.8201 13.5184 88.8837C13.549 88.9468 13.5755 89.0857 13.573 89.197C13.5688 89.3434 13.5293 89.2967 13.4094 89.0271C13.3201 88.8205 13.1882 88.5198 13.1133 88.3505C13.0385 88.1813 12.9983 88.0228 13.0233 87.9852L13.0225 87.9909ZM11.8705 85.0542C11.9857 85.1703 12.4779 86.5093 12.4585 86.6477C12.452 86.6938 12.2927 86.3304 12.106 85.8339C11.9113 85.3245 11.8109 84.987 11.8705 85.0542ZM11.0628 82.9654C11.1803 83.1113 11.7699 84.7402 11.7537 84.879C11.7488 84.9136 11.5662 84.4588 11.3426 83.8748C11.1044 83.2534 10.9903 82.8729 11.0628 82.9654ZM10.6559 81.6972C10.7139 81.7288 10.767 81.8186 10.775 81.902C10.783 81.9855 10.8433 82.1879 10.9061 82.3496C10.9688 82.5113 10.988 82.6551 10.9509 82.6616C10.8929 82.6769 10.7754 82.39 10.5889 81.7759C10.5535 81.6534 10.5584 81.6423 10.6494 81.6963L10.6559 81.6972ZM10.3181 80.6621L10.438 80.9552C10.504 81.1173 10.5586 81.3367 10.5569 81.4422C10.5536 81.6063 10.5431 81.6108 10.4948 81.4629C10.4627 81.3643 10.408 81.145 10.3759 80.9759L10.3181 80.6621ZM10.2063 80.3583C10.2522 80.4764 10.2561 80.5417 10.2191 80.5012C10.182 80.4607 10.1426 80.367 10.137 80.2898C10.1282 80.2121 10.1605 80.2401 10.2063 80.3583ZM10.1383 79.7197C10.1649 79.7881 10.172 79.9008 10.1518 79.9744C10.1324 80.0422 10.0929 80.0425 10.0664 79.9741C10.0398 79.9057 10.0326 79.793 10.0529 79.7195C10.0723 79.6517 10.1085 79.6509 10.1383 79.7197ZM9.60815 78.3695C9.63557 78.3616 9.69595 78.47 9.73856 78.6112C9.78439 78.7529 9.8785 79.0189 9.94687 79.2108C10.0257 79.4217 10.0409 79.5473 9.98932 79.54C9.89903 79.5273 9.52589 78.3932 9.60815 78.3695ZM9.26869 76.5053C9.337 76.7677 9.38513 77.0566 9.36974 77.1426C9.35433 77.2522 9.30441 77.1628 9.21601 76.833C9.14689 76.5763 9.09876 76.2874 9.11496 76.1956C9.132 76.0746 9.17627 76.1572 9.26869 76.5053ZM8.26327 71.8022C8.28815 71.9291 8.28158 72.0693 8.25737 72.1011C8.18472 72.1967 8.12605 71.9827 8.14647 71.674C8.16445 71.3827 8.19909 71.4169 8.26408 71.7964L8.26327 71.8022ZM8.15441 70.8698C8.17441 71.0549 8.09363 71.2316 8.04859 71.1077C8.0341 71.0704 8.0294 70.9169 8.03759 70.7652C8.05395 70.4853 8.12163 70.5419 8.15441 70.8698ZM7.94627 69.124C7.98488 69.2235 8.02425 69.3878 8.03384 69.4832C8.06664 69.7876 7.95455 69.813 7.89837 69.5112C7.82612 69.1365 7.85778 68.8882 7.94627 69.124ZM7.47689 65.4957C7.49997 65.8457 7.48931 66.0617 7.45311 65.9685C7.38955 65.8126 7.30817 64.8018 7.35338 64.7376C7.4018 64.6739 7.43549 64.8785 7.4777 65.4899L7.47689 65.4957ZM7.37971 64.1064C7.39326 64.2906 7.37623 64.4116 7.3424 64.3716C7.30857 64.3316 7.29741 64.1772 7.31769 64.0331C7.35257 63.7852 7.35821 63.7919 7.37971 64.1064ZM7.2708 62.2865C7.29735 62.3548 7.31413 62.5394 7.30352 62.6849C7.29125 62.8889 7.27268 62.9275 7.23729 62.8284C7.21074 62.76 7.19396 62.5754 7.20457 62.43C7.21684 62.226 7.23219 62.187 7.2708 62.2865ZM7.02557 58.6544C7.06258 58.7419 7.06978 58.8075 7.04076 58.8035C7.01174 58.7994 6.98197 58.7305 6.97397 58.6471C6.96357 58.5575 6.98614 58.5606 7.02557 58.6544ZM6.75805 57.5174C6.77736 57.5672 6.77406 57.6608 6.75465 57.7286C6.73524 57.7964 6.7062 57.8158 6.68689 57.7661C6.67 57.7226 6.67089 57.6227 6.6903 57.5549C6.7097 57.4871 6.73875 57.4677 6.75805 57.5174ZM6.9058 55.3926C6.90807 55.5634 6.88217 55.6773 6.84349 55.6484C6.80401 55.6252 6.78884 55.4526 6.80512 55.2668C6.84093 54.8721 6.89973 54.945 6.9058 55.3926ZM6.8568 54.2218C6.868 54.3292 6.85502 54.4214 6.82922 54.4178C6.80343 54.4142 6.79302 54.3245 6.80843 54.215C6.83034 54.0594 6.84001 54.0607 6.8568 54.2218ZM6.82067 51.207C6.84008 51.1392 6.87234 51.1202 6.88924 51.1637C6.90855 51.2135 6.90847 51.3075 6.88906 51.3753C6.86965 51.4431 6.83739 51.4621 6.8213 51.4128C6.80441 51.3693 6.8053 51.2695 6.82471 51.2017L6.82067 51.207ZM6.64342 51.0645C6.63113 51.292 6.61821 51.3137 6.57154 51.2013C6.53936 51.1262 6.53546 50.967 6.55813 50.8526C6.61319 50.5782 6.66629 50.715 6.64583 51.0707L6.64342 51.0645ZM7.10167 41.2415C7.10167 41.2415 7.14357 41.2709 7.17334 41.3397C7.19989 41.4081 7.20062 41.4964 7.16834 41.5389C7.14009 41.576 7.10707 41.5303 7.09666 41.4406C7.08707 41.3452 7.08956 41.2574 7.10167 41.2415ZM7.83988 34.9908C7.8454 35.1385 7.83315 35.319 7.81293 35.3926C7.73367 35.6754 7.70319 35.4947 7.7664 35.1156C7.82961 34.7366 7.83365 34.7312 7.84069 34.985L7.83988 34.9908ZM8.48374 30.6491C8.5127 30.7237 8.50297 30.7928 8.46184 30.8047C8.42071 30.8165 8.37155 30.792 8.35547 30.7427C8.33857 30.6992 8.34831 30.63 8.37737 30.5871C8.40965 30.5446 8.45478 30.5744 8.48374 30.6491ZM9.06709 28.2563C8.97331 28.5488 8.88452 28.6656 8.84431 28.5542C8.82419 28.5102 8.86217 28.4039 8.92271 28.3242C8.98325 28.2445 9.0172 28.1435 9.00111 28.0942C8.98503 28.0449 8.99154 27.9753 9.02302 27.9386C9.11584 27.8164 9.1463 28.0206 9.07031 28.2568L9.06709 28.2563ZM9.7871 25.3832C9.80399 25.4267 9.78134 25.5176 9.73291 25.5813C9.68448 25.645 9.6466 25.6338 9.64907 25.5695C9.64913 25.499 9.67178 25.4081 9.70326 25.3714C9.73151 25.3342 9.77021 25.3397 9.79033 25.3836L9.7871 25.3832ZM15.5849 8.29931C15.6042 8.34906 15.5969 8.42444 15.5654 8.46116C15.534 8.49788 15.5049 8.51731 15.4944 8.4982C15.4872 8.47955 15.4945 8.40416 15.5172 8.3368C15.5366 8.26899 15.5688 8.25002 15.5881 8.29976L15.5849 8.29931ZM17.688 4.12766C17.6879 4.19819 17.6305 4.32533 17.5652 4.41606C17.4683 4.54351 17.453 4.53547 17.4942 4.38256C17.559 4.13302 17.6881 3.96308 17.688 4.12766ZM17.6553 3.68218C17.6358 3.82052 17.6035 3.86301 17.5261 3.85212C17.3907 3.83306 17.4158 3.65437 17.5667 3.56391C17.6562 3.51184 17.6788 3.53853 17.6585 3.68263L17.6553 3.68218ZM14.5592 9.39532C14.5052 9.42886 14.5109 9.38851 14.573 9.29733C14.6303 9.21721 14.6699 9.19338 14.6626 9.24526C14.6553 9.29714 14.6101 9.36132 14.56 9.38954L14.5592 9.39532ZM15.0036 8.27041C15.0244 8.4497 14.8289 8.90421 14.7419 8.89195C14.6161 8.87426 14.6656 8.52264 14.823 8.31553C14.9481 8.1509 14.9925 8.13952 15.0077 8.26511L15.0036 8.27041ZM21.9613 73.0538C21.9048 73.1516 21.8467 73.1905 21.8338 73.1417C21.8202 73.0986 21.821 73.0458 21.8363 73.0303C21.8436 73.0255 21.9513 72.4469 22.0104 72.2142C22.0702 71.9757 22.0758 72.0764 22.0976 72.0384C22.0976 72.0384 22.0252 72.7395 22.0413 72.7888C22.0542 72.8376 22.021 72.9564 21.9645 73.0542L21.9613 73.0538ZM20.4139 90.3596C20.2966 89.7905 20.3341 89.3373 20.4236 89.3322C20.5002 89.3254 20.5563 89.7212 20.5574 90.274C20.5563 90.6324 20.5078 90.8137 20.4139 90.3596ZM20.3427 82.1257C20.32 82.193 20.2894 82.2005 20.2741 82.1454C20.2588 82.0903 20.2726 82.0159 20.3033 81.9849C20.3348 81.9482 20.3654 81.9407 20.3718 81.9652C20.3783 81.9896 20.3653 82.0583 20.3427 82.1257ZM6.66728 46.7119C6.63822 46.7548 6.60676 46.7681 6.5963 46.7489C6.58906 46.7303 6.59638 46.6549 6.61901 46.5876C6.63842 46.5197 6.67068 46.5008 6.68999 46.5505C6.7093 46.6003 6.69875 46.6752 6.66728 46.7119ZM14.4136 10.0097C14.3263 10.2561 14.3077 10.2711 14.2772 10.1375C14.2563 10.0522 14.2847 9.87398 14.3388 9.74639C14.4786 9.40748 14.5445 9.64014 14.4136 10.0097ZM0.665073 92.6829C0.626318 92.748 0.573892 92.77 0.552962 92.7318C0.532031 92.6936 0.55793 92.5797 0.617676 92.4823C0.673386 92.3902 0.725811 92.3682 0.728977 92.4391C0.732141 92.5101 0.703829 92.6178 0.665073 92.6829ZM6.51525 53.8681C6.48619 53.911 6.4475 53.9055 6.42819 53.8558C6.41129 53.8123 6.4146 53.7187 6.43078 53.6504C6.45019 53.5826 6.4897 53.5823 6.51785 53.6627C6.546 53.7431 6.5435 53.8309 6.51525 53.8681ZM6.48531 53.0526C6.44895 53.1474 6.42072 53.1611 6.42078 53.0906C6.42084 53.02 6.44349 52.9292 6.47497 52.8924C6.55568 52.7862 6.56045 52.8692 6.48853 53.0531L6.48531 53.0526ZM14.1445 10.6831C14.0808 10.7623 14.03 10.7728 14.03 10.7023C14.0301 10.6317 14.0681 10.5254 14.1125 10.467C14.1569 10.4086 14.2077 10.3981 14.2237 10.4474C14.2439 10.4913 14.2059 10.5977 14.1445 10.6831ZM13.4555 13.1726C13.3223 13.3479 13.2612 13.1277 13.3856 12.8983C13.434 12.811 13.4872 12.8068 13.5194 12.8818C13.5508 12.9627 13.5249 13.0766 13.4563 13.1669L13.4555 13.1726ZM6.73544 46.2042C6.65789 46.3814 6.62657 46.23 6.65352 45.8282L6.6772 45.473L6.73257 45.7806C6.76145 45.9492 6.76371 46.1435 6.73462 46.21L6.73544 46.2042Z" fill="black"/>
</svg>
