<svg width="381" height="31" viewBox="0 0 381 31" fill="none" preserveAspectRatio="none" xmlns="http://www.w3.org/2000/svg">
<g clip-path="url(#clip0_477_355)">
<path fill-rule="evenodd" clip-rule="evenodd" d="M2.60775 15.2251C2.77157 15.2582 3.19446 15.1174 3.17931 15.2838C3.30884 15.5223 2.35266 15.5266 2.60775 15.2251Z" fill="black"/>
<path fill-rule="evenodd" clip-rule="evenodd" d="M378.202 6.99527C378.402 6.87414 379.357 6.8443 379.564 6.95274C379.392 7.31557 378.488 7.02465 378.202 6.99527Z" fill="black"/>
<path fill-rule="evenodd" clip-rule="evenodd" d="M195.521 12.6994C196.107 12.579 196.016 12.901 196.542 12.808C196.204 13.0611 196.411 13.1695 196.562 13.4457L195.87 13.4672C195.821 13.1879 195.853 12.9061 195.5 12.6873L195.521 12.6994Z" fill="black"/>
<path fill-rule="evenodd" clip-rule="evenodd" d="M237.592 11.8197C236.798 12.4572 233.599 11.6762 233.282 12.5925C233.436 12.9835 234.666 12.6259 235.1 12.8166C234.951 13.2809 233.436 12.9707 232.728 13.1077C232.932 13.7652 234.969 13.2037 235.811 13.4455C235.537 13.786 234.478 13.7425 233.665 13.7934C232.934 13.8417 232.179 13.7504 231.739 13.994C231.745 14.198 232.129 14.1222 231.976 14.4206C231.328 14.543 231.578 14.0501 231.169 14.0118C230.978 13.7624 231.554 13.9614 231.508 13.7841C231.318 13.5475 231.028 13.3906 230.478 13.3822C230.695 13.1712 231.72 13.4073 231.958 13.1956C232.044 12.7078 230.615 13.212 230.363 12.9645C230.25 12.5851 231.758 12.6784 231.845 12.8417C232.027 12.8105 231.939 12.6089 232.288 12.6874C232.098 12.4763 231.869 12.292 231.48 12.2148C233.313 10.983 235.47 12.3072 237.612 11.8063L237.592 11.8197Z" fill="black"/>
<path fill-rule="evenodd" clip-rule="evenodd" d="M271.127 10.6193L271.473 10.6086L271.481 10.8891C271.097 10.9777 271.112 10.7985 271.127 10.6193Z" fill="black"/>
<path fill-rule="evenodd" clip-rule="evenodd" d="M273.078 11.2094L272.509 11.2272C272.313 10.7993 273.287 10.7305 273.078 11.2094Z" fill="black"/>
<path fill-rule="evenodd" clip-rule="evenodd" d="M111.183 15.9712L111.63 15.9572C111.594 16.1115 111.435 16.2187 111.192 16.2518L111.183 15.9712Z" fill="black"/>
<path fill-rule="evenodd" clip-rule="evenodd" d="M174.279 14.001L174.287 14.2816L173.271 14.3133C173.406 14.0793 173.998 14.1247 174.279 14.001Z" fill="black"/>
<path fill-rule="evenodd" clip-rule="evenodd" d="M280.238 11.1265C280.373 10.8925 279.87 11.0869 280.005 10.8529C280.496 10.9269 280.49 10.7229 280.794 10.6878C280.659 10.9218 281.161 10.7274 281.026 10.9614C280.722 10.9965 280.708 11.2012 280.238 11.1265Z" fill="black"/>
<path fill-rule="evenodd" clip-rule="evenodd" d="M211.247 13.2805C211.098 13.7193 210.457 13.3818 209.989 13.3964C210.047 13.2925 210.834 13.0764 211.247 13.2805Z" fill="black"/>
<path fill-rule="evenodd" clip-rule="evenodd" d="M212.487 13.2417L213.056 13.2239C213.144 13.4254 212.356 13.616 212.487 13.2417Z" fill="black"/>
<path fill-rule="evenodd" clip-rule="evenodd" d="M242.043 12.3192C242.153 12.5966 241.662 12.5098 241.835 12.8236C240.922 12.9287 241.266 12.1903 242.043 12.3192Z" fill="black"/>
<path fill-rule="evenodd" clip-rule="evenodd" d="M262.167 11.6905C262.391 11.709 262.656 11.7007 262.621 11.8933C262.317 11.9283 262.052 11.9366 262.167 11.6905Z" fill="black"/>
<path fill-rule="evenodd" clip-rule="evenodd" d="M239.443 12.4767C240.053 12.4576 240.762 12.3589 240.814 12.7147C240.266 12.7446 239.987 12.9321 239.563 13.0347C239.709 13.1578 240.213 13.0271 240.021 13.3778L239.005 13.4096C239.159 13.1366 239.684 13.0309 239.208 12.7649C239.556 12.8306 239.407 12.6055 239.423 12.4773L239.443 12.4767Z" fill="black"/>
<path fill-rule="evenodd" clip-rule="evenodd" d="M257.401 12.1969C257.394 12.6185 255.95 12.638 256.136 12.096C256.643 12.0164 257.225 11.7556 257.401 12.1969Z" fill="black"/>
<path fill-rule="evenodd" clip-rule="evenodd" d="M257.738 11.9055C258.065 11.9464 258.071 12.1377 258.307 11.8877C258.575 11.9943 258.922 12.0473 259.45 11.9925C259.454 12.12 259.597 12.1411 259.581 12.2693C258.769 12.3457 258.536 12.0466 257.645 12.1893C257.641 12.0617 257.783 12.0318 257.758 11.9049L257.738 11.9055Z" fill="black"/>
<path fill-rule="evenodd" clip-rule="evenodd" d="M261.255 11.7958L261.824 11.778C261.923 12.3622 263.404 12.2011 263.759 11.858C264.004 11.8759 264.17 11.9729 264.215 12.1247L263.422 12.1494C263.331 12.4714 263.897 12.3644 263.885 12.6329C262.603 12.6218 261.34 12.5847 261.234 11.7837L261.255 11.7958Z" fill="black"/>
<path fill-rule="evenodd" clip-rule="evenodd" d="M125.412 16.1777C125.76 16.2434 126.107 16.2964 126.435 16.3628C126.57 16.7671 125.586 16.5297 125.181 16.619C125.01 16.3307 125.418 16.3818 125.391 16.1783L125.412 16.1777Z" fill="black"/>
<path fill-rule="evenodd" clip-rule="evenodd" d="M191.699 14.1079C192.026 14.1616 192.214 14.2961 192.282 14.5238C191.836 14.6015 191.99 14.2904 191.485 14.4083C191.335 14.1831 191.849 14.3458 191.699 14.1207L191.699 14.1079Z" fill="black"/>
<path fill-rule="evenodd" clip-rule="evenodd" d="M236.602 12.7061C237.31 12.5691 237.34 12.8873 237.968 12.8039C237.895 13.0488 237.571 13.1227 237.187 13.1858C237.078 12.9721 236.471 13.0804 236.602 12.7061Z" fill="black"/>
<path fill-rule="evenodd" clip-rule="evenodd" d="M117.915 16.5521C118.381 16.4737 118.509 16.6485 118.496 16.8915C118.11 16.9035 117.843 16.848 117.915 16.5521Z" fill="black"/>
<path fill-rule="evenodd" clip-rule="evenodd" d="M209.896 13.68C210.238 13.5544 210.257 14.1411 209.907 14.0371L209.896 13.68Z" fill="black"/>
<path fill-rule="evenodd" clip-rule="evenodd" d="M210.465 13.6623C210.87 13.573 210.784 14.0864 210.352 13.9467C210.348 13.8191 210.49 13.7892 210.465 13.6623Z" fill="black"/>
<path fill-rule="evenodd" clip-rule="evenodd" d="M302.08 10.8016C302.084 10.9291 302.227 10.9502 302.211 11.0784L301.296 11.1069C301.247 10.8276 301.612 10.7779 302.08 10.8016Z" fill="black"/>
<path fill-rule="evenodd" clip-rule="evenodd" d="M238.42 12.9302C238.527 13.0928 238.853 13.1337 238.781 13.4168C238.357 13.5322 238.551 13.2325 238.207 13.2943C238.119 13.08 238.591 13.193 238.42 12.9302Z" fill="black"/>
<path fill-rule="evenodd" clip-rule="evenodd" d="M188.645 14.701C189.481 14.7515 190.795 14.4807 191.272 14.7594C191.77 14.4375 192.631 14.6404 192.764 14.9937C192.119 15.1798 191.301 15.0394 190.714 15.1343C190.72 15.3384 191.104 15.2626 190.951 15.561C190.607 15.6228 190.801 15.3231 190.377 15.4385C190.373 15.3109 190.515 15.281 190.491 15.1541C190.135 14.8332 188.902 15.1143 188.666 14.7131L188.645 14.701Z" fill="black"/>
<path fill-rule="evenodd" clip-rule="evenodd" d="M253.326 12.6816L253.774 12.6677C253.738 12.822 253.578 12.9291 253.335 12.9622L253.326 12.6816Z" fill="black"/>
<path fill-rule="evenodd" clip-rule="evenodd" d="M159.195 15.7611L159.541 15.7504C159.388 16.0743 159.873 15.957 159.78 16.2408L160.227 16.2268C160.259 15.945 160.851 15.9903 161.359 15.9745C161.266 16.2582 161.751 16.141 161.598 16.4649L159.443 16.5322C159.578 16.2981 159.076 16.4926 159.211 16.2586C159.032 16.3918 158.583 16.3548 158.528 16.5607C158.183 16.5715 158.675 16.0327 158.169 16.1379C158.508 15.9103 159.356 16.3306 159.175 15.749L159.195 15.7611Z" fill="black"/>
<path fill-rule="evenodd" clip-rule="evenodd" d="M210.135 14.1709C210.523 14.1971 210.431 14.5191 210.375 14.6613L209.46 14.6899C209.495 14.5228 209.252 14.5432 209.327 14.3365C209.518 14.5987 210.123 14.4266 210.115 14.1715L210.135 14.1709Z" fill="black"/>
<path fill-rule="evenodd" clip-rule="evenodd" d="M298.803 11.4019L299.25 11.3879L299.259 11.6685C298.874 11.7316 298.709 11.6474 298.803 11.4019Z" fill="black"/>
<path fill-rule="evenodd" clip-rule="evenodd" d="M301.314 11.6812C301.36 11.8457 301.506 11.9433 301.452 12.1748C301.679 12.2826 302.146 12.2425 302.253 12.4306C302.536 12.358 302.673 12.2005 303.164 12.2618C302.685 11.9065 301.488 12.0205 301.328 11.4637C302.2 11.3599 302.693 11.5232 303.047 11.7675C303.308 11.67 303.548 11.5476 304.059 11.5955C304.107 11.8366 304.03 11.9921 303.955 12.1732C303.629 12.1706 303.386 12.2038 303.268 12.3351C303.72 12.4742 304.49 12.3863 304.763 12.6459C303.078 12.7623 301.592 12.7449 300.663 12.3398C300.569 11.9342 300.973 11.8195 301.335 11.6806L301.314 11.6812Z" fill="black"/>
<path fill-rule="evenodd" clip-rule="evenodd" d="M123.857 17.2222C124.027 17.4467 123.192 17.4217 123.169 17.3203C122.999 17.0959 123.834 17.1208 123.857 17.2222Z" fill="black"/>
<path fill-rule="evenodd" clip-rule="evenodd" d="M161.605 16.0436C161.825 15.9218 162.841 15.8901 163.089 15.9973C162.977 16.3072 161.792 16.1654 161.605 16.0436Z" fill="black"/>
<path fill-rule="evenodd" clip-rule="evenodd" d="M169.232 15.9457C169.625 15.4993 170.915 15.7654 170.384 16.3438C170.053 16.1626 169.291 15.88 169.124 16.3831C168.149 16.4518 167.733 16.1584 167.297 15.8657C167.862 15.7331 168.94 15.6995 169.232 15.9457Z" fill="black"/>
<path fill-rule="evenodd" clip-rule="evenodd" d="M251.856 13.149C251.856 13.149 250.589 13.6354 250.374 13.2719C250.675 13.1221 251.369 13.2025 251.856 13.149Z" fill="black"/>
<path fill-rule="evenodd" clip-rule="evenodd" d="M215.594 14.3575C215.441 14.6559 215.845 14.5794 215.831 14.7841L214.917 14.8127C214.867 14.5079 215.086 14.3606 215.594 14.3575Z" fill="black"/>
<path fill-rule="evenodd" clip-rule="evenodd" d="M189.336 15.3179L189.682 15.3071L189.69 15.5877C189.386 15.6227 189.401 15.4435 189.336 15.3179Z" fill="black"/>
<path fill-rule="evenodd" clip-rule="evenodd" d="M219.811 14.5071C220.358 14.4517 220.786 14.4766 220.836 14.7559C220.454 14.8955 220.327 14.7335 219.82 14.7877L219.811 14.5071Z" fill="black"/>
<path fill-rule="evenodd" clip-rule="evenodd" d="M157.756 16.5979C158.147 16.7261 158.677 16.7479 158.788 17.0636C158.291 17.4366 157.363 17.0442 157.756 16.5979Z" fill="black"/>
<path fill-rule="evenodd" clip-rule="evenodd" d="M167.066 16.3071L167.514 16.2932C167.478 16.4602 167.722 16.4399 167.647 16.6465C167.26 16.6585 167.074 16.5495 167.066 16.3071Z" fill="black"/>
<path fill-rule="evenodd" clip-rule="evenodd" d="M203.229 15.1778C203.474 15.2085 204.018 15.0383 203.924 15.2965C203.679 15.2659 203.135 15.4361 203.229 15.1778Z" fill="black"/>
<path fill-rule="evenodd" clip-rule="evenodd" d="M359.525 10.2973C360.059 10.4721 361.232 10.2185 361.467 10.5941L359.658 10.6506C359.693 10.4836 359.45 10.5039 359.525 10.2973Z" fill="black"/>
<path fill-rule="evenodd" clip-rule="evenodd" d="M189.695 15.7406C190.596 15.9295 192.085 15.3851 192.211 16.16C191.298 16.2395 190.942 15.9442 189.93 16.0907C190.004 15.8714 189.541 16.0135 189.695 15.7406Z" fill="black"/>
<path fill-rule="evenodd" clip-rule="evenodd" d="M324.078 11.5449C324.464 11.5073 324.709 11.5507 324.996 11.5928L325.009 12.0265C324.483 12.1323 324.615 11.7962 324.09 11.9147L324.079 11.5576L324.078 11.5449Z" fill="black"/>
<path fill-rule="evenodd" clip-rule="evenodd" d="M205.749 15.7375C204.684 16.1665 202.032 15.9429 201.085 15.6023C202.198 15.4143 204.083 15.8406 205.749 15.7375Z" fill="black"/>
<path fill-rule="evenodd" clip-rule="evenodd" d="M275.652 13.4782C275.661 13.7843 274.78 13.5821 274.396 13.6579C274.419 13.1082 275.141 13.4048 275.652 13.4782Z" fill="black"/>
<path fill-rule="evenodd" clip-rule="evenodd" d="M251.004 14.5415C251.078 14.3221 250.615 14.4643 250.769 14.1914C251.254 14.0868 251.281 14.2903 251.566 14.3069L251.586 14.9446C250.858 15.095 251.027 14.6429 250.439 14.6995C250.435 14.572 250.577 14.5421 250.552 14.4152C250.915 14.3144 250.641 14.6422 251.004 14.5415Z" fill="black"/>
<path fill-rule="evenodd" clip-rule="evenodd" d="M305.897 12.4698C306.61 12.4986 307.642 12.3259 308.176 12.4752C308.329 12.8279 307.239 12.4406 307.392 12.7806C307.402 13.1122 308.509 12.7074 308.539 13.0256C309.043 12.8694 310.471 12.3397 310.474 13.1056C309.131 13.0965 308.12 13.3068 306.958 13.2154C306.684 12.9176 306.271 12.7134 305.917 12.4564L305.897 12.4698Z" fill="black"/>
<path fill-rule="evenodd" clip-rule="evenodd" d="M309.19 12.367C309.352 12.362 309.515 12.3569 309.538 12.4328L309.542 12.5731L308.973 12.5908C309.052 12.5118 309.235 12.5061 309.19 12.367Z" fill="black"/>
<path fill-rule="evenodd" clip-rule="evenodd" d="M299.545 13.0258C300.091 12.9066 299.839 13.3102 299.907 13.5124C299.461 13.5774 299.573 13.2547 299.545 13.0258Z" fill="black"/>
<path fill-rule="evenodd" clip-rule="evenodd" d="M316.254 12.5039L316.702 12.4899C316.771 12.7559 316.551 12.8776 316.268 12.9375L316.254 12.5039Z" fill="black"/>
<path fill-rule="evenodd" clip-rule="evenodd" d="M267.95 14.4336L266.588 14.4762C266.615 14.054 267.858 14.0918 267.95 14.4336Z" fill="black"/>
<path fill-rule="evenodd" clip-rule="evenodd" d="M293.635 13.3508C293.978 13.2634 293.843 13.4975 293.867 13.6244L293.42 13.6383C293.27 13.4132 293.784 13.5759 293.635 13.3508Z" fill="black"/>
<path fill-rule="evenodd" clip-rule="evenodd" d="M358.316 11.3309L360.471 11.2636C360.457 11.4938 360.278 11.6143 359.913 11.6385C359.92 11.8808 360.386 11.8025 360.373 12.0582C359.662 12.0804 359.502 12.162 358.889 12.1045C359.057 11.6014 358.407 11.6472 358.296 11.3315L358.316 11.3309Z" fill="black"/>
<path fill-rule="evenodd" clip-rule="evenodd" d="M345.026 11.8866C345.189 11.8815 345.352 11.8764 345.374 11.9523L345.379 12.0926L344.809 12.1104C344.888 12.0313 345.071 12.0256 345.026 11.8866Z" fill="black"/>
<path fill-rule="evenodd" clip-rule="evenodd" d="M330.479 12.5579C330.484 12.7237 330.688 12.7556 330.614 12.9877C330.025 13.0062 329.319 13.2069 329.024 12.897C328.424 13.2221 327.437 12.8827 326.644 12.8947C327.354 12.1831 329.795 12.8218 330.499 12.5573L330.479 12.5579Z" fill="black"/>
<path fill-rule="evenodd" clip-rule="evenodd" d="M293.874 13.841L294.219 13.8302L294.228 14.1108C293.844 14.1994 293.859 14.0202 293.874 13.841Z" fill="black"/>
<path fill-rule="evenodd" clip-rule="evenodd" d="M299.891 13.6532C300.706 13.7043 301.323 13.9021 302.278 13.8595C302.346 14.0872 302.082 14.1209 302.171 14.3607L301.48 14.3823C301.365 13.9518 300.691 13.8835 299.879 13.9344L299.87 13.6538L299.891 13.6532Z" fill="black"/>
<path fill-rule="evenodd" clip-rule="evenodd" d="M315.705 13.1596C316.049 13.0978 315.855 13.3975 316.279 13.2821L316.29 13.6392C315.845 13.7169 315.998 13.4058 315.493 13.5237C315.322 13.2609 315.793 13.3738 315.705 13.1596Z" fill="black"/>
<path fill-rule="evenodd" clip-rule="evenodd" d="M321.503 13.1189C322.419 13.7925 324.075 12.745 324.369 13.6678C323.051 13.8238 322.411 13.5246 321.173 13.6271C320.979 13.2757 321.552 13.3855 321.503 13.1189Z" fill="black"/>
<path fill-rule="evenodd" clip-rule="evenodd" d="M227.383 16.5555C227.89 16.5014 228.178 16.6073 228.187 16.8878C227.799 16.8489 227.451 16.7959 227.383 16.5555Z" fill="black"/>
<path fill-rule="evenodd" clip-rule="evenodd" d="M169.414 18.519C169.785 18.6607 168.942 19.0317 168.732 18.8212C168.622 18.5693 169.176 18.7052 169.419 18.6593L169.414 18.519Z" fill="black"/>
<path fill-rule="evenodd" clip-rule="evenodd" d="M232.291 16.6959C231.891 16.9382 231.222 16.9974 230.708 16.822C230.887 16.6887 231.736 16.509 232.291 16.6959Z" fill="black"/>
<path fill-rule="evenodd" clip-rule="evenodd" d="M198.64 18.1041C197.463 18.2047 195.59 18.8249 195.216 17.9301C196.012 18.0074 198.236 17.5422 198.64 18.1041Z" fill="black"/>
<path fill-rule="evenodd" clip-rule="evenodd" d="M199.322 17.7895C199.688 17.7653 199.813 17.889 199.9 18.0523L199.331 18.07L199.322 17.7895Z" fill="black"/>
<path fill-rule="evenodd" clip-rule="evenodd" d="M291.628 14.9072C292.428 15.1248 293.807 14.9541 294.706 15.0919C294.794 15.3062 294.323 15.1933 294.494 15.456L291.424 15.5519C291.379 15.3873 291.233 15.2898 291.287 15.0583C291.511 15.0768 291.652 15.0341 291.628 14.9072Z" fill="black"/>
<path fill-rule="evenodd" clip-rule="evenodd" d="M71.782 22.2055C71.6636 22.3241 71.2551 22.273 71.2196 22.4401C71.01 22.2424 70.2622 22.4062 69.9526 22.2627C70.1467 21.963 71.513 22.0607 71.7617 22.2062L71.782 22.2055Z" fill="black"/>
<path fill-rule="evenodd" clip-rule="evenodd" d="M204.555 17.9197L205.124 17.9019C205.314 18.113 204.379 18.1422 204.555 17.9197Z" fill="black"/>
<path fill-rule="evenodd" clip-rule="evenodd" d="M248.794 16.7426C249.053 16.5685 249.809 16.6853 250.275 16.6197C250.016 16.7938 249.26 16.6769 248.794 16.7426Z" fill="black"/>
<path fill-rule="evenodd" clip-rule="evenodd" d="M228.67 17.3708C228.777 17.5462 229.203 17.5073 229.589 17.4825C229.677 17.6968 229.475 17.7414 229.48 17.92C228.812 18.0047 228.88 17.594 228.211 17.6787C228.019 17.3783 228.842 17.6718 228.65 17.3842L228.67 17.3708Z" fill="black"/>
<path fill-rule="evenodd" clip-rule="evenodd" d="M241.517 16.9697L242.309 16.945L242.314 17.0853L241.521 17.11L241.517 16.9697Z" fill="black"/>
<path fill-rule="evenodd" clip-rule="evenodd" d="M221.174 17.7578L224.365 17.6582C223.701 17.8959 221.7 18.3031 221.174 17.7578Z" fill="black"/>
<path fill-rule="evenodd" clip-rule="evenodd" d="M279.94 15.9231C281.001 16.0049 282.879 15.5505 283.242 16.1009C281.693 16.0343 280.726 16.3326 279.94 15.9231Z" fill="black"/>
<path fill-rule="evenodd" clip-rule="evenodd" d="M265.166 16.5247C265.613 16.4852 265.84 16.6058 265.869 16.8602C266.066 16.6498 266.221 16.4024 266.874 16.4714L266.885 16.8285C267.647 16.4728 270.389 16.3233 270.874 16.8444C270.516 17.1364 269.584 17.2549 268.951 17.1853C268.527 17.2879 268.96 17.4786 268.743 17.6897L266.934 17.7461C266.944 17.4267 266.297 17.5362 266.008 17.4176C266.589 17.1186 267.693 17.2756 268.389 17.4199C268.866 17.0475 267.948 16.9868 267.8 16.7999C267.424 17.1563 265.826 16.8105 265.43 17.1548C265.281 16.9424 264.911 16.8263 265.187 16.5241L265.166 16.5247ZM269.048 17.0418L269.618 17.024L269.609 16.7434L269.04 16.7612L269.048 17.0418Z" fill="black"/>
<path fill-rule="evenodd" clip-rule="evenodd" d="M102.95 22.0879C101.211 22.4486 98.5769 22.1351 96.2353 22.0806C98.097 21.7544 101.113 21.9027 102.95 22.0879Z" fill="black"/>
<path fill-rule="evenodd" clip-rule="evenodd" d="M306.212 15.3837C307.157 15.6733 308.267 15.4088 309.511 15.4977C308.717 16.1352 306.71 15.7 305.43 15.7655C305.297 15.4122 306.49 15.8218 306.212 15.3837Z" fill="black"/>
<path fill-rule="evenodd" clip-rule="evenodd" d="M282.81 16.6122C282.573 16.8493 282.575 16.9004 282.826 17.1096C282.582 17.1427 282.423 17.2498 282.387 17.4041C282.264 17.3569 282.26 17.2421 282.037 17.2746C281.971 17.1235 282.258 17.1656 282.254 17.0508C282.17 16.9768 281.987 16.9825 282.024 16.841C281.705 17.0552 280.805 16.9173 280.533 16.6705C281.298 16.404 281.715 16.723 282.81 16.5994L282.81 16.6122Z" fill="black"/>
<path fill-rule="evenodd" clip-rule="evenodd" d="M322.81 15.223L323.826 15.1913C323.832 15.3698 323.567 15.3781 323.489 15.4826C323.302 15.3608 322.857 15.4258 322.789 15.2236L322.81 15.223Z" fill="black"/>
<path fill-rule="evenodd" clip-rule="evenodd" d="M110.019 22.3651C109.168 22.4683 108.735 22.3031 108.084 22.2851C108.205 22.2558 109.887 22.0501 110.019 22.3651Z" fill="black"/>
<path fill-rule="evenodd" clip-rule="evenodd" d="M189.031 19.898C188.807 19.8795 188.343 20.0216 188.458 19.7755C188.721 19.7289 188.983 19.6442 189.031 19.898Z" fill="black"/>
<path fill-rule="evenodd" clip-rule="evenodd" d="M100.705 22.5157C102.214 22.6218 103.158 22.2476 104.007 22.6934C103.497 22.6583 103.256 22.7679 102.995 22.8655C102.577 22.5211 100.903 23.0074 100.704 22.5029L100.705 22.5157Z" fill="black"/>
<path fill-rule="evenodd" clip-rule="evenodd" d="M196.08 19.5371C196.793 19.5659 197.826 19.3933 198.359 19.5426C198.17 19.9826 196.233 19.8515 196.08 19.5371Z" fill="black"/>
<path fill-rule="evenodd" clip-rule="evenodd" d="M351.938 14.9516C351.35 15.0082 350.304 15.3856 350.125 14.8677C350.713 14.8111 351.759 14.4337 351.938 14.9516Z" fill="black"/>
<path fill-rule="evenodd" clip-rule="evenodd" d="M307.722 16.1919L308.515 16.1671L308.519 16.3074L307.726 16.3322L307.722 16.1919Z" fill="black"/>
<path fill-rule="evenodd" clip-rule="evenodd" d="M311.93 16.0605C312.236 16.0892 312.821 15.9433 312.949 16.1053L312.955 16.3221C312.447 16.338 312.119 16.2588 311.93 16.0732L311.93 16.0605Z" fill="black"/>
<path fill-rule="evenodd" clip-rule="evenodd" d="M313.17 16.0215L313.963 15.9967L313.967 16.137L313.174 16.1618L313.17 16.0215Z" fill="black"/>
<path fill-rule="evenodd" clip-rule="evenodd" d="M340.449 15.1699C340.534 15.2822 340.818 15.2605 340.803 15.4397L339.787 15.4714C339.614 15.1322 340.642 15.4958 340.469 15.1693L340.449 15.1699Z" fill="black"/>
<path fill-rule="evenodd" clip-rule="evenodd" d="M106.954 22.6012C106.781 22.9258 105.696 22.7043 105.149 22.798C105.322 22.4734 106.408 22.6949 106.954 22.6012Z" fill="black"/>
<path fill-rule="evenodd" clip-rule="evenodd" d="M318.398 15.9988L318.967 15.981C319.157 16.1921 318.222 16.2213 318.398 15.9988Z" fill="black"/>
<path fill-rule="evenodd" clip-rule="evenodd" d="M206.888 19.6338L207.68 19.609L207.685 19.7493L206.892 19.7741L206.888 19.6338Z" fill="black"/>
<path fill-rule="evenodd" clip-rule="evenodd" d="M364.125 14.9286C364.283 14.7577 364.917 14.8783 365.261 14.8165C365.063 14.9759 364.358 15.215 364.125 14.9286Z" fill="black"/>
<path fill-rule="evenodd" clip-rule="evenodd" d="M337.867 15.889L339.453 15.8394L339.461 16.12C338.627 16.1205 338.683 15.9656 337.977 16.1664C337.973 16.0388 337.83 16.0178 337.847 15.8896L337.867 15.889Z" fill="black"/>
<path fill-rule="evenodd" clip-rule="evenodd" d="M125.858 22.6618C126.751 22.5701 127.344 22.6793 128.018 22.7348C127.572 22.8126 125.972 23.054 125.858 22.6618Z" fill="black"/>
<path fill-rule="evenodd" clip-rule="evenodd" d="M343.665 15.8608L344.458 15.8361C344.487 16.116 343.733 16.0885 343.665 15.8608Z" fill="black"/>
<path fill-rule="evenodd" clip-rule="evenodd" d="M344.681 15.8291L345.474 15.8043L345.479 15.9446L344.686 15.9694L344.681 15.8291Z" fill="black"/>
<path fill-rule="evenodd" clip-rule="evenodd" d="M358.795 15.5927C358.686 16.0302 359.455 15.8785 359.266 16.3568C357.495 16.31 356.581 16.364 355.059 16.4882C355.208 16.0622 354.661 16.1303 354.592 15.8644C356.034 15.7938 357.684 15.8572 358.795 15.5927Z" fill="black"/>
<path fill-rule="evenodd" clip-rule="evenodd" d="M333.369 17.8164C333.797 17.8286 334.125 17.895 334.293 18.0684L333.378 18.097L333.369 17.8164Z" fill="black"/>
<path fill-rule="evenodd" clip-rule="evenodd" d="M373.336 18.6369C372.107 18.3561 369.766 18.9909 368.673 18.5016C370.313 18.2462 372.741 18.4512 373.883 17.9049C372.74 17.7746 371.118 17.9657 369.795 17.9559C370.332 17.5689 371.491 17.5455 372.049 17.1706L372.043 16.9538C370.185 16.7437 367.848 16.8677 365.552 16.9394C366.957 16.3466 368.397 16.8506 370.548 16.643C370.85 16.5442 370.761 16.3172 370.654 16.1418C368.02 16.5049 366.589 16.2687 364.17 16.3443C363.97 15.8271 362.416 16.2075 361.539 16.1456L361.528 15.7884C361.241 15.7336 360.556 15.9592 360.608 15.6767C361.869 15.6374 362.466 15.8613 363.328 15.4514L363.337 15.732L364.597 15.6926C364.939 15.5798 364.826 15.2131 365.501 15.3069C365.692 15.5818 365.2 15.4695 365.164 15.5983C365.565 16.0709 366.623 15.4123 367.666 15.5968C367.965 15.3704 368.139 15.0841 368.789 15.0638C368.765 14.9369 368.9 14.7029 368.557 14.7902C369.122 14.6321 370.183 14.7522 369.899 14.11C370.669 14.0221 371.295 13.8621 371.464 13.4228C371.338 13.2863 370.814 13.4303 370.767 13.2275C369.839 13.4863 368.334 13.5078 367.356 13.4745C367.051 13.4712 366.811 13.6319 366.669 13.6363C361.911 13.7338 356.056 13.9039 350.638 14.3539C348.164 13.9843 344.671 14.8339 342.446 14.6097C342.121 14.6199 342.127 14.8367 341.885 14.9081C341.202 14.5209 340.167 15.2554 339.503 14.8421C338.315 15.2366 335.801 14.881 334.737 15.3483C334.431 15.3323 334.405 15.1417 334.279 15.0052C333.669 15.0242 332.976 14.9948 332.698 15.195C332.822 15.2804 333.027 15.3124 332.932 15.5451C330.233 15.1187 326.631 15.7419 324.151 15.181C325.942 15.1889 326.753 15.0997 328.368 15.3302C328.75 15.1778 328.217 15.054 328.232 14.9003C326.133 14.7999 324.028 15.1465 322.209 14.8714C320.981 15.2927 319.73 14.336 318.444 14.8485C317.363 14.7801 315.725 14.4483 314.679 14.8257C314.901 15.4315 316.977 14.7794 317.538 15.1704C317.981 15.0034 318.631 14.9704 319.343 14.9736C319.58 15.3875 318.926 15.2931 318.789 15.4888C316.34 15.2334 314.101 15.8523 311.627 15.4954C311.478 15.2703 311.992 15.433 311.842 15.2079C312.108 15.2506 312.525 15.5695 312.863 15.3164C312.511 15.1359 311.733 14.9815 311.375 15.2225C311.428 14.9655 311.023 15.0292 311.016 14.7996C309.342 15.2859 307.065 14.6804 305.572 15.11C304.485 14.8248 303.231 15.081 301.807 15.0871C301.484 15.1738 301.535 15.4786 301.13 15.5424C301.122 15.3 300.657 15.3784 300.669 15.1227C298.999 15.0854 297.705 15.3301 296.231 15.0442C296.384 14.7203 297.944 14.5184 298.04 14.9877C299.448 14.4714 301.929 15.0706 303.158 14.6875C304.427 14.9287 305.788 14.8607 307.142 14.5631C308.391 14.7922 310.336 14.5527 311.924 14.5542C312.021 14.4235 312.347 14.4261 312.258 14.1863C312.994 14.291 313.025 13.9836 313.388 13.8702C313.519 14.1597 313.277 14.2311 313.056 14.3146C313.284 14.4734 313.752 14.4716 313.981 14.6432C314.203 14.5597 314.445 14.4883 314.666 14.4048C314.857 14.0158 313.932 14.3639 314.083 13.9889C314.185 13.9857 314.162 13.8971 314.201 13.8448C315.101 13.9954 316.299 13.9325 317.279 14.0296C317.375 14.5117 319.061 14.408 319.562 14.1753C319.566 14.3028 319.709 14.3239 319.693 14.4521C320.323 14.4324 321.077 14.4727 321.396 14.2585C321.351 14.1067 321.185 14.0097 320.94 13.9918C323.616 13.6657 325.843 14.6175 328.678 14.1843C328.831 13.8859 328.427 13.9623 328.441 13.7576C329.117 13.2514 329.865 13.7515 330.819 13.6834C330.91 13.9742 330.772 14.1317 330.489 14.1916C330.452 14.3076 330.595 14.3159 330.618 14.4046C330.888 14.6004 331.451 14.3785 331.632 14.2963C332.848 14.8073 333.845 14.1506 335.157 14.4671C335.401 14.4595 335.188 14.1597 335.266 14.0296C335.887 14.3805 336.365 14.0591 336.982 14.2569C337.285 14.1964 337.195 13.9056 337.54 13.882C337.946 13.8438 337.694 14.2602 337.901 14.3686L338.592 14.3471C338.836 14.3395 338.623 14.0397 338.701 13.9096C339.915 13.7185 339.895 14.3702 340.772 14.4194C342.717 14.1544 345.889 14.0937 347.593 13.9256C347.861 14.0321 348.208 14.0851 348.735 14.0303C348.893 13.8722 349.237 13.8104 349.291 13.5789L350.653 13.5364C351.183 14.222 352.463 13.5182 353.153 13.4583C353.478 13.4354 353.93 13.5873 354.296 13.5631C354.865 13.5326 355.363 13.2106 355.78 13.5168C356.148 13.5691 355.935 13.2821 356.22 13.286C357.743 13.1874 359.26 12.8974 360.313 13.3752C362.403 13.1951 364.763 13.1852 366.562 12.8226C367.667 13.0179 368.717 12.7553 369.844 12.3627C369.908 12.4628 369.714 12.737 369.977 12.716C370.603 12.5433 371.166 12.3342 371.667 12.0887C371.821 11.8158 371.358 11.958 371.432 11.7386C370.811 12.0389 370.535 11.6773 369.623 11.7951C369.322 11.9322 369.228 12.1777 368.844 12.2535C368.125 12.0334 367.625 11.666 367.006 11.3789C368.4 11.0673 370.342 12.0152 371.335 11.2437C371.008 11.1774 370.64 11.125 370.312 11.0587C370.303 10.7653 370.834 10.8126 371.094 10.6768C370.047 10.3776 367.984 10.7739 367.216 10.3C367.244 9.89058 368.143 10.0029 368.793 9.96988C368.828 9.80281 368.585 9.82318 368.66 9.61657C368.227 9.43859 366.884 9.42947 366.609 9.7572C366.278 9.57605 365.727 9.52942 365.017 9.58989C365.072 8.74559 366.734 9.17883 367.508 9.23123C367.73 9.16048 367.744 8.95578 367.716 8.72685L368.631 8.69828L368.622 8.4177C366.34 8.29747 363.6 8.52345 361.573 8.77823C361.329 8.78585 361.542 9.0856 361.465 9.21568C362.567 9.33445 363.181 9.4302 363.967 9.21413C363.813 9.48705 364.476 9.21102 364.322 9.48393C362.867 9.82297 360.584 9.67724 358.881 9.87085C358.652 9.72479 358.424 9.59147 358.296 9.39122C359.044 9.22744 360.417 9.54203 360.912 9.09252C359.8 8.69316 357.228 9.06711 355.22 9.27024C355.127 9.554 355.612 9.43674 355.459 9.76067C354.978 9.97996 353.874 9.81018 353.889 10.3076C353.641 10.1749 353.154 10.2156 352.966 10.0556C351.774 10.3353 350.363 10.1113 348.88 10.1831C347.864 10.2404 347.372 10.7664 346.174 10.8421C346.108 10.691 346.394 10.7331 346.391 10.6183C345.896 10.4295 345.401 10.8407 345.037 10.9414C345.041 11.069 345.185 11.09 345.168 11.2182C346.738 10.6713 350.136 11.3312 351.075 10.7529C351.86 11.1497 353.563 10.2795 354.153 10.9377C352.184 11.1013 350.418 11.233 347.899 11.35C347.863 11.517 347.413 11.429 347.46 11.6445C345.001 11.7341 342.662 11.7561 340.622 11.5772C340.361 11.6875 340.016 11.7365 339.838 11.8825C338.708 11.5476 336.582 11.8821 335.492 11.5203C335.607 11.2742 336.261 11.3687 336.044 10.9286C335.674 10.8125 335.164 10.7901 334.894 10.6071C335.48 10.4739 336.315 10.4989 336.363 10.0633C336.934 10.1221 337.306 10.302 337.738 10.4544C338.051 10.0361 338.527 10.3021 338.868 10.1383C339.161 10.3972 340.635 10.7087 341.027 10.2113C341.973 10.5392 343.165 9.63387 344.32 10.1085C344.686 10.0971 344.678 9.85474 344.878 9.7336C345.779 9.9225 345.897 9.8039 346.601 10.1777C346.967 10.179 347.085 10.0477 347.161 9.87934C348.301 9.89481 348.806 9.77691 349.32 9.95235C349.519 9.80571 349.615 9.61123 349.752 9.44098C350.753 10.2395 352.543 9.54533 353.752 9.81398C353.928 9.60421 354.561 9.67381 354.655 9.42831C354.79 9.19429 354.288 9.38872 354.423 9.1547C353.913 9.11955 353.672 9.2292 353.411 9.32673C352.533 9.22648 350.735 9.00175 349.991 9.29307C347.451 9.37241 343.048 9.13964 339.762 9.47203C339.452 9.303 338.923 9.3195 338.624 9.50758C336.618 9.12339 333.077 9.75738 331.336 9.37769C331.178 9.54857 330.71 9.52491 330.656 9.75639C329.489 9.53748 328.183 9.42506 326.559 9.52685C326.506 9.79659 326.912 9.77114 327.139 9.86619C327.126 10.1092 326.554 10.0376 326.584 10.3176C326.854 10.5134 327.943 10.1858 328.074 10.4881C328.21 10.2796 328.844 10.3747 328.856 10.1062C329.555 10.3397 329.948 9.89339 330.446 10.197C330.851 10.1333 330.571 9.65689 331.225 9.73861C331.397 10.0269 330.988 9.9758 331.015 10.1792C331.06 10.331 331.585 10.187 331.81 10.231C331.964 9.95809 331.501 10.1002 331.575 9.88087C331.779 9.90003 331.797 9.82287 331.795 9.73359C332.372 9.9709 332.969 10.2076 334.085 10.0961C334.314 10.2677 333.992 10.3799 334.222 10.5897C334.591 10.6676 334.296 10.3576 334.665 10.4355C334.588 11.2294 331.9 10.4963 331.616 11.169C331.219 10.8495 330.83 11.4106 330.473 11.0643C330.539 11.2154 330.252 11.1733 330.256 11.2881C331.176 11.4253 332.315 11.4153 333.115 11.6329C332.946 12.0722 332.162 11.7137 331.534 11.8227C331.29 11.8303 331.481 12.0796 331.423 12.1836C331.08 12.2581 330.26 12.0667 330.289 12.3594C329.979 12.1904 329.572 12.2031 329.273 12.3912C328.93 12.4785 329.065 12.2445 329.041 12.1175C328.326 12.025 328.315 12.3445 327.683 12.3004L327.672 11.9433L328.688 11.9115C328.538 11.6481 328.148 11.5454 327.758 11.4427C328.05 11.025 328.736 11.4887 329.242 11.3963C329.173 11.1304 328.645 11.1597 328.655 10.8402C326.368 11.2435 324.13 10.5985 321.945 10.9731C321.794 11.3481 322.3 11.2684 322.188 11.6038C321.721 11.6184 321.533 11.4711 321.165 11.4187C321.157 11.1764 321.337 11.0559 321.723 11.0439C320.652 10.6177 319.699 10.7241 318.651 11.0632C318.541 10.7985 317.754 10.9891 317.723 10.6581C316.107 11.0532 313.979 10.6474 312.605 10.9583C312.16 11.0361 312.313 10.7249 311.808 10.8428C311.556 11.2592 312.321 10.98 312.268 11.2625C311.881 11.2235 311.721 11.3179 311.83 11.557C312.584 11.6101 313.41 11.3417 313.987 11.5663C314.373 11.5542 314.262 11.264 314.669 11.2641C315.038 11.3547 315.089 11.6595 315.816 11.5092C316.017 11.4135 316.031 11.2216 316.253 11.1381C316.558 11.1541 316.585 11.3447 316.711 11.4812C317.147 11.1229 317.895 11.5975 318.305 11.7123C317.882 11.8404 318.138 12.2154 318.544 12.2027C317.9 12.4271 316.898 12.2541 316.166 12.277C315.779 12.2635 316.055 12.6379 315.482 12.5154C315.518 12.3866 315.396 12.3776 315.254 12.3821C315.35 12.2131 315.716 12.1889 315.936 12.0799C315.81 11.9689 315.406 12.0454 315.36 11.8809C314.992 11.8158 315.079 12.0045 314.917 12.0351C313.764 11.5988 311.564 12.1654 309.79 12.0548C309.387 12.1823 309.722 11.8144 309.438 11.8487C308.967 11.7613 309.077 12.0132 308.751 12.0106C308.841 11.6121 307.914 11.8963 308.162 11.3907C308.81 11.2683 308.62 11.7211 309.307 11.572C309.571 11.5382 309.337 11.2136 309.414 11.0708C306.926 10.8804 305.572 11.1907 303.268 11.0456L303.255 10.612C304.187 10.4935 304.661 10.683 305.414 10.685C305.72 10.7265 305.322 10.3559 305.629 10.3974C306.37 10.6679 308.187 10.2409 308.59 10.739C308.789 10.6179 309.03 10.521 308.92 10.2308C309.594 10.3374 309.486 10.1365 310.054 10.055C310.382 10.1596 311.491 10.4825 311.535 9.93213C309.659 9.78646 306.645 9.70184 304.703 10.0689C302.907 9.90791 300.505 9.85526 298.435 10.0475C298.145 9.87787 297.026 9.87452 296.603 10.0281C296.94 10.3879 298.493 9.93085 298.988 10.1707C299.122 10.5495 297.695 10.4536 297.629 10.2898C297.386 10.3229 297.226 10.43 297.19 10.5843C298.13 10.7082 298.97 10.899 299.831 11.0764C299.477 11.4832 298.322 10.9958 297.782 11.2808C297.892 11.5454 297.613 11.7456 297.8 11.8547C298.805 12.1297 300.104 11.3487 300.433 12.1299C299.39 11.9582 298.129 12.6104 297.928 12.0677C297.54 12.0032 297.752 12.2902 297.716 12.4318C296.356 12.5508 294.285 12.0155 294.443 13.1723C294.137 13.1436 293.551 13.2895 293.424 13.1275C293.54 12.9324 293.885 12.8834 294.208 12.8222C294.157 12.4919 293.787 12.3757 293.497 12.2061C293.026 12.1186 293.136 12.3705 292.81 12.3679C292.48 12.1995 291.91 12.1918 291.998 11.755C292.543 11.6358 292.471 11.919 292.917 11.8667C293.338 11.6748 292.665 11.6065 292.779 11.3731C292.477 11.4592 291.91 11.5407 291.761 11.3283C291.588 11.0018 292.285 11.1715 292.319 10.9535C292.344 10.4548 291.89 10.2647 292.166 9.96245C291.553 9.89221 291.706 10.2449 291.26 10.2716C291.069 10.035 290.699 9.91887 290.449 9.72242C291.398 9.50128 293.177 9.77766 293.733 9.33901C292.302 9.10285 291.112 8.80806 289.639 9.186C289.329 9.02972 287.841 8.96126 287.586 9.2501C287.4 9.17929 287.295 9.05492 287.13 8.98348C286.209 9.48457 284.661 8.77969 283.841 9.2266C283.892 9.55693 284.521 9.49899 284.771 9.69544C285.637 9.40031 288.376 9.78716 289.65 9.54311C289.76 9.80777 290.568 9.61658 290.458 10.0158C289.45 10.3281 287.635 10.1933 286.255 10.2874C286.18 10.5068 286.644 10.3647 286.489 10.6376C287.079 10.6192 287.708 10.5485 287.858 10.8119C288.029 11.0746 287.35 10.8405 287.521 11.1032C287.548 11.3194 288.014 11.2538 288.102 11.4426C287.728 11.85 287.638 11.572 286.742 11.5616C285.989 11.5469 285.159 11.7004 284.689 11.6257C284.403 11.5836 284.072 11.4152 283.424 11.5248C283.333 11.8468 283.899 11.7398 283.887 12.0082C284.668 11.6136 285.57 12.4664 286.737 12.0597C286.926 12.2453 287.215 12.3767 287.105 12.7631C286.84 12.7459 286.675 12.6617 286.31 12.7113C286.304 12.5073 285.919 12.5831 286.073 12.2847C285.686 12.2712 285.9 12.5965 285.741 12.7291C285.472 12.5971 285.024 12.5855 284.476 12.6282C284.325 13.0031 284.831 12.9235 284.72 13.2589C284.257 13.4265 283.884 13.2211 283.236 13.3052C283.32 13.3792 283.502 13.3735 283.466 13.5151L282.897 13.5328C283.236 13.3052 282.802 13.1017 282.312 13.0532C282.068 13.0608 282.281 13.3606 282.204 13.4906C282.693 13.5264 283.023 13.6693 283.134 13.9595C283.583 14.0093 283.411 13.7083 283.923 13.7944C284.051 13.9947 284.054 14.084 283.938 14.2918C283.289 14.3632 282.564 13.9518 282.129 14.3483C280.987 14.2563 280.801 13.5344 280.377 12.9732C280.663 13.0281 280.811 13.1767 281.296 13.0849C281.309 12.8547 281.103 12.7846 280.838 12.7418C281.295 12.3956 280.619 12.2507 281.035 11.8803C279.803 11.523 278.517 11.3972 276.94 11.7273C277.254 11.9983 277.926 12.0412 278.22 12.3256C277.813 12.3128 277.488 12.3485 277.206 12.4339C277.074 12.7699 277.6 12.6641 277.448 13.0008C276.774 12.9197 276.518 12.5575 276.163 12.2494C275.656 12.3163 275.409 12.2219 275.142 12.1409C274.493 12.1994 275.218 12.6236 274.588 12.6561C274.181 11.9921 275.739 11.701 276.057 12.1123C276.423 12.1136 276.541 11.9823 276.617 11.814C276.612 11.6609 276.129 11.8037 275.924 11.759C275.557 11.0938 274.759 11.6039 273.977 11.3219L273.963 10.8883C274.41 10.8488 274.399 11.1555 274.655 10.8667C275.041 10.8546 274.948 11.1511 275.354 11.1257C275.696 11.0001 275.914 10.8018 276.36 10.7368C274.976 10.0907 272.038 10.476 269.977 10.2978C269.799 10.4566 269.952 10.7965 269.297 10.6765C269.438 11.2849 270.955 10.9694 271.474 11.3234C271.645 11.5862 270.967 11.3521 271.138 11.6148C270.664 11.4381 270.034 11.445 269.426 11.5278C269.428 11.6171 269.409 11.656 269.308 11.6719C269.553 12.3537 271.313 12.0179 272.515 12.0697C272.688 12.3835 272.197 12.2967 272.307 12.5741C271.697 12.5804 271.206 12.4936 270.495 12.5541C270.252 12.5872 270.466 12.9124 270.389 13.0553C270.102 13.0004 269.418 13.226 269.47 12.9435C269.21 13.0793 269.156 13.3236 268.564 13.2527C268.508 13.4204 268.723 13.7712 268.46 13.8304C267.367 13.3667 267.68 12.3228 266.686 11.7411C267.05 11.6914 267.255 11.7488 267.381 11.8598C268.146 10.9295 264.569 11.7306 263.844 11.3319C263.306 11.6934 262.806 11.3005 262.035 11.3884C261.924 11.0855 262.352 11.0976 262.365 10.8802C262.359 10.6761 262.015 10.7252 262.009 10.5339C261.039 10.7429 258.606 10.372 258.16 11.0881C259.042 11.3031 260.979 10.7958 261.243 11.4259C261.04 11.445 260.671 11.3671 260.8 11.5801C259.979 11.3505 257.906 11.4279 257.39 11.8271C257.001 11.7754 256.872 11.5368 256.583 11.4182C255.472 11.6699 254.954 11.3542 253.071 11.6683C253.053 12.3838 255.127 11.6935 255.368 12.2349C254.749 12.6117 254.028 12.3406 253.567 12.572C253.157 12.4571 252.965 12.195 252.197 12.3339C252.024 12.684 252.53 12.5916 252.558 12.8205C251.968 12.8389 251.538 12.7375 251.526 12.3549C251.018 12.3707 250.695 12.4702 250.518 12.6672C250.138 12.2195 248.682 12.4947 248.122 12.1675C248.526 12.0783 249.49 12.3163 249.375 11.9113C249.568 12.199 250.704 12.1124 250.961 11.8618C251.355 12.0921 252.306 11.9347 253.018 11.938C253.172 11.6396 252.767 11.7161 252.781 11.5114C250.792 11.6756 248.586 11.3743 247.338 11.8218C247.226 12.1444 248.17 11.7575 247.918 12.1611C246.528 12.5875 245.497 11.509 243.573 11.7989C243.298 12.1139 243.52 12.707 243.73 12.9302C243.118 12.86 242.246 12.9638 242.45 12.3318L243.243 12.3071L243.234 12.0265C243.15 11.9398 242.111 11.8829 242.22 12.1348C241.911 12.0167 241.822 11.7642 241.514 11.6589C241.335 11.8049 240.763 11.7334 240.834 12.0376C239.814 11.9546 239.478 12.2715 238.561 12.249L238.553 11.9684C238.123 11.8797 238.335 12.1667 237.988 12.1265C238.142 11.8536 237.679 11.9957 237.753 11.7764C237.789 11.622 237.948 11.5149 238.192 11.4818C238.537 11.471 238.544 11.6878 238.551 11.9047L239.567 11.8729C239.78 11.5216 239.175 11.6937 239.208 11.4501C239.652 11.3468 239.439 11.6727 239.903 11.5688C240.065 11.5382 239.999 11.3871 240.017 11.2844C239.28 11.1542 238.583 10.9845 237.846 10.8543C237.396 10.7534 237.815 11.1616 237.51 11.1456C237.144 11.1698 237.018 11.0461 236.932 10.8828L235.448 10.9292C234.718 11.6541 233.078 11.2713 232.033 11.0358C231.603 10.9471 231.815 11.2341 231.468 11.1939C230.339 10.8844 228.023 11.6334 226.687 11.2027C226.465 11.2862 226.224 11.3576 226.002 11.4411C226.018 11.9385 227.026 11.639 227.265 11.4783C227.192 11.7614 227.937 11.5084 227.845 11.8176C228.038 12.1308 227.092 11.8029 227.285 12.116C227.99 12.5408 229.679 11.888 229.923 12.5315C228.841 12.4376 228.183 12.8539 227.544 12.6058C227.262 12.6784 227.103 12.8111 226.862 12.9079C226.946 12.9819 227.129 12.9762 227.092 13.1178C227.699 12.9967 228.53 12.8814 229.145 13.0537C227.611 13.4335 226.197 13.7585 224.278 13.5631C224.185 13.8469 224.471 13.8635 224.637 13.986C225.259 13.6857 225.475 14.0875 226.347 14.0092C226.479 14.3115 226.237 14.4084 226.141 14.5901C225.141 14.4809 224.599 14.0638 223.18 14.2485L223.162 13.6746C221.81 13.3593 219.952 13.8259 218.381 13.6834C218.431 13.9627 217.714 13.8064 217.701 14.0621C216.714 13.7355 216.092 14.0102 214.969 13.8666L214.957 13.5095C214.472 13.614 214.446 13.4105 214.16 13.3939C213.969 13.119 214.647 13.3532 214.601 13.1631C213.612 12.7855 210.766 12.8743 209.693 13.0355C206.937 12.7513 204.422 13.0086 202.405 12.9056C202.258 13.4336 202.93 13.4254 203.681 13.3637C203.848 13.5244 203.936 13.7259 204.143 13.8471C204.745 13.5603 204.897 13.8747 205.729 13.7976C205.878 14.0228 205.365 13.8601 205.514 14.0852C204.575 13.9741 204.046 14.0034 203.461 14.1493C203.113 14.0708 203.143 13.7379 202.874 13.5931C202.505 13.5153 202.8 13.8252 202.431 13.7474C202.032 13.3386 202.031 12.6492 200.595 12.9494L200.602 13.1662C200.73 13.3537 201.077 13.3812 201.404 13.422C201.395 13.8053 200.938 13.4876 200.618 13.6636C200.625 13.9059 201.091 13.8275 201.078 14.0833C200.382 13.939 200.323 14.0175 199.822 14.2629C199.798 14.136 199.933 13.902 199.59 13.9893C198.996 13.8547 199.5 14.3496 199.03 14.2877C198.693 13.928 197.957 13.836 197.203 13.7702C197.845 13.4948 196.668 13.6082 196.74 13.2868C197.003 13.2403 197.265 13.1682 197.652 13.1817C197.74 12.7321 196.951 12.8717 197.178 12.3411C196.156 12.1688 194.426 12.1717 193.192 12.389C191.337 12.281 189.112 12.0568 187.62 12.4864C188.298 12.7078 189.296 12.7277 190.253 12.7616C190.496 12.7285 190.346 12.4906 190.59 12.4703C192.359 12.4278 193.509 12.7876 195.378 12.6782C194.93 13.305 193.084 12.8392 192.309 12.7741C192.17 12.8933 191.866 12.9411 191.976 13.2185L191.184 13.2432C191.465 13.7834 192.622 13.0324 192.78 13.5508C192.728 13.8206 191.909 13.6547 191.773 13.8632C191.091 13.5398 189.732 13.6843 188.812 13.5216C188.227 13.7058 189.072 14.0369 188.832 14.1593C188.697 14.406 188.32 14.0476 187.693 14.1948C187.913 13.4092 186.638 13.6405 185.862 13.5371C185.753 13.3107 185.955 13.2661 186.074 13.173C185.863 12.9115 185.232 12.9184 185.259 12.4835C183.753 12.454 182.884 12.647 181.4 12.6806C181.522 13.3534 183.618 12.688 184.04 13.1727C184.48 12.9291 185.21 12.868 185.526 13.2029C185.697 13.4656 185.225 13.3527 185.314 13.567C185.647 13.8246 186.12 13.9886 186.813 14.018C186.74 14.2757 185.644 14.3865 185.453 14.1371C185.273 14.2193 185.175 14.35 185.015 14.4316C184.489 14.5374 184.621 14.2014 184.096 14.3199L184.076 13.6822L185.092 13.6505C184.673 13.2678 183.279 13.5667 182.581 13.3714C182.275 13.3554 182.695 13.7636 182.244 13.6628C182.68 13.9428 183.07 14.0328 183.735 13.8333C184.013 14.2587 183.109 13.9805 183.303 14.3447C183.05 14.0589 182.079 14.2424 182.047 14.5243C181.315 14.5344 180.901 14.3175 180.229 14.3002C180.132 14.4309 179.806 14.4283 179.895 14.6681C180.591 14.7996 181.246 14.9196 181.95 14.6805C182.001 15.0109 181.12 14.8086 181.047 15.0662C179.72 14.9161 178.489 15.2737 176.71 14.9846L176.697 14.5509C176.311 14.563 176.421 14.8532 176.014 14.8531C176.009 14.6873 175.805 14.6554 175.879 14.4233C176.018 14.3168 176.364 14.3315 176.669 14.322C176.475 13.9706 175.823 13.9271 175.628 13.563C174.976 14.1961 173.531 13.5136 172.568 13.9394C172.692 14.0249 172.897 14.0568 172.802 14.2896C172.257 14.4087 172.329 14.1256 171.883 14.1778C171.763 14.2454 171.664 14.3251 171.544 14.4054C171.938 14.6357 173.308 14.1972 173.362 14.6295C172.222 14.5885 171.354 14.8199 170.74 14.7114C170.617 15.328 172.068 14.887 172.244 15.3028C170.494 15.3063 169.784 15.3796 168.151 15.2135C168.305 14.9151 167.9 14.9916 167.914 14.7869C168.253 14.572 168.509 14.2959 169.387 14.3834C168.439 14.0045 166.614 14.2147 165.048 14.238C164.805 14.2712 165.019 14.5964 164.942 14.7392C165.862 14.8892 167.328 14.269 167.329 14.9456C166.289 14.8632 165.091 14.9516 163.812 15.0554C163.532 15.8429 160.962 15.655 159.839 15.5369C159.804 15.0529 158.931 15.1184 158.796 14.7141L157.78 14.7458C157.776 14.6183 157.633 14.5972 157.649 14.4691C157.281 14.3912 157.575 14.7012 157.206 14.6233C156.116 14.2233 154.69 14.8296 153.8 15.0105C153.336 15.1272 153.43 14.8689 153.105 14.8918C152.984 14.9467 152.988 15.0614 152.764 15.0429C152.852 15.27 153.729 15.3447 153.904 15.0839C154.091 15.2057 154.537 15.1407 154.604 15.3429C153.574 15.5793 152.191 15.6097 150.974 15.7371C151.345 15.8787 151.821 16.1192 151.342 16.4405C150.377 16.1643 148.755 16.3426 147.351 16.3481C147.363 16.0669 146.797 16.1867 146.769 15.9323C146.208 16.2179 145.543 16.4301 144.505 16.437L144.492 16.0034L145.854 15.9608C145.928 15.7415 145.644 15.7631 145.718 15.531C145.35 15.4531 145.161 15.2803 144.573 15.3497C144.395 15.4957 144.424 15.7757 144.018 15.8011C144.542 16.3082 143.005 16.5987 141.885 16.5826C141.955 16.8613 142.383 16.8863 142.91 16.8315C143.06 17.0566 142.546 16.8939 142.696 17.1191C141.896 16.927 140.459 17.1761 139.839 16.8508C139.726 16.4969 140.173 16.4829 140.392 16.3356C140.282 16.071 139.853 16.0205 140.022 15.5557C139.748 15.2451 138.319 15.1109 138.545 15.8188C138.36 15.748 138.254 15.6236 138.089 15.5522C137.738 16.0483 136.165 15.8293 135.15 15.9248L135.159 16.2054C135.286 16.3674 135.871 16.2087 136.178 16.2502C136.248 16.5416 135.303 16.252 135.622 16.7016C135.195 16.7149 135.327 16.3661 134.821 16.4458L134.805 15.9484C134.077 16.086 133.141 16.0897 132.537 16.3C131.812 15.8886 129.772 16.3609 129.226 15.8289C128.546 16.1949 129.066 16.5489 128.69 16.918C128.034 16.7343 128.529 16.2975 128.537 15.927C127.213 15.8535 125.16 15.9304 123.982 15.9927C123.951 16.3128 124.617 16.1388 124.686 16.4047C124.441 16.3741 123.897 16.5443 123.991 16.286C123.997 16.4901 123.362 16.344 123.431 16.5844C123.12 16.4154 122.713 16.428 122.414 16.6161C122.704 16.7603 122.714 17.1046 122.884 17.3164C122.27 17.2206 121.577 17.1657 121.043 17.0164C121.758 16.4579 120.412 16.3595 120.316 15.9029C120.603 15.9578 120.75 16.1064 121.236 16.0146C121.094 15.3807 120.454 15.0815 119.275 15.1439C119.1 15.3919 118.925 15.6399 118.604 15.8031C117.269 15.398 115.906 16.0534 114.751 16.2043C114.856 16.3032 115.14 16.2815 115.205 16.4072C115.635 16.4959 115.422 16.2089 115.77 16.2491C115.775 16.4149 115.979 16.4468 115.905 16.6789C117.287 16.623 117.553 17.3169 118.656 17.4484C120.344 17.4212 121.773 17.5936 123.441 17.5798C124.586 17.7356 126.208 18.2211 127.312 17.7398C127.486 17.428 126.682 17.7723 126.856 17.4732L127.08 17.4662L127.075 17.3259C127.419 17.2386 127.284 17.4726 127.308 17.5995C128.242 17.5576 128.938 17.6763 129.932 17.5942C129.416 17.355 129.319 16.8473 129.102 16.4073L131.155 16.3432L131.17 16.8406C131.744 16.9504 132.064 16.7744 132.756 16.7911C132.842 16.9544 132.57 17.3586 132.995 17.2815C133.065 17.5602 132.368 17.3905 132.561 17.7291C135.526 18.1855 139.737 17.5051 142.479 17.994C143.322 17.6357 144.775 17.8967 145.553 18.0384C146.904 17.6515 148.117 18.0605 149.532 17.7737C149.641 17.349 148.734 17.6327 148.724 17.3011L149.415 17.2795C149.28 16.8624 148.448 16.9267 147.924 17.109C147.673 17.5381 148.738 17.0964 148.627 17.4445C147.923 17.7091 147.705 17.2435 146.915 17.3575C146.82 16.9392 147.31 16.975 146.895 16.7198C147.138 16.6867 147.297 16.5796 147.333 16.4253C148.414 16.4937 149.017 16.8962 150.416 16.7631C150.529 17.1043 149.875 17.0098 149.987 17.351C149.959 17.7604 150.948 17.4869 151.139 17.7491C151.899 17.3296 153.465 17.9573 154.651 17.499C155.111 17.8804 156.267 17.1166 156.81 17.572C158.444 17.1252 160.418 17.7657 162.376 17.2578C163.24 17.5882 165.098 17.1345 165.673 17.2953C165.916 17.2621 166.075 17.155 166.111 17.0007C168.129 17.1037 170.294 16.7169 172.259 17.0896C172.309 16.7433 173.583 17.1249 173.612 16.7665C174.254 17.1167 174.911 16.6493 175.767 16.6992C176.052 16.7031 175.291 16.4587 175.756 16.3421C176.139 16.2535 175.945 16.5532 175.99 16.6922C177.063 16.5055 177.91 16.9259 178.491 16.6142C178.869 17.0109 180.743 16.4162 181.122 16.8129C181.417 16.4973 182.769 16.7997 183.044 16.472C183.871 16.893 184.832 16.3779 185.675 16.6707C185.752 16.5406 186.017 16.5451 186.115 16.4399C185.593 15.9966 183.814 16.3841 183.252 15.9548C184.325 15.7937 186.68 15.6308 186.91 16.4789C189.555 16.4602 190.388 16.4342 192.484 16.4453C192.66 16.1973 193.125 16.1189 193.383 15.9193C194.065 16.2428 195.623 15.9771 196.464 16.1806C196.534 15.821 195.847 15.9701 195.997 15.5569C196.808 15.4677 197.002 15.8064 197.713 15.7841C197.842 16.0099 197.536 15.9684 197.498 16.0717C197.831 16.3166 199.054 16.3806 199.314 16.232C200.62 16.3445 202.242 16.1662 203.872 16.2302C204.626 16.2577 205.304 16.4791 206.038 16.52C207.627 16.598 209.398 16.6193 210.343 16.2451C211.178 16.2956 212.493 16.0248 212.969 16.3036C213.338 16.3814 213.043 16.0715 213.412 16.1493C214.498 16.3963 216.341 16.1217 217.288 16.4623C217.623 16.1327 219.119 16.4562 219.434 16.1145C219.701 16.2083 220.048 16.2357 220.235 16.3703C220.478 16.3372 220.638 16.2301 220.674 16.0758C221.323 16.0044 222.262 16.1155 222.724 15.9351C222.145 15.6213 221.286 15.4949 221.325 14.766C221.467 14.7616 221.43 14.8904 221.453 14.979C221.845 15.1328 222.694 14.9658 223.265 14.9991C223.22 14.8728 223.342 14.8562 223.484 14.8518C223.293 14.5897 223.298 14.7682 223.473 14.4947C224.07 14.7314 224.894 14.3992 224.972 14.9458C224.663 14.815 224.135 14.8315 223.825 14.7007C223.619 15.2561 225.057 15.058 225.765 14.921C226.019 15.2322 225.705 15.6123 225.916 15.8482C226.228 16.0555 227.356 15.7011 227.508 16.0155C229.852 15.4955 232.223 15.83 234.086 15.5293C234.509 15.414 234.315 15.7136 234.659 15.6518C235.861 15.0526 238.977 15.7851 239.868 14.9913C240.414 15.5487 241.824 15.0834 242.729 15.3999C243.074 15.3508 243.189 15.1429 243.409 15.0212C246.213 15.5464 250.018 14.8914 253.421 15.066C254.908 15.1089 257.222 14.9473 259 15.1727C259.323 15.086 259.272 14.7684 259.553 14.6575C259.942 14.7092 260.091 14.9343 260.26 15.1333L260.606 15.1225C260.85 15.1149 260.659 14.8655 260.716 14.7616C260.689 14.5199 259.863 14.7883 259.915 14.5058C260.854 14.6041 261.134 14.4549 261.728 14.5896C261.364 14.652 261.331 14.8829 261.52 15.094C261.525 15.247 262.009 15.1042 262.214 15.1489L262.227 15.5825L262.797 15.5648C262.789 15.3225 262.323 15.4008 262.336 15.1451C263.04 14.9061 264.781 15.273 264.947 14.7061C265.182 15.069 266.406 15.184 266.532 14.6566C267.961 14.7907 269.249 15.0058 270.638 15.1667C270.9 15.0692 271.14 14.9468 271.65 14.9947C271.803 15.3346 271.273 15.2873 271.322 15.5794C271.528 15.6368 271.633 15.7485 271.898 15.7785C272.407 15.7626 272.292 15.3576 272.904 15.3896L272.89 14.956C273.822 14.8375 274.216 15.0805 274.611 15.3363C274.789 15.1775 274.34 15.1405 274.719 14.8989C276.75 15.41 279.417 14.816 282.005 14.9522C282.257 14.5358 281.492 14.815 281.545 14.5325C283.432 14.3587 284.222 15.5724 285.99 14.8278C286.732 15.1366 288.45 14.7765 289.192 15.0853C289.454 14.9878 289.528 14.7684 289.872 14.7066C290.208 15.0408 290.982 15.0804 291.159 15.5218C290.833 15.4936 290.208 15.6791 290.359 15.3297C289.047 15.6515 287.605 15.0965 286.497 15.4503C284.16 14.8722 281.39 16.0949 279.327 15.1763C278.11 15.3164 277.13 15.2193 275.812 15.3626C275.782 15.6955 276.071 15.8142 276.619 15.7715C276.043 16.2363 273.996 15.8279 272.987 16.1019C270.567 15.5009 267.71 16.522 265.692 15.7552C265.599 15.4007 266.347 15.8752 266.48 15.5902C265.962 15.2745 264.667 15.5064 264.088 15.2308C264.091 15.3201 264.072 15.359 263.971 15.3749C263.568 15.5024 264.238 15.4687 264.101 15.6517C262.718 15.6438 261.237 15.7795 260.011 15.639C259.868 15.6179 259.8 15.3902 259.657 15.3692C259.084 15.2594 258.336 15.4359 257.848 15.4257C256.789 15.3949 256.1 15.4803 255.124 15.5107C254.636 15.526 254.034 15.149 253.64 15.5571C252.445 15.7348 251.613 15.148 250.916 15.6421C250.923 15.8462 251.307 15.7703 251.153 16.0688C250.521 16.0247 250.163 16.2657 249.67 16.1151C249.701 15.8332 250.147 15.781 250.677 15.8028C250.749 15.5069 250.304 15.5719 250.097 15.4634C247.294 15.6148 243.508 15.567 240.545 15.8383C240.719 16.1903 241.502 15.8339 241.806 15.7989L241.819 16.2326L243.181 16.19C243.38 16.0561 243.476 15.8489 243.737 15.7386C245.553 15.9245 247.809 15.8285 249.546 16.0551C246.137 16.3786 241.844 16.3722 238.185 16.4865C238.338 16.188 237.934 16.2645 237.948 16.0598C234.829 15.8636 230.647 16.1856 226.459 16.2781C226.323 16.5121 226.826 16.3177 226.691 16.5517C226.387 16.5995 225.794 16.4904 225.677 16.66C225.524 16.9839 226.049 16.8399 226.375 16.8552C226.623 16.9879 225.543 16.9323 225.239 16.9673C225.622 16.8405 225.333 16.7218 225.106 16.614C224.821 16.6229 224.826 16.7887 224.665 16.8448C224.709 16.9455 224.952 16.8997 225.115 16.9073C224.742 17.353 223.851 16.8447 222.841 17.0549C222.878 16.9389 223.205 16.9798 223.056 16.7674C222.972 16.6934 222.789 16.6991 222.825 16.5575C221.757 16.8718 220.889 16.452 219.984 16.7867C219.138 16.4046 217.303 16.947 216.686 16.7492C216.566 16.804 216.57 16.9188 216.345 16.9003C216.21 17.1343 216.713 16.9399 216.578 17.1739C216.107 17.0992 215.517 17.1049 215.207 16.9359C213.893 17.2194 212.043 17.2644 211.34 16.9162C210.109 17.2355 208.345 16.7799 206.681 16.9212C206.687 17.1253 207.072 17.0494 206.918 17.3479C203.817 17.0872 199.901 17.4265 196.782 17.2303C196.477 17.2653 196.463 17.47 195.993 17.3954C192.725 16.9868 188.072 17.8597 185.286 17.2318L183.802 17.2781C182.672 16.9304 179.589 17.2437 178.101 17.1753C178.621 17.5293 180.416 17.0264 180.497 17.6749C179.639 17.5613 176.581 18.0143 175.371 17.6946C175.146 17.6761 175.025 17.7181 175.029 17.8457C174.765 17.8412 174.958 17.5287 175.018 17.4886C174.991 17.2724 174.446 17.3916 174.099 17.3768C174.168 17.6173 174.615 17.6161 174.684 17.8565C174.417 17.7754 174.169 17.6683 173.663 17.7479C173.597 17.5968 173.884 17.6389 173.88 17.5241C172.967 16.9654 170.877 17.8094 169.541 17.3787C168.798 17.6828 167.164 17.4785 166.359 17.759C166.291 18.1824 167.462 17.9032 167.622 17.7961C168.604 17.9825 170.861 17.9375 171.829 17.6647C171.656 17.9766 172.459 17.6323 172.285 17.9314C170.094 18.1402 167.787 17.8931 165.93 18.3469C161.761 18.4387 153.467 18.6594 148.656 19.0267C148.676 19.6899 149.62 19.2902 150.148 19.2609C152.363 19.1535 155.54 19.233 157.55 19.1064L157.563 19.54L159.373 19.4835C159.422 19.1118 159.033 19.0218 158.444 19.0785C158.356 18.8642 159.135 19.0569 159.705 19.0391C160.274 19.0213 161.774 18.8468 160.619 19.0106C160.337 19.0832 160.199 19.2407 159.709 19.1794L159.718 19.46C161.77 19.3704 164.963 19.9856 166.869 19.0963L166.88 19.4534C167.37 19.5274 167.384 19.3227 167.668 19.2884C167.672 19.4159 167.757 19.5281 167.9 19.562C168.021 19.5071 168.017 19.3923 168.242 19.4109C168.415 19.0991 167.652 19.4293 167.666 19.2118C168.425 18.7796 169.614 19.6872 170.39 19.1268C170.813 19.0114 170.42 19.445 170.844 19.3296C171.232 19.3941 171.02 19.1071 171.056 18.9655L172.642 18.916C172.707 19.0672 172.483 19.0614 172.3 19.0671C172.855 19.2413 173.029 18.955 173.658 18.8843C173.807 19.1094 173.294 18.9467 173.443 19.1719C173.57 19.3339 174.155 19.1752 174.462 19.2167C173.964 18.9258 174.443 18.63 174.659 18.3552C175.068 18.4445 175.259 18.6811 175.589 18.824C177.417 18.7286 178.839 18.6587 180.931 18.5168C180.936 18.6953 181.2 18.6871 181.285 18.7866C181.996 18.7644 182.169 18.4143 182.984 18.4527C183.372 18.5044 183.322 18.8634 184.009 18.7015C183.976 18.9579 183.26 18.827 183.227 19.0834C182.753 18.8939 181.065 18.8956 180.605 19.1653C180.279 19.1627 178.119 19.0514 177.89 19.5309C177.579 19.3619 177.472 19.1737 177.093 19.4154C177.226 19.1176 176.9 19.1022 176.515 19.1525C176.503 19.4338 177.069 19.314 177.098 19.5684C176.145 19.6748 174.457 19.7019 173.577 19.5379C173.169 19.5251 173.136 19.756 172.791 19.7795C168.624 19.9224 163.616 19.8362 159.155 20.3457C158.908 20.2513 158.416 20.1134 158.241 20.3742C157.877 20.4622 157.952 20.2683 157.789 20.2479C157.569 20.3824 156.842 20.5328 156.651 20.2835C154.266 20.8047 149.584 20.7339 147.004 20.8655C146.557 20.8795 146.084 20.7283 145.638 20.7678C144.319 20.8855 142.921 21.0824 141.434 21.0394C138.318 20.9452 135.072 21.2381 132.1 21.1905C131.732 21.1381 131.675 21.2676 131.535 21.3485C129.087 21.1441 125.301 21.0836 123.007 21.2574C122.29 21.1138 120.681 21.0491 120.163 21.4228C118.458 20.8888 116.535 21.8807 114.928 21.2288C113.618 21.6271 110.855 21.1006 109.704 21.3919C108.846 21.2783 107.187 20.9215 106.635 21.4877C105.44 21.0144 103.199 21.595 101.618 21.1465C101.293 21.1566 101.361 21.3715 101.056 21.3811C99.9469 21.0455 98.1644 21.3054 96.8459 21.4359C97.0002 21.163 96.3374 21.439 96.4916 21.1661C93.7813 21.0337 90.5716 21.1978 88.1913 21.2083C87.3719 21.6807 85.0813 21.3054 84.1167 21.693C82.6627 21.3937 79.7774 22.1731 78.0955 21.7405C77.0046 21.9916 75.4645 22.1929 74.242 22.1417L74.2333 21.8611C72.4242 21.9176 70.9733 21.7204 69.0048 21.884C68.8697 22.118 69.3723 21.9235 69.2371 22.1576C68.7505 22.2111 68.5034 22.1166 68.4356 21.9017C67.538 21.8276 66.2618 22.0079 65.583 21.7738C63.6197 22.1032 61.443 22.1201 59.2318 22.3295C58.0755 22.4423 56.6729 22.486 55.4712 22.447C50.4002 22.2989 45.0095 22.3396 39.8806 22.2955C39.4306 22.2201 39.6642 22.532 39.1939 22.4573C38.7212 22.3061 37.4788 22.2683 37.0392 22.5246C32.8785 22.2077 28.0721 22.7152 23.7296 22.4423C22.5471 22.3643 21.1648 22.4075 20.3059 22.2684C19.1807 22.0737 17.7251 22.3745 16.6649 22.3054C16.0941 22.2722 15.7203 22.0285 15.1675 21.9181C14.4305 21.7752 13.2743 21.8879 12.9929 21.3477C12.5066 21.414 12.2192 21.3336 12.0714 21.1595L10.7094 21.202C9.52889 20.5367 9.4245 19.1484 6.66955 19.5408C6.67672 19.7704 6.86365 19.8922 6.81143 20.1747C6.27934 20.0764 5.84649 19.8985 5.77276 19.4922C5.31521 19.1746 4.28171 19.309 3.71294 19.3395C3.35024 19.453 3.38171 19.8094 3.16369 19.995C2.42635 19.1882 1.28963 18.6237 0.253357 18.0177C0.31117 17.2627 0.948899 16.8342 1.11034 16.1398C2.45751 16.2765 2.41568 15.5884 3.72141 15.7008C3.90196 15.6186 3.99962 15.4879 4.15984 15.4063C5.75254 15.5863 7.67128 15.1306 9.51029 15.3796C9.56731 14.5991 8.16792 14.7449 7.34007 14.9495C7.16232 14.4699 7.85504 14.4994 7.65657 14.0077C9.4374 13.6967 9.56019 12.4162 11.5893 12.238C11.8317 12.1794 12.0322 12.0837 12.0254 11.8669C12.9832 11.9136 13.2777 11.5725 14.2977 11.6555C15.7289 11.2278 18.2519 11.2257 19.3069 11.78C24.4126 12.3865 30.7352 12.2147 36.4986 12.3794C36.9888 12.4407 37.1263 12.2832 37.4089 12.2105C37.7668 12.5951 39.5401 12.0419 39.9179 12.4131C42.9595 12.0755 47.9356 12.4436 51.2765 11.918C51.8337 12.1687 53.7831 12.0439 54.3459 11.8221C54.8206 12.0371 55.4436 11.7878 55.7078 11.7796C63.1121 11.7144 73.5014 11.4538 81.2907 11.3382C82.2018 11.1949 84.4526 10.9459 85.844 11.1961C87.5607 10.785 89.7476 11.0997 91.0681 11.0329C91.6317 10.8366 93.7445 10.7323 94.9259 10.772C99.712 10.9162 105.363 10.7398 109.724 10.9483C111.158 10.6099 114.165 11.116 115.42 10.9109C117.383 11.2198 120.322 10.8727 122.265 11.195C123.192 10.9108 124.295 11.0295 125.335 11.0992C129.514 11.3644 134.509 11.0298 138.766 11.1777C139.196 11.2664 138.984 10.9794 139.331 11.0196C141.144 11.0779 143.796 11.3143 145.474 10.9682C149.851 11.0358 155.046 10.5928 159.459 10.5315C159.724 10.5233 159.618 10.4117 159.801 10.3805C162.37 9.90448 167.697 10.4403 170.592 9.96691C170.896 9.91912 171.416 9.63479 171.852 9.92756C178.112 9.6938 187.265 8.93565 193.114 9.26365C193.42 9.27963 193.967 9.19873 194.472 9.08083C196.941 9.31012 200.108 9.08357 202.996 9.0317C202.842 9.30461 203.505 9.02859 203.35 9.3015C204.701 8.88911 206.161 9.37971 207.208 9.04061C219.262 9.31531 231.601 8.27895 244.488 7.87655C251.562 7.65567 257.315 7.47604 263.366 7.72117C263.651 7.73779 263.782 7.38899 264.057 7.69959C264.425 7.76469 264.338 7.57592 264.499 7.54533C265.075 7.73163 265.028 7.54158 265.76 7.50598C266.402 7.86893 268.523 7.3814 269.85 7.5187C270.054 7.53786 270.242 7.69795 270.426 7.71774C272.281 7.82579 274.228 7.62456 276.122 7.68032C282.089 7.85146 288.324 7.4908 294.208 7.61347C294.638 7.70217 294.426 7.41517 294.773 7.4554C296.305 7.63737 300.505 7.2509 303.197 7.47322C303.854 7.00588 305.139 7.74453 305.815 7.25105C306.082 7.33207 306.433 7.48709 306.608 7.22629C315.178 7.36721 324.845 6.77174 332.997 7.19382C333.447 7.26913 333.214 6.95727 333.684 7.03195C343.175 7.34836 353.312 6.16373 363.809 6.0913C369.082 5.55641 375.331 5.62939 379.065 6.61072C378.071 6.69283 377.776 6.39562 377.012 6.67482C377.036 6.80173 376.901 7.03574 377.244 6.94843C376.78 7.07781 375.945 7.04007 375.092 7.09223C374.97 7.1088 375.015 7.23507 374.873 7.23951C374.837 7.40658 374.881 7.50734 375.006 7.59281C375.258 7.84028 376.127 7.65994 376.718 7.67979C376.308 8.22879 374.654 8.06338 373.892 8.40635L373.903 8.76347C374.134 8.98606 374.858 8.70813 375.272 8.93776C375.348 9.42051 374.367 9.29793 373.697 9.34438C373.711 9.77802 374.043 9.98468 374.734 9.95034C374.435 10.1512 374.405 10.5096 373.733 10.4795C373.839 10.6294 374.185 10.6186 374.191 10.8226C374.783 10.8935 374.919 10.685 375.325 10.6468C375.026 10.8476 374.947 11.5778 375.578 11.5709C375.234 11.6454 375.388 12.0236 375.376 12.2921L376.962 12.2426C376.739 12.9261 377.553 12.9135 378.466 12.8339C378.472 13.038 378.127 13.0488 378.03 13.205C378.4 13.3339 378.671 13.5424 379.062 13.6707C378.765 13.9353 378.786 14.6112 378.876 14.8893C379.448 14.9608 379.564 14.7784 379.66 14.5839C380.197 14.848 379.445 15.5226 378.774 15.5436L378.783 15.8241C379.176 16.0289 379.819 15.779 380.143 15.7051C380.106 15.8339 380.228 15.8428 380.371 15.8384C380.36 16.1579 379.997 16.2713 379.821 16.4939C379.616 16.4492 379.141 16.2215 378.904 16.4459C378.794 16.8323 379.661 16.5755 379.83 16.7745C378.78 17.6754 377.44 18.4194 376.037 19.1015C375.843 18.7501 375.269 18.6403 374.757 18.5032C374.315 18.7084 373.398 18.6477 373.185 18.9863C373.096 18.772 373.568 18.885 373.397 18.6222L373.336 18.6369ZM148.517 15.8777C148.022 15.6761 147.169 15.7155 146.455 15.6612C146.476 16.3372 147.761 15.7991 148.517 15.8777ZM250.617 9.33204C250.451 9.22233 249.516 9.25153 249.357 9.37139C249.523 9.46834 250.526 9.65406 250.617 9.33204ZM259.494 9.48894C259.841 9.52917 259.628 9.24217 260.059 9.33087C262.693 9.63162 266.018 9.27244 269.497 9.25318C269.504 9.45725 270.128 9.27177 270.075 9.516C271.977 9.1885 274.347 9.48474 276.218 9.46461C276.625 9.45192 277.047 9.29829 277.474 9.28497C278.064 9.26656 278.702 9.50196 279.292 9.50906C280.677 9.54243 282.038 9.48715 283.373 9.24119C281.958 8.87686 279.467 9.23552 277.912 8.97766C275.131 9.19216 270.537 8.659 267.218 9.23499C266.985 8.94863 265.935 9.22397 265.623 9.00391C263.794 9.06104 260.807 9.17985 259.358 9.05911C256.686 8.83616 253.732 9.36247 250.841 9.32506C253.274 9.68316 256.881 9.23858 259.494 9.48894ZM169.145 13.1654C169.251 13.277 169.456 13.3344 169.841 13.2841L169.83 12.927C168.568 12.9153 167.637 13.0848 166.417 13.1101C166.259 13.2428 166.225 13.4736 166.087 13.6183C165.842 13.5877 165.657 13.5169 165.73 13.272L164.938 13.2968C164.901 13.4383 164.907 13.6041 164.601 13.5882C164.332 13.4561 163.884 13.4446 163.336 13.4872L163.347 13.8443C164.887 13.6303 166.426 14.0418 167.433 13.7167C167.644 13.9655 168.135 14.0268 168.585 14.1148C168.607 13.5269 167.732 13.5287 167.203 13.5197C167.319 13.3118 167.807 13.3093 168.109 13.2105C168.772 13.5856 168.854 13.6085 169.125 13.1788L169.145 13.1654ZM174.5 13.279C174.812 13.4863 175.332 13.2148 175.761 13.2397C175.672 13.0254 175.875 12.9808 175.869 12.8023C175.19 12.5681 174.985 13.1618 174.521 13.2784L174.5 13.279ZM179.487 12.6893C179.376 13.0247 181.007 13.127 180.973 12.7195C180.481 12.5944 180.035 12.6339 179.487 12.6893ZM185.757 12.7744C186.242 12.6826 186.389 12.8312 186.676 12.8861C186.852 12.6763 187.465 12.7338 187.455 12.4277C187.004 12.3269 186.254 12.4141 185.644 12.4077C185.548 12.6149 185.812 12.5812 185.777 12.761L185.757 12.7744ZM337.409 8.39653C335.143 8.14813 331.617 8.60293 329.328 8.2914C328.601 8.4673 327.363 8.56978 326.259 8.38724C324.974 8.93802 322.187 8.29736 320.815 8.69764C317.965 8.63345 314.847 8.48823 312.172 8.82709C311.121 8.40032 309.696 9.01932 308.403 8.66393C306.666 9.07563 303.086 8.47247 301.475 9.02066C301.367 8.80701 300.33 8.83938 300.215 9.06001C300.503 9.15316 300.472 9.47328 300.8 9.53965C301.729 9.31914 304.141 9.66513 305.349 9.25718C306.38 9.69734 308.17 9.04141 309.565 9.40638C311.685 8.86784 315.559 9.11711 318.204 9.13663C319.788 9.0106 323.02 8.92243 324.917 9.06747C326.087 8.73731 327.421 9.12969 328.327 8.82054C328.374 9.01058 328.679 9.01381 328.905 9.08336C330.114 8.70092 331.413 9.24761 332.539 8.82945C333.975 9.18039 335.912 8.66032 337.206 9.04121C337.299 8.7702 337.952 8.82642 338.459 8.78504C338.329 8.53377 337.797 8.43549 337.429 8.38314L337.409 8.39653ZM201.781 12.491C202.435 12.56 203.646 12.2541 203.94 12.564C204.16 12.4168 204.648 12.4143 204.95 12.3155C205.003 12.0585 204.598 12.1222 204.591 11.8926C204.252 12.1075 203.113 12.143 202.782 11.9491C202.669 12.2463 201.583 11.9866 201.781 12.4783L201.781 12.491ZM218.703 11.6052C218.593 11.9916 219.121 11.9624 218.951 12.389C219.37 12.1078 219.661 12.3285 220.211 12.3496C220.288 12.1813 219.991 11.7948 220.42 11.8452C220.686 11.9135 220.474 12.2904 220.561 12.4791C221.913 12.7561 222.916 12.2907 223.265 11.7564C223.412 11.905 223.439 12.1212 223.626 12.243C224.053 12.2297 224.066 11.9867 224.638 12.071C224.632 11.8669 224.286 11.8777 224.18 11.7278C224.423 11.6947 224.583 11.5876 224.618 11.4333C224.132 11.4868 223.396 11.3693 223.261 11.6161C221.727 11.3576 220.409 11.5136 218.703 11.618L218.703 11.6052ZM243.043 11.126C243.207 11.1592 243.63 11.0184 243.615 11.1848C243.246 11.1069 243.541 11.4169 243.172 11.3391C242.988 11.3193 243.063 11.1127 242.721 11.2127C242.643 11.33 242.358 11.3262 242.384 11.5041C242.736 11.6974 243.874 11.6618 244.193 11.4476C244.186 11.2435 243.842 11.2926 243.836 11.1013L244.405 11.0835C244.251 11.3564 244.715 11.2143 244.64 11.4337C245.104 11.317 245.396 10.8866 244.961 10.6321C244.153 10.8105 244.167 10.6314 243.152 10.6886C243.157 10.8544 242.955 10.899 243.043 11.126ZM253.519 11.016C253.844 11.0058 253.735 10.7667 254.205 10.8541C254.997 11.4294 256.829 10.8105 257.731 11.0249C257.646 10.2616 255.807 10.6637 254.646 10.6233C253.525 11.2073 252.211 10.2015 251.129 10.7331C249.139 10.1953 247.493 10.9233 245.429 10.6303C245.884 11.5225 248.083 10.9304 249.438 11.2966C250.037 10.9332 251.297 11.5577 251.581 10.8722C252.438 10.9348 253.043 10.7755 253.519 11.0287L253.519 11.016ZM156.083 13.8413C156.33 13.9358 156.419 14.15 156.786 14.1769C156.96 13.9033 157.839 14.0418 158.367 13.9871C158.402 13.82 158.541 13.7135 158.473 13.4859C157.543 13.6554 156.78 13.36 156.104 13.8407L156.083 13.8413ZM199.401 12.4888C200.007 12.3549 201.442 12.7059 201.323 12.1479C200.515 12.3391 200.448 12.1369 199.392 12.2082L199.401 12.4888ZM205.194 12.3079C205.885 12.2735 206.795 12.743 207.001 12.1749C206.816 12.1296 206.831 11.9504 206.547 11.972C206.174 12.405 205.297 11.7046 205.194 12.2951L205.194 12.3079ZM209.291 12.5374C209.883 12.5955 209.936 12.3513 210.197 12.2283C210.789 12.9502 213.175 12.4544 214.764 12.5197C214.76 12.3922 214.837 12.2749 214.979 12.2322C215.148 12.4567 215.896 12.2929 216.126 12.4772C216.123 12.3879 216.161 12.3101 216.345 12.3299C216.48 12.0959 215.977 12.2903 216.113 12.0563C214.836 12.2366 214.656 11.6677 213.479 11.7811C213.236 12.4525 212.179 11.8472 211.426 11.8452C210.877 11.8496 210.843 12.0804 210.412 11.9534C210.411 11.9152 210.409 11.8642 210.288 11.8807C210.363 12.338 209.029 11.9839 209.291 12.5502L209.291 12.5374ZM216.918 12.4397C217.363 12.3492 218.326 12.5617 218.398 12.2531C217.962 11.9986 217.287 11.8792 216.573 11.8121C216.462 12.1858 216.83 12.2254 216.938 12.4391L216.918 12.4397ZM268.658 11.0412C268.712 10.8097 268.566 10.7121 268.52 10.5476C267.314 10.3682 266.121 10.597 265.223 10.5101C265.351 11.3742 267.393 10.9402 268.658 11.0412ZM363.575 7.71995C362.876 7.48645 361.516 7.6055 361.079 7.93831C359.563 7.60266 357.137 8.11246 355.85 7.96114C352.775 8.51676 348.402 7.91286 346.536 8.74988C346.846 8.91892 347.253 8.90622 347.552 8.71814C347.803 8.9401 349.267 8.8944 349.483 8.65785C350.918 8.98328 353.102 8.54487 354.479 8.36141C359.098 8.34487 364.804 8.00072 369.377 7.81964C367.895 7.2659 365.413 7.30508 363.575 7.71995ZM186.691 13.3835L186.683 13.1029L186.235 13.1169C186.281 13.2687 186.447 13.3656 186.691 13.3835ZM197.716 13.2563L198.407 13.2347L198.391 12.7373C197.841 12.729 197.664 12.9132 197.716 13.2563ZM226.248 12.1484L226.239 11.8678L225.792 11.8817C225.719 12.1266 225.864 12.2242 226.248 12.1484ZM198.976 13.217C199.604 13.1335 199.634 13.4517 200.342 13.3147C200.508 12.7606 198.937 12.6309 198.976 13.217ZM283.205 10.3699C281.561 10.4978 279.569 9.9217 279.465 11.125C280.314 10.9581 280.367 11.3522 280.838 11.4396C281.349 11.5258 281.177 11.2248 281.626 11.2746C281.682 11.1196 281.469 10.8071 281.732 10.7733C282.278 10.6542 281.987 11.0973 282.432 11.0324C283.363 10.8756 284.398 10.7795 284.915 10.3803C284.563 10.1871 283.624 10.0887 283.205 10.3571L283.205 10.3699ZM340.275 8.94537C342.328 8.88127 344.406 8.96957 345.849 8.91175C345.846 8.82248 345.885 8.74468 346.068 8.76448C344.845 8.02393 342.053 8.55791 340.259 8.44796L340.275 8.94537ZM102.116 16.2414C102.595 16.5839 103.531 16.5929 103.95 16.9756C103.626 17.024 102.991 16.8779 103.164 17.2172C104.494 17.4438 106.941 17.6099 108.295 17.3378C108.204 17.0088 107.256 17.2682 107.483 16.7249C107.706 16.6924 108.177 16.8053 108.048 16.5668C107.923 15.843 106.551 16.2178 105.972 15.9167C105.009 16.3553 103.637 16.0662 102.117 16.2541L102.116 16.2414ZM109.967 16.1367C109.529 15.8056 108.836 16.389 108.255 16.0497L108.271 16.5471C108.516 16.5777 109.02 16.4343 109.066 16.5989C109.071 16.7519 108.661 16.6498 108.499 16.6932C108.571 17.0356 108.563 17.4189 109.093 17.4661C109.412 17.2519 109.883 17.3521 110.114 17.5747C110.482 17.6525 110.188 17.3426 110.557 17.4204C111.628 17.8593 113.763 17.1416 114.78 17.7865C114.963 17.7807 114.856 17.6054 115.121 17.6354C114.986 17.2311 114.095 17.361 113.741 17.104C113.977 16.8285 114.371 17.0588 114.877 16.9919C114.86 16.4562 113.449 16.2067 113.925 15.8088C113.153 15.8457 112.121 16.0566 111.644 15.7396C111.265 15.994 110.867 15.6362 110.058 15.7891C110 15.8931 110.212 16.1546 109.947 16.15L109.967 16.1367ZM89.0504 16.7898C89.37 17.2522 88.5087 17.0365 88.4967 17.305C89.0129 17.5442 90.1153 17.6629 90.7778 17.3742C93.895 17.5066 97.8122 17.1928 100.783 17.2022C100.918 16.9682 100.416 17.1626 100.551 16.9286C98.9669 17.0291 97.9804 16.7152 96.5555 16.6959L96.5444 16.3388C95.7269 16.2238 95.6356 16.5586 95.0672 16.6019C95.011 16.7569 95.2243 17.0694 94.9608 17.1031C94.6699 16.9079 93.9006 17.0341 93.4702 16.9326L93.4614 16.652C92.2127 16.4102 90.5893 16.5502 89.03 16.7904L89.0504 16.7898ZM97.5631 16.3835C98.1187 16.5832 100.435 17.1237 100.511 16.2915C100.001 16.2564 99.7601 16.366 99.4986 16.4635C99.2064 16.2301 97.9274 16.3211 97.5631 16.3835ZM126.997 15.4645C127.147 15.7024 127.476 15.8197 127.925 15.8696C128.064 15.7503 128.368 15.7025 128.257 15.4251C127.69 15.4939 127.419 15.3109 126.997 15.4645ZM311.959 9.82953C311.93 10.1879 312.199 10.3455 312.548 10.4495C313.698 10.1199 315.816 10.8581 316.625 10.0413C317.468 10.3214 319.248 9.98492 319.713 10.5194C320.019 10.5609 319.621 10.1903 319.927 10.2318C320.234 10.2733 320.162 10.5692 320.508 10.5711C320.874 10.5725 320.764 10.3078 320.944 10.2001C321.925 10.3482 322.4 10.5759 323.676 10.3956C323.585 10.0793 323.743 9.92117 324.004 9.81089C323.889 10.0315 324.252 9.93081 324.456 9.93722C323.531 9.65968 322.687 9.32859 321.244 9.39917C321.248 9.5012 321.293 9.66573 321.131 9.68356C319.212 9.48815 317.03 9.97758 314.866 9.73876C314.874 9.99384 315.341 9.95374 315.568 10.0743L314.552 10.106L314.541 9.74892C313.423 9.78383 312.955 9.79842 312.483 9.67273C312.613 9.91125 312.141 9.7983 311.918 9.83079L311.959 9.82953ZM149.282 14.9857C148.83 14.8338 147.879 15.0039 147.227 14.9732C147.399 15.2743 149.217 15.5111 149.282 14.9857ZM170.084 14.5532C170.468 14.4646 171.37 14.6917 171.216 14.3008C171.048 14.1401 170.422 14.3 170.075 14.2598L170.084 14.5404L170.084 14.5532ZM216.123 13.039C215.996 12.877 215.411 13.0357 215.104 12.9942C215.154 13.2735 216.087 13.2061 216.123 13.039ZM217.717 13.2701C219.914 13.2526 220.909 13.196 222.848 13.3907C222.966 13.2466 223.063 13.0904 223.18 12.9463C223.779 13.2085 225.094 12.9759 226.031 12.9977C225.625 12.3976 223.97 12.8323 223.178 12.8698C222.657 12.4903 221.964 13.0737 221.466 12.7828C220.482 13.1965 219.163 12.6632 217.706 12.9002C217.631 13.1196 217.629 13.0431 217.717 13.2573L217.717 13.2701ZM370.745 8.63227C370.592 8.29236 369.842 8.36686 369.151 8.40119C369.204 8.80805 370.094 8.63983 370.745 8.63227ZM371.314 8.6145C371.822 8.59863 372.414 8.644 372.322 8.30218L371.306 8.33391L371.314 8.6145ZM217.161 13.7087L217.954 13.684C217.866 13.4697 217.639 13.3619 217.152 13.4282L217.161 13.7087ZM223.185 13.7377C223.51 13.7275 223.416 13.973 223.88 13.8564C223.996 13.6613 224.125 13.2105 223.637 13.2257C223.583 13.4572 223.259 13.5183 223.205 13.7371L223.185 13.7377ZM282.744 11.878C282.841 11.7473 283.167 11.7499 283.078 11.5101L282.062 11.5418C282.07 11.8097 282.417 11.8371 282.764 11.8773L282.744 11.878ZM281.386 12.0608C281.711 12.0506 281.617 12.2961 282.082 12.1795C282.134 11.9098 281.907 11.802 281.621 11.7598C281.77 11.985 281.257 11.8223 281.406 12.0474L281.386 12.0608ZM370.182 9.5052C370.233 9.81003 371.14 9.53914 371.549 9.60297C371.458 9.29941 370.545 9.4045 370.182 9.5052ZM336.432 10.9931C337.102 11.585 339.306 11.1459 340.314 11.5102C341.32 11.1341 342.24 11.2586 343.944 11.116C343.981 10.3361 342.244 10.7478 341.205 10.7036C340.97 10.9918 339.988 10.831 339.4 10.9004C339.303 11.0566 338.978 11.0796 338.612 11.0655C338.605 10.8487 338.598 10.6318 338.253 10.6426C337.77 10.8237 337.059 10.8714 336.452 10.9797L336.432 10.9931ZM283.692 12.9208C283.882 13.1319 284.136 12.8175 284.257 12.7627L283.687 12.7805L283.692 12.9208ZM222.204 15.5556C222.77 15.4358 222.818 15.6769 223.225 15.6642C223.253 15.2803 222.784 15.2311 222.195 15.2623L222.203 15.5429L222.204 15.5556ZM165.043 17.9788L166.06 17.947C166.048 17.5772 165.052 17.6083 165.043 17.9788ZM193.115 17.1022C193.106 16.8089 192.32 17.0505 191.972 16.9975C191.982 17.2908 192.768 17.0493 193.115 17.1022ZM144.016 18.9928C143.92 19.2 143.921 19.2128 144.029 19.4264C144.329 19.2511 145.809 19.09 146.082 19.3623C146.382 19.1743 146.788 19.1616 147.099 19.3306C147.403 19.2956 147.417 19.0909 147.887 19.1656C147.836 18.8352 147.147 18.9333 146.857 18.7637C146.09 18.9663 145.355 18.8872 144.016 18.9928ZM142.093 19.3337L143.232 19.2982C143.381 18.8849 141.918 18.9306 142.093 19.3337ZM239.059 16.4464C239.693 16.5543 239.777 16.0027 239.269 16.0058C239.275 16.2099 238.887 16.1581 239.059 16.4464ZM269.983 15.6978L271 15.6661C270.81 15.455 270.54 15.2974 269.972 15.3407L269.983 15.6978ZM329.449 14.1219C329.553 14.1825 330.186 14.2521 330.242 14.0971C329.933 13.9919 329.525 13.9535 329.217 13.8483C329.082 14.0823 329.584 13.8879 329.449 14.1219ZM369.552 15.3719C369.623 15.7144 370.472 15.5347 370.704 15.77C370.775 15.4614 371.344 15.4436 371.478 15.1713C370.72 15.0035 370.303 15.3357 369.552 15.3719ZM372.241 17.4327C372.604 17.332 372.329 17.6598 372.692 17.5591C373.155 17.3787 374.815 17.1098 373.58 16.676C373.037 16.8717 372.349 16.9825 372.241 17.4327Z" fill="black"/>
<path fill-rule="evenodd" clip-rule="evenodd" d="M176.941 15.2071C177.175 15.5445 176.561 15.4104 176.609 15.6515C177.601 15.4929 178.969 15.6289 179.814 15.9855C179.037 16.5332 177.568 15.7492 176.97 16.1509C176.901 15.8849 176.114 16.101 176.164 15.742C176.444 15.5801 176.496 15.2848 176.941 15.2198L176.941 15.2071Z" fill="black"/>
<path fill-rule="evenodd" clip-rule="evenodd" d="M277.825 17.2659C276.601 17.1509 274.404 17.8196 273.161 17.1307C272.478 17.4073 271.815 17.0068 271.106 17.1183C270.854 16.858 271.684 16.7172 271.092 16.6846C271.353 16.5616 271.924 16.6076 272.102 16.4361C272.065 16.5649 272.188 16.5738 272.33 16.5694C272.312 16.6465 272.108 16.6274 272.111 16.7167C272.381 16.9125 273.47 16.5849 273.601 16.8871C273.699 16.7564 274.025 16.759 273.936 16.5192C274.79 16.5181 275.035 16.5232 275.747 16.5393C275.269 16.8478 275.804 17.0482 275.996 17.323C276.116 17.2682 276.112 17.1534 276.337 17.172C276.065 16.9379 275.963 16.9283 276.093 16.5412C276.58 16.5005 276.808 16.6338 276.798 16.9533C277.968 16.6231 278.814 17.018 279.985 16.7133C280.253 16.8199 280.142 17.1808 280.35 17.3403C280.801 17.4411 280.382 17.0329 280.687 17.0489C281.094 17.0362 281.301 17.1701 281.27 17.4647C281.736 17.4119 282.124 17.4381 282.191 17.653C282.61 17.3718 283.001 17.5128 283.669 17.3898C283.68 17.1086 283.114 17.2284 283.086 16.974C283.987 17.1629 284.502 16.7255 285.245 17.047C286.25 16.6581 287.61 17.2029 288.757 16.7969C288.761 16.9244 288.904 16.9455 288.888 17.0737C289.857 16.8264 291.411 17.0715 292.4 16.8236C293.2 17.0156 294.278 17.0203 295.356 17.0121C295.257 17.0918 295.137 17.1594 295.018 17.2397C294.219 17.0859 291.693 16.9861 291.261 17.4975C290.896 17.5216 290.77 17.3979 290.683 17.2346C290.34 17.2964 290.79 17.3845 290.692 17.5152C290.105 17.6102 290.037 17.3697 289.769 17.2632C289.509 17.4117 289.062 17.4512 288.513 17.4429C288.468 17.3166 288.59 17.3 288.732 17.2956C288.078 17.2011 287.298 17.6212 286.236 17.5139L286.225 17.1568C285.461 17.4615 283.869 17.2815 283.623 17.8764C283.38 17.9223 283.456 17.7412 283.273 17.7469C280.919 18.5992 279.979 16.5348 277.805 17.2793L277.825 17.2659Z" fill="black"/>
<path fill-rule="evenodd" clip-rule="evenodd" d="M354.784 14.863C356.952 13.9144 360.729 14.3199 363.758 14.2253C364.184 14.212 364.667 14.0309 365.115 14.0425C365.95 14.0547 366.873 14.294 367.261 13.6946C367.636 13.9765 368.41 13.9907 369.323 13.9111C369.169 14.184 369.632 14.0419 369.558 14.2612C369.124 14.045 367.944 14.069 367.403 14.3285C365.141 14.2076 363.105 14.8457 361.264 14.5202C359.505 14.8688 356.916 14.7325 354.784 14.863Z" fill="black"/>
<path fill-rule="evenodd" clip-rule="evenodd" d="M303.067 16.9753C300.698 17.3684 298.544 17.4484 295.575 17.4901C295.402 17.1763 295.893 17.2631 295.783 16.9857C298.204 16.9995 301.264 16.5975 303.189 16.9715C304.341 16.7312 306.839 16.5767 307.742 16.8293C308.184 16.6623 309.603 16.4903 310.019 16.7582C310.779 16.3515 311.968 16.6335 313.206 16.5183C313.209 16.6331 313.153 16.788 313.336 16.7951C313.666 16.2869 315.904 16.2553 316.747 16.5481C318.749 16.1409 321.034 16.3504 323.451 16.1984C323.637 16.3202 324.083 16.2552 324.15 16.4574C324.569 16.1635 325.878 16.4034 325.944 15.9035C326.174 16.0878 326.543 16.1784 326.533 16.5234C326.162 16.3818 326.081 16.3843 325.74 16.5482C326.907 16.7798 328.593 16.6761 330.178 16.6266C330.27 16.3046 329.704 16.4117 329.716 16.1432C329.409 16.1017 329.807 16.4723 329.501 16.4308C328.842 16.196 327.387 16.4968 326.987 16.0752C327.185 15.903 327.992 15.6736 328.245 15.9593C331.093 15.947 333.81 15.6451 336.102 16.0714C335.637 16.137 334.9 16.0196 334.621 16.1943C334.992 16.3359 335.801 16.183 335.992 16.4324C336.253 16.3348 336.493 16.2124 337.004 16.2603C336.998 16.069 336.633 16.1187 336.647 15.914L337.663 15.8823C337.531 16.1928 337.856 16.1954 337.902 16.3727C339.667 16.2027 340.28 16.2857 341.545 16.3994C341.812 15.8293 340.585 16.2634 340.513 15.9337L341.875 15.8912C342.005 16.1169 341.698 16.0754 341.661 16.1787C342.504 16.4716 344.124 16.2167 344.867 16.5765C344.945 16.4592 345.23 16.463 345.204 16.2851C347.864 16.1127 348.681 16.2021 350.648 15.9747C350.652 16.1023 350.795 16.1233 350.778 16.2515C350.584 16.5384 349.581 16.34 349.656 16.7845C345.455 17.1327 340.959 17.1581 337.26 17.3119C336.379 17.1096 336.1 17.2971 334.878 17.2459C335.036 17.1005 335.008 16.8588 335.436 16.871C335.194 16.2913 333.113 16.1265 332.809 16.8126C332.7 16.5862 332.902 16.5416 333.022 16.4485C332.524 16.1704 331.251 16.4272 330.395 16.3901C330.602 16.4985 330.808 16.5942 330.756 16.8767C331.106 16.3551 331.628 16.7984 332.561 16.6799C332.625 16.78 332.43 17.0542 332.694 17.0332C333.218 16.8892 333.598 16.6731 334.04 16.4933C334.21 16.7178 334.36 16.9557 334.629 17.1132C331.953 17.4266 328.402 17.0779 325.532 17.0398C325.425 16.8644 325.218 16.7688 325.071 16.6201C324.524 16.6755 324.307 16.9249 323.718 16.9433C323.281 16.625 322.13 16.2652 321.329 16.6604C320.199 16.3127 318.713 16.9464 317.929 17.2644C317.662 17.1834 317.415 17.0763 316.908 17.1559L316.9 16.8753C315.95 17.0837 314.371 16.7117 313.392 17.2657C311.774 16.946 309.515 16.9144 308.172 17.5691C308.065 17.3937 307.858 17.298 307.711 17.1494C307.309 17.2897 306.719 17.3081 306.358 17.4726C305.486 16.8998 303.742 17.7585 303.147 16.9345L303.067 16.9753ZM336.859 16.8521C337.519 16.4868 337.924 17.0614 338.668 16.7956C338.533 16.3785 337.462 16.5907 336.947 16.4153C336.953 16.5811 336.751 16.6257 336.839 16.8527L336.859 16.8521ZM341.293 16.7902L341.862 16.7725L341.858 16.6322C341.855 16.5429 341.673 16.5614 341.51 16.5664C341.555 16.7055 341.352 16.7118 341.293 16.7902Z" fill="black"/>
<path fill-rule="evenodd" clip-rule="evenodd" d="M363.658 14.9429C363.296 15.0819 362.546 15.1819 362.072 14.9924C362.685 15.0627 363.224 14.7394 363.658 14.9429Z" fill="black"/>
<path fill-rule="evenodd" clip-rule="evenodd" d="M244.218 12.2509L244.909 12.2293C245.019 12.5068 244.528 12.42 244.701 12.7337C245.067 12.7351 245.185 12.6037 245.261 12.4354C245.715 12.6255 246.27 12.8124 246.851 12.5262L246.862 12.8833C247.39 12.8285 247.753 12.7278 248.005 12.988C248.303 12.7489 248.63 12.8025 249.139 12.8122L249.153 13.2458C248.569 13.4683 248.274 13.1328 247.664 13.1519C247.465 13.273 247.472 13.5026 247.106 13.5267C247.035 13.2098 246.666 13.0937 246.395 12.9106C245.945 12.8353 246.179 13.1472 245.709 13.0725C245.754 13.237 245.9 13.3346 245.846 13.5661C244.992 13.5928 244.119 13.6583 243.904 13.2693L244.473 13.2515C244.192 12.7241 244.455 12.6648 244.218 12.2637L244.218 12.2509Z" fill="black"/>
<path fill-rule="evenodd" clip-rule="evenodd" d="M206.859 18.7031C206.712 18.58 206.208 18.7106 206.4 18.3599C206.992 18.4053 207.523 18.4781 207.676 18.818C207.941 18.8352 207.605 18.501 208.015 18.5904C208.166 18.2282 207.759 18.2154 207.771 17.9597C208.358 17.8647 208.427 18.1052 208.575 18.292C209.126 18.3387 208.522 17.8979 208.788 17.9279C209.361 18.0504 209.776 18.2928 210.389 18.3758C210.753 18.3006 210.371 17.8019 211.066 17.9206C211.239 18.2344 210.748 18.1476 210.858 18.425C210.881 18.5009 211.084 18.469 211.086 18.5583C211.516 18.6215 211.261 18.2848 211.649 18.3237L211.66 18.6808C212.431 18.6185 213.461 19.0076 214.038 18.6066C214.363 18.5964 214.37 18.8132 214.616 18.8694C215.054 18.5621 214.139 18.5651 214.251 18.2425C213.304 18.5401 212.806 18.2365 211.628 18.3244C211.622 18.1075 211.217 18.1712 211.269 17.9015C212.912 17.7226 215.174 17.8562 216.27 17.7454C216.155 17.966 216.518 17.8653 216.721 17.8717C216.727 18.063 216.693 18.2811 216.859 18.3653C217.714 18.3897 218.478 18.0849 218.916 18.4415C219.132 18.1922 219.825 18.2216 220.165 18.045C220.072 18.3033 220.715 18.0661 220.522 18.3913C220.784 18.2938 221.024 18.1714 221.534 18.2193L221.543 18.4999C222.676 18.2986 225.244 17.7716 226.198 18.3546C226.736 18.0058 228.525 18.6138 229.263 18.1184C229.699 18.4112 230.05 17.9151 230.528 18.2194C230.67 18.2149 230.625 18.0886 230.643 17.9987C230.597 17.8342 230.073 17.991 229.848 17.947C229.927 17.8679 230.109 17.8622 230.064 17.7232C230.487 17.5568 230.624 18.0376 230.634 17.7054C230.802 17.8789 231.508 17.6909 231.437 18.0378C231.838 17.821 232.829 17.6496 233.145 17.9844C233.468 17.9105 232.997 17.8103 233.134 17.6273C233.905 17.5522 234.237 17.7588 234.629 17.9381C234.998 17.3904 236.86 17.7025 237.561 17.3487C238.282 17.6453 239.616 17.3611 240.407 17.2598C240.412 17.4384 240.617 17.4703 240.418 17.6169C240.684 17.6597 241.308 17.4614 241.215 17.7325C241.369 17.4468 242.352 17.6586 242.216 17.2033C243.43 17.6505 245.455 16.6681 245.992 17.5833C246.564 17.6676 246.597 17.424 247.004 17.4113C246.977 17.1951 246.072 17.5552 246.204 17.2192C246.854 17.1861 247.691 17.2494 248.009 17.0224C248.393 16.9338 248.199 17.2335 248.244 17.3725C248.568 17.3369 249.225 16.8695 249.502 17.2567C249.676 16.9831 250.638 17.1701 250.855 16.9336C251.222 16.9604 251.31 17.1619 251.656 17.1894C252.107 17.2902 251.687 16.882 251.993 16.898C252.377 16.8094 252.362 16.9886 252.347 17.1678C253.169 16.7464 254.327 17.3613 254.961 16.8053C256.003 16.9388 257.064 17.0461 258.385 16.9793L258.396 17.3364L258.843 17.3225C258.979 17.1267 259.033 16.8825 259.625 16.9406C259.916 17.1613 259.643 17.5145 259.651 17.7951C257.945 17.8739 256.935 17.4841 255.866 17.1218C255.622 17.1294 255.835 17.4291 255.758 17.5592C254.967 17.6605 253.689 17.7643 252.912 17.6481C252.947 17.4683 253.55 17.2452 253.018 17.1469C252.881 17.3044 252.867 17.5218 252.688 17.6551C252.381 17.6008 251.636 17.8284 251.667 17.5465C251.152 17.9839 249.904 17.7548 249.508 17.4735C249.082 17.4868 249.235 17.8267 248.724 17.7788C248.381 17.8661 248.516 17.6321 248.492 17.5052C247.738 17.4777 247.359 17.6938 247.019 17.9087C245.547 17.6738 244.46 18.0652 243.15 17.8124C241.451 18.1336 239.02 17.8138 237.226 17.7166C237.149 17.8339 236.864 17.83 236.89 18.0079C233.976 18.5457 229.737 18.3079 227.01 18.9547C226.925 18.8425 226.641 18.8641 226.656 18.6849C224.458 18.6897 223.068 19.1161 221.086 18.8589C220.1 19.2088 217.426 18.9348 216.212 19.1515C215.738 18.962 214.049 18.9637 213.59 19.2334C211.846 19.4282 211.258 18.8593 209.814 18.8534L209.805 18.5728C209.153 18.5421 208.998 18.8022 208.802 19.0382C207.501 19.066 205.701 19.4286 205.033 18.875C204.814 19.0478 204.182 18.9909 204.025 19.1873C203.78 19.1694 203.615 19.0725 203.569 18.9207C202.252 19.1022 199.962 18.7269 199.37 19.3327C199.142 19.1866 198.183 19.1144 198.008 19.3752C195.388 18.8698 191.408 19.1217 189.482 19.3606C189.068 19.1182 188.667 19.3094 188.333 19.039C188.171 19.0568 188.299 19.2571 188.116 19.2628C187.669 19.2895 187.323 19.262 187.414 18.9272C186.646 19.1044 185.73 19.082 185.13 18.7815C184.981 18.5564 185.495 18.7191 185.345 18.4939C185.708 18.3932 185.434 18.721 185.797 18.6203C185.668 18.42 185.42 18.2873 185.092 18.2082C186.236 17.7129 187.574 18.1818 189.176 18.0041C188.872 18.0519 188.749 18.6813 189.415 18.4945C189.296 18.5876 189.093 18.6322 189.202 18.8586C189.623 18.6412 190.624 18.7632 191.003 18.5216C191.175 18.8226 192.41 18.6308 192.484 18.3987C193.846 18.3562 195.267 18.9118 196.475 18.4911C196.86 18.428 196.666 18.7532 196.931 18.7577C197.375 18.6545 197.554 18.5212 197.947 18.726C198.147 18.6049 198.388 18.508 198.277 18.2178C198.867 18.1994 198.447 18.4423 198.516 18.7082C199.471 18.6529 200.684 18.398 201.708 18.6086C202.006 18.3822 202.926 18.5322 202.955 18.1356C202.038 18.0876 201.361 17.9173 200.332 18.2175C200.487 17.9446 200.023 18.0867 200.098 17.8673C201.68 17.7286 202.858 17.6535 204.31 17.8763C204.459 18.1014 203.945 17.9387 204.095 18.1638C204.222 18.3258 204.807 18.1671 205.114 18.2086C205.369 18.5709 206.083 18.6252 206.837 18.6527L206.859 18.7031ZM187.284 18.676C187.938 18.7832 187.999 18.7813 188.646 18.6335C188.659 18.4032 188.453 18.3331 188.187 18.2903C188.154 18.5211 187.117 18.5408 187.284 18.676ZM204.013 18.7919C204.315 18.6931 204.001 18.4221 203.997 18.2945L203.55 18.3085C203.558 18.5763 203.726 18.7243 204.013 18.7919ZM215.039 18.7285L215.486 18.7146C215.538 18.4066 215.37 18.2586 215.023 18.2311L215.039 18.7285ZM250.607 17.4775C250.989 17.3251 250.887 17.3283 251.298 17.4559L251.292 17.2391L250.601 17.2607L250.607 17.4775ZM254.689 17.2096C254.734 17.3614 254.9 17.4583 255.145 17.4762C255.242 17.3455 255.568 17.3481 255.479 17.1083C255.091 17.0694 255.035 17.2243 254.689 17.2096ZM216.286 18.9066L216.733 18.8927L216.722 18.5355L216.275 18.5495L216.286 18.9066ZM257.771 17.5346C257.747 17.395 257.888 17.3778 257.884 17.2503L257.315 17.268C257.361 17.4198 257.527 17.5168 257.771 17.5346Z" fill="black"/>
</g>
<defs>
<clipPath id="clip0_477_355">
<rect width="380" height="19" fill="white" transform="translate(0 11.8594) rotate(-1.78846)"/>
</clipPath>
</defs>
</svg>
