<svg width="241" height="52" viewBox="0 0 241 52" fill="none" preserveAspectRatio="none" xmlns="http://www.w3.org/2000/svg">
<path fill-rule="evenodd" clip-rule="evenodd" d="M166.683 21.4709C166.674 21.69 166.887 21.7406 167.042 21.808C168.856 22.6846 170.679 23.5612 172.503 24.4378C174.404 25.348 176.305 26.2668 178.216 27.1602C178.575 27.3288 178.953 27.4805 179.263 27.7333C179.244 27.3119 178.827 27.1771 178.565 26.9495C177.702 26.1993 176.732 25.5588 175.956 24.7412C175.587 24.3535 175.16 24.0332 174.753 23.6876C173.657 22.752 172.755 21.69 171.901 20.5859C171.009 19.4227 171.096 18.2259 171.824 17.0543C172.348 16.2199 172.92 15.4191 173.395 14.5594C173.88 13.6829 174.394 12.8231 174.86 11.9381C175.316 11.0784 175.936 10.303 176.732 9.65398C177.45 9.06398 178.371 8.82798 179.321 8.67626C181.32 8.34755 183.25 8.74369 185.19 9.05555C188.788 9.63712 192.27 10.6401 195.772 11.5504C198.361 12.2247 200.941 12.9327 203.521 13.6239C203.677 13.666 203.861 13.666 204.035 13.8599C202.648 13.5143 201.329 13.194 200.01 12.8653C200.01 13.0339 200.194 12.9749 200.301 13.1434C197.935 12.5281 195.636 11.9381 193.337 11.3481C193.754 11.778 194.336 11.8876 194.879 12.0308C196.518 12.4691 198.177 12.8737 199.816 13.3036C201.775 13.8261 203.735 14.3656 205.694 14.8966C206.732 15.1747 207.808 15.3854 208.817 15.731C209.884 16.0934 211 16.2957 212.086 16.616C213.541 17.0459 214.937 17.619 216.421 17.973C216.48 17.9899 216.528 18.0236 216.664 18.0742C216.082 18.2512 215.616 18.1163 215.18 17.9224C214.996 17.8382 214.821 17.7623 214.608 17.7454C214.462 17.737 214.307 17.8129 214.307 17.56C214.307 17.4504 213.997 17.383 213.9 17.4167C213.453 17.5937 213.221 17.265 212.891 17.1639C212.396 17.0206 211.911 16.7593 211.349 16.9194C211.271 16.9447 211.097 16.9194 211.087 16.8857C210.97 16.4474 210.612 16.6413 210.311 16.6413C209.68 16.6413 209.186 16.2873 208.633 16.1019C208.381 16.0176 208.167 15.9417 207.876 15.9754C207.391 16.026 206.897 15.8406 206.48 15.672C205.966 15.4697 205.432 15.436 204.918 15.2843C204.035 15.023 203.124 14.8207 202.222 14.6016C201.475 14.4246 200.728 14.2729 199.952 14.1633C199.205 14.0621 198.487 13.8009 197.75 13.6239C197.052 13.4553 196.383 13.1519 195.636 13.1519C194.889 12.7979 194.045 12.7136 193.25 12.4691C193.027 12.4017 192.794 12.2668 192.493 12.368C192.697 12.5366 192.959 12.5197 193.172 12.5703C193.987 12.781 194.792 13.0423 195.645 13.1434C195.742 13.3963 196.024 13.371 196.227 13.43C198.565 14.0706 200.903 14.7027 203.25 15.318C205.122 15.8069 206.935 16.4306 208.807 16.9026C210.941 17.442 213.075 18.0152 215.199 18.5883C218.458 19.4817 221.717 20.392 224.976 21.2939C225.073 21.3192 225.199 21.3276 225.267 21.4203H225.277C224.937 21.5467 224.656 21.3613 224.365 21.2855C222.707 20.8387 221.067 20.3583 219.419 19.92C216.877 19.2457 214.336 18.5799 211.795 17.9224C207.828 16.8857 203.871 15.8574 199.903 14.8207C199.642 14.7533 199.389 14.6774 199.098 14.7617C202.58 15.8321 206.121 16.7087 209.632 17.7033C209.419 17.7876 209.254 17.6443 209.06 17.6274C207.469 17.4336 205.946 17.0037 204.414 16.5992C202.115 15.9923 199.816 15.3854 197.517 14.7786C196.761 14.5763 196.004 14.3909 195.209 14.1886C195.257 14.3993 195.432 14.4161 195.568 14.4499C197.595 14.9387 199.554 15.6046 201.562 16.1187C202.542 16.3716 203.512 16.6329 204.472 16.9026C204.559 16.9279 204.996 16.8689 204.676 17.1807C204.627 17.2313 204.753 17.2819 204.831 17.2903C206.363 17.5769 207.828 18.0657 209.322 18.4619C210.214 18.6979 211.106 18.9507 211.999 19.1614C213.725 19.5744 215.442 20.0465 217.13 20.5606C218.002 20.8303 218.914 20.982 219.777 21.2602C221.329 21.7575 222.93 22.1536 224.501 22.6172C225.044 22.7773 225.607 22.9627 226.169 23.0976C226.586 23.1988 227.023 23.342 227.43 23.5022C227.692 23.6118 227.954 23.5612 228.196 23.6539C228.381 23.7298 228.546 23.7719 228.565 23.9742H228.575C228.051 23.8309 227.566 24.1006 227.023 24.168C228.148 24.4883 229.283 24.817 230.456 25.1542C230.282 25.2553 230.175 25.1963 230.068 25.1542C229.506 25.0025 228.953 24.8339 228.39 24.7075C228.07 24.6316 227.75 24.4293 227.391 24.581C227.343 24.3956 227.159 24.3703 226.994 24.3282C223.938 23.4685 220.893 22.5919 217.828 21.749C215.519 21.1169 213.201 20.5185 210.893 19.9116C210.427 19.7936 209.962 19.6925 209.496 19.5744C209.68 19.7262 209.884 19.7936 210.097 19.8442C212.668 20.5353 215.238 21.2096 217.799 21.9176C221 22.7942 224.191 23.696 227.391 24.581C228.099 24.7833 228.798 24.9856 229.506 25.1879C229.7 25.2469 229.904 25.3143 230.078 25.1458C230.078 25.3228 230.243 25.3565 230.388 25.407C231.814 25.8116 233.25 26.2078 234.666 26.6461C234.986 26.7472 235.277 26.9073 235.568 27.1349C236.179 27.6238 237.003 27.8766 237.818 28.0873C238.701 28.3149 239.574 28.6015 240.418 28.9302C240.214 28.9049 240.001 28.8796 239.797 28.8543C239.797 28.8796 239.777 28.9049 239.768 28.9302C240.078 29.0398 240.389 29.1578 240.699 29.2505C240.854 29.3011 241.009 29.3263 241 29.5118C240.098 29.1156 239.118 28.9218 238.177 28.6521C235.393 27.8598 232.6 27.0928 229.816 26.3173C226.179 25.3059 222.542 24.2945 218.904 23.283C217.673 23.3673 216.586 22.8616 215.442 22.5919C213.172 22.0609 210.932 21.4287 208.672 20.8387C207.741 20.5943 206.809 20.3499 205.878 20.1139C205.122 19.9706 204.404 19.6925 203.628 19.625C204.152 19.8105 204.685 19.9706 205.228 20.097C205.432 20.1392 205.665 20.3246 205.888 20.1055C206.053 20.4257 206.441 20.4173 206.732 20.4932C211.436 21.6985 216.111 22.988 220.776 24.3113C223.638 25.1205 226.518 25.8959 229.351 26.7809C230.476 27.1349 231.562 27.5648 232.668 27.9609C233.221 28.1548 233.841 28.2138 234.346 28.5172C234.423 28.5678 234.491 28.6183 234.608 28.7026C234.239 28.8796 233.919 28.7026 233.657 28.6183C232.678 28.2812 231.659 28.0621 230.66 27.7755C229.254 27.3793 227.857 26.9748 226.451 26.587C224.724 26.1066 222.988 25.6346 221.261 25.1542C220.757 25.0193 220.262 24.8676 219.768 24.7243C219.603 24.6738 219.448 24.6232 219.225 24.6822C219.622 24.9688 220.136 24.9435 220.495 25.2048C218.759 24.817 217.071 24.286 215.306 23.9658C221.688 25.7695 228.07 27.5816 234.414 29.4949C234.026 29.5792 233.686 29.4022 233.347 29.3179C230.456 28.5762 227.566 27.8429 224.695 27.0422C222.387 26.3932 220.049 25.8538 217.711 25.3059C216.548 25.0278 215.471 24.5389 214.297 24.2523C211.64 23.6202 208.992 22.9459 206.354 22.2716C203.376 21.513 200.398 20.746 197.43 19.979C193.434 18.9507 189.448 17.8803 185.413 16.97C183.783 16.5992 182.144 16.2536 180.476 16.0681C179.903 16.0091 179.341 15.9754 178.769 16.085C178.41 16.1609 178.293 16.1946 178.565 16.498C179.36 17.383 180.33 18.1247 181.223 18.9254C183.512 20.9567 186.101 22.693 188.623 24.4883C191.329 26.41 193.987 28.3739 196.654 30.3378C197.488 30.9531 198.255 31.6358 198.827 32.4618C199.089 32.8411 199.137 33.2288 198.943 33.6671C198.526 34.6027 198.177 35.5635 197.799 36.5075C197.634 36.9374 197.459 37.3588 197.294 37.7887C197.285 37.814 197.256 37.8477 197.265 37.8645C197.566 38.286 197.032 38.4798 196.906 38.7748C196.819 38.9855 196.577 39.1372 196.315 39.1372C195.917 39.1372 195.548 39.348 195.131 39.23C195.015 39.1962 194.879 39.23 194.811 39.348C194.588 39.7525 194.21 39.6767 193.832 39.5587C192.571 39.1794 191.31 38.817 190.078 38.3618C188.701 37.8477 187.304 37.3588 185.936 36.8109C185.16 36.4991 184.375 36.2125 183.609 35.8922C181.921 35.1674 180.214 34.4678 178.555 33.6924C177.362 33.1361 176.13 32.6641 174.937 32.0994C172.125 30.7761 169.292 29.4865 166.46 28.1885C163.938 27.0338 161.407 25.8875 158.875 24.7412C156.286 23.5696 153.696 22.4149 151.096 21.2517C147.934 19.8357 144.753 18.4703 141.62 17.0037C138.943 15.7479 136.237 14.5257 133.492 13.3879C131.707 12.6461 129.874 12.0056 127.983 11.483C127.828 11.4408 127.673 11.4156 127.517 11.3903C127.217 11.3397 126.838 11.2891 126.693 11.5504C126.576 11.7611 126.897 11.9213 127.061 12.0814C128.759 13.7166 130.64 15.1916 132.512 16.6666C132.677 16.8014 132.852 16.9194 132.92 17.1133C132.813 17.0459 132.706 16.9869 132.609 16.9194C130.679 15.5371 128.895 14.02 127.129 12.486C126.79 12.191 126.489 11.8791 126.159 11.5757C126.072 11.4998 125.946 11.3987 125.83 11.5083C125.723 11.6094 125.878 11.6853 125.936 11.7443C126.373 12.1826 126.809 12.6293 127.275 13.0423C131.581 16.8352 136.286 20.2572 140.97 23.6876C143.579 25.5925 146.266 27.4046 148.963 29.2168C152.619 31.6611 156.334 34.0379 160.117 36.3305C160.214 36.3895 160.32 36.5328 160.437 36.4317C160.563 36.3137 160.398 36.1957 160.291 36.1282C159.845 35.8248 159.389 35.5214 158.924 35.2432C157.886 34.6195 156.79 34.0801 155.82 33.3889C153.958 32.0656 152.028 30.8182 150.136 29.5455C147.576 27.8176 144.966 26.1403 142.474 24.3366C140.165 22.6593 137.867 20.9736 135.577 19.2794C134.734 18.6557 133.832 18.0826 133.153 17.3072C133.599 17.4336 133.87 17.7539 134.21 18.0067C135.122 18.681 136.004 19.3722 136.926 20.038C137.265 20.2909 137.711 20.4342 138.031 20.7039C139.186 21.6479 140.485 22.457 141.678 23.3673C144.317 25.3733 147.158 27.1518 149.952 28.9892C152.765 30.8435 155.626 32.6388 158.516 34.4088C161.184 36.0355 163.773 37.755 166.402 39.4154C167.925 40.3762 169.515 41.2781 170.902 42.4075C171.504 42.8964 172.115 43.3853 172.677 43.9078C172.959 44.1691 172.93 44.54 172.794 44.8603C172.619 45.2648 172.396 45.6947 172.328 46.0824C172.192 46.7988 171.834 47.4563 171.717 48.1727C171.669 48.5099 171.523 48.8301 171.407 49.1589C171.378 49.2516 171.329 49.3443 171.358 49.437C171.543 49.8921 171.368 50.2799 171.038 50.6339C171.019 50.6507 171.009 50.6844 170.999 50.7097C170.932 50.8783 171.029 51.1564 170.854 51.1986C170.641 51.2407 170.32 51.1817 170.146 51.0637C169.709 50.7687 169.186 50.794 168.73 50.8277C167.925 50.8783 167.236 50.6001 166.538 50.3726C164.006 49.555 161.475 48.7374 159.021 47.7681C156.78 46.8831 154.559 45.956 152.309 45.0794C149.448 43.9668 146.625 42.7784 143.822 41.5731C140.185 40.0054 136.625 38.3028 133.065 36.6087C130.825 35.5467 128.584 34.4931 126.353 33.4311C121.882 31.3071 117.411 29.1746 112.939 27.0506C110.534 25.9128 108.109 24.8002 105.723 23.6286C104.656 23.106 103.57 22.6256 102.512 22.0862C101.038 21.3445 99.5056 20.687 98.0216 19.9622C97.5658 19.7346 97.0808 19.5576 96.6346 19.3216C96.4697 19.2373 96.2854 19.1867 96.0817 19.2204C96.0817 19.3806 96.2369 19.4312 96.3436 19.4986C99.4668 21.4793 102.512 23.5612 105.665 25.4998C108.002 26.9411 110.34 28.3823 112.687 29.8152C113.783 30.4811 114.908 31.1132 116.024 31.7538C116.169 31.8381 116.295 31.9561 116.499 31.8718C117.032 32.3691 117.634 32.7568 118.381 32.9759C117.866 32.5882 117.314 32.2511 116.751 31.9139C116.673 31.8634 116.586 31.8381 116.489 31.8886C116.285 31.4925 115.83 31.3492 115.461 31.1469C113.608 30.0933 111.872 28.9049 110.068 27.7923C107.934 26.469 105.8 25.1373 103.676 23.8056C103.502 23.696 103.279 23.6202 103.23 23.3926H103.22C103.657 23.4938 103.948 23.7719 104.287 23.991C106.392 25.3396 108.565 26.5871 110.718 27.8766C113.948 29.7983 117.352 31.5009 120.437 33.6081C121.213 34.1391 122.018 34.6364 122.794 35.1674C123.23 35.4624 123.104 35.9259 122.968 36.2378C122.648 36.9627 122.493 37.7465 121.96 38.404C121.882 38.4967 121.901 38.64 121.892 38.7664C121.833 39.3395 121.513 39.8537 121.281 40.3678C121.125 40.7218 121.222 41.0421 121.164 41.3708C121.125 41.5984 121.116 41.8007 120.844 41.9271C120.573 42.0535 120.611 42.1968 120.854 42.3233C120.931 42.3654 121.038 42.4075 120.999 42.5087C120.961 42.6098 120.844 42.5761 120.747 42.5845C120.398 42.6351 120.049 42.6014 119.719 42.475C118.497 42.0367 117.188 41.8344 115.985 41.3455C114.792 40.8567 113.57 40.4015 112.386 39.9042C111.184 39.3985 109.981 38.8844 108.788 38.3618C104.026 36.2631 99.4086 33.9452 94.7723 31.6442C89.3504 28.9471 83.9576 26.2162 78.6229 23.401C75.4998 21.7575 72.4251 20.0633 69.3116 18.4029C66.1593 16.7256 62.9876 15.0736 59.7577 13.5143C58.9624 13.1266 58.167 12.7051 57.168 12.6124C57.7597 12.9749 58.1088 13.4806 58.6035 13.8851C60.427 15.3686 62.2505 16.8604 64.103 18.3102C65.6743 19.5407 67.3038 20.7207 68.9333 21.9007C71.0963 23.4685 73.2689 25.0278 75.5095 26.5112C76.9547 27.4636 78.3514 28.4666 79.8354 29.3853C80.7277 29.9332 81.5327 30.5906 82.4736 31.0879C82.7452 31.3155 82.9488 31.6358 83.4144 31.5936C83.4144 32.0404 83.9091 32.0488 84.1807 32.2595C84.0255 31.9476 83.686 31.8044 83.4047 31.6021C83.1331 31.3745 82.881 31.1216 82.4639 31.0964C82.396 30.7676 82.0371 30.6749 81.814 30.4642C81.6103 30.2788 81.3873 30.1018 81.1157 29.8742C81.4066 29.8826 81.5327 30.0091 81.6782 30.1018C83.3756 31.1975 85.0827 32.2764 86.6734 33.4901C87.1778 33.8694 87.6821 34.2571 88.138 34.6785C88.5163 35.0325 88.6715 35.4455 88.4096 35.9681C87.847 37.1059 87.2651 38.2438 86.848 39.4238C86.6637 39.9295 86.2369 40.4184 86.4212 41.0337C86.4794 41.2444 86.1205 41.2023 85.9459 41.2865C85.975 41.354 86.0138 41.413 86.0235 41.4804C86.0526 41.6743 86.266 41.8934 86.0332 42.062C85.7811 42.2474 85.4319 42.2895 85.1312 42.1968C84.9275 42.1378 84.7432 42.0873 84.5395 42.1041C84.5104 42.1041 84.4716 42.0957 84.4425 42.1041C84.1904 42.18 84.2001 41.5647 83.7636 41.9355C83.6278 42.0535 83.1331 41.8681 82.8131 41.7923C81.8625 41.5563 80.9411 41.2444 80.0196 40.9325C77.5754 40.115 75.2185 39.1372 72.8712 38.1511C68.4774 36.3137 64.1709 34.3329 59.9129 32.2679C54.976 29.8742 50.0972 27.3878 45.2475 24.8676C45.0826 24.7833 44.9177 24.7075 44.7432 24.6316C44.6559 24.5979 44.5298 24.5052 44.4522 24.6232C44.394 24.7075 44.4716 24.8086 44.5589 24.876C44.782 25.053 45.0147 25.2216 45.2378 25.3986C46.2369 26.174 47.2359 26.941 48.2252 27.7165C49.0497 28.3571 50.039 28.8459 50.7567 29.5876C51.1544 30.0006 51.6394 30.3378 52.0953 30.7002C52.1825 30.7676 52.2892 31.2396 52.5705 30.8098C52.6772 30.8688 52.7936 30.9109 52.8906 30.9784C54.588 32.2764 56.2951 33.5828 57.9925 34.8808C58.943 35.6057 59.9129 36.3137 60.7665 37.1312C60.9896 37.3504 61.1738 37.578 61.329 37.8392C61.5909 38.2607 61.2611 38.5978 61.1253 38.9265C60.7665 39.7525 60.3882 40.5617 59.9517 41.3624C59.7868 41.6743 59.5056 42.0198 59.5928 42.4244C59.6025 42.475 59.5831 42.5424 59.5443 42.5845C59.0788 43.1324 59.1176 43.7898 58.9915 44.4136C58.9721 44.5147 58.9139 44.599 58.8169 44.6496C58.6617 44.7338 58.6132 44.8181 58.6811 44.9951C58.7587 45.2227 58.4483 45.4924 58.2155 45.3997C57.5754 45.1553 56.8867 45.13 56.2272 45.0036C54.4716 44.6664 52.8518 44.0174 51.1835 43.4948C47.75 42.4328 44.5395 40.9578 41.4066 39.3648C38.2446 37.7465 34.9856 36.2631 31.8818 34.5521C30.9992 34.0632 30.0584 33.6418 29.2339 33.0771C28.7392 32.7399 28.264 32.3775 27.779 32.0319C27.4492 31.8044 27.168 31.5599 26.6539 31.6274C26.2174 31.6779 25.7712 31.3829 25.5773 31.0964C25.2572 30.6159 24.7722 30.3546 24.2776 30.0933C23.1815 29.5118 22.1437 28.8628 21.1059 28.1969C19.5928 27.2192 17.9342 26.4185 16.4211 25.4323C15.1893 24.6316 13.9284 23.8646 12.745 23.0049C12.6189 22.9122 12.4541 22.8447 12.4056 22.6677C12.7159 22.5835 12.9778 22.811 13.327 22.7689C13.1815 22.5835 13.0166 22.4823 12.842 22.3812C12.6577 22.2716 12.4832 22.1452 12.3377 22.0019C12.0467 21.6985 12.0952 21.572 12.6286 21.4203C9.62185 19.33 6.66355 17.2819 3.70525 15.2253C3.91864 15.0989 4.00593 15.4191 4.22902 15.2674C4.18052 15.082 3.97683 14.964 3.80225 14.8629C3.44337 14.6437 3.0651 14.433 2.66742 14.256C2.34735 14.1127 2.04667 13.9779 2.05637 13.607C2.05637 13.5396 2.05637 13.4553 1.95937 13.43C1.33861 13.2951 0.96034 12.7726 0.320184 12.663C0.0970991 12.6209 -0.0386917 12.5197 0.00980501 12.3174C0.22319 11.3734 0.601465 10.5221 1.64899 10.0248C1.91088 9.89841 2.20186 9.96584 2.48314 9.88155C2.26975 9.76355 2.04667 9.94055 1.83328 9.78884C2.20186 9.49384 2.64803 9.61184 3.0457 9.5697C3.37548 9.53598 3.69555 9.75513 4.06413 9.4517C4.23872 9.29998 4.69459 9.60341 5.02436 9.6877C6.98363 10.2018 8.57432 11.2638 10.1262 12.3596C11.7072 13.4721 13.2785 14.5931 14.8789 15.6804C16.0428 16.4643 17.2649 17.1723 18.4288 17.9562C18.9914 18.327 19.5734 18.681 20.0777 19.1277C20.2717 19.3047 19.9904 19.507 20.2717 19.6503C20.7664 19.8863 21.1738 20.3162 21.6878 20.4173C22.0661 20.4932 22.1922 20.687 22.4347 20.8472C22.8517 21.1169 23.2688 21.3782 23.812 21.4793C24.0739 21.5299 24.1224 21.8417 24.4036 21.985C25.3057 22.4486 26.0816 23.0808 27.0419 23.4516C27.876 23.7635 28.5938 24.2355 29.3697 24.6316C30.0196 24.9688 30.6694 25.3228 31.3096 25.6768C31.3872 25.7189 31.4454 25.7863 31.4745 25.8875C30.65 25.5082 29.8256 25.1289 28.9914 24.7496C29.5152 25.2469 30.039 25.7442 30.7567 25.9802C31.3096 26.1656 31.7848 26.4522 32.2989 26.6798C33.0264 27.0001 33.6956 27.3962 34.491 27.6406C35.0535 27.8176 35.5288 28.2053 36.0429 28.5003C36.1883 28.5846 36.3047 28.7111 36.5375 28.6858C36.5569 28.5341 36.4017 28.4751 36.3144 28.3992C34.6364 26.8736 32.8809 25.4155 31.2029 23.8899C29.6025 22.4317 27.8857 21.0747 26.2562 19.6503C25.0147 18.563 23.8314 17.4252 22.5317 16.3884C20.6597 14.8966 18.9817 13.2277 17.197 11.66C16.1107 10.7076 15.0341 9.7467 13.9866 8.76898C13.3561 8.17898 12.842 7.48783 12.1631 6.9484C11.6393 6.52697 12.0079 6.37525 12.2504 6.07182C12.7935 5.38068 13.4143 4.74853 13.9575 4.06582C14.7528 3.05438 15.4027 1.96709 16.2465 0.989375C16.877 0.256086 18.0603 -0.241202 19.0011 0.121228C19.5346 0.323515 20.068 0.626945 20.6112 0.871374C22.3183 1.67209 23.7538 2.7931 25.2669 3.82139C28.3901 5.94539 31.5327 8.02726 34.811 9.95741C37.1486 11.3313 39.5152 12.6461 41.8915 13.9526C45.5094 15.9417 49.1176 17.9393 52.813 19.8105C53.1816 19.9959 53.5308 20.215 53.909 20.4005C54.0351 20.4595 54.2291 20.5943 54.3358 20.4679C54.4522 20.3415 54.2679 20.2235 54.1612 20.1223C53.4532 19.4986 52.7354 18.8917 52.0371 18.268C49.5831 16.0766 47.1195 13.8851 44.9856 11.4408C44.3261 10.6907 43.6762 9.94055 43.0458 9.18198C42.8906 8.99655 42.7936 8.76898 42.7257 8.54141C42.6675 8.33912 42.6772 8.16212 42.328 8.15369C42.1049 8.14526 42.0952 7.93455 42.2504 7.76597C42.7548 7.23497 43.3271 6.73768 43.7247 6.15611C44.0739 5.64196 44.5007 5.16996 44.8401 4.63896C45.5385 3.55167 46.2078 2.4391 47.2165 1.53723C47.6821 1.12423 48.264 0.879803 48.9333 0.803945C50.1845 0.669088 51.329 0.905089 52.4832 1.36023C53.7441 1.84909 55.0148 2.29581 56.2369 2.86053C58.3028 3.81296 60.3203 4.81596 62.3377 5.85268C63.9478 6.67868 65.5288 7.56369 67.1389 8.38969C68.7975 9.24098 70.4658 10.067 72.0371 11.0278C72.7548 11.4661 73.4823 11.9044 74.0934 12.4776C74.4328 12.7979 74.8887 13.0086 75.2185 13.3541C75.3349 13.4721 75.4707 13.4384 75.6646 13.3794C74.9857 12.9411 74.5395 12.3258 73.8121 11.9466C73.5017 11.7864 73.3368 11.4661 73.1331 11.2217C72.7936 10.8003 72.3669 10.4547 72.008 10.0501C71.9595 9.99113 71.8722 9.93213 71.9498 9.88155C72.2699 9.6877 72.2311 9.25784 72.6287 9.11455C72.9003 9.01341 72.8712 8.74369 73.0264 8.56669C73.8315 7.64797 74.4716 6.64497 75.0924 5.63354C75.364 5.18682 75.6743 4.75696 75.9847 4.33553C77.1971 2.65824 78.9721 2.19467 80.9702 2.9111C83.1525 3.69496 85.2767 4.63053 87.3329 5.65882C91.0963 7.54683 94.8014 9.51912 98.5648 11.4071C102.813 13.5311 107.081 15.6299 111.349 17.737C113.123 18.6136 114.908 19.4565 116.693 20.3162C119.03 21.4372 121.387 22.5413 123.705 23.696C125.539 24.6148 127.411 25.466 129.224 26.41C129.962 26.7978 130.689 27.2192 131.523 27.4805C131.901 27.6069 132.231 27.8766 132.609 28.0452C133.696 28.5256 134.782 28.9976 135.83 29.5455C136.431 29.8573 137.042 30.1692 137.653 30.4811C137.837 30.5738 137.954 30.7086 138.08 30.9025C137.352 30.9109 136.906 30.1608 136.15 30.4558H136.169C136.227 30.3715 136.47 30.3041 136.247 30.1776C135.946 30.0006 135.626 29.8573 135.306 29.7056C135.219 29.6635 135.092 29.6045 135.005 29.7056C134.947 29.7815 135.025 29.8573 135.073 29.9332C135.18 30.0681 135.383 30.1439 135.374 30.3378C134.142 29.7225 132.91 29.1156 131.669 28.5256C130.379 27.9103 129.069 27.3035 127.779 26.6882C126.198 25.9465 124.598 25.2385 123.065 24.4209C122.571 24.1512 122.008 23.9995 121.533 23.7045C121.028 23.3926 120.476 23.1482 119.932 22.8953C119.709 22.7942 119.477 22.6593 119.331 22.4402C119.166 22.1873 118.798 22.2885 118.526 22.162C117.944 21.8923 117.314 21.6732 116.761 21.3697C115.568 20.7207 114.287 20.2319 113.065 19.6419C110.621 18.4534 108.148 17.324 105.742 16.085C102.997 14.6774 100.155 13.4384 97.4203 12.0224C97.139 11.8707 96.8383 11.7527 96.4794 11.6937C96.751 11.8538 97.0226 12.0224 97.3039 12.1657C100.311 13.666 103.317 15.1747 106.334 16.6666C108.216 17.5937 110.117 18.4956 112.008 19.4059C114.026 20.3752 116.043 21.3529 118.06 22.3306C119.661 23.106 121.252 23.8899 122.871 24.6316C123.259 24.8086 123.337 25.171 123.715 25.348C125.102 25.9886 126.46 26.6882 127.837 27.3541C129.612 28.2222 131.397 29.0819 133.172 29.9416C135.306 30.9784 137.459 31.9982 139.583 33.0434C141.63 34.0548 143.773 34.9061 145.762 36.0102C145.839 36.0524 145.946 36.0692 145.965 36.1788C145.849 36.2968 145.733 36.1957 145.636 36.1535C143.783 35.3107 141.931 34.4762 140.126 33.5575C139.797 33.3889 139.428 33.2962 139.118 33.1024C138.225 32.5629 137.188 32.2426 136.276 31.7538C135.684 31.4335 135.122 31.0879 134.491 30.8182C133.017 30.1776 131.62 29.4022 130.175 28.7279C127.382 27.4131 124.617 26.0645 121.843 24.7159C119.622 23.637 117.391 22.5919 115.16 21.5383C115.005 21.4625 114.85 21.3529 114.617 21.3782C114.976 21.8417 115.577 21.9766 116.072 22.2295C117.449 22.9375 118.856 23.6118 120.253 24.286C122.59 25.4155 124.928 26.5365 127.275 27.6575C128.73 28.3486 130.146 29.0988 131.601 29.7731C133.521 30.6665 135.403 31.6189 137.314 32.5376C140.476 34.0548 143.647 35.5551 146.877 36.9458C147.217 37.0891 147.517 37.3504 147.983 37.3167C147.828 36.9711 147.44 36.8615 147.178 36.7435C146.324 36.3558 145.878 35.5635 145.015 35.1927C144.821 35.1084 144.656 34.9735 144.481 34.8471C144.375 34.7712 144.152 34.7628 144.19 34.6111C144.229 34.4509 144.394 34.3582 144.695 34.3919C144.423 34.1559 144.229 34.0295 143.899 34.1222C143.609 34.1981 143.327 34.1222 143.104 33.9452C142.115 33.1866 140.893 32.6978 139.981 31.8549C139.263 31.1891 138.322 30.7508 137.576 30.1102C137.265 29.8405 137.129 29.4696 136.761 29.2336C136.45 29.0313 136.208 28.7953 135.81 28.6521C135.17 28.4245 134.666 28.0031 134.249 27.4805C133.987 27.1518 133.725 26.8315 133.298 26.5786C132.648 26.1993 132.163 25.6009 131.581 25.1289C130.767 24.4715 129.903 23.8562 129.079 23.2072C128.128 22.4739 127.197 21.7153 126.247 20.982C124.889 19.9285 123.696 18.7484 122.454 17.6022C121.998 17.1807 121.727 16.6582 121.261 16.2536C121.155 16.1609 121.106 16.0092 120.893 15.9586C120.893 16.2114 121.164 16.3294 121.222 16.5823C120.32 15.8743 119.806 14.9893 119.253 14.0284C119.118 14.3993 119.302 14.6184 119.447 14.846C119.234 14.905 119.244 14.7533 119.205 14.6943C118.361 13.3036 118.487 11.9803 119.612 10.7413C120.039 10.2693 120.243 9.70455 120.582 9.19884C121.484 7.80812 122.173 6.31625 123.191 4.97611C123.909 4.02367 125.015 3.68653 126.218 3.5011C127.546 3.29881 128.836 3.45896 130.059 3.88039C133.599 5.10253 137.168 6.28254 140.505 7.92612C141.669 8.49926 142.891 8.98812 144.045 9.56127C145.868 10.4716 147.711 11.3481 149.583 12.1826C152.338 13.4216 155.102 14.6606 157.857 15.908C160.941 17.2903 164.006 18.7063 167.062 20.1392C168.361 20.746 169.661 21.336 170.941 21.9766C171.145 22.0777 171.455 22.1199 171.475 22.4233C171.475 22.4739 171.688 22.5666 171.775 22.5497C172.125 22.4739 172.357 22.6593 172.61 22.7857C172.784 22.87 173.085 22.8447 173.036 23.1819C173.017 23.2746 173.463 23.4179 173.686 23.5443C173.977 23.7129 174.394 23.7382 174.559 24.1343C174.142 24.0753 173.851 23.8562 173.531 23.7129C172.736 23.3758 171.95 22.9965 171.164 22.634C171.067 22.5919 170.951 22.4317 170.844 22.5835C170.738 22.7436 170.951 22.7942 171.058 22.8447C172.095 23.3589 173.124 23.873 174.161 24.3788C174.414 24.4968 174.656 24.6316 174.918 24.7159C175.859 25.0278 176.402 25.761 177.139 26.2836C173.638 24.6653 170.126 23.047 166.625 21.4372C166.897 21.3782 167.12 21.5467 167.401 21.5299C166.596 21.1169 165.849 20.6112 164.937 20.3752C164.511 20.0465 164.016 19.8105 163.453 19.6925C163.958 19.9032 164.336 20.3162 164.947 20.3667C165.025 20.5943 165.287 20.6196 165.471 20.7376C165.859 20.9736 166.392 21.041 166.644 21.4456L166.683 21.4709ZM169.021 23.342C169.341 23.5275 169.603 23.7888 170.03 23.7803C170.03 23.8562 170.068 23.9152 170.146 23.9489C171.058 24.3872 171.979 24.817 172.901 25.2469C172.978 25.289 173.075 25.3143 173.172 25.1963C172.571 24.9098 171.989 24.6063 171.387 24.3535C170.932 24.168 170.563 23.8225 170.039 23.7888C169.787 23.4853 169.428 23.3926 169.03 23.3505C168.691 22.9375 168.119 22.8869 167.653 22.6593C168.08 22.9459 168.507 23.224 169.04 23.342H169.021ZM133.366 28.8543C133.24 28.6689 133.056 28.6015 132.823 28.6689C132.755 28.6858 132.706 28.7953 132.784 28.8459C132.978 28.9892 133.182 28.9976 133.376 28.8459C133.395 29.2336 133.696 29.4443 134.394 29.5623C134.346 29.4275 134.394 29.1915 134.152 29.2421C133.725 29.3263 133.55 29.0988 133.366 28.8628V28.8543ZM173.124 26.4353C172.745 26.1909 172.377 25.938 171.901 25.8453C171.931 25.6852 171.863 25.5756 171.688 25.5166C170.553 25.0952 169.554 24.4462 168.429 24.0163C168.148 23.8899 167.925 23.6708 167.585 23.6623C167.847 23.814 168.012 24.168 168.439 23.9995C168.429 24.1596 168.546 24.2523 168.681 24.3282C169.04 24.5473 169.37 24.8002 169.758 24.9603C170.466 25.2638 171.067 25.7779 171.911 25.8285C172.183 26.2415 172.668 26.3173 173.143 26.41C173.502 26.8146 174.026 26.9748 174.569 27.0843C174.103 26.8399 173.686 26.5196 173.124 26.4269V26.4353ZM76.1399 34.1222C76.1011 34.5184 76.4115 34.6532 76.7898 34.8049C76.6637 34.4594 76.2466 34.4004 76.1399 34.1222C75.8586 34.0464 75.7131 33.7935 75.4513 33.7008C75.3543 33.6671 75.2573 33.6586 75.1894 33.7176C75.1312 33.7598 75.17 33.8441 75.2185 33.8609C75.5095 33.9958 75.7034 34.4004 76.1496 34.1222H76.1399ZM17.2358 10.3704C17.3522 10.7076 17.7208 10.8677 17.9536 11.1206C18.0215 11.188 18.0991 11.1206 18.1573 11.07C18.1864 11.5588 18.6713 11.778 19.0011 12.0646C20.553 13.4469 22.134 14.8039 23.7053 16.1693C23.8411 16.2873 23.9478 16.4559 24.2 16.4727C24.2 16.4053 24.2097 16.3547 24.1903 16.3379C23.5695 15.7563 22.9584 15.1663 22.3183 14.61C21.5811 13.961 20.8052 13.3373 20.0486 12.6967C19.4182 12.1573 18.7877 11.6178 18.1573 11.0868C17.8857 10.8256 17.6917 10.48 17.2746 10.3451C16.9545 9.8057 16.0816 9.04712 15.6063 8.93755C15.8682 9.17355 16.0622 9.42641 16.3241 9.58655C16.683 9.8057 16.7994 10.2356 17.2455 10.3704H17.2358ZM28.9138 20.5943C28.972 20.451 28.8653 20.3752 28.7586 20.2909C28.361 19.9622 27.9827 19.6166 27.6044 19.271C27.5365 19.212 27.488 19.1277 27.3425 19.2542C27.7984 19.7599 28.2737 20.2487 28.9235 20.5859C29.36 21.1422 29.9517 21.5552 30.5239 22.0272C30.6209 21.867 30.553 21.8165 30.4948 21.7659C30.1069 21.4287 29.7286 21.0832 29.3309 20.7545C29.2242 20.6702 29.1078 20.5522 28.9138 20.5943ZM48.7684 35.8079C48.9236 36.1957 49.3503 36.3221 49.6898 36.5328C49.5055 36.1872 49.1079 35.9007 48.7587 35.8248C48.5647 35.3697 48.1088 35.1168 47.7306 34.7965C47.6724 34.7459 47.556 34.7207 47.4687 34.7965C47.3814 34.8808 47.4493 34.9651 47.5269 35.0072C47.9439 35.2685 48.2737 35.6394 48.7684 35.8079ZM165.034 19.8947C164.792 19.5239 164.2 19.271 163.87 19.4227C164.191 19.4564 164.462 19.5407 164.627 19.7599C164.743 19.9116 164.899 19.8695 165.054 19.8863C165.723 20.3583 166.47 20.7039 167.285 20.9483C166.567 20.5437 165.917 20.0465 165.044 19.9032L165.034 19.8947ZM48.9818 13.371C49.0109 13.312 49.0885 13.2361 49.0691 13.1856C48.9236 12.8316 48.5453 12.6209 48.2931 12.3343C48.2252 12.2584 48.0991 12.3343 48.1476 12.4439C48.3125 12.8316 48.5162 13.2024 49.0206 13.3457C49.0012 13.6239 49.3018 13.6829 49.4667 13.8261C49.5346 13.8851 49.5831 13.9694 49.6898 13.8767C49.8062 13.784 49.748 13.6829 49.6607 13.6323C49.4667 13.5059 49.2824 13.3289 48.9915 13.3626L48.9818 13.371ZM57.4202 26.9916C57.0322 26.6292 56.4988 26.4775 56.0041 26.2836C56.46 26.5449 56.8673 26.8905 57.4299 26.9832C57.6918 27.3203 58.1379 27.4299 58.5162 27.6153C59.137 27.9188 59.6995 28.3233 60.4076 28.4666C61.1253 28.9976 61.9401 29.3769 62.813 29.6719C63.9284 30.3462 65.1603 30.8351 66.3727 31.3492C65.5773 30.8941 64.7529 30.4895 63.909 30.1186C63.5502 29.9585 63.2495 29.6719 62.8033 29.6888C62.0856 29.1662 61.2708 28.7785 60.3979 28.4835C60.3882 28.4076 60.3397 28.3655 60.2621 28.3318C59.5249 27.9693 58.7975 27.5901 58.0506 27.2361C57.847 27.1349 57.6821 26.9748 57.4105 27.0001L57.4202 26.9916ZM151.455 16.4643C151.446 16.6076 151.581 16.6413 151.688 16.6919C152.163 16.911 152.619 17.1639 153.114 17.3324C153.667 17.5263 154.123 17.8972 154.734 17.9477C154.782 18.1247 154.976 18.1584 155.122 18.2259C157.323 19.2457 159.525 20.2572 161.737 21.2602C161.989 21.3782 162.212 21.572 162.648 21.5299C162.319 21.3529 162.086 21.218 161.843 21.1C160.117 20.3077 158.4 19.4986 156.654 18.7316C156.024 18.4534 155.422 18.0994 154.724 17.9562C153.706 17.3324 152.571 16.9026 151.436 16.4727C150.602 15.9754 149.632 15.6804 148.769 15.2337C148.468 15.082 148.148 14.9556 147.837 14.8123C147.837 14.9134 147.876 14.9556 147.934 14.9809C149.001 15.4697 150.068 15.9502 151.126 16.439C151.232 16.4896 151.339 16.498 151.446 16.4643H151.455ZM145.18 36.9542C145.364 37.0385 145.539 37.1228 145.723 37.2071C146.334 37.4852 146.945 37.7718 147.566 38.0415C147.682 38.0921 147.876 38.1342 147.954 37.991C148.031 37.8308 147.799 37.8308 147.721 37.7971C147.197 37.6032 146.683 37.4094 146.208 37.1228C145.917 36.9458 145.548 36.8362 145.17 36.9627C145.209 36.7688 145.151 36.6424 144.918 36.5412C144.103 36.1788 143.23 35.9007 142.464 35.4371C142.377 35.3865 142.318 35.4371 142.251 35.4877C141.96 35.2432 141.63 35.0578 141.213 35.0325C141.494 35.3022 141.775 35.5719 142.27 35.4792C142.27 35.8164 142.648 35.7574 142.852 35.8754C143.579 36.3052 144.375 36.6508 145.18 36.9542ZM137.896 38.1005C137.993 38.168 138.08 38.2607 138.187 38.3112C139.176 38.7832 140.175 39.2468 141.174 39.7104C141.31 39.7694 141.446 39.8958 141.63 39.8284C141.649 39.6935 141.552 39.6682 141.465 39.6261C140.417 39.1541 139.38 38.6821 138.332 38.2185C138.196 38.1595 138.061 38.0668 137.886 38.109C137.857 37.9825 137.74 37.932 137.624 37.8814C136.189 37.1987 134.753 36.5159 133.308 35.8501C133.046 35.7321 132.833 35.4792 132.386 35.5635C132.59 35.6731 132.716 35.7489 132.852 35.8079C133.977 36.3389 135.092 36.8868 136.237 37.401C136.78 37.6454 137.275 37.991 137.905 38.0921L137.896 38.1005ZM133.279 31.2565C133.318 31.4082 133.444 31.4756 133.589 31.5431C134.462 31.9645 135.335 32.3944 136.218 32.8158C136.334 32.8748 136.518 33.0434 136.625 32.8579C136.741 32.6725 136.48 32.6051 136.344 32.5545C135.82 32.3691 135.325 32.1415 134.86 31.8634C134.452 31.6274 133.996 31.4504 133.56 31.2565C133.453 31.2059 133.337 31.1132 133.24 31.2649C133.162 31.1806 133.114 31.0626 133.017 31.0036C132.018 30.4136 130.893 30.0175 129.874 29.4612C129.787 29.4106 129.68 29.4275 129.632 29.5118C129.574 29.6213 129.7 29.6635 129.768 29.6972C130.825 30.2114 131.892 30.7255 132.949 31.2396C133.065 31.2986 133.172 31.3576 133.288 31.2565H133.279ZM174.385 25.8706C174.258 25.466 173.822 25.525 173.502 25.407C173.725 25.6852 174.074 25.7526 174.394 25.8622C174.433 25.9633 174.54 25.997 174.637 26.0392C176.218 26.7725 177.799 27.4973 179.36 28.2475C179.913 28.5172 180.447 28.8122 181.087 28.9892C181.077 28.8291 180.951 28.8038 180.873 28.7448C180.524 28.4919 180.078 28.4076 179.69 28.2306C178.08 27.4805 176.48 26.7219 174.879 25.9549C174.724 25.879 174.579 25.7948 174.394 25.879L174.385 25.8706ZM60.718 6.7714C60.6986 6.6534 60.5822 6.62811 60.4852 6.57754C59.7868 6.22354 59.0982 5.86954 58.3998 5.52396C58.2349 5.43968 58.0991 5.30482 57.8664 5.34696C58.7684 5.88639 59.6898 6.40054 60.6889 6.79668C60.6986 6.82197 60.6986 6.86411 60.7277 6.87254C61.9207 7.49626 63.1234 8.11998 64.3261 8.73526C65.6937 9.44327 67.0516 10.1428 68.4192 10.8424C68.6908 10.9773 68.9333 11.1796 69.3019 11.1796C69.2728 10.9941 69.1176 10.9604 69.0012 10.893C66.557 9.64555 64.1127 8.38126 61.6491 7.15069C61.3581 7.0074 61.1059 6.75454 60.7277 6.76297L60.718 6.7714ZM144.685 41.118C143.744 40.6965 142.803 40.2667 141.863 39.8452C141.834 39.8874 141.814 39.9295 141.785 39.9717C142.609 40.3594 143.424 40.7808 144.287 41.1011C144.423 41.1517 144.559 41.1854 144.695 41.1011C144.627 41.3118 144.84 41.3118 144.966 41.3792C146.15 42.0114 147.43 42.4665 148.672 42.9975C150.738 43.8825 152.823 44.7254 154.908 45.5683C155.034 45.6188 155.17 45.7368 155.335 45.6526C155.383 45.4924 155.228 45.484 155.141 45.4503C153.347 44.717 151.552 43.9921 149.768 43.2504C148.953 42.9133 148.148 42.5593 147.333 42.2137C146.45 41.8428 145.568 41.472 144.685 41.1011V41.118ZM70.9896 12.0308C70.8053 11.778 70.524 11.6768 70.1069 11.601C70.3979 11.8791 70.6307 12.0646 70.9993 12.014C70.9702 12.2163 71.1835 12.2668 71.3193 12.3427C72.3766 12.9327 73.4435 13.5059 74.5104 14.079C76.2854 15.0483 78.0604 16.026 79.8451 16.9953C80.0003 17.0796 80.1554 17.2482 80.3979 17.1302C80.039 16.5739 79.2243 16.498 78.8848 15.9417C78.8751 15.9164 78.7975 15.908 78.749 15.9164C78.2932 15.967 77.9731 15.7226 77.6336 15.5287C77.4105 15.4023 77.1971 15.259 76.9644 15.141C76.0623 14.6859 75.1991 14.1717 74.297 13.7166C73.1913 13.1603 72.1632 12.486 70.9896 12.0224V12.0308ZM182.163 34.7712C182.202 34.8134 182.231 34.8808 182.28 34.8977C183.579 35.4118 184.889 35.9175 186.198 36.4148C186.441 36.5075 186.683 36.6171 187.071 36.6255C186.887 36.5328 186.79 36.4738 186.693 36.4317C185.481 35.9512 184.258 35.4708 183.036 35.0072C182.755 34.9061 182.522 34.6448 182.163 34.7712C182.212 34.5605 181.979 34.5689 181.863 34.5184C181.029 34.1475 180.175 33.8104 179.351 33.4226C175.772 31.7538 172.212 30.0765 168.633 28.4076C168.487 28.3402 168.332 28.2138 168.119 28.2728C168.187 28.4161 168.322 28.4413 168.429 28.4919C169.981 29.2758 171.572 30.0006 173.153 30.7339C175.878 32.0151 178.575 33.3552 181.378 34.5099C181.63 34.6111 181.863 34.7797 182.173 34.7544L182.163 34.7712ZM78.749 35.1168C78.749 35.2854 78.9333 35.3275 79.0497 35.4118C79.913 36.0187 80.7665 36.6255 81.6491 37.2155C81.9886 37.4431 82.299 37.7212 82.7258 37.8477C82.7646 37.7212 82.6676 37.7044 82.6191 37.6622C81.6103 36.9542 80.6016 36.2462 79.5735 35.5635C79.3213 35.3949 79.1079 35.1421 78.7393 35.1337C78.7393 34.9819 78.6132 34.9145 78.4968 34.8387C77.4687 34.1475 76.4406 33.4648 75.4125 32.7652C73.2301 31.2734 70.9508 29.8826 68.8266 28.3233C68.4968 28.0789 68.1671 27.8598 67.7112 27.6912C67.9052 27.9778 68.1671 28.1295 68.4095 28.2981C69.8644 29.3011 71.3096 30.3209 72.7839 31.3071C74.491 32.4534 76.2175 33.5828 77.9537 34.7038C78.1962 34.8639 78.3708 35.1421 78.7393 35.1252L78.749 35.1168ZM176.868 28.2391C176.722 27.9441 176.402 27.9103 176.092 27.7839C176.208 28.1969 176.557 28.1885 176.877 28.2306C176.809 28.2896 176.741 28.3571 176.674 28.4161H176.683C176.256 28.3149 175.898 28.1126 175.519 27.9356C173.938 27.2023 172.357 26.4606 170.767 25.7273C170.689 25.6936 170.592 25.643 170.466 25.7779C174.317 27.6491 178.177 29.4865 182.134 31.1722C181.843 30.7929 181.368 30.5738 180.951 30.4221C179.933 30.0343 178.972 29.5708 178.041 29.0566C177.944 29.0061 177.857 28.9723 177.818 28.8628C177.682 28.4076 177.391 28.2306 176.858 28.2559L176.868 28.2391ZM59.7092 22.6172C59.5637 22.752 59.6704 22.8279 59.7771 22.9206C60.2718 23.3083 60.7568 23.7129 61.2514 24.0922C63.4338 25.7695 65.684 27.3793 67.944 28.9723C68.3319 29.2505 68.6908 29.5708 69.1952 29.7393C69.234 29.5961 69.3019 29.4781 69.137 29.3601C68.6811 29.0313 68.2058 28.7111 67.75 28.3739C67.3814 28.1042 66.8286 28.0283 66.5958 27.5901C66.5861 27.5648 66.5085 27.5563 66.46 27.5563C66.2466 27.5311 66.1205 27.4046 66.0526 27.2361C66.0041 27.1096 65.9265 27.0085 65.781 26.9663C65.2864 26.8231 65.0245 26.4269 64.6365 26.1656C63.9769 25.7273 63.3853 25.2132 62.716 24.7665C62.3572 24.5305 61.9595 24.2945 61.6685 24.0248C61.1544 23.5528 60.5337 23.1903 60.039 22.693C59.9517 22.6087 59.8159 22.5245 59.6607 22.634C59.7577 22.3053 59.4377 22.221 59.234 22.0609C58.8557 21.7827 58.4483 21.513 58.1282 21.1927C57.9634 21.0326 57.8276 20.8809 57.6045 20.805C57.4978 20.7713 57.3717 20.7545 57.3329 20.6533C57.1389 20.156 56.586 19.9537 56.1884 19.6334C55.8974 19.3974 55.5482 19.1699 55.3251 18.917C54.6365 18.1584 53.7344 17.5853 53.0167 16.852C52.6772 16.5064 52.328 16.144 51.9207 15.8574C51.5715 15.613 51.3193 15.3096 51.0477 15.0061C50.9895 14.9387 50.8828 14.8039 50.7374 14.9471C50.621 15.0483 50.6501 15.141 50.7374 15.2421C50.7955 15.3096 50.8537 15.377 50.9216 15.436C51.7364 16.1693 52.5414 16.911 53.3562 17.6359C54.1224 18.3102 54.9178 18.9676 55.684 19.6503C56.7897 20.6196 57.9537 21.5467 59.137 22.4486C59.3019 22.575 59.4571 22.6762 59.6898 22.634L59.7092 22.6172ZM130.931 33.4901C130.505 33.0939 129.894 32.9675 129.38 32.6978C128.613 32.3016 127.818 31.9392 127.013 31.5431C126.994 31.6948 127.071 31.7201 127.129 31.7538C128.274 32.3185 129.428 32.8832 130.573 33.4479C130.699 33.5069 130.815 33.5069 130.941 33.4732C130.931 33.7008 131.164 33.7261 131.31 33.8019C133.036 34.6279 134.782 35.4287 136.499 36.2715C138.545 37.2745 140.631 38.2185 142.716 39.1625C144.375 39.9127 146.072 40.5954 147.75 41.3203C148.225 41.531 148.681 41.8175 149.283 41.9187C149.098 41.6995 148.885 41.6153 148.672 41.5225C147.595 41.059 146.499 40.6038 145.432 40.1234C143.259 39.1457 141.087 38.168 138.933 37.1734C136.867 36.2209 134.831 35.2264 132.774 34.2739C132.173 33.9958 131.63 33.6249 130.941 33.4985L130.931 33.4901ZM47.7694 11.0278C47.556 10.6064 47.2165 10.2777 46.8091 9.99113C47.0904 10.362 47.3135 10.775 47.779 11.0194C47.75 11.1796 47.8663 11.2807 47.973 11.3734C48.5938 11.9466 49.1661 12.5534 49.748 13.1603C51.3484 14.8207 53.104 16.3632 54.879 17.8887C57.5172 20.1645 60.2427 22.3643 63.104 24.4378C63.5017 24.7243 63.8315 25.1205 64.4134 25.2806C64.3552 24.9266 64.0739 24.7833 63.8412 24.6148C62.008 23.3336 60.2912 21.9345 58.5453 20.5606C56.586 19.0097 54.6656 17.4167 52.8421 15.7394C51.5036 14.5089 50.136 13.2951 48.8848 11.9971C48.555 11.6516 48.3028 11.2217 47.779 11.0278H47.7694ZM129.962 30.2029C129.428 29.9416 128.924 29.6382 128.342 29.4696C128.866 29.7478 129.312 30.1608 129.981 30.1945C130 30.3631 130.156 30.4221 130.291 30.4895C131.378 31.0289 132.425 31.6189 133.521 32.1499C135.849 33.2625 138.206 34.3161 140.485 35.4961C141.572 36.0608 142.784 36.4232 143.87 36.9711C145.093 37.5779 146.373 38.1005 147.614 38.6737C148.187 38.935 148.904 39.0024 149.195 39.6935C149.234 39.5165 149.147 39.2805 149.438 39.4575C149.506 39.4912 149.593 39.4997 149.661 39.525C149.768 39.5671 149.903 39.6851 149.991 39.5502C150.078 39.407 149.923 39.3311 149.787 39.2721C149.7 39.2384 149.612 39.1962 149.535 39.1625C147.876 38.4545 146.208 37.7634 144.569 37.0301C141.155 35.5045 137.77 33.9199 134.404 32.3101C132.93 31.6021 131.446 30.9109 129.962 30.2113V30.2029ZM157.294 37.0807C157.217 36.8615 156.945 36.8531 156.8 36.7098C156.625 36.5749 156.46 36.4232 156.266 36.3052C154.811 35.3697 153.327 34.4678 151.901 33.4985C150.117 32.2932 148.332 31.0964 146.499 29.9416C144.452 28.6521 142.551 27.2023 140.582 25.8285C139.098 24.7918 137.653 23.696 136.198 22.634C136.024 22.5076 135.82 22.4486 135.626 22.3727C135.296 22.2463 134.879 22.0609 134.753 21.808C134.627 21.5552 134.481 21.4962 134.239 21.4287C134.093 21.3866 133.958 21.2939 133.832 21.2096C132.357 20.1982 130.98 19.094 129.593 17.9983C129.447 17.8803 129.331 17.737 129.079 17.6949C130.883 20.0127 156.644 37.8814 158.4 38.0415C158.322 37.8982 158.148 37.8814 158.031 37.7971C157.76 37.5864 157.372 37.4599 157.304 37.0891L157.294 37.0807ZM16.2756 8.39812C16.1786 8.92912 16.6442 9.17355 16.9836 9.43484C17.4977 9.82255 17.9439 10.2777 18.3707 10.7076C19.1563 11.4998 20.0777 12.1657 20.8634 12.9496C21.2029 13.2867 21.6975 13.5311 22.0079 13.8683C22.5511 14.4499 23.2494 14.8629 23.7829 15.4529C24.3163 16.0429 25.0729 16.4812 25.6258 17.0796C26.2853 17.796 27.1583 18.3354 27.8663 19.0266C28.5841 19.7346 29.457 20.3246 30.2232 20.9989C30.8634 21.5636 31.5424 22.103 32.2504 22.6172C32.7839 23.0049 33.2591 23.519 33.7829 23.932C34.908 24.817 35.9168 25.8032 37.0419 26.6966C38.0506 27.5058 39.1078 28.2896 40.0487 29.1662C40.427 29.5202 40.9119 29.7225 41.2805 30.0849C41.814 30.6244 42.4735 31.0626 43.0846 31.5431C43.0943 31.5515 43.1137 31.5599 43.1234 31.5599C43.2398 31.5936 43.3562 31.7032 43.4725 31.5852C43.6083 31.4504 43.424 31.3661 43.3465 31.3239C42.8809 31.0289 42.5511 30.6159 42.1243 30.2872C40.8828 29.3516 39.7189 28.3402 38.5065 27.3793C37.3911 26.4859 36.295 25.5672 35.2184 24.64C33.7732 23.3926 32.2601 22.2042 30.844 20.9315C29.942 20.1223 28.9623 19.3722 28.0506 18.5714C26.3338 17.0712 24.6364 15.554 22.939 14.0453C21.9982 13.2109 20.9701 12.4438 20.068 11.5757C19.2436 10.775 18.2446 10.126 17.5462 9.22412C17.2358 8.81955 16.8091 8.54983 16.295 8.38126L16.2756 8.39812ZM97.5852 29.1409C97.4979 28.9723 97.4203 28.9302 97.3427 28.8796C96.4406 28.2896 95.4222 27.8598 94.4426 27.3878C90.6792 25.5588 86.9741 23.6539 83.2786 21.7153C79.0303 19.4902 74.8305 17.1976 70.5919 14.9471C68.2834 13.725 65.975 12.5113 63.6472 11.306C61.6976 10.2946 59.748 9.28312 57.7888 8.29698C57.2941 8.04412 56.8091 7.75755 56.2175 7.6564C56.6539 7.9514 57.1001 8.21269 57.5754 8.45712C60.5143 9.94898 63.4629 11.4156 66.3824 12.9327C69.0012 14.2981 71.6006 15.6973 74.1806 17.1133C78.943 19.7346 83.7636 22.2632 88.623 24.7328C90.9217 25.8959 93.2108 27.0759 95.5192 28.2138C96.1593 28.5341 96.7898 28.8881 97.5754 29.1409H97.5852ZM155.927 18.9507C160.582 21.1 165.131 23.401 169.826 25.4745C169.865 25.4155 169.903 25.348 169.942 25.289C165.277 23.165 160.67 20.9483 155.936 18.9507H155.927ZM136.654 35.0325C140.476 36.9711 144.384 38.7495 148.419 40.3257C144.501 38.5641 140.602 36.7519 136.654 35.0325ZM189.37 27.8429C189.37 27.5816 189.312 27.5058 189.205 27.4299C188.196 26.7135 187.207 25.9802 186.189 25.2806C184.763 24.2945 183.366 23.2662 182.047 22.1705C181.843 22.0019 181.688 21.7575 181.31 21.8839C183.754 24.0922 186.732 25.7273 189.37 27.8513V27.8429ZM74.6074 33.4564C74.6074 33.4564 74.7044 33.4226 74.7238 33.3974C74.7723 33.3299 74.7626 33.2541 74.6947 33.2119C74.5104 33.0855 74.3843 32.9001 74.1321 32.8326C73.5793 32.6894 73.4338 31.9814 72.7257 32.0319C72.7257 32.0319 72.7063 32.0151 72.6966 31.9982C72.4251 31.3829 71.6588 31.2481 71.1739 30.8351C70.8441 30.5485 70.3979 30.3715 70.0778 30.0765C69.9226 29.9248 69.7674 29.8911 69.6705 29.9838C69.5444 30.1018 69.7383 30.1861 69.845 30.2619C70.427 30.6665 71.009 31.0795 71.6006 31.4756C72.493 32.0741 73.3853 32.6725 74.2776 33.2625C74.3746 33.3299 74.491 33.3889 74.5977 33.4479L74.6074 33.4564ZM181.911 20.1392C184.161 22.339 186.868 24.0585 189.554 25.8032C187.052 23.873 184.394 22.0946 181.911 20.1392ZM209.496 22.0272C210.573 22.4739 211.727 22.7099 212.833 23.0386C212.939 23.0723 213.114 23.1398 213.114 23.165C213.017 23.5443 213.366 23.401 213.521 23.4095C214.113 23.4348 214.685 23.5106 215.248 23.6455C215.568 23.7213 215.888 23.873 216.247 23.814C214.026 23.106 211.775 22.516 209.486 22.0272H209.496ZM67.0904 31.6695C69.2049 32.6978 71.3096 33.7514 73.5793 34.5268C71.4454 33.5238 69.2631 32.6135 67.0904 31.6695ZM44.0739 31.9224C44.0739 31.9224 44.0157 31.9814 43.9866 32.0066C44.4425 32.2595 44.5783 32.7399 44.9953 33.0181C45.49 33.3552 46.0817 33.6081 46.4308 34.1054C46.489 34.1981 46.6442 34.3667 46.8091 34.2065C46.9449 34.0717 46.7509 33.9874 46.6636 33.9115C46.2175 33.5659 45.781 33.2119 45.3542 32.8495C44.9565 32.5124 44.5104 32.2174 44.0836 31.9055L44.0739 31.9224ZM184.288 27.4215C184.249 27.4636 184.2 27.5142 184.161 27.5563C185.5 28.4919 186.829 29.4275 188.167 30.3546C188.196 30.3209 188.225 30.2956 188.255 30.2619C186.994 29.2505 185.655 28.3233 184.297 27.4215H184.288ZM148.526 34.9398C148.371 34.4762 146.383 33.2035 145.956 33.2372C146.829 33.8104 147.673 34.3751 148.526 34.9398ZM167.954 21.3697C168.866 21.6732 169.574 22.2295 170.456 22.5076C170.544 22.5329 170.611 22.5582 170.66 22.4992C170.757 22.3727 170.592 22.3812 170.524 22.3475C169.865 21.9092 169.06 21.6985 168.352 21.3276C168.235 21.2686 168.119 21.2349 167.944 21.3866L167.954 21.3697ZM24.4618 16.6834C25.1117 17.4589 25.907 18.0994 26.78 18.681C26.0816 17.9562 25.3348 17.265 24.4618 16.6834ZM161.058 39.7357C160.902 39.5165 160.67 39.4154 160.476 39.289C159.942 38.9434 159.399 38.6062 158.866 38.2607C158.778 38.2017 158.73 38.0162 158.584 38.1595C158.449 38.2944 158.633 38.345 158.73 38.404C159.36 38.817 160 39.23 160.631 39.643C160.738 39.7104 160.844 39.82 161.067 39.7441L161.058 39.7357ZM208.322 18.9507C208.322 18.9507 208.293 19.0182 208.284 19.0519C209.545 19.3974 210.806 19.7346 212.066 20.0802C212.086 20.038 212.096 19.9959 212.115 19.9453C210.854 19.6166 209.593 19.2794 208.322 18.9507ZM220.34 22.1957C219.292 21.8249 218.313 21.6142 217.343 21.3866C217.731 21.631 219.855 22.2042 220.34 22.1957ZM151.446 39.5755C151.3 39.4407 151.261 39.407 151.213 39.3648C150.932 39.112 150.408 39.23 150.223 38.8254C150.175 38.7242 149.991 38.8254 149.884 38.876C149.777 38.9181 149.845 39.0108 149.903 39.0361C150.359 39.2215 150.757 39.5418 151.446 39.5671V39.5755ZM184.569 32.0909C185.015 32.4028 185.519 32.6135 186.033 32.8074C186.101 32.8326 186.189 32.8748 186.247 32.8074C186.315 32.7231 186.247 32.6472 186.16 32.6051C185.665 32.3606 185.131 32.2174 184.579 32.0994L184.569 32.0909ZM142.231 32.8242C141.882 32.4786 141.446 32.2258 140.999 31.9898C140.902 31.9392 140.815 31.8044 140.67 31.9055C140.641 31.9308 140.602 31.9814 140.611 32.0066C140.66 32.1246 140.776 32.1836 140.912 32.1584C141.135 32.1162 141.281 32.2595 141.329 32.3691C141.494 32.7484 141.882 32.7484 142.231 32.8242ZM150.582 40.1487C151.145 40.5532 151.785 40.8145 152.483 40.9578C151.921 40.5532 151.184 40.4605 150.582 40.1487ZM167.149 48.7121C166.615 48.2233 166.004 47.8103 165.296 47.5068C165.82 48.0041 166.518 48.316 167.149 48.7121ZM183.9 31.8212C183.434 31.5346 182.939 31.3071 182.386 31.2312C182.862 31.4925 183.298 31.8296 183.9 31.8212ZM54.3164 6.62811C54.3164 6.62811 54.2582 6.69554 54.2291 6.72926C54.7917 6.99897 55.3542 7.27711 55.9071 7.54683C55.9362 7.50469 55.9556 7.47097 55.9847 7.42883C55.4318 7.15911 54.8693 6.8894 54.3164 6.61968V6.62811ZM183.967 31.0964C183.793 30.8182 183.482 30.7508 183.25 30.5991C183.162 30.5401 183.027 30.4979 182.949 30.5991C182.871 30.7086 182.959 30.8351 183.065 30.8772C183.327 30.9868 183.589 31.1216 183.967 31.1048V31.0964ZM77.9634 35.5129C77.7112 35.1589 77.362 34.9482 77.0129 34.9482C77.2844 35.1927 77.5366 35.4202 77.9634 35.5129ZM180.301 8.97969C180.815 9.13141 181.64 9.16512 181.969 9.04712C181.63 8.92912 180.932 8.89541 180.301 8.97969ZM95.2573 11.07C94.8014 10.6401 94.4426 10.4631 94.074 10.4884C94.462 10.716 94.8208 10.9436 95.2573 11.07ZM90.0682 24.227C89.6608 23.9489 89.234 23.7129 88.7297 23.5865C89.1273 23.8815 89.5832 24.0753 90.0682 24.227ZM189.787 10.8171C189.787 10.8171 189.816 10.7328 189.826 10.6907C189.341 10.5727 188.856 10.4547 188.361 10.3367C188.352 10.3788 188.332 10.4126 188.322 10.4547C188.778 10.6654 189.283 10.716 189.777 10.8171H189.787ZM137.857 33.5069C138.022 33.8104 138.439 33.7345 138.642 33.9452C138.642 33.9452 138.73 33.9199 138.749 33.8946C138.827 33.8188 138.769 33.7766 138.701 33.7345C138.458 33.5828 138.206 33.4564 137.857 33.5069ZM215.073 20.8219C215.558 20.9315 215.995 21.2012 216.518 21.1675C216.053 20.982 215.607 20.7713 215.073 20.8219ZM130.922 21.0747C130.602 20.805 130.359 20.4595 129.913 20.3162C130.165 20.6449 130.534 20.8809 130.922 21.0747ZM132.115 22.0187C132.26 22.3475 132.6 22.4823 132.93 22.634C132.726 22.3643 132.454 22.162 132.115 22.0187ZM140.194 28.2896C140.039 27.9693 139.603 27.9525 139.38 27.7081C139.525 28.0368 139.845 28.1801 140.194 28.2896ZM92.1535 17.2397C92.2505 17.501 92.4542 17.5937 92.6676 17.6612C92.7258 17.678 92.7937 17.6106 92.7743 17.5516C92.7258 17.3324 92.4736 17.3324 92.3087 17.2482C92.2893 17.2397 92.2505 17.2482 92.1535 17.2482V17.2397ZM54.2679 25.466C54.0448 25.1963 53.7441 25.0362 53.3465 24.994C53.6471 25.1542 53.9575 25.3059 54.2679 25.466ZM148.604 38.4882C148.836 38.5978 149.04 38.6821 149.254 38.7832C149.263 38.3787 149.147 38.3197 148.604 38.4882ZM129.418 29.4106C129.186 29.2168 128.953 29.0398 128.633 29.0398C128.914 29.1493 129.069 29.4359 129.418 29.4106ZM76.2951 11.8201C76.5376 11.9887 76.7995 12.1657 77.0613 12.3511C76.7704 12.2078 76.6346 11.9128 76.2951 11.8201ZM51.0477 23.8056C50.6016 23.401 50.5434 23.3673 50.0778 23.3168C50.4561 23.5106 50.747 23.6539 51.0477 23.8056ZM24.103 8.46555C23.8896 8.22112 23.6277 8.04412 23.2203 7.90926C23.4919 8.20426 23.7732 8.3644 24.103 8.46555ZM75.975 11.4998C75.7616 11.3313 75.5482 11.1543 75.3349 10.9857C75.4222 11.2723 75.6161 11.4577 75.975 11.4998ZM87.0032 22.6846C87.2553 22.87 87.4978 23.0639 87.8373 23.1145C87.6045 22.9037 87.3135 22.7773 87.0032 22.6846ZM44.1224 20.1813C44.1224 20.1813 44.1612 20.1223 44.1806 20.097C43.909 19.9537 43.6374 19.8105 43.3658 19.6672C43.3465 19.6925 43.3271 19.7177 43.3077 19.743C43.5792 19.8863 43.8508 20.038 44.1127 20.1813H44.1224ZM146.189 14.1886C146.47 14.3066 146.751 14.433 147.032 14.551C146.819 14.3234 146.538 14.2054 146.189 14.1886Z" fill="white"/>
</svg>
